<svg version="1.1" id="Layer_1" xmlns="http://www.w3.org/2000/svg" viewBox="0 0 294.825 258.982" xml:space="preserve"><style>@media (prefers-color-scheme:dark){path#outer{fill:#fff}path#inner{fill:#999}}</style><path fill="#8080F2" id="inner" d="m97.021 99.016 48.432-27.962c1.212-.7 2.706-.7 3.918 0l48.433 27.962a3.92 3.92 0 0 1 1.959 3.393v55.924a3.924 3.924 0 0 1-1.959 3.394l-48.433 27.962c-1.212.7-2.706.7-3.918 0l-48.432-27.962a3.92 3.92 0 0 1-1.959-3.394v-55.924a3.922 3.922 0 0 1 1.959-3.393"/><path fill="#4B32C3" id="outer" d="M273.336 124.488 215.469 23.816c-2.102-3.64-5.985-6.325-10.188-6.325H89.545c-4.204 0-8.088 2.685-10.19 6.325l-57.867 100.45c-2.102 3.641-2.102 8.236 0 11.877l57.867 99.847c2.102 3.64 5.986 5.501 10.19 5.501H205.28c4.203 0 8.087-1.805 10.188-5.446l57.867-100.01c2.104-3.639 2.104-7.907.001-11.547m-47.917 48.41c0 1.48-.891 2.849-2.174 3.59l-73.71 42.527a4.194 4.194 0 0 1-4.17 0l-73.767-42.527c-1.282-.741-2.179-2.109-2.179-3.59V87.843c0-1.481.884-2.849 2.167-3.59l73.707-42.527a4.185 4.185 0 0 1 4.168 0l73.772 42.527c1.283.741 2.186 2.109 2.186 3.59v85.055z"/></svg>