<?xml version="1.0"?>
<svg width="167pt" height="422pt" viewBox="0.00 0.00 167.00 422.00" xmlns="http://www.w3.org/2000/svg" xmlns:xlink="http://www.w3.org/1999/xlink">
<g id="graph1" class="graph" transform="scale(1 1) rotate(0) translate(4 418)">
<title>_anonymous_0</title>

<g id="node1" class="node"><title>initial</title>
<ellipse fill="black" stroke="black" cx="74" cy="-405" rx="9" ry="9"></ellipse>
</g>

<g id="node3" class="node"><title>s1_1</title>
<polygon fill="white" stroke="white" points="123.479,-359.602 24.5211,-359.602 12.5211,-347.602 12.5211,-330.398 24.5211,-318.398 123.479,-318.398 135.479,-330.398 135.479,-347.602 123.479,-359.602"></polygon>
<path fill="white" stroke="white" d="M24.5211,-359.602C18.5211,-359.602 12.5211,-353.602 12.5211,-347.602"></path>
<path fill="white" stroke="white" d="M12.5211,-330.398C12.5211,-324.398 18.5211,-318.398 24.5211,-318.398"></path>
<path fill="white" stroke="white" d="M123.479,-318.398C129.479,-318.398 135.479,-324.398 135.479,-330.398"></path>
<path fill="white" stroke="white" d="M135.479,-347.602C135.479,-353.602 129.479,-359.602 123.479,-359.602"></path>
<polyline fill="none" stroke="black" points="123.479,-359.602 24.5211,-359.602 "></polyline>
<path fill="none" stroke="black" d="M24.5211,-359.602C18.5211,-359.602 12.5211,-353.602 12.5211,-347.602"></path>
<polyline fill="none" stroke="black" points="12.5211,-347.602 12.5211,-330.398 "></polyline>
<path fill="none" stroke="black" d="M12.5211,-330.398C12.5211,-324.398 18.5211,-318.398 24.5211,-318.398"></path>
<polyline fill="none" stroke="black" points="24.5211,-318.398 123.479,-318.398 "></polyline>
<path fill="none" stroke="black" d="M123.479,-318.398C129.479,-318.398 135.479,-324.398 135.479,-330.398"></path>
<polyline fill="none" stroke="black" points="135.479,-330.398 135.479,-347.602 "></polyline>
<path fill="none" stroke="black" d="M135.479,-347.602C135.479,-353.602 129.479,-359.602 123.479,-359.602"></path>
<text text-anchor="middle" x="74" y="-343.2" font-family="Times,serif" font-size="14.00">Program</text>
<text text-anchor="middle" x="74" y="-326.4" font-family="Times,serif" font-size="14.00">DoWhileStatement</text>
</g>

<g id="edge2" class="edge"><title>initial-&gt;s1_1</title>
<path fill="none" stroke="black" d="M74,-395.894C74,-389.274 74,-379.485 74,-369.94"></path>
<polygon fill="black" stroke="black" points="77.5001,-369.842 74,-359.842 70.5001,-369.842 77.5001,-369.842"></polygon>
</g>

<g id="node2" class="node"><title>final</title>
<ellipse fill="black" stroke="black" cx="74" cy="-13" rx="9" ry="9"></ellipse>
<ellipse fill="none" stroke="black" cx="74" cy="-13" rx="13" ry="13"></ellipse>
</g>

<g id="node4" class="node"><title>s1_2</title>
<polygon fill="white" stroke="white" points="129.147,-282.401 18.8526,-282.401 6.85263,-270.401 6.85263,-151.599 18.8526,-139.599 129.147,-139.599 141.147,-151.599 141.147,-270.401 129.147,-282.401"></polygon>
<path fill="white" stroke="white" d="M18.8526,-282.401C12.8526,-282.401 6.85263,-276.401 6.85263,-270.401"></path>
<path fill="white" stroke="white" d="M6.85263,-151.599C6.85263,-145.599 12.8526,-139.599 18.8526,-139.599"></path>
<path fill="white" stroke="white" d="M129.147,-139.599C135.147,-139.599 141.147,-145.599 141.147,-151.599"></path>
<path fill="white" stroke="white" d="M141.147,-270.401C141.147,-276.401 135.147,-282.401 129.147,-282.401"></path>
<polyline fill="none" stroke="black" points="129.147,-282.401 18.8526,-282.401 "></polyline>
<path fill="none" stroke="black" d="M18.8526,-282.401C12.8526,-282.401 6.85263,-276.401 6.85263,-270.401"></path>
<polyline fill="none" stroke="black" points="6.85263,-270.401 6.85263,-151.599 "></polyline>
<path fill="none" stroke="black" d="M6.85263,-151.599C6.85263,-145.599 12.8526,-139.599 18.8526,-139.599"></path>
<polyline fill="none" stroke="black" points="18.8526,-139.599 129.147,-139.599 "></polyline>
<path fill="none" stroke="black" d="M129.147,-139.599C135.147,-139.599 141.147,-145.599 141.147,-151.599"></path>
<polyline fill="none" stroke="black" points="141.147,-151.599 141.147,-270.401 "></polyline>
<path fill="none" stroke="black" d="M141.147,-270.401C141.147,-276.401 135.147,-282.401 129.147,-282.401"></path>
<text text-anchor="middle" x="74" y="-265.6" font-family="Times,serif" font-size="14.00">BlockStatement</text>
<text text-anchor="middle" x="74" y="-248.8" font-family="Times,serif" font-size="14.00">ExpressionStatement</text>
<text text-anchor="middle" x="74" y="-232" font-family="Times,serif" font-size="14.00">CallExpression</text>
<text text-anchor="middle" x="74" y="-215.2" font-family="Times,serif" font-size="14.00">Identifier (foo)</text>
<text text-anchor="middle" x="74" y="-198.4" font-family="Times,serif" font-size="14.00">ExpressionStatement</text>
<text text-anchor="middle" x="74" y="-181.6" font-family="Times,serif" font-size="14.00">CallExpression</text>
<text text-anchor="middle" x="74" y="-164.8" font-family="Times,serif" font-size="14.00">Identifier (bar)</text>
<text text-anchor="middle" x="74" y="-148" font-family="Times,serif" font-size="14.00">Identifier (a)</text>
</g>

<g id="edge3" class="edge"><title>s1_1-&gt;s1_2</title>
<path fill="none" stroke="black" d="M74,-318.313C74,-310.915 74,-301.974 74,-292.455"></path>
<polygon fill="black" stroke="black" points="77.5001,-292.368 74,-282.368 70.5001,-292.368 77.5001,-292.368"></polygon>
</g>

<g id="edge4" class="edge"><title>s1_2-&gt;s1_2</title>
<path fill="none" stroke="black" d="M141.337,-232.995C151.84,-229.707 159,-222.375 159,-211 159,-203.357 155.768,-197.54 150.461,-193.548"></path>
<polygon fill="black" stroke="black" points="151.849,-190.329 141.337,-189.005 148.729,-196.596 151.849,-190.329"></polygon>
</g>

<g id="node5" class="node"><title>s1_3</title>
<polygon fill="white" stroke="white" points="136.144,-103.602 11.8558,-103.602 -0.144212,-91.6019 -0.144212,-74.3981 11.8558,-62.3981 136.144,-62.3981 148.144,-74.3981 148.144,-91.6019 136.144,-103.602"></polygon>
<path fill="white" stroke="white" d="M11.8558,-103.602C5.85579,-103.602 -0.144212,-97.6019 -0.144212,-91.6019"></path>
<path fill="white" stroke="white" d="M-0.144212,-74.3981C-0.144212,-68.3981 5.85579,-62.3981 11.8558,-62.3981"></path>
<path fill="white" stroke="white" d="M136.144,-62.3981C142.144,-62.3981 148.144,-68.3981 148.144,-74.3981"></path>
<path fill="white" stroke="white" d="M148.144,-91.6019C148.144,-97.6019 142.144,-103.602 136.144,-103.602"></path>
<polyline fill="none" stroke="black" points="136.144,-103.602 11.8558,-103.602 "></polyline>
<path fill="none" stroke="black" d="M11.8558,-103.602C5.85579,-103.602 -0.144212,-97.6019 -0.144212,-91.6019"></path>
<polyline fill="none" stroke="black" points="-0.144212,-91.6019 -0.144212,-74.3981 "></polyline>
<path fill="none" stroke="black" d="M-0.144212,-74.3981C-0.144212,-68.3981 5.85579,-62.3981 11.8558,-62.3981"></path>
<polyline fill="none" stroke="black" points="11.8558,-62.3981 136.144,-62.3981 "></polyline>
<path fill="none" stroke="black" d="M136.144,-62.3981C142.144,-62.3981 148.144,-68.3981 148.144,-74.3981"></path>
<polyline fill="none" stroke="black" points="148.144,-74.3981 148.144,-91.6019 "></polyline>
<path fill="none" stroke="black" d="M148.144,-91.6019C148.144,-97.6019 142.144,-103.602 136.144,-103.602"></path>
<text text-anchor="middle" x="74" y="-87.2" font-family="Times,serif" font-size="14.00">DoWhileStatement:exit</text>
<text text-anchor="middle" x="74" y="-70.4" font-family="Times,serif" font-size="14.00">Program:exit</text>
</g>

<g id="edge5" class="edge"><title>s1_2-&gt;s1_3</title>
<path fill="none" stroke="black" d="M74,-139.632C74,-130.564 74,-121.701 74,-113.811"></path>
<polygon fill="black" stroke="black" points="77.5001,-113.726 74,-103.726 70.5001,-113.726 77.5001,-113.726"></polygon>
</g>

<g id="edge6" class="edge"><title>s1_3-&gt;final</title>
<path fill="none" stroke="black" d="M74,-62.3316C74,-54.2587 74,-44.8663 74,-36.5198"></path>
<polygon fill="black" stroke="black" points="77.5001,-36.3487 74,-26.3488 70.5001,-36.3488 77.5001,-36.3487"></polygon>
</g>
</g>
</svg>