<?xml version="1.0"?>
<svg width="142pt" height="234pt" viewBox="0.00 0.00 142.00 234.00" xmlns="http://www.w3.org/2000/svg" xmlns:xlink="http://www.w3.org/1999/xlink">
<g id="graph1" class="graph" transform="scale(1 1) rotate(0) translate(4 230)">
<title>_anonymous_0</title>

<g id="node1" class="node"><title>initial</title>
<ellipse fill="black" stroke="black" cx="67" cy="-217" rx="9" ry="9"></ellipse>
</g>

<g id="node3" class="node"><title>s1_1</title>
<polygon fill="white" stroke="white" points="122.147,-171.3 11.8526,-171.3 -0.147372,-159.3 -0.147372,-74.6998 11.8526,-62.6998 122.147,-62.6998 134.147,-74.6998 134.147,-159.3 122.147,-171.3"></polygon>
<path fill="white" stroke="white" d="M11.8526,-171.3C5.85263,-171.3 -0.147372,-165.3 -0.147372,-159.3"></path>
<path fill="white" stroke="white" d="M-0.147372,-74.6998C-0.147372,-68.6998 5.85263,-62.6998 11.8526,-62.6998"></path>
<path fill="white" stroke="white" d="M122.147,-62.6998C128.147,-62.6998 134.147,-68.6998 134.147,-74.6998"></path>
<path fill="white" stroke="white" d="M134.147,-159.3C134.147,-165.3 128.147,-171.3 122.147,-171.3"></path>
<polyline fill="none" stroke="black" points="122.147,-171.3 11.8526,-171.3 "></polyline>
<path fill="none" stroke="black" d="M11.8526,-171.3C5.85263,-171.3 -0.147372,-165.3 -0.147372,-159.3"></path>
<polyline fill="none" stroke="black" points="-0.147372,-159.3 -0.147372,-74.6998 "></polyline>
<path fill="none" stroke="black" d="M-0.147372,-74.6998C-0.147372,-68.6998 5.85263,-62.6998 11.8526,-62.6998"></path>
<polyline fill="none" stroke="black" points="11.8526,-62.6998 122.147,-62.6998 "></polyline>
<path fill="none" stroke="black" d="M122.147,-62.6998C128.147,-62.6998 134.147,-68.6998 134.147,-74.6998"></path>
<polyline fill="none" stroke="black" points="134.147,-74.6998 134.147,-159.3 "></polyline>
<path fill="none" stroke="black" d="M134.147,-159.3C134.147,-165.3 128.147,-171.3 122.147,-171.3"></path>
<text text-anchor="middle" x="67" y="-154.8" font-family="Times,serif" font-size="14.00">Program</text>
<text text-anchor="middle" x="67" y="-138" font-family="Times,serif" font-size="14.00">FunctionDeclaration</text>
<text text-anchor="middle" x="67" y="-121.2" font-family="Times,serif" font-size="14.00">ExpressionStatement</text>
<text text-anchor="middle" x="67" y="-104.4" font-family="Times,serif" font-size="14.00">CallExpression</text>
<text text-anchor="middle" x="67" y="-87.6" font-family="Times,serif" font-size="14.00">Identifier (foo)</text>
<text text-anchor="middle" x="67" y="-70.8" font-family="Times,serif" font-size="14.00">Literal (false)</text>
</g>

<g id="edge2" class="edge"><title>initial-&gt;s1_1</title>
<path fill="none" stroke="black" d="M67,-207.98C67,-201.675 67,-192.238 67,-181.813"></path>
<polygon fill="black" stroke="black" points="70.5001,-181.586 67,-171.586 63.5001,-181.586 70.5001,-181.586"></polygon>
</g>

<g id="node2" class="node"><title>final</title>
<ellipse fill="black" stroke="black" cx="67" cy="-13" rx="9" ry="9"></ellipse>
<ellipse fill="none" stroke="black" cx="67" cy="-13" rx="13" ry="13"></ellipse>
</g>

<g id="edge3" class="edge"><title>s1_1-&gt;final</title>
<path fill="none" stroke="black" d="M67,-62.6102C67,-53.3058 67,-44.1078 67,-36.2584"></path>
<polygon fill="black" stroke="black" points="70.5001,-36.1896 67,-26.1896 63.5001,-36.1897 70.5001,-36.1896"></polygon>
</g>
</g>
</svg>