<?xml version="1.0"?>
<svg width="294pt" height="372pt" viewBox="0.00 0.00 294.00 372.00" xmlns="http://www.w3.org/2000/svg" xmlns:xlink="http://www.w3.org/1999/xlink">
<g id="graph1" class="graph" transform="scale(1 1) rotate(0) translate(4 368)">
<title>_anonymous_0</title>

<g id="node1" class="node"><title>initial</title>
<ellipse fill="black" stroke="black" cx="143" cy="-355" rx="9" ry="9"></ellipse>
</g>

<g id="node3" class="node"><title>s1_1</title>
<polygon fill="white" stroke="white" points="174.339,-310.401 111.661,-310.401 99.6614,-298.401 99.6614,-263.599 111.661,-251.599 174.339,-251.599 186.339,-263.599 186.339,-298.401 174.339,-310.401"></polygon>
<path fill="white" stroke="white" d="M111.661,-310.401C105.661,-310.401 99.6614,-304.401 99.6614,-298.401"></path>
<path fill="white" stroke="white" d="M99.6614,-263.599C99.6614,-257.599 105.661,-251.599 111.661,-251.599"></path>
<path fill="white" stroke="white" d="M174.339,-251.599C180.339,-251.599 186.339,-257.599 186.339,-263.599"></path>
<path fill="white" stroke="white" d="M186.339,-298.401C186.339,-304.401 180.339,-310.401 174.339,-310.401"></path>
<polyline fill="none" stroke="black" points="174.339,-310.401 111.661,-310.401 "></polyline>
<path fill="none" stroke="black" d="M111.661,-310.401C105.661,-310.401 99.6614,-304.401 99.6614,-298.401"></path>
<polyline fill="none" stroke="black" points="99.6614,-298.401 99.6614,-263.599 "></polyline>
<path fill="none" stroke="black" d="M99.6614,-263.599C99.6614,-257.599 105.661,-251.599 111.661,-251.599"></path>
<polyline fill="none" stroke="black" points="111.661,-251.599 174.339,-251.599 "></polyline>
<path fill="none" stroke="black" d="M174.339,-251.599C180.339,-251.599 186.339,-257.599 186.339,-263.599"></path>
<polyline fill="none" stroke="black" points="186.339,-263.599 186.339,-298.401 "></polyline>
<path fill="none" stroke="black" d="M186.339,-298.401C186.339,-304.401 180.339,-310.401 174.339,-310.401"></path>
<text text-anchor="middle" x="143" y="-293.6" font-family="Times,serif" font-size="14.00">Program</text>
<text text-anchor="middle" x="143" y="-276.8" font-family="Times,serif" font-size="14.00">IfStatement</text>
<text text-anchor="middle" x="143" y="-260" font-family="Times,serif" font-size="14.00">Identifier (a)</text>
</g>

<g id="edge2" class="edge"><title>initial-&gt;s1_1</title>
<path fill="none" stroke="black" d="M143,-345.741C143,-339.393 143,-330.126 143,-320.615"></path>
<polygon fill="black" stroke="black" points="146.5,-320.324 143,-310.324 139.5,-320.324 146.5,-320.324"></polygon>
</g>

<g id="node2" class="node"><title>final</title>
<ellipse fill="black" stroke="black" cx="143" cy="-13" rx="9" ry="9"></ellipse>
<ellipse fill="none" stroke="black" cx="143" cy="-13" rx="13" ry="13"></ellipse>
</g>

<g id="node4" class="node"><title>s1_2</title>
<polygon fill="white" stroke="white" points="122.147,-215.7 11.8526,-215.7 -0.147372,-203.7 -0.147372,-152.3 11.8526,-140.3 122.147,-140.3 134.147,-152.3 134.147,-203.7 122.147,-215.7"></polygon>
<path fill="white" stroke="white" d="M11.8526,-215.7C5.85263,-215.7 -0.147372,-209.7 -0.147372,-203.7"></path>
<path fill="white" stroke="white" d="M-0.147372,-152.3C-0.147372,-146.3 5.85263,-140.3 11.8526,-140.3"></path>
<path fill="white" stroke="white" d="M122.147,-140.3C128.147,-140.3 134.147,-146.3 134.147,-152.3"></path>
<path fill="white" stroke="white" d="M134.147,-203.7C134.147,-209.7 128.147,-215.7 122.147,-215.7"></path>
<polyline fill="none" stroke="black" points="122.147,-215.7 11.8526,-215.7 "></polyline>
<path fill="none" stroke="black" d="M11.8526,-215.7C5.85263,-215.7 -0.147372,-209.7 -0.147372,-203.7"></path>
<polyline fill="none" stroke="black" points="-0.147372,-203.7 -0.147372,-152.3 "></polyline>
<path fill="none" stroke="black" d="M-0.147372,-152.3C-0.147372,-146.3 5.85263,-140.3 11.8526,-140.3"></path>
<polyline fill="none" stroke="black" points="11.8526,-140.3 122.147,-140.3 "></polyline>
<path fill="none" stroke="black" d="M122.147,-140.3C128.147,-140.3 134.147,-146.3 134.147,-152.3"></path>
<polyline fill="none" stroke="black" points="134.147,-152.3 134.147,-203.7 "></polyline>
<path fill="none" stroke="black" d="M134.147,-203.7C134.147,-209.7 128.147,-215.7 122.147,-215.7"></path>
<text text-anchor="middle" x="67" y="-199" font-family="Times,serif" font-size="14.00">BlockStatement</text>
<text text-anchor="middle" x="67" y="-182.2" font-family="Times,serif" font-size="14.00">ExpressionStatement</text>
<text text-anchor="middle" x="67" y="-165.4" font-family="Times,serif" font-size="14.00">CallExpression</text>
<text text-anchor="middle" x="67" y="-148.6" font-family="Times,serif" font-size="14.00">Identifier (foo)</text>
</g>

<g id="edge3" class="edge"><title>s1_1-&gt;s1_2</title>
<path fill="none" stroke="black" d="M121.628,-251.597C115.176,-243.023 107.927,-233.39 100.871,-224.013"></path>
<polygon fill="black" stroke="black" points="103.554,-221.757 94.7444,-215.871 97.9604,-225.966 103.554,-221.757"></polygon>
</g>

<g id="node6" class="node"><title>s1_3</title>
<polygon fill="white" stroke="white" points="274.147,-215.7 163.853,-215.7 151.853,-203.7 151.853,-152.3 163.853,-140.3 274.147,-140.3 286.147,-152.3 286.147,-203.7 274.147,-215.7"></polygon>
<path fill="white" stroke="white" d="M163.853,-215.7C157.853,-215.7 151.853,-209.7 151.853,-203.7"></path>
<path fill="white" stroke="white" d="M151.853,-152.3C151.853,-146.3 157.853,-140.3 163.853,-140.3"></path>
<path fill="white" stroke="white" d="M274.147,-140.3C280.147,-140.3 286.147,-146.3 286.147,-152.3"></path>
<path fill="white" stroke="white" d="M286.147,-203.7C286.147,-209.7 280.147,-215.7 274.147,-215.7"></path>
<polyline fill="none" stroke="black" points="274.147,-215.7 163.853,-215.7 "></polyline>
<path fill="none" stroke="black" d="M163.853,-215.7C157.853,-215.7 151.853,-209.7 151.853,-203.7"></path>
<polyline fill="none" stroke="black" points="151.853,-203.7 151.853,-152.3 "></polyline>
<path fill="none" stroke="black" d="M151.853,-152.3C151.853,-146.3 157.853,-140.3 163.853,-140.3"></path>
<polyline fill="none" stroke="black" points="163.853,-140.3 274.147,-140.3 "></polyline>
<path fill="none" stroke="black" d="M274.147,-140.3C280.147,-140.3 286.147,-146.3 286.147,-152.3"></path>
<polyline fill="none" stroke="black" points="286.147,-152.3 286.147,-203.7 "></polyline>
<path fill="none" stroke="black" d="M286.147,-203.7C286.147,-209.7 280.147,-215.7 274.147,-215.7"></path>
<text text-anchor="middle" x="219" y="-199" font-family="Times,serif" font-size="14.00">BlockStatement</text>
<text text-anchor="middle" x="219" y="-182.2" font-family="Times,serif" font-size="14.00">ExpressionStatement</text>
<text text-anchor="middle" x="219" y="-165.4" font-family="Times,serif" font-size="14.00">CallExpression</text>
<text text-anchor="middle" x="219" y="-148.6" font-family="Times,serif" font-size="14.00">Identifier (bar)</text>
</g>

<g id="edge6" class="edge"><title>s1_1-&gt;s1_3</title>
<path fill="none" stroke="black" d="M164.372,-251.597C170.824,-243.023 178.073,-233.39 185.129,-224.013"></path>
<polygon fill="black" stroke="black" points="188.04,-225.966 191.256,-215.871 182.446,-221.757 188.04,-225.966"></polygon>
</g>

<g id="node5" class="node"><title>s1_4</title>
<polygon fill="white" stroke="white" points="184.147,-103.602 101.853,-103.602 89.8526,-91.6019 89.8526,-74.3981 101.853,-62.3981 184.147,-62.3981 196.147,-74.3981 196.147,-91.6019 184.147,-103.602"></polygon>
<path fill="white" stroke="white" d="M101.853,-103.602C95.8526,-103.602 89.8526,-97.6019 89.8526,-91.6019"></path>
<path fill="white" stroke="white" d="M89.8526,-74.3981C89.8526,-68.3981 95.8526,-62.3981 101.853,-62.3981"></path>
<path fill="white" stroke="white" d="M184.147,-62.3981C190.147,-62.3981 196.147,-68.3981 196.147,-74.3981"></path>
<path fill="white" stroke="white" d="M196.147,-91.6019C196.147,-97.6019 190.147,-103.602 184.147,-103.602"></path>
<polyline fill="none" stroke="black" points="184.147,-103.602 101.853,-103.602 "></polyline>
<path fill="none" stroke="black" d="M101.853,-103.602C95.8526,-103.602 89.8526,-97.6019 89.8526,-91.6019"></path>
<polyline fill="none" stroke="black" points="89.8526,-91.6019 89.8526,-74.3981 "></polyline>
<path fill="none" stroke="black" d="M89.8526,-74.3981C89.8526,-68.3981 95.8526,-62.3981 101.853,-62.3981"></path>
<polyline fill="none" stroke="black" points="101.853,-62.3981 184.147,-62.3981 "></polyline>
<path fill="none" stroke="black" d="M184.147,-62.3981C190.147,-62.3981 196.147,-68.3981 196.147,-74.3981"></path>
<polyline fill="none" stroke="black" points="196.147,-74.3981 196.147,-91.6019 "></polyline>
<path fill="none" stroke="black" d="M196.147,-91.6019C196.147,-97.6019 190.147,-103.602 184.147,-103.602"></path>
<text text-anchor="middle" x="143" y="-87.2" font-family="Times,serif" font-size="14.00">IfStatement:exit</text>
<text text-anchor="middle" x="143" y="-70.4" font-family="Times,serif" font-size="14.00">Program:exit</text>
</g>

<g id="edge4" class="edge"><title>s1_2-&gt;s1_4</title>
<path fill="none" stroke="black" d="M97.0372,-140.244C104.852,-130.681 113.137,-120.543 120.488,-111.547"></path>
<polygon fill="black" stroke="black" points="123.32,-113.613 126.938,-103.655 117.899,-109.184 123.32,-113.613"></polygon>
</g>

<g id="edge8" class="edge"><title>s1_4-&gt;final</title>
<path fill="none" stroke="black" d="M143,-62.3316C143,-54.2587 143,-44.8663 143,-36.5198"></path>
<polygon fill="black" stroke="black" points="146.5,-36.3487 143,-26.3488 139.5,-36.3488 146.5,-36.3487"></polygon>
</g>

<g id="edge7" class="edge"><title>s1_3-&gt;s1_4</title>
<path fill="none" stroke="black" d="M188.963,-140.244C181.148,-130.681 172.863,-120.543 165.512,-111.547"></path>
<polygon fill="black" stroke="black" points="168.101,-109.184 159.062,-103.655 162.68,-113.613 168.101,-109.184"></polygon>
</g>
</g>
</svg>