<?xml version="1.0"?>
<svg width="371pt" height="562pt" viewBox="0.00 0.00 371.00 562.00" xmlns="http://www.w3.org/2000/svg" xmlns:xlink="http://www.w3.org/1999/xlink">
<g id="graph1" class="graph" transform="scale(1 1) rotate(0) translate(4 558)">
<title>_anonymous_0</title>

<g id="node1" class="node"><title>initial</title>
<ellipse fill="black" stroke="black" cx="114" cy="-545" rx="9" ry="9"></ellipse>
</g>

<g id="node3" class="node"><title>s1_1</title>
<polygon fill="white" stroke="white" points="145.339,-500.401 82.6614,-500.401 70.6614,-488.401 70.6614,-453.599 82.6614,-441.599 145.339,-441.599 157.339,-453.599 157.339,-488.401 145.339,-500.401"></polygon>
<path fill="white" stroke="white" d="M82.6614,-500.401C76.6614,-500.401 70.6614,-494.401 70.6614,-488.401"></path>
<path fill="white" stroke="white" d="M70.6614,-453.599C70.6614,-447.599 76.6614,-441.599 82.6614,-441.599"></path>
<path fill="white" stroke="white" d="M145.339,-441.599C151.339,-441.599 157.339,-447.599 157.339,-453.599"></path>
<path fill="white" stroke="white" d="M157.339,-488.401C157.339,-494.401 151.339,-500.401 145.339,-500.401"></path>
<polyline fill="none" stroke="black" points="145.339,-500.401 82.6614,-500.401 "></polyline>
<path fill="none" stroke="black" d="M82.6614,-500.401C76.6614,-500.401 70.6614,-494.401 70.6614,-488.401"></path>
<polyline fill="none" stroke="black" points="70.6614,-488.401 70.6614,-453.599 "></polyline>
<path fill="none" stroke="black" d="M70.6614,-453.599C70.6614,-447.599 76.6614,-441.599 82.6614,-441.599"></path>
<polyline fill="none" stroke="black" points="82.6614,-441.599 145.339,-441.599 "></polyline>
<path fill="none" stroke="black" d="M145.339,-441.599C151.339,-441.599 157.339,-447.599 157.339,-453.599"></path>
<polyline fill="none" stroke="black" points="157.339,-453.599 157.339,-488.401 "></polyline>
<path fill="none" stroke="black" d="M157.339,-488.401C157.339,-494.401 151.339,-500.401 145.339,-500.401"></path>
<text text-anchor="middle" x="114" y="-483.6" font-family="Times,serif" font-size="14.00">Program</text>
<text text-anchor="middle" x="114" y="-466.8" font-family="Times,serif" font-size="14.00">IfStatement</text>
<text text-anchor="middle" x="114" y="-450" font-family="Times,serif" font-size="14.00">Identifier (a)</text>
</g>

<g id="edge2" class="edge"><title>initial-&gt;s1_1</title>
<path fill="none" stroke="black" d="M114,-535.741C114,-529.393 114,-520.126 114,-510.615"></path>
<polygon fill="black" stroke="black" points="117.5,-510.324 114,-500.324 110.5,-510.324 117.5,-510.324"></polygon>
</g>

<g id="node2" class="node"><title>final</title>
<ellipse fill="black" stroke="black" cx="181" cy="-13" rx="9" ry="9"></ellipse>
<ellipse fill="none" stroke="black" cx="181" cy="-13" rx="13" ry="13"></ellipse>
</g>

<g id="node4" class="node"><title>s1_2</title>
<polygon fill="white" stroke="white" points="122.147,-215.7 11.8526,-215.7 -0.147372,-203.7 -0.147372,-152.3 11.8526,-140.3 122.147,-140.3 134.147,-152.3 134.147,-203.7 122.147,-215.7"></polygon>
<path fill="white" stroke="white" d="M11.8526,-215.7C5.85263,-215.7 -0.147372,-209.7 -0.147372,-203.7"></path>
<path fill="white" stroke="white" d="M-0.147372,-152.3C-0.147372,-146.3 5.85263,-140.3 11.8526,-140.3"></path>
<path fill="white" stroke="white" d="M122.147,-140.3C128.147,-140.3 134.147,-146.3 134.147,-152.3"></path>
<path fill="white" stroke="white" d="M134.147,-203.7C134.147,-209.7 128.147,-215.7 122.147,-215.7"></path>
<polyline fill="none" stroke="black" points="122.147,-215.7 11.8526,-215.7 "></polyline>
<path fill="none" stroke="black" d="M11.8526,-215.7C5.85263,-215.7 -0.147372,-209.7 -0.147372,-203.7"></path>
<polyline fill="none" stroke="black" points="-0.147372,-203.7 -0.147372,-152.3 "></polyline>
<path fill="none" stroke="black" d="M-0.147372,-152.3C-0.147372,-146.3 5.85263,-140.3 11.8526,-140.3"></path>
<polyline fill="none" stroke="black" points="11.8526,-140.3 122.147,-140.3 "></polyline>
<path fill="none" stroke="black" d="M122.147,-140.3C128.147,-140.3 134.147,-146.3 134.147,-152.3"></path>
<polyline fill="none" stroke="black" points="134.147,-152.3 134.147,-203.7 "></polyline>
<path fill="none" stroke="black" d="M134.147,-203.7C134.147,-209.7 128.147,-215.7 122.147,-215.7"></path>
<text text-anchor="middle" x="67" y="-199" font-family="Times,serif" font-size="14.00">BlockStatement</text>
<text text-anchor="middle" x="67" y="-182.2" font-family="Times,serif" font-size="14.00">ExpressionStatement</text>
<text text-anchor="middle" x="67" y="-165.4" font-family="Times,serif" font-size="14.00">CallExpression</text>
<text text-anchor="middle" x="67" y="-148.6" font-family="Times,serif" font-size="14.00">Identifier (foo)</text>
</g>

<g id="edge3" class="edge"><title>s1_1-&gt;s1_2</title>
<path fill="none" stroke="black" d="M107.798,-441.544C101.706,-412.948 92.4152,-367.562 86,-328 80.4738,-293.921 75.5819,-255.241 72.1462,-225.832"></path>
<polygon fill="black" stroke="black" points="75.6165,-225.373 70.993,-215.84 68.6626,-226.175 75.6165,-225.373"></polygon>
</g>

<g id="node6" class="node"><title>s1_3</title>
<polygon fill="white" stroke="white" points="193.429,-405.602 130.571,-405.602 118.571,-393.602 118.571,-376.398 130.571,-364.398 193.429,-364.398 205.429,-376.398 205.429,-393.602 193.429,-405.602"></polygon>
<path fill="white" stroke="white" d="M130.571,-405.602C124.571,-405.602 118.571,-399.602 118.571,-393.602"></path>
<path fill="white" stroke="white" d="M118.571,-376.398C118.571,-370.398 124.571,-364.398 130.571,-364.398"></path>
<path fill="white" stroke="white" d="M193.429,-364.398C199.429,-364.398 205.429,-370.398 205.429,-376.398"></path>
<path fill="white" stroke="white" d="M205.429,-393.602C205.429,-399.602 199.429,-405.602 193.429,-405.602"></path>
<polyline fill="none" stroke="black" points="193.429,-405.602 130.571,-405.602 "></polyline>
<path fill="none" stroke="black" d="M130.571,-405.602C124.571,-405.602 118.571,-399.602 118.571,-393.602"></path>
<polyline fill="none" stroke="black" points="118.571,-393.602 118.571,-376.398 "></polyline>
<path fill="none" stroke="black" d="M118.571,-376.398C118.571,-370.398 124.571,-364.398 130.571,-364.398"></path>
<polyline fill="none" stroke="black" points="130.571,-364.398 193.429,-364.398 "></polyline>
<path fill="none" stroke="black" d="M193.429,-364.398C199.429,-364.398 205.429,-370.398 205.429,-376.398"></path>
<polyline fill="none" stroke="black" points="205.429,-376.398 205.429,-393.602 "></polyline>
<path fill="none" stroke="black" d="M205.429,-393.602C205.429,-399.602 199.429,-405.602 193.429,-405.602"></path>
<text text-anchor="middle" x="162" y="-389.2" font-family="Times,serif" font-size="14.00">IfStatement</text>
<text text-anchor="middle" x="162" y="-372.4" font-family="Times,serif" font-size="14.00">Identifier (b)</text>
</g>

<g id="edge6" class="edge"><title>s1_1-&gt;s1_3</title>
<path fill="none" stroke="black" d="M130.251,-441.561C135.257,-432.801 140.767,-423.158 145.771,-414.4"></path>
<polygon fill="black" stroke="black" points="148.839,-416.087 150.761,-405.668 142.761,-412.614 148.839,-416.087"></polygon>
</g>

<g id="node5" class="node"><title>s1_9</title>
<polygon fill="white" stroke="white" points="222.147,-103.602 139.853,-103.602 127.853,-91.6019 127.853,-74.3981 139.853,-62.3981 222.147,-62.3981 234.147,-74.3981 234.147,-91.6019 222.147,-103.602"></polygon>
<path fill="white" stroke="white" d="M139.853,-103.602C133.853,-103.602 127.853,-97.6019 127.853,-91.6019"></path>
<path fill="white" stroke="white" d="M127.853,-74.3981C127.853,-68.3981 133.853,-62.3981 139.853,-62.3981"></path>
<path fill="white" stroke="white" d="M222.147,-62.3981C228.147,-62.3981 234.147,-68.3981 234.147,-74.3981"></path>
<path fill="white" stroke="white" d="M234.147,-91.6019C234.147,-97.6019 228.147,-103.602 222.147,-103.602"></path>
<polyline fill="none" stroke="black" points="222.147,-103.602 139.853,-103.602 "></polyline>
<path fill="none" stroke="black" d="M139.853,-103.602C133.853,-103.602 127.853,-97.6019 127.853,-91.6019"></path>
<polyline fill="none" stroke="black" points="127.853,-91.6019 127.853,-74.3981 "></polyline>
<path fill="none" stroke="black" d="M127.853,-74.3981C127.853,-68.3981 133.853,-62.3981 139.853,-62.3981"></path>
<polyline fill="none" stroke="black" points="139.853,-62.3981 222.147,-62.3981 "></polyline>
<path fill="none" stroke="black" d="M222.147,-62.3981C228.147,-62.3981 234.147,-68.3981 234.147,-74.3981"></path>
<polyline fill="none" stroke="black" points="234.147,-74.3981 234.147,-91.6019 "></polyline>
<path fill="none" stroke="black" d="M234.147,-91.6019C234.147,-97.6019 228.147,-103.602 222.147,-103.602"></path>
<text text-anchor="middle" x="181" y="-87.2" font-family="Times,serif" font-size="14.00">IfStatement:exit</text>
<text text-anchor="middle" x="181" y="-70.4" font-family="Times,serif" font-size="14.00">Program:exit</text>
</g>

<g id="edge4" class="edge"><title>s1_2-&gt;s1_9</title>
<path fill="none" stroke="black" d="M112.056,-140.244C124.376,-130.194 137.475,-119.507 148.909,-110.179"></path>
<polygon fill="black" stroke="black" points="151.37,-112.689 156.906,-103.655 146.945,-107.265 151.37,-112.689"></polygon>
</g>

<g id="edge15" class="edge"><title>s1_9-&gt;final</title>
<path fill="none" stroke="black" d="M181,-62.3316C181,-54.2587 181,-44.8663 181,-36.5198"></path>
<polygon fill="black" stroke="black" points="184.5,-36.3487 181,-26.3488 177.5,-36.3488 184.5,-36.3487"></polygon>
</g>

<g id="node7" class="node"><title>s1_4</title>
<polygon fill="white" stroke="white" points="217.147,-327.7 106.853,-327.7 94.8526,-315.7 94.8526,-264.3 106.853,-252.3 217.147,-252.3 229.147,-264.3 229.147,-315.7 217.147,-327.7"></polygon>
<path fill="white" stroke="white" d="M106.853,-327.7C100.853,-327.7 94.8526,-321.7 94.8526,-315.7"></path>
<path fill="white" stroke="white" d="M94.8526,-264.3C94.8526,-258.3 100.853,-252.3 106.853,-252.3"></path>
<path fill="white" stroke="white" d="M217.147,-252.3C223.147,-252.3 229.147,-258.3 229.147,-264.3"></path>
<path fill="white" stroke="white" d="M229.147,-315.7C229.147,-321.7 223.147,-327.7 217.147,-327.7"></path>
<polyline fill="none" stroke="black" points="217.147,-327.7 106.853,-327.7 "></polyline>
<path fill="none" stroke="black" d="M106.853,-327.7C100.853,-327.7 94.8526,-321.7 94.8526,-315.7"></path>
<polyline fill="none" stroke="black" points="94.8526,-315.7 94.8526,-264.3 "></polyline>
<path fill="none" stroke="black" d="M94.8526,-264.3C94.8526,-258.3 100.853,-252.3 106.853,-252.3"></path>
<polyline fill="none" stroke="black" points="106.853,-252.3 217.147,-252.3 "></polyline>
<path fill="none" stroke="black" d="M217.147,-252.3C223.147,-252.3 229.147,-258.3 229.147,-264.3"></path>
<polyline fill="none" stroke="black" points="229.147,-264.3 229.147,-315.7 "></polyline>
<path fill="none" stroke="black" d="M229.147,-315.7C229.147,-321.7 223.147,-327.7 217.147,-327.7"></path>
<text text-anchor="middle" x="162" y="-311" font-family="Times,serif" font-size="14.00">BlockStatement</text>
<text text-anchor="middle" x="162" y="-294.2" font-family="Times,serif" font-size="14.00">ExpressionStatement</text>
<text text-anchor="middle" x="162" y="-277.4" font-family="Times,serif" font-size="14.00">CallExpression</text>
<text text-anchor="middle" x="162" y="-260.6" font-family="Times,serif" font-size="14.00">Identifier (bar)</text>
</g>

<g id="edge7" class="edge"><title>s1_3-&gt;s1_4</title>
<path fill="none" stroke="black" d="M162,-364.277C162,-356.524 162,-347.265 162,-337.98"></path>
<polygon fill="black" stroke="black" points="165.5,-337.965 162,-327.965 158.5,-337.965 165.5,-337.965"></polygon>
</g>

<g id="node8" class="node"><title>s1_5</title>
<polygon fill="white" stroke="white" points="322.339,-310.602 259.661,-310.602 247.661,-298.602 247.661,-281.398 259.661,-269.398 322.339,-269.398 334.339,-281.398 334.339,-298.602 322.339,-310.602"></polygon>
<path fill="white" stroke="white" d="M259.661,-310.602C253.661,-310.602 247.661,-304.602 247.661,-298.602"></path>
<path fill="white" stroke="white" d="M247.661,-281.398C247.661,-275.398 253.661,-269.398 259.661,-269.398"></path>
<path fill="white" stroke="white" d="M322.339,-269.398C328.339,-269.398 334.339,-275.398 334.339,-281.398"></path>
<path fill="white" stroke="white" d="M334.339,-298.602C334.339,-304.602 328.339,-310.602 322.339,-310.602"></path>
<polyline fill="none" stroke="black" points="322.339,-310.602 259.661,-310.602 "></polyline>
<path fill="none" stroke="black" d="M259.661,-310.602C253.661,-310.602 247.661,-304.602 247.661,-298.602"></path>
<polyline fill="none" stroke="black" points="247.661,-298.602 247.661,-281.398 "></polyline>
<path fill="none" stroke="black" d="M247.661,-281.398C247.661,-275.398 253.661,-269.398 259.661,-269.398"></path>
<polyline fill="none" stroke="black" points="259.661,-269.398 322.339,-269.398 "></polyline>
<path fill="none" stroke="black" d="M322.339,-269.398C328.339,-269.398 334.339,-275.398 334.339,-281.398"></path>
<polyline fill="none" stroke="black" points="334.339,-281.398 334.339,-298.602 "></polyline>
<path fill="none" stroke="black" d="M334.339,-298.602C334.339,-304.602 328.339,-310.602 322.339,-310.602"></path>
<text text-anchor="middle" x="291" y="-294.2" font-family="Times,serif" font-size="14.00">IfStatement</text>
<text text-anchor="middle" x="291" y="-277.4" font-family="Times,serif" font-size="14.00">Identifier (c)</text>
</g>

<g id="edge10" class="edge"><title>s1_3-&gt;s1_5</title>
<path fill="none" stroke="black" d="M189.358,-364.277C208.598,-350.406 234.528,-331.712 255.382,-316.678"></path>
<polygon fill="black" stroke="black" points="257.617,-319.382 263.682,-310.694 253.523,-313.703 257.617,-319.382"></polygon>
</g>

<g id="edge8" class="edge"><title>s1_4-&gt;s1_9</title>
<path fill="none" stroke="black" d="M165.397,-252.35C169.069,-212.728 174.851,-150.341 178.25,-113.673"></path>
<polygon fill="black" stroke="black" points="181.744,-113.893 179.182,-103.613 174.774,-113.247 181.744,-113.893"></polygon>
</g>

<g id="edge14" class="edge"><title>s1_5-&gt;s1_9</title>
<path fill="none" stroke="black" d="M266.084,-269.392C250.495,-255.908 231.136,-236.742 219,-216 200.205,-183.878 190.203,-141.864 185.259,-113.957"></path>
<polygon fill="black" stroke="black" points="188.697,-113.293 183.604,-104.002 181.791,-114.441 188.697,-113.293"></polygon>
</g>

<g id="node9" class="node"><title>s1_6</title>
<polygon fill="white" stroke="white" points="350.147,-215.7 239.853,-215.7 227.853,-203.7 227.853,-152.3 239.853,-140.3 350.147,-140.3 362.147,-152.3 362.147,-203.7 350.147,-215.7"></polygon>
<path fill="white" stroke="white" d="M239.853,-215.7C233.853,-215.7 227.853,-209.7 227.853,-203.7"></path>
<path fill="white" stroke="white" d="M227.853,-152.3C227.853,-146.3 233.853,-140.3 239.853,-140.3"></path>
<path fill="white" stroke="white" d="M350.147,-140.3C356.147,-140.3 362.147,-146.3 362.147,-152.3"></path>
<path fill="white" stroke="white" d="M362.147,-203.7C362.147,-209.7 356.147,-215.7 350.147,-215.7"></path>
<polyline fill="none" stroke="black" points="350.147,-215.7 239.853,-215.7 "></polyline>
<path fill="none" stroke="black" d="M239.853,-215.7C233.853,-215.7 227.853,-209.7 227.853,-203.7"></path>
<polyline fill="none" stroke="black" points="227.853,-203.7 227.853,-152.3 "></polyline>
<path fill="none" stroke="black" d="M227.853,-152.3C227.853,-146.3 233.853,-140.3 239.853,-140.3"></path>
<polyline fill="none" stroke="black" points="239.853,-140.3 350.147,-140.3 "></polyline>
<path fill="none" stroke="black" d="M350.147,-140.3C356.147,-140.3 362.147,-146.3 362.147,-152.3"></path>
<polyline fill="none" stroke="black" points="362.147,-152.3 362.147,-203.7 "></polyline>
<path fill="none" stroke="black" d="M362.147,-203.7C362.147,-209.7 356.147,-215.7 350.147,-215.7"></path>
<text text-anchor="middle" x="295" y="-199" font-family="Times,serif" font-size="14.00">BlockStatement</text>
<text text-anchor="middle" x="295" y="-182.2" font-family="Times,serif" font-size="14.00">ExpressionStatement</text>
<text text-anchor="middle" x="295" y="-165.4" font-family="Times,serif" font-size="14.00">CallExpression</text>
<text text-anchor="middle" x="295" y="-148.6" font-family="Times,serif" font-size="14.00">Identifier (hoge)</text>
</g>

<g id="edge11" class="edge"><title>s1_5-&gt;s1_6</title>
<path fill="none" stroke="black" d="M291.715,-269.334C292.153,-257.284 292.734,-241.309 293.286,-226.147"></path>
<polygon fill="black" stroke="black" points="296.795,-225.959 293.66,-215.839 289.799,-225.705 296.795,-225.959"></polygon>
</g>

<g id="edge12" class="edge"><title>s1_6-&gt;s1_9</title>
<path fill="none" stroke="black" d="M249.944,-140.244C237.624,-130.194 224.525,-119.507 213.091,-110.179"></path>
<polygon fill="black" stroke="black" points="215.055,-107.265 205.094,-103.655 210.63,-112.689 215.055,-107.265"></polygon>
</g>
</g>
</svg>