<?xml version="1.0"?>
<svg width="160pt" height="216pt" viewBox="0.00 0.00 160.00 216.00" xmlns="http://www.w3.org/2000/svg" xmlns:xlink="http://www.w3.org/1999/xlink">
<g id="graph1" class="graph" transform="scale(1 1) rotate(0) translate(4 212)">
<title>_anonymous_0</title>

<g id="node1" class="node"><title>initial</title>
<ellipse fill="black" stroke="black" cx="67" cy="-199" rx="9" ry="9"></ellipse>
</g>

<g id="node2" class="node"><title>s1_1</title>
<polygon fill="white" stroke="white" points="100.573,-153.602 33.4267,-153.602 21.4267,-141.602 21.4267,-124.398 33.4267,-112.398 100.573,-112.398 112.573,-124.398 112.573,-141.602 100.573,-153.602"></polygon>
<path fill="white" stroke="white" d="M33.4267,-153.602C27.4267,-153.602 21.4267,-147.602 21.4267,-141.602"></path>
<path fill="white" stroke="white" d="M21.4267,-124.398C21.4267,-118.398 27.4267,-112.398 33.4267,-112.398"></path>
<path fill="white" stroke="white" d="M100.573,-112.398C106.573,-112.398 112.573,-118.398 112.573,-124.398"></path>
<path fill="white" stroke="white" d="M112.573,-141.602C112.573,-147.602 106.573,-153.602 100.573,-153.602"></path>
<polyline fill="none" stroke="black" points="100.573,-153.602 33.4267,-153.602 "></polyline>
<path fill="none" stroke="black" d="M33.4267,-153.602C27.4267,-153.602 21.4267,-147.602 21.4267,-141.602"></path>
<polyline fill="none" stroke="black" points="21.4267,-141.602 21.4267,-124.398 "></polyline>
<path fill="none" stroke="black" d="M21.4267,-124.398C21.4267,-118.398 27.4267,-112.398 33.4267,-112.398"></path>
<polyline fill="none" stroke="black" points="33.4267,-112.398 100.573,-112.398 "></polyline>
<path fill="none" stroke="black" d="M100.573,-112.398C106.573,-112.398 112.573,-118.398 112.573,-124.398"></path>
<polyline fill="none" stroke="black" points="112.573,-124.398 112.573,-141.602 "></polyline>
<path fill="none" stroke="black" d="M112.573,-141.602C112.573,-147.602 106.573,-153.602 100.573,-153.602"></path>
<text text-anchor="middle" x="67" y="-137.2" font-family="Times,serif" font-size="14.00">Program</text>
<text text-anchor="middle" x="67" y="-120.4" font-family="Times,serif" font-size="14.00">ForStatement</text>
</g>

<g id="edge2" class="edge"><title>initial-&gt;s1_1</title>
<path fill="none" stroke="black" d="M67,-189.894C67,-183.274 67,-173.485 67,-163.94"></path>
<polygon fill="black" stroke="black" points="70.5001,-163.842 67,-153.842 63.5001,-163.842 70.5001,-163.842"></polygon>
</g>

<g id="node3" class="node"><title>s1_2</title>
<polygon fill="white" stroke="white" points="122.147,-75.7003 11.8526,-75.7003 -0.147372,-63.7003 -0.147372,-12.2997 11.8526,-0.299733 122.147,-0.299733 134.147,-12.2997 134.147,-63.7003 122.147,-75.7003"></polygon>
<path fill="white" stroke="white" d="M11.8526,-75.7003C5.85263,-75.7003 -0.147372,-69.7003 -0.147372,-63.7003"></path>
<path fill="white" stroke="white" d="M-0.147372,-12.2997C-0.147372,-6.29973 5.85263,-0.299733 11.8526,-0.299733"></path>
<path fill="white" stroke="white" d="M122.147,-0.299733C128.147,-0.299733 134.147,-6.29973 134.147,-12.2997"></path>
<path fill="white" stroke="white" d="M134.147,-63.7003C134.147,-69.7003 128.147,-75.7003 122.147,-75.7003"></path>
<polyline fill="none" stroke="black" points="122.147,-75.7003 11.8526,-75.7003 "></polyline>
<path fill="none" stroke="black" d="M11.8526,-75.7003C5.85263,-75.7003 -0.147372,-69.7003 -0.147372,-63.7003"></path>
<polyline fill="none" stroke="black" points="-0.147372,-63.7003 -0.147372,-12.2997 "></polyline>
<path fill="none" stroke="black" d="M-0.147372,-12.2997C-0.147372,-6.29973 5.85263,-0.299733 11.8526,-0.299733"></path>
<polyline fill="none" stroke="black" points="11.8526,-0.299733 122.147,-0.299733 "></polyline>
<path fill="none" stroke="black" d="M122.147,-0.299733C128.147,-0.299733 134.147,-6.29973 134.147,-12.2997"></path>
<polyline fill="none" stroke="black" points="134.147,-12.2997 134.147,-63.7003 "></polyline>
<path fill="none" stroke="black" d="M134.147,-63.7003C134.147,-69.7003 128.147,-75.7003 122.147,-75.7003"></path>
<text text-anchor="middle" x="67" y="-59" font-family="Times,serif" font-size="14.00">BlockStatement</text>
<text text-anchor="middle" x="67" y="-42.2" font-family="Times,serif" font-size="14.00">ExpressionStatement</text>
<text text-anchor="middle" x="67" y="-25.4" font-family="Times,serif" font-size="14.00">CallExpression</text>
<text text-anchor="middle" x="67" y="-8.6" font-family="Times,serif" font-size="14.00">Identifier (foo)</text>
</g>

<g id="edge3" class="edge"><title>s1_1-&gt;s1_2</title>
<path fill="none" stroke="black" d="M67,-112.277C67,-104.524 67,-95.2648 67,-85.9799"></path>
<polygon fill="black" stroke="black" points="70.5001,-85.9648 67,-75.9648 63.5001,-85.9648 70.5001,-85.9648"></polygon>
</g>

<g id="edge4" class="edge"><title>s1_2-&gt;s1_2</title>
<path fill="none" stroke="black" d="M134.337,-54.1523C144.84,-51.7376 152,-46.3535 152,-38 152,-32.518 148.916,-28.3148 143.828,-25.3905"></path>
<polygon fill="black" stroke="black" points="144.93,-22.0659 134.337,-21.8477 142.482,-28.6239 144.93,-22.0659"></polygon>
</g>
</g>
</svg>