<?xml version="1.0"?>
<svg width="408pt" height="416pt" viewBox="0.00 0.00 408.00 416.00" xmlns="http://www.w3.org/2000/svg" xmlns:xlink="http://www.w3.org/1999/xlink">
<g id="graph1" class="graph" transform="scale(1 1) rotate(0) translate(4 412)">
<title>_anonymous_0</title>

<g id="node1" class="node"><title>initial</title>
<ellipse fill="black" stroke="black" cx="193" cy="-399" rx="9" ry="9"></ellipse>
</g>

<g id="node3" class="node"><title>s1_1</title>
<polygon fill="white" stroke="white" points="234.149,-353.602 151.851,-353.602 139.851,-341.602 139.851,-324.398 151.851,-312.398 234.149,-312.398 246.149,-324.398 246.149,-341.602 234.149,-353.602"></polygon>
<path fill="white" stroke="white" d="M151.851,-353.602C145.851,-353.602 139.851,-347.602 139.851,-341.602"></path>
<path fill="white" stroke="white" d="M139.851,-324.398C139.851,-318.398 145.851,-312.398 151.851,-312.398"></path>
<path fill="white" stroke="white" d="M234.149,-312.398C240.149,-312.398 246.149,-318.398 246.149,-324.398"></path>
<path fill="white" stroke="white" d="M246.149,-341.602C246.149,-347.602 240.149,-353.602 234.149,-353.602"></path>
<polyline fill="none" stroke="black" points="234.149,-353.602 151.851,-353.602 "></polyline>
<path fill="none" stroke="black" d="M151.851,-353.602C145.851,-353.602 139.851,-347.602 139.851,-341.602"></path>
<polyline fill="none" stroke="black" points="139.851,-341.602 139.851,-324.398 "></polyline>
<path fill="none" stroke="black" d="M139.851,-324.398C139.851,-318.398 145.851,-312.398 151.851,-312.398"></path>
<polyline fill="none" stroke="black" points="151.851,-312.398 234.149,-312.398 "></polyline>
<path fill="none" stroke="black" d="M234.149,-312.398C240.149,-312.398 246.149,-318.398 246.149,-324.398"></path>
<polyline fill="none" stroke="black" points="246.149,-324.398 246.149,-341.602 "></polyline>
<path fill="none" stroke="black" d="M246.149,-341.602C246.149,-347.602 240.149,-353.602 234.149,-353.602"></path>
<text text-anchor="middle" x="193" y="-337.2" font-family="Times,serif" font-size="14.00">Program</text>
<text text-anchor="middle" x="193" y="-320.4" font-family="Times,serif" font-size="14.00">WhileStatement</text>
</g>

<g id="edge2" class="edge"><title>initial-&gt;s1_1</title>
<path fill="none" stroke="black" d="M193,-389.894C193,-383.274 193,-373.485 193,-363.94"></path>
<polygon fill="black" stroke="black" points="196.5,-363.842 193,-353.842 189.5,-363.842 196.5,-363.842"></polygon>
</g>

<g id="node2" class="node"><title>final</title>
<ellipse fill="black" stroke="black" cx="335" cy="-29" rx="9" ry="9"></ellipse>
<ellipse fill="none" stroke="black" cx="335" cy="-29" rx="13" ry="13"></ellipse>
</g>

<g id="node4" class="node"><title>s1_2</title>
<polygon fill="white" stroke="white" points="224.339,-276 161.661,-276 149.661,-264 149.661,-252 161.661,-240 224.339,-240 236.339,-252 236.339,-264 224.339,-276"></polygon>
<path fill="white" stroke="white" d="M161.661,-276C155.661,-276 149.661,-270 149.661,-264"></path>
<path fill="white" stroke="white" d="M149.661,-252C149.661,-246 155.661,-240 161.661,-240"></path>
<path fill="white" stroke="white" d="M224.339,-240C230.339,-240 236.339,-246 236.339,-252"></path>
<path fill="white" stroke="white" d="M236.339,-264C236.339,-270 230.339,-276 224.339,-276"></path>
<polyline fill="none" stroke="black" points="224.339,-276 161.661,-276 "></polyline>
<path fill="none" stroke="black" d="M161.661,-276C155.661,-276 149.661,-270 149.661,-264"></path>
<polyline fill="none" stroke="black" points="149.661,-264 149.661,-252 "></polyline>
<path fill="none" stroke="black" d="M149.661,-252C149.661,-246 155.661,-240 161.661,-240"></path>
<polyline fill="none" stroke="black" points="161.661,-240 224.339,-240 "></polyline>
<path fill="none" stroke="black" d="M224.339,-240C230.339,-240 236.339,-246 236.339,-252"></path>
<polyline fill="none" stroke="black" points="236.339,-252 236.339,-264 "></polyline>
<path fill="none" stroke="black" d="M236.339,-264C236.339,-270 230.339,-276 224.339,-276"></path>
<text text-anchor="middle" x="193" y="-253.8" font-family="Times,serif" font-size="14.00">Identifier (a)</text>
</g>

<g id="edge3" class="edge"><title>s1_1-&gt;s1_2</title>
<path fill="none" stroke="black" d="M193,-312.052C193,-304.216 193,-295.089 193,-286.636"></path>
<polygon fill="black" stroke="black" points="196.5,-286.439 193,-276.439 189.5,-286.439 196.5,-286.439"></polygon>
</g>

<g id="node5" class="node"><title>s1_3</title>
<polygon fill="white" stroke="white" points="201.147,-203.3 90.8526,-203.3 78.8526,-191.3 78.8526,-106.7 90.8526,-94.6998 201.147,-94.6998 213.147,-106.7 213.147,-191.3 201.147,-203.3"></polygon>
<path fill="white" stroke="white" d="M90.8526,-203.3C84.8526,-203.3 78.8526,-197.3 78.8526,-191.3"></path>
<path fill="white" stroke="white" d="M78.8526,-106.7C78.8526,-100.7 84.8526,-94.6998 90.8526,-94.6998"></path>
<path fill="white" stroke="white" d="M201.147,-94.6998C207.147,-94.6998 213.147,-100.7 213.147,-106.7"></path>
<path fill="white" stroke="white" d="M213.147,-191.3C213.147,-197.3 207.147,-203.3 201.147,-203.3"></path>
<polyline fill="none" stroke="black" points="201.147,-203.3 90.8526,-203.3 "></polyline>
<path fill="none" stroke="black" d="M90.8526,-203.3C84.8526,-203.3 78.8526,-197.3 78.8526,-191.3"></path>
<polyline fill="none" stroke="black" points="78.8526,-191.3 78.8526,-106.7 "></polyline>
<path fill="none" stroke="black" d="M78.8526,-106.7C78.8526,-100.7 84.8526,-94.6998 90.8526,-94.6998"></path>
<polyline fill="none" stroke="black" points="90.8526,-94.6998 201.147,-94.6998 "></polyline>
<path fill="none" stroke="black" d="M201.147,-94.6998C207.147,-94.6998 213.147,-100.7 213.147,-106.7"></path>
<polyline fill="none" stroke="black" points="213.147,-106.7 213.147,-191.3 "></polyline>
<path fill="none" stroke="black" d="M213.147,-191.3C213.147,-197.3 207.147,-203.3 201.147,-203.3"></path>
<text text-anchor="middle" x="146" y="-186.8" font-family="Times,serif" font-size="14.00">BlockStatement</text>
<text text-anchor="middle" x="146" y="-170" font-family="Times,serif" font-size="14.00">ExpressionStatement</text>
<text text-anchor="middle" x="146" y="-153.2" font-family="Times,serif" font-size="14.00">CallExpression</text>
<text text-anchor="middle" x="146" y="-136.4" font-family="Times,serif" font-size="14.00">Identifier (foo)</text>
<text text-anchor="middle" x="146" y="-119.6" font-family="Times,serif" font-size="14.00">IfStatement</text>
<text text-anchor="middle" x="146" y="-102.8" font-family="Times,serif" font-size="14.00">Identifier (b)</text>
</g>

<g id="edge4" class="edge"><title>s1_2-&gt;s1_3</title>
<path fill="none" stroke="black" d="M185.449,-239.809C182.111,-232.21 177.961,-222.761 173.617,-212.872"></path>
<polygon fill="black" stroke="black" points="176.817,-211.454 169.59,-203.706 170.408,-214.269 176.817,-211.454"></polygon>
</g>

<g id="node7" class="node"><title>s1_7</title>
<polygon fill="white" stroke="white" points="388.314,-169.602 281.686,-169.602 269.686,-157.602 269.686,-140.398 281.686,-128.398 388.314,-128.398 400.314,-140.398 400.314,-157.602 388.314,-169.602"></polygon>
<path fill="white" stroke="white" d="M281.686,-169.602C275.686,-169.602 269.686,-163.602 269.686,-157.602"></path>
<path fill="white" stroke="white" d="M269.686,-140.398C269.686,-134.398 275.686,-128.398 281.686,-128.398"></path>
<path fill="white" stroke="white" d="M388.314,-128.398C394.314,-128.398 400.314,-134.398 400.314,-140.398"></path>
<path fill="white" stroke="white" d="M400.314,-157.602C400.314,-163.602 394.314,-169.602 388.314,-169.602"></path>
<polyline fill="none" stroke="black" points="388.314,-169.602 281.686,-169.602 "></polyline>
<path fill="none" stroke="black" d="M281.686,-169.602C275.686,-169.602 269.686,-163.602 269.686,-157.602"></path>
<polyline fill="none" stroke="black" points="269.686,-157.602 269.686,-140.398 "></polyline>
<path fill="none" stroke="black" d="M269.686,-140.398C269.686,-134.398 275.686,-128.398 281.686,-128.398"></path>
<polyline fill="none" stroke="black" points="281.686,-128.398 388.314,-128.398 "></polyline>
<path fill="none" stroke="black" d="M388.314,-128.398C394.314,-128.398 400.314,-134.398 400.314,-140.398"></path>
<polyline fill="none" stroke="black" points="400.314,-140.398 400.314,-157.602 "></polyline>
<path fill="none" stroke="black" d="M400.314,-157.602C400.314,-163.602 394.314,-169.602 388.314,-169.602"></path>
<text text-anchor="middle" x="335" y="-153.2" font-family="Times,serif" font-size="14.00">WhileStatement:exit</text>
<text text-anchor="middle" x="335" y="-136.4" font-family="Times,serif" font-size="14.00">Program:exit</text>
</g>

<g id="edge7" class="edge"><title>s1_2-&gt;s1_7</title>
<path fill="none" stroke="black" d="M215.815,-239.809C238.735,-222.537 274.341,-195.708 300.672,-175.867"></path>
<polygon fill="black" stroke="black" points="302.987,-178.505 308.867,-169.692 298.774,-172.914 302.987,-178.505"></polygon>
</g>

<g id="node6" class="node"><title>s1_4</title>
<polygon fill="white" stroke="white" points="110.49,-49.6019 11.5095,-49.6019 -0.490457,-37.6019 -0.490457,-20.3981 11.5095,-8.3981 110.49,-8.3981 122.49,-20.3981 122.49,-37.6019 110.49,-49.6019"></polygon>
<path fill="white" stroke="white" d="M11.5095,-49.6019C5.50954,-49.6019 -0.490457,-43.6019 -0.490457,-37.6019"></path>
<path fill="white" stroke="white" d="M-0.490457,-20.3981C-0.490457,-14.3981 5.50954,-8.3981 11.5095,-8.3981"></path>
<path fill="white" stroke="white" d="M110.49,-8.3981C116.49,-8.3981 122.49,-14.3981 122.49,-20.3981"></path>
<path fill="white" stroke="white" d="M122.49,-37.6019C122.49,-43.6019 116.49,-49.6019 110.49,-49.6019"></path>
<polyline fill="none" stroke="black" points="110.49,-49.6019 11.5095,-49.6019 "></polyline>
<path fill="none" stroke="black" d="M11.5095,-49.6019C5.50954,-49.6019 -0.490457,-43.6019 -0.490457,-37.6019"></path>
<polyline fill="none" stroke="black" points="-0.490457,-37.6019 -0.490457,-20.3981 "></polyline>
<path fill="none" stroke="black" d="M-0.490457,-20.3981C-0.490457,-14.3981 5.50954,-8.3981 11.5095,-8.3981"></path>
<polyline fill="none" stroke="black" points="11.5095,-8.3981 110.49,-8.3981 "></polyline>
<path fill="none" stroke="black" d="M110.49,-8.3981C116.49,-8.3981 122.49,-14.3981 122.49,-20.3981"></path>
<polyline fill="none" stroke="black" points="122.49,-20.3981 122.49,-37.6019 "></polyline>
<path fill="none" stroke="black" d="M122.49,-37.6019C122.49,-43.6019 116.49,-49.6019 110.49,-49.6019"></path>
<text text-anchor="middle" x="61" y="-33.2" font-family="Times,serif" font-size="14.00">BlockStatement</text>
<text text-anchor="middle" x="61" y="-16.4" font-family="Times,serif" font-size="14.00">ContinueStatement</text>
</g>

<g id="edge5" class="edge"><title>s1_3-&gt;s1_4</title>
<path fill="none" stroke="black" d="M107.479,-94.524C98.3982,-81.9176 89.0729,-68.9717 81.181,-58.0159"></path>
<polygon fill="black" stroke="black" points="83.876,-55.7691 75.1912,-49.7007 78.1962,-59.8605 83.876,-55.7691"></polygon>
</g>

<g id="node8" class="node"><title>s1_6</title>
<polygon fill="white" stroke="white" points="282.147,-58.4014 171.853,-58.4014 159.853,-46.4014 159.853,-11.5986 171.853,0.401379 282.147,0.401379 294.147,-11.5986 294.147,-46.4014 282.147,-58.4014"></polygon>
<path fill="white" stroke="white" d="M171.853,-58.4014C165.853,-58.4014 159.853,-52.4014 159.853,-46.4014"></path>
<path fill="white" stroke="white" d="M159.853,-11.5986C159.853,-5.59862 165.853,0.401379 171.853,0.401379"></path>
<path fill="white" stroke="white" d="M282.147,0.401379C288.147,0.401379 294.147,-5.59862 294.147,-11.5986"></path>
<path fill="white" stroke="white" d="M294.147,-46.4014C294.147,-52.4014 288.147,-58.4014 282.147,-58.4014"></path>
<polyline fill="none" stroke="black" points="282.147,-58.4014 171.853,-58.4014 "></polyline>
<path fill="none" stroke="black" d="M171.853,-58.4014C165.853,-58.4014 159.853,-52.4014 159.853,-46.4014"></path>
<polyline fill="none" stroke="black" points="159.853,-46.4014 159.853,-11.5986 "></polyline>
<path fill="none" stroke="black" d="M159.853,-11.5986C159.853,-5.59862 165.853,0.401379 171.853,0.401379"></path>
<polyline fill="none" stroke="black" points="171.853,0.401379 282.147,0.401379 "></polyline>
<path fill="none" stroke="black" d="M282.147,0.401379C288.147,0.401379 294.147,-5.59862 294.147,-11.5986"></path>
<polyline fill="none" stroke="black" points="294.147,-11.5986 294.147,-46.4014 "></polyline>
<path fill="none" stroke="black" d="M294.147,-46.4014C294.147,-52.4014 288.147,-58.4014 282.147,-58.4014"></path>
<text text-anchor="middle" x="227" y="-41.6" font-family="Times,serif" font-size="14.00">ExpressionStatement</text>
<text text-anchor="middle" x="227" y="-24.8" font-family="Times,serif" font-size="14.00">CallExpression</text>
<text text-anchor="middle" x="227" y="-8" font-family="Times,serif" font-size="14.00">Identifier (bar)</text>
</g>

<g id="edge9" class="edge"><title>s1_3-&gt;s1_6</title>
<path fill="none" stroke="black" d="M182.708,-94.524C189.112,-85.1942 195.644,-75.6786 201.656,-66.9212"></path>
<polygon fill="black" stroke="black" points="204.696,-68.677 207.47,-58.4517 198.925,-64.7154 204.696,-68.677"></polygon>
</g>

<g id="edge6" class="edge"><title>s1_4-&gt;s1_2</title>
<path fill="none" stroke="black" d="M55.8178,-49.8729C48.0052,-84.5943 37.3518,-157.069 70,-204 86.0013,-227.001 114.192,-240.092 139.552,-247.506"></path>
<polygon fill="black" stroke="black" points="138.9,-250.955 149.466,-250.168 140.715,-244.194 138.9,-250.955"></polygon>
</g>

<g id="edge12" class="edge"><title>s1_7-&gt;final</title>
<path fill="none" stroke="black" d="M335,-128.249C335,-107.258 335,-74.136 335,-52.2408"></path>
<polygon fill="black" stroke="black" points="338.5,-52.2172 335,-42.2173 331.5,-52.2173 338.5,-52.2172"></polygon>
</g>

<g id="edge10" class="edge"><title>s1_6-&gt;s1_2</title>
<path fill="none" stroke="black" d="M230.184,-58.3131C233.209,-93.2424 235.52,-154.122 222,-204 219.488,-213.268 215.064,-222.685 210.417,-230.959"></path>
<polygon fill="black" stroke="black" points="207.291,-229.367 205.165,-239.747 213.299,-232.958 207.291,-229.367"></polygon>
</g>
</g>
</svg>