<?xml version="1.0"?>
<svg width="347pt" height="802pt" viewBox="0.00 0.00 347.00 802.00" xmlns="http://www.w3.org/2000/svg" xmlns:xlink="http://www.w3.org/1999/xlink">
<g id="graph1" class="graph" transform="scale(1 1) rotate(0) translate(4 798)">
<title>_anonymous_0</title>

<g id="node1" class="node"><title>initial</title>
<ellipse fill="black" stroke="black" cx="121" cy="-785" rx="9" ry="9"></ellipse>
</g>

<g id="node3" class="node"><title>s1_1</title>
<polygon fill="white" stroke="white" points="164.156,-740 77.8443,-740 65.8443,-728 65.8443,-660 77.8443,-648 164.156,-648 176.156,-660 176.156,-728 164.156,-740"></polygon>
<path fill="white" stroke="white" d="M77.8443,-740C71.8443,-740 65.8443,-734 65.8443,-728"></path>
<path fill="white" stroke="white" d="M65.8443,-660C65.8443,-654 71.8443,-648 77.8443,-648"></path>
<path fill="white" stroke="white" d="M164.156,-648C170.156,-648 176.156,-654 176.156,-660"></path>
<path fill="white" stroke="white" d="M176.156,-728C176.156,-734 170.156,-740 164.156,-740"></path>
<polyline fill="none" stroke="black" points="164.156,-740 77.8443,-740 "></polyline>
<path fill="none" stroke="black" d="M77.8443,-740C71.8443,-740 65.8443,-734 65.8443,-728"></path>
<polyline fill="none" stroke="black" points="65.8443,-728 65.8443,-660 "></polyline>
<path fill="none" stroke="black" d="M65.8443,-660C65.8443,-654 71.8443,-648 77.8443,-648"></path>
<polyline fill="none" stroke="black" points="77.8443,-648 164.156,-648 "></polyline>
<path fill="none" stroke="black" d="M164.156,-648C170.156,-648 176.156,-654 176.156,-660"></path>
<polyline fill="none" stroke="black" points="176.156,-660 176.156,-728 "></polyline>
<path fill="none" stroke="black" d="M176.156,-728C176.156,-734 170.156,-740 164.156,-740"></path>
<text text-anchor="middle" x="121" y="-723.4" font-family="Times,serif" font-size="14.00">Program</text>
<text text-anchor="middle" x="121" y="-706.6" font-family="Times,serif" font-size="14.00">SwitchStatement</text>
<text text-anchor="middle" x="121" y="-689.8" font-family="Times,serif" font-size="14.00">Identifier (a)</text>
<text text-anchor="middle" x="121" y="-673" font-family="Times,serif" font-size="14.00">SwitchCase</text>
<text text-anchor="middle" x="121" y="-656.2" font-family="Times,serif" font-size="14.00">Literal (0)</text>
</g>

<g id="edge2" class="edge"><title>initial-&gt;s1_1</title>
<path fill="none" stroke="black" d="M121,-775.787C121,-769.525 121,-760.299 121,-750.297"></path>
<polygon fill="black" stroke="black" points="124.5,-750.119 121,-740.119 117.5,-750.119 124.5,-750.119"></polygon>
</g>

<g id="node2" class="node"><title>final</title>
<ellipse fill="black" stroke="black" cx="162" cy="-13" rx="9" ry="9"></ellipse>
<ellipse fill="none" stroke="black" cx="162" cy="-13" rx="13" ry="13"></ellipse>
</g>

<g id="node4" class="node"><title>s1_2</title>
<polygon fill="white" stroke="white" points="122.147,-533.7 11.8526,-533.7 -0.147372,-521.7 -0.147372,-470.3 11.8526,-458.3 122.147,-458.3 134.147,-470.3 134.147,-521.7 122.147,-533.7"></polygon>
<path fill="white" stroke="white" d="M11.8526,-533.7C5.85263,-533.7 -0.147372,-527.7 -0.147372,-521.7"></path>
<path fill="white" stroke="white" d="M-0.147372,-470.3C-0.147372,-464.3 5.85263,-458.3 11.8526,-458.3"></path>
<path fill="white" stroke="white" d="M122.147,-458.3C128.147,-458.3 134.147,-464.3 134.147,-470.3"></path>
<path fill="white" stroke="white" d="M134.147,-521.7C134.147,-527.7 128.147,-533.7 122.147,-533.7"></path>
<polyline fill="none" stroke="black" points="122.147,-533.7 11.8526,-533.7 "></polyline>
<path fill="none" stroke="black" d="M11.8526,-533.7C5.85263,-533.7 -0.147372,-527.7 -0.147372,-521.7"></path>
<polyline fill="none" stroke="black" points="-0.147372,-521.7 -0.147372,-470.3 "></polyline>
<path fill="none" stroke="black" d="M-0.147372,-470.3C-0.147372,-464.3 5.85263,-458.3 11.8526,-458.3"></path>
<polyline fill="none" stroke="black" points="11.8526,-458.3 122.147,-458.3 "></polyline>
<path fill="none" stroke="black" d="M122.147,-458.3C128.147,-458.3 134.147,-464.3 134.147,-470.3"></path>
<polyline fill="none" stroke="black" points="134.147,-470.3 134.147,-521.7 "></polyline>
<path fill="none" stroke="black" d="M134.147,-521.7C134.147,-527.7 128.147,-533.7 122.147,-533.7"></path>
<text text-anchor="middle" x="67" y="-517" font-family="Times,serif" font-size="14.00">ExpressionStatement</text>
<text text-anchor="middle" x="67" y="-500.2" font-family="Times,serif" font-size="14.00">CallExpression</text>
<text text-anchor="middle" x="67" y="-483.4" font-family="Times,serif" font-size="14.00">Identifier (foo)</text>
<text text-anchor="middle" x="67" y="-466.6" font-family="Times,serif" font-size="14.00">BreakStatement</text>
</g>

<g id="edge3" class="edge"><title>s1_1-&gt;s1_2</title>
<path fill="none" stroke="black" d="M108.476,-647.541C99.8727,-616.316 88.4862,-574.987 79.8204,-543.533"></path>
<polygon fill="black" stroke="black" points="83.14,-542.405 77.1095,-533.694 76.3914,-544.264 83.14,-542.405"></polygon>
</g>

<g id="node9" class="node"><title>s1_4</title>
<polygon fill="white" stroke="white" points="191.072,-611.602 132.928,-611.602 120.928,-599.602 120.928,-582.398 132.928,-570.398 191.072,-570.398 203.072,-582.398 203.072,-599.602 191.072,-611.602"></polygon>
<path fill="white" stroke="white" d="M132.928,-611.602C126.928,-611.602 120.928,-605.602 120.928,-599.602"></path>
<path fill="white" stroke="white" d="M120.928,-582.398C120.928,-576.398 126.928,-570.398 132.928,-570.398"></path>
<path fill="white" stroke="white" d="M191.072,-570.398C197.072,-570.398 203.072,-576.398 203.072,-582.398"></path>
<path fill="white" stroke="white" d="M203.072,-599.602C203.072,-605.602 197.072,-611.602 191.072,-611.602"></path>
<polyline fill="none" stroke="black" points="191.072,-611.602 132.928,-611.602 "></polyline>
<path fill="none" stroke="black" d="M132.928,-611.602C126.928,-611.602 120.928,-605.602 120.928,-599.602"></path>
<polyline fill="none" stroke="black" points="120.928,-599.602 120.928,-582.398 "></polyline>
<path fill="none" stroke="black" d="M120.928,-582.398C120.928,-576.398 126.928,-570.398 132.928,-570.398"></path>
<polyline fill="none" stroke="black" points="132.928,-570.398 191.072,-570.398 "></polyline>
<path fill="none" stroke="black" d="M191.072,-570.398C197.072,-570.398 203.072,-576.398 203.072,-582.398"></path>
<polyline fill="none" stroke="black" points="203.072,-582.398 203.072,-599.602 "></polyline>
<path fill="none" stroke="black" d="M203.072,-599.602C203.072,-605.602 197.072,-611.602 191.072,-611.602"></path>
<text text-anchor="middle" x="162" y="-595.2" font-family="Times,serif" font-size="14.00">SwitchCase</text>
<text text-anchor="middle" x="162" y="-578.4" font-family="Times,serif" font-size="14.00">Literal (1)</text>
</g>

<g id="edge7" class="edge"><title>s1_1-&gt;s1_4</title>
<path fill="none" stroke="black" d="M139.341,-647.817C143.019,-638.757 146.791,-629.466 150.176,-621.128"></path>
<polygon fill="black" stroke="black" points="153.424,-622.431 153.943,-611.849 146.938,-619.798 153.424,-622.431"></polygon>
</g>

<g id="node8" class="node"><title>s1_14</title>
<polygon fill="white" stroke="white" points="217.321,-103.602 106.679,-103.602 94.6789,-91.6019 94.6789,-74.3981 106.679,-62.3981 217.321,-62.3981 229.321,-74.3981 229.321,-91.6019 217.321,-103.602"></polygon>
<path fill="white" stroke="white" d="M106.679,-103.602C100.679,-103.602 94.6789,-97.6019 94.6789,-91.6019"></path>
<path fill="white" stroke="white" d="M94.6789,-74.3981C94.6789,-68.3981 100.679,-62.3981 106.679,-62.3981"></path>
<path fill="white" stroke="white" d="M217.321,-62.3981C223.321,-62.3981 229.321,-68.3981 229.321,-74.3981"></path>
<path fill="white" stroke="white" d="M229.321,-91.6019C229.321,-97.6019 223.321,-103.602 217.321,-103.602"></path>
<polyline fill="none" stroke="black" points="217.321,-103.602 106.679,-103.602 "></polyline>
<path fill="none" stroke="black" d="M106.679,-103.602C100.679,-103.602 94.6789,-97.6019 94.6789,-91.6019"></path>
<polyline fill="none" stroke="black" points="94.6789,-91.6019 94.6789,-74.3981 "></polyline>
<path fill="none" stroke="black" d="M94.6789,-74.3981C94.6789,-68.3981 100.679,-62.3981 106.679,-62.3981"></path>
<polyline fill="none" stroke="black" points="106.679,-62.3981 217.321,-62.3981 "></polyline>
<path fill="none" stroke="black" d="M217.321,-62.3981C223.321,-62.3981 229.321,-68.3981 229.321,-74.3981"></path>
<polyline fill="none" stroke="black" points="229.321,-74.3981 229.321,-91.6019 "></polyline>
<path fill="none" stroke="black" d="M229.321,-91.6019C229.321,-97.6019 223.321,-103.602 217.321,-103.602"></path>
<text text-anchor="middle" x="162" y="-87.2" font-family="Times,serif" font-size="14.00">SwitchStatement:exit</text>
<text text-anchor="middle" x="162" y="-70.4" font-family="Times,serif" font-size="14.00">Program:exit</text>
</g>

<g id="edge11" class="edge"><title>s1_2-&gt;s1_14</title>
<path fill="none" stroke="black" d="M65.9609,-458.127C65.4872,-409.946 67.6815,-323.315 86,-252 99.1928,-200.639 127.133,-145.406 145.212,-112.816"></path>
<polygon fill="black" stroke="black" points="148.402,-114.284 150.254,-103.852 142.301,-110.852 148.402,-114.284"></polygon>
</g>

<g id="node5" class="node"><title>s1_7</title>
<polygon fill="white" stroke="white" points="217.147,-422.401 106.853,-422.401 94.8526,-410.401 94.8526,-375.599 106.853,-363.599 217.147,-363.599 229.147,-375.599 229.147,-410.401 217.147,-422.401"></polygon>
<path fill="white" stroke="white" d="M106.853,-422.401C100.853,-422.401 94.8526,-416.401 94.8526,-410.401"></path>
<path fill="white" stroke="white" d="M94.8526,-375.599C94.8526,-369.599 100.853,-363.599 106.853,-363.599"></path>
<path fill="white" stroke="white" d="M217.147,-363.599C223.147,-363.599 229.147,-369.599 229.147,-375.599"></path>
<path fill="white" stroke="white" d="M229.147,-410.401C229.147,-416.401 223.147,-422.401 217.147,-422.401"></path>
<polyline fill="none" stroke="black" points="217.147,-422.401 106.853,-422.401 "></polyline>
<path fill="none" stroke="black" d="M106.853,-422.401C100.853,-422.401 94.8526,-416.401 94.8526,-410.401"></path>
<polyline fill="none" stroke="black" points="94.8526,-410.401 94.8526,-375.599 "></polyline>
<path fill="none" stroke="black" d="M94.8526,-375.599C94.8526,-369.599 100.853,-363.599 106.853,-363.599"></path>
<polyline fill="none" stroke="black" points="106.853,-363.599 217.147,-363.599 "></polyline>
<path fill="none" stroke="black" d="M217.147,-363.599C223.147,-363.599 229.147,-369.599 229.147,-375.599"></path>
<polyline fill="none" stroke="black" points="229.147,-375.599 229.147,-410.401 "></polyline>
<path fill="none" stroke="black" d="M229.147,-410.401C229.147,-416.401 223.147,-422.401 217.147,-422.401"></path>
<text text-anchor="middle" x="162" y="-405.6" font-family="Times,serif" font-size="14.00">ExpressionStatement</text>
<text text-anchor="middle" x="162" y="-388.8" font-family="Times,serif" font-size="14.00">CallExpression</text>
<text text-anchor="middle" x="162" y="-372" font-family="Times,serif" font-size="14.00">Identifier (bar)</text>
</g>

<g id="node6" class="node"><title>s1_9</title>
<polygon fill="white" stroke="white" points="217.147,-327.7 106.853,-327.7 94.8526,-315.7 94.8526,-264.3 106.853,-252.3 217.147,-252.3 229.147,-264.3 229.147,-315.7 217.147,-327.7"></polygon>
<path fill="white" stroke="white" d="M106.853,-327.7C100.853,-327.7 94.8526,-321.7 94.8526,-315.7"></path>
<path fill="white" stroke="white" d="M94.8526,-264.3C94.8526,-258.3 100.853,-252.3 106.853,-252.3"></path>
<path fill="white" stroke="white" d="M217.147,-252.3C223.147,-252.3 229.147,-258.3 229.147,-264.3"></path>
<path fill="white" stroke="white" d="M229.147,-315.7C229.147,-321.7 223.147,-327.7 217.147,-327.7"></path>
<polyline fill="none" stroke="black" points="217.147,-327.7 106.853,-327.7 "></polyline>
<path fill="none" stroke="black" d="M106.853,-327.7C100.853,-327.7 94.8526,-321.7 94.8526,-315.7"></path>
<polyline fill="none" stroke="black" points="94.8526,-315.7 94.8526,-264.3 "></polyline>
<path fill="none" stroke="black" d="M94.8526,-264.3C94.8526,-258.3 100.853,-252.3 106.853,-252.3"></path>
<polyline fill="none" stroke="black" points="106.853,-252.3 217.147,-252.3 "></polyline>
<path fill="none" stroke="black" d="M217.147,-252.3C223.147,-252.3 229.147,-258.3 229.147,-264.3"></path>
<polyline fill="none" stroke="black" points="229.147,-264.3 229.147,-315.7 "></polyline>
<path fill="none" stroke="black" d="M229.147,-315.7C229.147,-321.7 223.147,-327.7 217.147,-327.7"></path>
<text text-anchor="middle" x="162" y="-311" font-family="Times,serif" font-size="14.00">ExpressionStatement</text>
<text text-anchor="middle" x="162" y="-294.2" font-family="Times,serif" font-size="14.00">CallExpression</text>
<text text-anchor="middle" x="162" y="-277.4" font-family="Times,serif" font-size="14.00">Identifier (hoge)</text>
<text text-anchor="middle" x="162" y="-260.6" font-family="Times,serif" font-size="14.00">BreakStatement</text>
</g>

<g id="edge5" class="edge"><title>s1_7-&gt;s1_9</title>
<path fill="none" stroke="black" d="M162,-363.597C162,-355.629 162,-346.747 162,-338.005"></path>
<polygon fill="black" stroke="black" points="165.5,-337.871 162,-327.871 158.5,-337.871 165.5,-337.871"></polygon>
</g>

<g id="edge13" class="edge"><title>s1_9-&gt;s1_14</title>
<path fill="none" stroke="black" d="M162,-252.35C162,-212.728 162,-150.341 162,-113.673"></path>
<polygon fill="black" stroke="black" points="165.5,-113.613 162,-103.613 158.5,-113.613 165.5,-113.613"></polygon>
</g>

<g id="node7" class="node"><title>s1_12</title>
<polygon fill="white" stroke="white" points="327.147,-215.7 216.853,-215.7 204.853,-203.7 204.853,-152.3 216.853,-140.3 327.147,-140.3 339.147,-152.3 339.147,-203.7 327.147,-215.7"></polygon>
<path fill="white" stroke="white" d="M216.853,-215.7C210.853,-215.7 204.853,-209.7 204.853,-203.7"></path>
<path fill="white" stroke="white" d="M204.853,-152.3C204.853,-146.3 210.853,-140.3 216.853,-140.3"></path>
<path fill="white" stroke="white" d="M327.147,-140.3C333.147,-140.3 339.147,-146.3 339.147,-152.3"></path>
<path fill="white" stroke="white" d="M339.147,-203.7C339.147,-209.7 333.147,-215.7 327.147,-215.7"></path>
<polyline fill="none" stroke="black" points="327.147,-215.7 216.853,-215.7 "></polyline>
<path fill="none" stroke="black" d="M216.853,-215.7C210.853,-215.7 204.853,-209.7 204.853,-203.7"></path>
<polyline fill="none" stroke="black" points="204.853,-203.7 204.853,-152.3 "></polyline>
<path fill="none" stroke="black" d="M204.853,-152.3C204.853,-146.3 210.853,-140.3 216.853,-140.3"></path>
<polyline fill="none" stroke="black" points="216.853,-140.3 327.147,-140.3 "></polyline>
<path fill="none" stroke="black" d="M327.147,-140.3C333.147,-140.3 339.147,-146.3 339.147,-152.3"></path>
<polyline fill="none" stroke="black" points="339.147,-152.3 339.147,-203.7 "></polyline>
<path fill="none" stroke="black" d="M339.147,-203.7C339.147,-209.7 333.147,-215.7 327.147,-215.7"></path>
<text text-anchor="middle" x="272" y="-199" font-family="Times,serif" font-size="14.00">ExpressionStatement</text>
<text text-anchor="middle" x="272" y="-182.2" font-family="Times,serif" font-size="14.00">CallExpression</text>
<text text-anchor="middle" x="272" y="-165.4" font-family="Times,serif" font-size="14.00">Identifier (fuga)</text>
<text text-anchor="middle" x="272" y="-148.6" font-family="Times,serif" font-size="14.00">BreakStatement</text>
</g>

<g id="edge15" class="edge"><title>s1_12-&gt;s1_14</title>
<path fill="none" stroke="black" d="M228.525,-140.244C216.638,-130.194 203.998,-119.507 192.965,-110.179"></path>
<polygon fill="black" stroke="black" points="195.145,-107.439 185.248,-103.655 190.625,-112.785 195.145,-107.439"></polygon>
</g>

<g id="edge25" class="edge"><title>s1_14-&gt;final</title>
<path fill="none" stroke="black" d="M162,-62.3316C162,-54.2587 162,-44.8663 162,-36.5198"></path>
<polygon fill="black" stroke="black" points="165.5,-36.3487 162,-26.3488 158.5,-36.3488 165.5,-36.3487"></polygon>
</g>

<g id="edge17" class="edge"><title>s1_4-&gt;s1_7</title>
<path fill="none" stroke="black" d="M162,-570.128C162,-537.987 162,-474.03 162,-432.674"></path>
<polygon fill="black" stroke="black" points="165.5,-432.424 162,-422.424 158.5,-432.424 165.5,-432.424"></polygon>
</g>

<g id="node10" class="node"><title>s1_6</title>
<polygon fill="white" stroke="white" points="260.072,-516.602 201.928,-516.602 189.928,-504.602 189.928,-487.398 201.928,-475.398 260.072,-475.398 272.072,-487.398 272.072,-504.602 260.072,-516.602"></polygon>
<path fill="white" stroke="white" d="M201.928,-516.602C195.928,-516.602 189.928,-510.602 189.928,-504.602"></path>
<path fill="white" stroke="white" d="M189.928,-487.398C189.928,-481.398 195.928,-475.398 201.928,-475.398"></path>
<path fill="white" stroke="white" d="M260.072,-475.398C266.072,-475.398 272.072,-481.398 272.072,-487.398"></path>
<path fill="white" stroke="white" d="M272.072,-504.602C272.072,-510.602 266.072,-516.602 260.072,-516.602"></path>
<polyline fill="none" stroke="black" points="260.072,-516.602 201.928,-516.602 "></polyline>
<path fill="none" stroke="black" d="M201.928,-516.602C195.928,-516.602 189.928,-510.602 189.928,-504.602"></path>
<polyline fill="none" stroke="black" points="189.928,-504.602 189.928,-487.398 "></polyline>
<path fill="none" stroke="black" d="M189.928,-487.398C189.928,-481.398 195.928,-475.398 201.928,-475.398"></path>
<polyline fill="none" stroke="black" points="201.928,-475.398 260.072,-475.398 "></polyline>
<path fill="none" stroke="black" d="M260.072,-475.398C266.072,-475.398 272.072,-481.398 272.072,-487.398"></path>
<polyline fill="none" stroke="black" points="272.072,-487.398 272.072,-504.602 "></polyline>
<path fill="none" stroke="black" d="M272.072,-504.602C272.072,-510.602 266.072,-516.602 260.072,-516.602"></path>
<text text-anchor="middle" x="231" y="-500.2" font-family="Times,serif" font-size="14.00">SwitchCase</text>
<text text-anchor="middle" x="231" y="-483.4" font-family="Times,serif" font-size="14.00">Literal (2)</text>
</g>

<g id="edge8" class="edge"><title>s1_4-&gt;s1_6</title>
<path fill="none" stroke="black" d="M176.633,-570.277C186.422,-557.084 199.447,-539.528 210.294,-524.908"></path>
<polygon fill="black" stroke="black" points="213.24,-526.811 216.388,-516.694 207.619,-522.64 213.24,-526.811"></polygon>
</g>

<g id="edge9" class="edge"><title>s1_6-&gt;s1_7</title>
<path fill="none" stroke="black" d="M217.368,-475.046C208.766,-462.455 197.392,-445.806 187.191,-430.874"></path>
<polygon fill="black" stroke="black" points="189.882,-428.608 181.351,-422.325 184.102,-432.557 189.882,-428.608"></polygon>
</g>

<g id="node11" class="node"><title>s1_8</title>
<polygon fill="white" stroke="white" points="317.072,-413.602 258.928,-413.602 246.928,-401.602 246.928,-384.398 258.928,-372.398 317.072,-372.398 329.072,-384.398 329.072,-401.602 317.072,-413.602"></polygon>
<path fill="white" stroke="white" d="M258.928,-413.602C252.928,-413.602 246.928,-407.602 246.928,-401.602"></path>
<path fill="white" stroke="white" d="M246.928,-384.398C246.928,-378.398 252.928,-372.398 258.928,-372.398"></path>
<path fill="white" stroke="white" d="M317.072,-372.398C323.072,-372.398 329.072,-378.398 329.072,-384.398"></path>
<path fill="white" stroke="white" d="M329.072,-401.602C329.072,-407.602 323.072,-413.602 317.072,-413.602"></path>
<polyline fill="none" stroke="black" points="317.072,-413.602 258.928,-413.602 "></polyline>
<path fill="none" stroke="black" d="M258.928,-413.602C252.928,-413.602 246.928,-407.602 246.928,-401.602"></path>
<polyline fill="none" stroke="black" points="246.928,-401.602 246.928,-384.398 "></polyline>
<path fill="none" stroke="black" d="M246.928,-384.398C246.928,-378.398 252.928,-372.398 258.928,-372.398"></path>
<polyline fill="none" stroke="black" points="258.928,-372.398 317.072,-372.398 "></polyline>
<path fill="none" stroke="black" d="M317.072,-372.398C323.072,-372.398 329.072,-378.398 329.072,-384.398"></path>
<polyline fill="none" stroke="black" points="329.072,-384.398 329.072,-401.602 "></polyline>
<path fill="none" stroke="black" d="M329.072,-401.602C329.072,-407.602 323.072,-413.602 317.072,-413.602"></path>
<text text-anchor="middle" x="288" y="-397.2" font-family="Times,serif" font-size="14.00">SwitchCase</text>
<text text-anchor="middle" x="288" y="-380.4" font-family="Times,serif" font-size="14.00">Literal (3)</text>
</g>

<g id="edge19" class="edge"><title>s1_6-&gt;s1_8</title>
<path fill="none" stroke="black" d="M242.261,-475.046C250.693,-460.106 262.349,-439.452 271.784,-422.734"></path>
<polygon fill="black" stroke="black" points="274.895,-424.342 276.762,-413.913 268.799,-420.902 274.895,-424.342"></polygon>
</g>

<g id="edge20" class="edge"><title>s1_8-&gt;s1_9</title>
<path fill="none" stroke="black" d="M263.407,-372.286C249.805,-361.383 232.341,-347.384 215.751,-334.086"></path>
<polygon fill="black" stroke="black" points="217.69,-331.155 207.698,-327.631 213.312,-336.617 217.69,-331.155"></polygon>
</g>

<g id="node12" class="node"><title>s1_11</title>
<polygon fill="white" stroke="white" points="317.072,-308 258.928,-308 246.928,-296 246.928,-284 258.928,-272 317.072,-272 329.072,-284 329.072,-296 317.072,-308"></polygon>
<path fill="white" stroke="white" d="M258.928,-308C252.928,-308 246.928,-302 246.928,-296"></path>
<path fill="white" stroke="white" d="M246.928,-284C246.928,-278 252.928,-272 258.928,-272"></path>
<path fill="white" stroke="white" d="M317.072,-272C323.072,-272 329.072,-278 329.072,-284"></path>
<path fill="white" stroke="white" d="M329.072,-296C329.072,-302 323.072,-308 317.072,-308"></path>
<polyline fill="none" stroke="black" points="317.072,-308 258.928,-308 "></polyline>
<path fill="none" stroke="black" d="M258.928,-308C252.928,-308 246.928,-302 246.928,-296"></path>
<polyline fill="none" stroke="black" points="246.928,-296 246.928,-284 "></polyline>
<path fill="none" stroke="black" d="M246.928,-284C246.928,-278 252.928,-272 258.928,-272"></path>
<polyline fill="none" stroke="black" points="258.928,-272 317.072,-272 "></polyline>
<path fill="none" stroke="black" d="M317.072,-272C323.072,-272 329.072,-278 329.072,-284"></path>
<polyline fill="none" stroke="black" points="329.072,-284 329.072,-296 "></polyline>
<path fill="none" stroke="black" d="M329.072,-296C329.072,-302 323.072,-308 317.072,-308"></path>
<text text-anchor="middle" x="288" y="-285.8" font-family="Times,serif" font-size="14.00">SwitchCase</text>
</g>

<g id="edge22" class="edge"><title>s1_8-&gt;s1_11</title>
<path fill="none" stroke="black" d="M288,-372.046C288,-356.766 288,-335.511 288,-318.601"></path>
<polygon fill="black" stroke="black" points="291.5,-318.223 288,-308.223 284.5,-318.223 291.5,-318.223"></polygon>
</g>

<g id="edge23" class="edge"><title>s1_11-&gt;s1_12</title>
<path fill="none" stroke="black" d="M285.5,-271.813C283.695,-259.403 281.166,-242.015 278.784,-225.64"></path>
<polygon fill="black" stroke="black" points="282.231,-225.02 277.328,-215.628 275.304,-226.028 282.231,-225.02"></polygon>
</g>
</g>
</svg>