<?xml version="1.0"?>
<svg width="152pt" height="322pt" viewBox="0.00 0.00 152.00 322.00" xmlns="http://www.w3.org/2000/svg" xmlns:xlink="http://www.w3.org/1999/xlink">
<g id="graph1" class="graph" transform="scale(1 1) rotate(0) translate(4 318)">
<title>_anonymous_0</title>

<g id="node1" class="node"><title>initial</title>
<ellipse fill="black" stroke="black" cx="72" cy="-305" rx="9" ry="9"></ellipse>
</g>

<g id="node2" class="node"><title>s1_1</title>
<polygon fill="white" stroke="white" points="113.149,-259.602 30.8505,-259.602 18.8505,-247.602 18.8505,-230.398 30.8505,-218.398 113.149,-218.398 125.149,-230.398 125.149,-247.602 113.149,-259.602"></polygon>
<path fill="white" stroke="white" d="M30.8505,-259.602C24.8505,-259.602 18.8505,-253.602 18.8505,-247.602"></path>
<path fill="white" stroke="white" d="M18.8505,-230.398C18.8505,-224.398 24.8505,-218.398 30.8505,-218.398"></path>
<path fill="white" stroke="white" d="M113.149,-218.398C119.149,-218.398 125.149,-224.398 125.149,-230.398"></path>
<path fill="white" stroke="white" d="M125.149,-247.602C125.149,-253.602 119.149,-259.602 113.149,-259.602"></path>
<polyline fill="none" stroke="black" points="113.149,-259.602 30.8505,-259.602 "></polyline>
<path fill="none" stroke="black" d="M30.8505,-259.602C24.8505,-259.602 18.8505,-253.602 18.8505,-247.602"></path>
<polyline fill="none" stroke="black" points="18.8505,-247.602 18.8505,-230.398 "></polyline>
<path fill="none" stroke="black" d="M18.8505,-230.398C18.8505,-224.398 24.8505,-218.398 30.8505,-218.398"></path>
<polyline fill="none" stroke="black" points="30.8505,-218.398 113.149,-218.398 "></polyline>
<path fill="none" stroke="black" d="M113.149,-218.398C119.149,-218.398 125.149,-224.398 125.149,-230.398"></path>
<polyline fill="none" stroke="black" points="125.149,-230.398 125.149,-247.602 "></polyline>
<path fill="none" stroke="black" d="M125.149,-247.602C125.149,-253.602 119.149,-259.602 113.149,-259.602"></path>
<text text-anchor="middle" x="72" y="-243.2" font-family="Times,serif" font-size="14.00">Program</text>
<text text-anchor="middle" x="72" y="-226.4" font-family="Times,serif" font-size="14.00">WhileStatement</text>
</g>

<g id="edge2" class="edge"><title>initial-&gt;s1_1</title>
<path fill="none" stroke="black" d="M72,-295.894C72,-289.274 72,-279.485 72,-269.94"></path>
<polygon fill="black" stroke="black" points="75.5001,-269.842 72,-259.842 68.5001,-269.842 75.5001,-269.842"></polygon>
</g>

<g id="node3" class="node"><title>s1_2</title>
<polygon fill="white" stroke="white" points="103.339,-182 40.6614,-182 28.6614,-170 28.6614,-158 40.6614,-146 103.339,-146 115.339,-158 115.339,-170 103.339,-182"></polygon>
<path fill="white" stroke="white" d="M40.6614,-182C34.6614,-182 28.6614,-176 28.6614,-170"></path>
<path fill="white" stroke="white" d="M28.6614,-158C28.6614,-152 34.6614,-146 40.6614,-146"></path>
<path fill="white" stroke="white" d="M103.339,-146C109.339,-146 115.339,-152 115.339,-158"></path>
<path fill="white" stroke="white" d="M115.339,-170C115.339,-176 109.339,-182 103.339,-182"></path>
<polyline fill="none" stroke="black" points="103.339,-182 40.6614,-182 "></polyline>
<path fill="none" stroke="black" d="M40.6614,-182C34.6614,-182 28.6614,-176 28.6614,-170"></path>
<polyline fill="none" stroke="black" points="28.6614,-170 28.6614,-158 "></polyline>
<path fill="none" stroke="black" d="M28.6614,-158C28.6614,-152 34.6614,-146 40.6614,-146"></path>
<polyline fill="none" stroke="black" points="40.6614,-146 103.339,-146 "></polyline>
<path fill="none" stroke="black" d="M103.339,-146C109.339,-146 115.339,-152 115.339,-158"></path>
<polyline fill="none" stroke="black" points="115.339,-158 115.339,-170 "></polyline>
<path fill="none" stroke="black" d="M115.339,-170C115.339,-176 109.339,-182 103.339,-182"></path>
<text text-anchor="middle" x="72" y="-159.8" font-family="Times,serif" font-size="14.00">Identifier (a)</text>
</g>

<g id="edge3" class="edge"><title>s1_1-&gt;s1_2</title>
<path fill="none" stroke="black" d="M72,-218.052C72,-210.216 72,-201.089 72,-192.636"></path>
<polygon fill="black" stroke="black" points="75.5001,-192.439 72,-182.439 68.5001,-192.439 75.5001,-192.439"></polygon>
</g>

<g id="node4" class="node"><title>s1_3</title>
<polygon fill="white" stroke="white" points="132.317,-109.3 11.6828,-109.3 -0.317209,-97.3002 -0.317209,-12.6998 11.6828,-0.699817 132.317,-0.699817 144.317,-12.6998 144.317,-97.3002 132.317,-109.3"></polygon>
<path fill="white" stroke="white" d="M11.6828,-109.3C5.68279,-109.3 -0.317209,-103.3 -0.317209,-97.3002"></path>
<path fill="white" stroke="white" d="M-0.317209,-12.6998C-0.317209,-6.69982 5.68279,-0.699817 11.6828,-0.699817"></path>
<path fill="white" stroke="white" d="M132.317,-0.699817C138.317,-0.699817 144.317,-6.69982 144.317,-12.6998"></path>
<path fill="white" stroke="white" d="M144.317,-97.3002C144.317,-103.3 138.317,-109.3 132.317,-109.3"></path>
<polyline fill="none" stroke="black" points="132.317,-109.3 11.6828,-109.3 "></polyline>
<path fill="none" stroke="black" d="M11.6828,-109.3C5.68279,-109.3 -0.317209,-103.3 -0.317209,-97.3002"></path>
<polyline fill="none" stroke="black" points="-0.317209,-97.3002 -0.317209,-12.6998 "></polyline>
<path fill="none" stroke="black" d="M-0.317209,-12.6998C-0.317209,-6.69982 5.68279,-0.699817 11.6828,-0.699817"></path>
<polyline fill="none" stroke="black" points="11.6828,-0.699817 132.317,-0.699817 "></polyline>
<path fill="none" stroke="black" d="M132.317,-0.699817C138.317,-0.699817 144.317,-6.69982 144.317,-12.6998"></path>
<polyline fill="none" stroke="black" points="144.317,-12.6998 144.317,-97.3002 "></polyline>
<path fill="none" stroke="black" d="M144.317,-97.3002C144.317,-103.3 138.317,-109.3 132.317,-109.3"></path>
<text text-anchor="middle" x="72" y="-92.8" font-family="Times,serif" font-size="14.00">BlockStatement</text>
<text text-anchor="middle" x="72" y="-76" font-family="Times,serif" font-size="14.00">ExpressionStatement</text>
<text text-anchor="middle" x="72" y="-59.2" font-family="Times,serif" font-size="14.00">AssignmentExpression</text>
<text text-anchor="middle" x="72" y="-42.4" font-family="Times,serif" font-size="14.00">Identifier (a)</text>
<text text-anchor="middle" x="72" y="-25.6" font-family="Times,serif" font-size="14.00">CallExpression</text>
<text text-anchor="middle" x="72" y="-8.8" font-family="Times,serif" font-size="14.00">Identifier (foo)</text>
</g>

<g id="edge4" class="edge"><title>s1_2-&gt;s1_3</title>
<path fill="none" stroke="black" d="M66.8852,-145.809C66.0803,-138.443 65.5726,-129.338 65.362,-119.779"></path>
<polygon fill="black" stroke="black" points="68.861,-119.666 65.25,-109.706 61.8615,-119.744 68.861,-119.666"></polygon>
</g>

<g id="edge6" class="edge"><title>s1_3-&gt;s1_2</title>
<path fill="none" stroke="red" d="M78.75,-109.706C78.7461,-118.71 78.4872,-127.707 77.9735,-135.675"></path>
<polygon fill="red" stroke="red" points="74.4717,-135.549 77.1148,-145.809 81.4467,-136.14 74.4717,-135.549"></polygon>
</g>
</g>
</svg>