<?xml version="1.0"?>
<svg width="186pt" height="472pt" viewBox="0.00 0.00 186.00 472.00" xmlns="http://www.w3.org/2000/svg" xmlns:xlink="http://www.w3.org/1999/xlink">
<g id="graph1" class="graph" transform="scale(1 1) rotate(0) translate(4 468)">
<title>_anonymous_0</title>

<g id="node1" class="node"><title>initial</title>
<ellipse fill="black" stroke="black" cx="114" cy="-455" rx="9" ry="9"></ellipse>
</g>

<g id="node2" class="node"><title>s1_1</title>
<polygon fill="white" stroke="white" points="166.617,-409.3 61.3833,-409.3 49.3833,-397.3 49.3833,-312.7 61.3833,-300.7 166.617,-300.7 178.617,-312.7 178.617,-397.3 166.617,-409.3"></polygon>
<path fill="white" stroke="white" d="M61.3833,-409.3C55.3833,-409.3 49.3833,-403.3 49.3833,-397.3"></path>
<path fill="white" stroke="white" d="M49.3833,-312.7C49.3833,-306.7 55.3833,-300.7 61.3833,-300.7"></path>
<path fill="white" stroke="white" d="M166.617,-300.7C172.617,-300.7 178.617,-306.7 178.617,-312.7"></path>
<path fill="white" stroke="white" d="M178.617,-397.3C178.617,-403.3 172.617,-409.3 166.617,-409.3"></path>
<polyline fill="none" stroke="black" points="166.617,-409.3 61.3833,-409.3 "></polyline>
<path fill="none" stroke="black" d="M61.3833,-409.3C55.3833,-409.3 49.3833,-403.3 49.3833,-397.3"></path>
<polyline fill="none" stroke="black" points="49.3833,-397.3 49.3833,-312.7 "></polyline>
<path fill="none" stroke="black" d="M49.3833,-312.7C49.3833,-306.7 55.3833,-300.7 61.3833,-300.7"></path>
<polyline fill="none" stroke="black" points="61.3833,-300.7 166.617,-300.7 "></polyline>
<path fill="none" stroke="black" d="M166.617,-300.7C172.617,-300.7 178.617,-306.7 178.617,-312.7"></path>
<polyline fill="none" stroke="black" points="178.617,-312.7 178.617,-397.3 "></polyline>
<path fill="none" stroke="black" d="M178.617,-397.3C178.617,-403.3 172.617,-409.3 166.617,-409.3"></path>
<text text-anchor="middle" x="114" y="-392.8" font-family="Times,serif" font-size="14.00">Program</text>
<text text-anchor="middle" x="114" y="-376" font-family="Times,serif" font-size="14.00">ForStatement</text>
<text text-anchor="middle" x="114" y="-359.2" font-family="Times,serif" font-size="14.00">VariableDeclaration</text>
<text text-anchor="middle" x="114" y="-342.4" font-family="Times,serif" font-size="14.00">VariableDeclarator</text>
<text text-anchor="middle" x="114" y="-325.6" font-family="Times,serif" font-size="14.00">Identifier (i)</text>
<text text-anchor="middle" x="114" y="-308.8" font-family="Times,serif" font-size="14.00">Literal (0)</text>
</g>

<g id="edge2" class="edge"><title>initial-&gt;s1_1</title>
<path fill="none" stroke="black" d="M114,-445.98C114,-439.675 114,-430.238 114,-419.813"></path>
<polygon fill="black" stroke="black" points="117.5,-419.586 114,-409.586 110.5,-419.586 117.5,-419.586"></polygon>
</g>

<g id="node3" class="node"><title>s1_2</title>
<polygon fill="white" stroke="white" points="160.233,-264.401 67.7673,-264.401 55.7673,-252.401 55.7673,-217.599 67.7673,-205.599 160.233,-205.599 172.233,-217.599 172.233,-252.401 160.233,-264.401"></polygon>
<path fill="white" stroke="white" d="M67.7673,-264.401C61.7673,-264.401 55.7673,-258.401 55.7673,-252.401"></path>
<path fill="white" stroke="white" d="M55.7673,-217.599C55.7673,-211.599 61.7673,-205.599 67.7673,-205.599"></path>
<path fill="white" stroke="white" d="M160.233,-205.599C166.233,-205.599 172.233,-211.599 172.233,-217.599"></path>
<path fill="white" stroke="white" d="M172.233,-252.401C172.233,-258.401 166.233,-264.401 160.233,-264.401"></path>
<polyline fill="none" stroke="black" points="160.233,-264.401 67.7673,-264.401 "></polyline>
<path fill="none" stroke="black" d="M67.7673,-264.401C61.7673,-264.401 55.7673,-258.401 55.7673,-252.401"></path>
<polyline fill="none" stroke="black" points="55.7673,-252.401 55.7673,-217.599 "></polyline>
<path fill="none" stroke="black" d="M55.7673,-217.599C55.7673,-211.599 61.7673,-205.599 67.7673,-205.599"></path>
<polyline fill="none" stroke="black" points="67.7673,-205.599 160.233,-205.599 "></polyline>
<path fill="none" stroke="black" d="M160.233,-205.599C166.233,-205.599 172.233,-211.599 172.233,-217.599"></path>
<polyline fill="none" stroke="black" points="172.233,-217.599 172.233,-252.401 "></polyline>
<path fill="none" stroke="black" d="M172.233,-252.401C172.233,-258.401 166.233,-264.401 160.233,-264.401"></path>
<text text-anchor="middle" x="114" y="-247.6" font-family="Times,serif" font-size="14.00">BinaryExpression</text>
<text text-anchor="middle" x="114" y="-230.8" font-family="Times,serif" font-size="14.00">Identifier (i)</text>
<text text-anchor="middle" x="114" y="-214" font-family="Times,serif" font-size="14.00">Literal (10)</text>
</g>

<g id="edge3" class="edge"><title>s1_1-&gt;s1_2</title>
<path fill="none" stroke="black" d="M114,-300.524C114,-291.777 114,-282.867 114,-274.572"></path>
<polygon fill="black" stroke="black" points="117.5,-274.452 114,-264.452 110.5,-274.452 117.5,-274.452"></polygon>
</g>

<g id="node4" class="node"><title>s1_3</title>
<polygon fill="white" stroke="white" points="122.147,-170 11.8526,-170 -0.147372,-158 -0.147372,-90 11.8526,-78 122.147,-78 134.147,-90 134.147,-158 122.147,-170"></polygon>
<path fill="white" stroke="white" d="M11.8526,-170C5.85263,-170 -0.147372,-164 -0.147372,-158"></path>
<path fill="white" stroke="white" d="M-0.147372,-90C-0.147372,-84 5.85263,-78 11.8526,-78"></path>
<path fill="white" stroke="white" d="M122.147,-78C128.147,-78 134.147,-84 134.147,-90"></path>
<path fill="white" stroke="white" d="M134.147,-158C134.147,-164 128.147,-170 122.147,-170"></path>
<polyline fill="none" stroke="black" points="122.147,-170 11.8526,-170 "></polyline>
<path fill="none" stroke="black" d="M11.8526,-170C5.85263,-170 -0.147372,-164 -0.147372,-158"></path>
<polyline fill="none" stroke="black" points="-0.147372,-158 -0.147372,-90 "></polyline>
<path fill="none" stroke="black" d="M-0.147372,-90C-0.147372,-84 5.85263,-78 11.8526,-78"></path>
<polyline fill="none" stroke="black" points="11.8526,-78 122.147,-78 "></polyline>
<path fill="none" stroke="black" d="M122.147,-78C128.147,-78 134.147,-84 134.147,-90"></path>
<polyline fill="none" stroke="black" points="134.147,-90 134.147,-158 "></polyline>
<path fill="none" stroke="black" d="M134.147,-158C134.147,-164 128.147,-170 122.147,-170"></path>
<text text-anchor="middle" x="67" y="-153.4" font-family="Times,serif" font-size="14.00">BlockStatement</text>
<text text-anchor="middle" x="67" y="-136.6" font-family="Times,serif" font-size="14.00">ExpressionStatement</text>
<text text-anchor="middle" x="67" y="-119.8" font-family="Times,serif" font-size="14.00">CallExpression</text>
<text text-anchor="middle" x="67" y="-103" font-family="Times,serif" font-size="14.00">Identifier (foo)</text>
<text text-anchor="middle" x="67" y="-86.2" font-family="Times,serif" font-size="14.00">Identifier (i)</text>
</g>

<g id="edge4" class="edge"><title>s1_2-&gt;s1_3</title>
<path fill="none" stroke="black" d="M101.774,-205.646C98.3019,-197.594 94.3994,-188.543 90.4971,-179.493"></path>
<polygon fill="black" stroke="black" points="93.6221,-177.901 86.4485,-170.104 87.1942,-180.673 93.6221,-177.901"></polygon>
</g>

<g id="node5" class="node"><title>s1_4</title>
<polygon fill="white" stroke="white" points="160.977,-41.6019 67.0234,-41.6019 55.0234,-29.6019 55.0234,-12.3981 67.0234,-0.398095 160.977,-0.398095 172.977,-12.3981 172.977,-29.6019 160.977,-41.6019"></polygon>
<path fill="white" stroke="white" d="M67.0234,-41.6019C61.0234,-41.6019 55.0234,-35.6019 55.0234,-29.6019"></path>
<path fill="white" stroke="white" d="M55.0234,-12.3981C55.0234,-6.3981 61.0234,-0.398095 67.0234,-0.398095"></path>
<path fill="white" stroke="white" d="M160.977,-0.398095C166.977,-0.398095 172.977,-6.3981 172.977,-12.3981"></path>
<path fill="white" stroke="white" d="M172.977,-29.6019C172.977,-35.6019 166.977,-41.6019 160.977,-41.6019"></path>
<polyline fill="none" stroke="black" points="160.977,-41.6019 67.0234,-41.6019 "></polyline>
<path fill="none" stroke="black" d="M67.0234,-41.6019C61.0234,-41.6019 55.0234,-35.6019 55.0234,-29.6019"></path>
<polyline fill="none" stroke="black" points="55.0234,-29.6019 55.0234,-12.3981 "></polyline>
<path fill="none" stroke="black" d="M55.0234,-12.3981C55.0234,-6.3981 61.0234,-0.398095 67.0234,-0.398095"></path>
<polyline fill="none" stroke="black" points="67.0234,-0.398095 160.977,-0.398095 "></polyline>
<path fill="none" stroke="black" d="M160.977,-0.398095C166.977,-0.398095 172.977,-6.3981 172.977,-12.3981"></path>
<polyline fill="none" stroke="black" points="172.977,-12.3981 172.977,-29.6019 "></polyline>
<path fill="none" stroke="black" d="M172.977,-29.6019C172.977,-35.6019 166.977,-41.6019 160.977,-41.6019"></path>
<text text-anchor="middle" x="114" y="-25.2" font-family="Times,serif" font-size="14.00">UpdateExpression</text>
<text text-anchor="middle" x="114" y="-8.4" font-family="Times,serif" font-size="14.00">Identifier (i)</text>
</g>

<g id="edge5" class="edge"><title>s1_3-&gt;s1_4</title>
<path fill="none" stroke="black" d="M88.0256,-77.8174C92.2417,-68.7572 96.5653,-59.4661 100.445,-51.1281"></path>
<polygon fill="black" stroke="black" points="103.718,-52.392 104.763,-41.8489 97.3711,-49.4386 103.718,-52.392"></polygon>
</g>

<g id="edge7" class="edge"><title>s1_4-&gt;s1_2</title>
<path fill="none" stroke="red" d="M127.225,-41.8137C133.324,-52.1325 139.891,-65.235 143,-78 152.676,-117.727 151.633,-130.033 143,-170 141.091,-178.837 137.857,-187.92 134.226,-196.368"></path>
<polygon fill="red" stroke="red" points="130.985,-195.038 130.005,-205.588 137.35,-197.952 130.985,-195.038"></polygon>
</g>
</g>
</svg>