<svg width="64" height="64" viewBox="0 0 64 64" fill="none" xmlns="http://www.w3.org/2000/svg">
<path fill-rule="evenodd" clip-rule="evenodd" d="M52.4016 31.916C52.4016 35.946 51.2316 39.811 49.2236 43.003L57.4196 51.233C61.4336 45.858 63.9426 39.139 63.9426 31.915C63.9426 24.691 61.4326 17.973 57.4196 12.597L49.2236 20.827C51.2306 24.019 52.4016 27.714 52.4016 31.914V31.916Z" fill="#B8D3F4"/>
<path fill-rule="evenodd" clip-rule="evenodd" d="M32.0036 52.41C20.7966 52.41 11.5976 43.17 11.5976 31.917C11.5976 20.664 20.7976 11.424 32.0036 11.424C36.1856 11.424 39.8636 12.6 43.0436 14.784L51.2396 6.554C45.8866 2.52 39.1966 0 32.0036 0C14.4396 0 0.0566406 14.278 0.0566406 32.084C0.0566406 49.89 14.4396 64 32.0036 64C39.3636 64 46.0536 61.48 51.4066 57.45L43.2106 49.22C40.0326 51.236 36.1856 52.412 32.0036 52.412V52.41Z" fill="#3385FF"/>
</svg>
