<svg xmlns="http://www.w3.org/2000/svg" width="203" height="58" fill="none"><path fill="#8080F2" d="m46.557 21.11-12.54-7.24a1.01 1.01 0 0 0-1.015 0l-12.54 7.24a1.01 1.01 0 0 0-.508.878v14.48c0 .362.194.697.508.879l12.54 7.24c.314.181.7.181 1.015 0l12.54-7.24c.314-.181.507-.516.507-.879v-14.48c0-.363-.193-.697-.507-.879Z"/><path fill="#4B32C3" d="M.904 27.705 15.888 1.638C16.432.695 17.438 0 18.526 0h29.967c1.089 0 2.094.695 2.639 1.638l14.983 26.01a3.1 3.1 0 0 1 0 3.074L51.132 56.576c-.545.942-1.55 1.424-2.639 1.424H18.526c-1.088 0-2.094-.467-2.638-1.41L.905 30.694a2.94 2.94 0 0 1 0-2.99Zm12.407 12.534c0 .384.231.738.563.93L32.96 52.18c.332.192.748.192 1.08 0l19.1-11.011c.332-.192.564-.546.564-.93V18.216c0-.383-.229-.738-.56-.93L34.057 6.277a1.08 1.08 0 0 0-1.079 0l-19.102 11.01c-.332.192-.566.547-.566.93V40.24Z"/><path fill="#101828" d="M86.697 43.71V14.29h18.745v4.581h-13.66v7.733h12.483v4.582H91.783v7.943h13.869v4.581zm32.222.589q-3.362 0-5.968-1.177-2.564-1.22-4.035-3.489-1.47-2.27-1.471-5.547v-1.093h5.002v1.093q0 2.9 1.765 4.328 1.766 1.43 4.707 1.43 2.985 0 4.497-1.22 1.513-1.218 1.513-3.152 0-1.303-.714-2.101-.714-.84-2.102-1.345-1.344-.504-3.278-.967l-1.261-.252q-2.9-.672-5.043-1.68-2.102-1.052-3.236-2.69-1.135-1.64-1.135-4.288 0-2.647 1.261-4.539 1.26-1.89 3.572-2.9 2.311-1.009 5.422-1.009t5.548 1.051q2.438 1.05 3.824 3.152 1.43 2.102 1.429 5.254v1.387h-5.001v-1.387q0-1.808-.715-2.9-.714-1.093-2.017-1.597t-3.068-.504q-2.606 0-3.951 1.008-1.344 1.009-1.345 2.858 0 1.177.589 2.018.63.798 1.807 1.345 1.218.504 3.026.882l1.261.294q3.025.673 5.296 1.723 2.269 1.01 3.53 2.69 1.303 1.681 1.303 4.371 0 2.648-1.387 4.666-1.346 2.017-3.825 3.152-2.437 1.135-5.8 1.135m14.181-.589V14.29h5.085v24.839h13.786v4.581zm21.727 0V22.948h4.834V43.71zm2.396-23.41q-1.303 0-2.269-.84-.925-.884-.925-2.312 0-1.43.925-2.27a3.26 3.26 0 0 1 2.269-.882q1.387 0 2.27.882.924.84.924 2.27t-.924 2.311q-.883.84-2.27.841m7.302 23.41V22.948h4.75v2.9h.714q.547-1.177 1.975-2.228 1.43-1.05 4.329-1.05 2.396 0 4.245 1.092a7.44 7.44 0 0 1 2.858 3.026q1.051 1.934 1.051 4.582v12.44h-4.833V31.648q0-2.522-1.261-3.74-1.22-1.262-3.489-1.262-2.564 0-4.034 1.724-1.471 1.68-1.471 4.833V43.71zm31.924 0q-2.018 0-3.236-1.177-1.177-1.218-1.177-3.278V26.941h-5.422v-3.993h5.422v-6.683h4.833v6.683h5.968v3.993h-5.968v11.516q0 1.26 1.177 1.26h4.161v3.993z"/></svg>