<svg width="204" height="58" fill="none" xmlns="http://www.w3.org/2000/svg"><path opacity=".6" d="m46.89 21.11-12.54-7.24a1.015 1.015 0 0 0-1.014 0l-12.541 7.24a1.015 1.015 0 0 0-.507.878v14.48c0 .362.193.697.507.879l12.54 7.24c.315.181.701.181 1.015 0l12.54-7.24c.314-.181.508-.516.508-.879v-14.48c0-.363-.194-.697-.507-.879Z" fill="#fff"/><path d="M1.238 27.705 16.22 1.638C16.765.695 17.771 0 18.86 0h29.968c1.088 0 2.094.695 2.638 1.638l14.983 26.01a3.1 3.1 0 0 1 0 3.074L51.465 56.576c-.544.942-1.55 1.424-2.638 1.424H18.86c-1.089 0-2.095-.467-2.639-1.41L1.238 30.694a2.94 2.94 0 0 1 0-2.99Zm12.407 12.534c0 .384.23.738.563.93L33.293 52.18c.332.192.748.192 1.08 0l19.1-11.011c.333-.192.565-.546.565-.93V18.216c0-.383-.23-.738-.561-.93L34.392 6.277a1.084 1.084 0 0 0-1.08 0l-19.101 11.01c-.332.192-.566.547-.566.93V40.24ZM87.03 43.71V14.29h18.746v4.581h-13.66v7.733H104.6v4.582H92.116v7.943h13.87v4.581H87.031Zm32.223.589c-2.242 0-4.231-.393-5.968-1.177-1.71-.813-3.055-1.976-4.035-3.489-.981-1.513-1.471-3.362-1.471-5.547v-1.093h5.001v1.093c0 1.933.589 3.376 1.765 4.328 1.177.953 2.746 1.43 4.708 1.43 1.989 0 3.488-.407 4.497-1.22 1.008-.812 1.513-1.863 1.513-3.152 0-.868-.238-1.569-.715-2.101-.476-.56-1.176-1.009-2.101-1.345-.897-.336-1.989-.658-3.278-.967l-1.261-.252c-1.934-.448-3.615-1.008-5.044-1.68-1.401-.701-2.479-1.598-3.236-2.69-.756-1.094-1.135-2.523-1.135-4.288 0-1.765.421-3.278 1.261-4.539.841-1.26 2.032-2.227 3.573-2.9 1.541-.672 3.348-1.009 5.421-1.009 2.074 0 3.923.35 5.548 1.051 1.625.7 2.9 1.751 3.825 3.152.952 1.401 1.429 3.153 1.429 5.254v1.387h-5.002v-1.387c0-1.205-.238-2.172-.714-2.9-.476-.729-1.149-1.26-2.018-1.597-.868-.336-1.891-.504-3.068-.504-1.737 0-3.054.336-3.95 1.008-.897.673-1.345 1.625-1.345 2.858 0 .785.196 1.457.588 2.018.42.532 1.023.98 1.807 1.345.813.336 1.822.63 3.026.882l1.261.294c2.018.449 3.783 1.023 5.296 1.723 1.513.673 2.69 1.57 3.53 2.69.869 1.121 1.303 2.578 1.303 4.371 0 1.766-.462 3.32-1.387 4.666-.896 1.345-2.171 2.395-3.824 3.152-1.625.756-3.559 1.135-5.8 1.135Zm14.18-.589V14.29h5.086v24.839h13.785v4.581h-18.871Zm21.728 0V22.948h4.833V43.71h-4.833Zm2.396-23.41a3.35 3.35 0 0 1-2.27-.84c-.616-.589-.925-1.36-.925-2.312 0-.953.309-1.71.925-2.27a3.257 3.257 0 0 1 2.27-.882c.924 0 1.681.294 2.269.882.617.56.925 1.317.925 2.27 0 .953-.308 1.723-.925 2.311-.588.56-1.345.841-2.269.841Zm7.302 23.41V22.948h4.749v2.9h.715c.364-.785 1.022-1.527 1.975-2.228.953-.7 2.396-1.05 4.329-1.05 1.597 0 3.012.364 4.245 1.092a7.442 7.442 0 0 1 2.858 3.026c.7 1.29 1.05 2.816 1.05 4.582v12.44h-4.833V31.648c0-1.681-.42-2.928-1.261-3.74-.812-.841-1.975-1.262-3.488-1.262-1.709 0-3.054.575-4.035 1.724-.981 1.12-1.471 2.732-1.471 4.833V43.71h-4.833Zm31.923 0c-1.345 0-2.423-.392-3.236-1.177-.784-.812-1.177-1.905-1.177-3.278V26.941h-5.421v-3.993h5.421v-6.683h4.834v6.683h5.968v3.993h-5.968v11.516c0 .84.392 1.26 1.176 1.26h4.161v3.993h-5.758Z" fill="#fff"/></svg>