<svg xmlns="http://www.w3.org/2000/svg" width="204" height="58" fill="none"><path fill="#fff" d="m46.89 21.11-12.54-7.24a1.01 1.01 0 0 0-1.014 0l-12.541 7.24a1.01 1.01 0 0 0-.507.878v14.48c0 .362.193.697.507.879l12.54 7.24c.315.181.701.181 1.015 0l12.54-7.24c.314-.181.508-.516.508-.879v-14.48c0-.363-.194-.697-.507-.879Z" opacity=".6"/><path fill="#fff" d="M1.238 27.705 16.22 1.638C16.765.695 17.771 0 18.86 0h29.968c1.088 0 2.094.695 2.638 1.638l14.983 26.01a3.1 3.1 0 0 1 0 3.074L51.465 56.576c-.544.942-1.55 1.424-2.638 1.424H18.86c-1.089 0-2.095-.467-2.639-1.41L1.238 30.694a2.94 2.94 0 0 1 0-2.99Zm12.407 12.534c0 .384.23.738.563.93L33.293 52.18c.332.192.748.192 1.08 0l19.1-11.011c.333-.192.565-.546.565-.93V18.216c0-.383-.23-.738-.561-.93L34.392 6.277a1.08 1.08 0 0 0-1.08 0l-19.101 11.01c-.332.192-.566.547-.566.93V40.24ZM87.03 43.71V14.29h18.746v4.581h-13.66v7.733H104.6v4.582H92.116v7.943h13.87v4.581H87.031Zm32.223.589q-3.363 0-5.968-1.177-2.565-1.22-4.035-3.489t-1.471-5.547v-1.093h5.001v1.093q0 2.9 1.765 4.328 1.765 1.43 4.708 1.43 2.984 0 4.497-1.22 1.512-1.218 1.513-3.152 0-1.303-.715-2.101-.714-.84-2.101-1.345-1.345-.504-3.278-.967l-1.261-.252q-2.9-.672-5.044-1.68-2.101-1.052-3.236-2.69-1.135-1.64-1.135-4.288 0-2.647 1.261-4.539 1.261-1.89 3.573-2.9 2.311-1.009 5.421-1.009t5.548 1.051 3.825 3.152q1.429 2.102 1.429 5.254v1.387h-5.002v-1.387q0-1.808-.714-2.9-.714-1.093-2.018-1.597-1.302-.504-3.068-.504-2.606 0-3.95 1.008t-1.345 2.858q0 1.177.588 2.018.63.798 1.807 1.345 1.22.504 3.026.882l1.261.294q3.027.673 5.296 1.723 2.27 1.01 3.53 2.69 1.303 1.681 1.303 4.371 0 2.648-1.387 4.666-1.344 2.017-3.824 3.152-2.438 1.135-5.8 1.135m14.18-.589V14.29h5.086v24.839h13.785v4.581zm21.728 0V22.948h4.833V43.71zm2.396-23.41a3.35 3.35 0 0 1-2.27-.84q-.925-.884-.925-2.312 0-1.43.925-2.27a3.26 3.26 0 0 1 2.27-.882q1.387 0 2.269.882.925.84.925 2.27t-.925 2.311q-.882.84-2.269.841m7.302 23.41V22.948h4.749v2.9h.715q.546-1.177 1.975-2.228 1.43-1.05 4.329-1.05 2.396 0 4.245 1.092a7.44 7.44 0 0 1 2.858 3.026q1.05 1.934 1.05 4.582v12.44h-4.833V31.648q0-2.522-1.261-3.74-1.218-1.262-3.488-1.262-2.564 0-4.035 1.724-1.471 1.68-1.471 4.833V43.71zm31.923 0q-2.017 0-3.236-1.177-1.176-1.218-1.177-3.278V26.941h-5.421v-3.993h5.421v-6.683h4.834v6.683h5.968v3.993h-5.968v11.516q0 1.26 1.176 1.26h4.161v3.993z"/></svg>