<?xml version="1.0"?>
<svg width="185pt" height="538pt" viewBox="0.00 0.00 185.00 538.00" xmlns="http://www.w3.org/2000/svg" xmlns:xlink="http://www.w3.org/1999/xlink">
<g id="graph1" class="graph" transform="scale(1 1) rotate(0) translate(4 534)">
<title>_anonymous_0</title>

<g id="node1" class="node"><title>initial</title>
<ellipse fill="black" stroke="black" cx="114" cy="-521" rx="9" ry="9"></ellipse>
</g>

<g id="node3" class="node"><title>s1_1</title>
<polygon fill="white" stroke="white" points="153.319,-475.602 74.6808,-475.602 62.6808,-463.602 62.6808,-446.398 74.6808,-434.398 153.319,-434.398 165.319,-446.398 165.319,-463.602 153.319,-475.602"></polygon>
<path fill="white" stroke="white" d="M74.6808,-475.602C68.6808,-475.602 62.6808,-469.602 62.6808,-463.602"></path>
<path fill="white" stroke="white" d="M62.6808,-446.398C62.6808,-440.398 68.6808,-434.398 74.6808,-434.398"></path>
<path fill="white" stroke="white" d="M153.319,-434.398C159.319,-434.398 165.319,-440.398 165.319,-446.398"></path>
<path fill="white" stroke="white" d="M165.319,-463.602C165.319,-469.602 159.319,-475.602 153.319,-475.602"></path>
<polyline fill="none" stroke="black" points="153.319,-475.602 74.6808,-475.602 "></polyline>
<path fill="none" stroke="black" d="M74.6808,-475.602C68.6808,-475.602 62.6808,-469.602 62.6808,-463.602"></path>
<polyline fill="none" stroke="black" points="62.6808,-463.602 62.6808,-446.398 "></polyline>
<path fill="none" stroke="black" d="M62.6808,-446.398C62.6808,-440.398 68.6808,-434.398 74.6808,-434.398"></path>
<polyline fill="none" stroke="black" points="74.6808,-434.398 153.319,-434.398 "></polyline>
<path fill="none" stroke="black" d="M153.319,-434.398C159.319,-434.398 165.319,-440.398 165.319,-446.398"></path>
<polyline fill="none" stroke="black" points="165.319,-446.398 165.319,-463.602 "></polyline>
<path fill="none" stroke="black" d="M165.319,-463.602C165.319,-469.602 159.319,-475.602 153.319,-475.602"></path>
<text text-anchor="middle" x="114" y="-459.2" font-family="Times,serif" font-size="14.00">Program</text>
<text text-anchor="middle" x="114" y="-442.4" font-family="Times,serif" font-size="14.00">ForInStatement</text>
</g>

<g id="edge2" class="edge"><title>initial-&gt;s1_1</title>
<path fill="none" stroke="black" d="M114,-511.894C114,-505.274 114,-495.485 114,-485.94"></path>
<polygon fill="black" stroke="black" points="117.5,-485.842 114,-475.842 110.5,-485.842 117.5,-485.842"></polygon>
</g>

<g id="node2" class="node"><title>final</title>
<ellipse fill="black" stroke="black" cx="114" cy="-13" rx="9" ry="9"></ellipse>
<ellipse fill="none" stroke="black" cx="114" cy="-13" rx="13" ry="13"></ellipse>
</g>

<g id="node4" class="node"><title>s1_3</title>
<polygon fill="white" stroke="white" points="151.097,-398 76.9034,-398 64.9034,-386 64.9034,-374 76.9034,-362 151.097,-362 163.097,-374 163.097,-386 151.097,-398"></polygon>
<path fill="white" stroke="white" d="M76.9034,-398C70.9034,-398 64.9034,-392 64.9034,-386"></path>
<path fill="white" stroke="white" d="M64.9034,-374C64.9034,-368 70.9034,-362 76.9034,-362"></path>
<path fill="white" stroke="white" d="M151.097,-362C157.097,-362 163.097,-368 163.097,-374"></path>
<path fill="white" stroke="white" d="M163.097,-386C163.097,-392 157.097,-398 151.097,-398"></path>
<polyline fill="none" stroke="black" points="151.097,-398 76.9034,-398 "></polyline>
<path fill="none" stroke="black" d="M76.9034,-398C70.9034,-398 64.9034,-392 64.9034,-386"></path>
<polyline fill="none" stroke="black" points="64.9034,-386 64.9034,-374 "></polyline>
<path fill="none" stroke="black" d="M64.9034,-374C64.9034,-368 70.9034,-362 76.9034,-362"></path>
<polyline fill="none" stroke="black" points="76.9034,-362 151.097,-362 "></polyline>
<path fill="none" stroke="black" d="M151.097,-362C157.097,-362 163.097,-368 163.097,-374"></path>
<polyline fill="none" stroke="black" points="163.097,-374 163.097,-386 "></polyline>
<path fill="none" stroke="black" d="M163.097,-386C163.097,-392 157.097,-398 151.097,-398"></path>
<text text-anchor="middle" x="114" y="-375.8" font-family="Times,serif" font-size="14.00">Identifier (obj)</text>
</g>

<g id="edge3" class="edge"><title>s1_1-&gt;s1_3</title>
<path fill="none" stroke="black" d="M114,-434.052C114,-426.216 114,-417.089 114,-408.636"></path>
<polygon fill="black" stroke="black" points="117.5,-408.439 114,-398.439 110.5,-408.439 117.5,-408.439"></polygon>
</g>

<g id="node5" class="node"><title>s1_2</title>
<polygon fill="white" stroke="white" points="119.617,-326.401 14.3833,-326.401 2.38328,-314.401 2.38328,-279.599 14.3833,-267.599 119.617,-267.599 131.617,-279.599 131.617,-314.401 119.617,-326.401"></polygon>
<path fill="white" stroke="white" d="M14.3833,-326.401C8.38328,-326.401 2.38328,-320.401 2.38328,-314.401"></path>
<path fill="white" stroke="white" d="M2.38328,-279.599C2.38328,-273.599 8.38328,-267.599 14.3833,-267.599"></path>
<path fill="white" stroke="white" d="M119.617,-267.599C125.617,-267.599 131.617,-273.599 131.617,-279.599"></path>
<path fill="white" stroke="white" d="M131.617,-314.401C131.617,-320.401 125.617,-326.401 119.617,-326.401"></path>
<polyline fill="none" stroke="black" points="119.617,-326.401 14.3833,-326.401 "></polyline>
<path fill="none" stroke="black" d="M14.3833,-326.401C8.38328,-326.401 2.38328,-320.401 2.38328,-314.401"></path>
<polyline fill="none" stroke="black" points="2.38328,-314.401 2.38328,-279.599 "></polyline>
<path fill="none" stroke="black" d="M2.38328,-279.599C2.38328,-273.599 8.38328,-267.599 14.3833,-267.599"></path>
<polyline fill="none" stroke="black" points="14.3833,-267.599 119.617,-267.599 "></polyline>
<path fill="none" stroke="black" d="M119.617,-267.599C125.617,-267.599 131.617,-273.599 131.617,-279.599"></path>
<polyline fill="none" stroke="black" points="131.617,-279.599 131.617,-314.401 "></polyline>
<path fill="none" stroke="black" d="M131.617,-314.401C131.617,-320.401 125.617,-326.401 119.617,-326.401"></path>
<text text-anchor="middle" x="67" y="-309.6" font-family="Times,serif" font-size="14.00">VariableDeclaration</text>
<text text-anchor="middle" x="67" y="-292.8" font-family="Times,serif" font-size="14.00">VariableDeclarator</text>
<text text-anchor="middle" x="67" y="-276" font-family="Times,serif" font-size="14.00">Identifier (key)</text>
</g>

<g id="edge4" class="edge"><title>s1_3-&gt;s1_2</title>
<path fill="none" stroke="black" d="M104.033,-361.822C99.4992,-354.009 93.9468,-344.44 88.5344,-335.112"></path>
<polygon fill="black" stroke="black" points="91.4721,-333.201 83.4259,-326.309 85.4175,-336.715 91.4721,-333.201"></polygon>
</g>

<g id="node7" class="node"><title>s1_5</title>
<polygon fill="white" stroke="white" points="165.484,-103.602 62.5157,-103.602 50.5157,-91.6019 50.5157,-74.3981 62.5157,-62.3981 165.484,-62.3981 177.484,-74.3981 177.484,-91.6019 165.484,-103.602"></polygon>
<path fill="white" stroke="white" d="M62.5157,-103.602C56.5157,-103.602 50.5157,-97.6019 50.5157,-91.6019"></path>
<path fill="white" stroke="white" d="M50.5157,-74.3981C50.5157,-68.3981 56.5157,-62.3981 62.5157,-62.3981"></path>
<path fill="white" stroke="white" d="M165.484,-62.3981C171.484,-62.3981 177.484,-68.3981 177.484,-74.3981"></path>
<path fill="white" stroke="white" d="M177.484,-91.6019C177.484,-97.6019 171.484,-103.602 165.484,-103.602"></path>
<polyline fill="none" stroke="black" points="165.484,-103.602 62.5157,-103.602 "></polyline>
<path fill="none" stroke="black" d="M62.5157,-103.602C56.5157,-103.602 50.5157,-97.6019 50.5157,-91.6019"></path>
<polyline fill="none" stroke="black" points="50.5157,-91.6019 50.5157,-74.3981 "></polyline>
<path fill="none" stroke="black" d="M50.5157,-74.3981C50.5157,-68.3981 56.5157,-62.3981 62.5157,-62.3981"></path>
<polyline fill="none" stroke="black" points="62.5157,-62.3981 165.484,-62.3981 "></polyline>
<path fill="none" stroke="black" d="M165.484,-62.3981C171.484,-62.3981 177.484,-68.3981 177.484,-74.3981"></path>
<polyline fill="none" stroke="black" points="177.484,-74.3981 177.484,-91.6019 "></polyline>
<path fill="none" stroke="black" d="M177.484,-91.6019C177.484,-97.6019 171.484,-103.602 165.484,-103.602"></path>
<text text-anchor="middle" x="114" y="-87.2" font-family="Times,serif" font-size="14.00">ForInStatement:exit</text>
<text text-anchor="middle" x="114" y="-70.4" font-family="Times,serif" font-size="14.00">Program:exit</text>
</g>

<g id="edge8" class="edge"><title>s1_3-&gt;s1_5</title>
<path fill="none" stroke="black" d="M124.891,-361.573C130.533,-351.566 136.88,-338.531 140,-326 159.973,-245.771 162.566,-220.329 143,-140 140.717,-130.626 136.569,-121.069 132.111,-112.567"></path>
<polygon fill="black" stroke="black" points="135.155,-110.84 127.225,-103.814 129.043,-114.251 135.155,-110.84"></polygon>
</g>

<g id="node6" class="node"><title>s1_4</title>
<polygon fill="white" stroke="white" points="122.147,-232 11.8526,-232 -0.147372,-220 -0.147372,-152 11.8526,-140 122.147,-140 134.147,-152 134.147,-220 122.147,-232"></polygon>
<path fill="white" stroke="white" d="M11.8526,-232C5.85263,-232 -0.147372,-226 -0.147372,-220"></path>
<path fill="white" stroke="white" d="M-0.147372,-152C-0.147372,-146 5.85263,-140 11.8526,-140"></path>
<path fill="white" stroke="white" d="M122.147,-140C128.147,-140 134.147,-146 134.147,-152"></path>
<path fill="white" stroke="white" d="M134.147,-220C134.147,-226 128.147,-232 122.147,-232"></path>
<polyline fill="none" stroke="black" points="122.147,-232 11.8526,-232 "></polyline>
<path fill="none" stroke="black" d="M11.8526,-232C5.85263,-232 -0.147372,-226 -0.147372,-220"></path>
<polyline fill="none" stroke="black" points="-0.147372,-220 -0.147372,-152 "></polyline>
<path fill="none" stroke="black" d="M-0.147372,-152C-0.147372,-146 5.85263,-140 11.8526,-140"></path>
<polyline fill="none" stroke="black" points="11.8526,-140 122.147,-140 "></polyline>
<path fill="none" stroke="black" d="M122.147,-140C128.147,-140 134.147,-146 134.147,-152"></path>
<polyline fill="none" stroke="black" points="134.147,-152 134.147,-220 "></polyline>
<path fill="none" stroke="black" d="M134.147,-220C134.147,-226 128.147,-232 122.147,-232"></path>
<text text-anchor="middle" x="67" y="-215.4" font-family="Times,serif" font-size="14.00">BlockStatement</text>
<text text-anchor="middle" x="67" y="-198.6" font-family="Times,serif" font-size="14.00">ExpressionStatement</text>
<text text-anchor="middle" x="67" y="-181.8" font-family="Times,serif" font-size="14.00">CallExpression</text>
<text text-anchor="middle" x="67" y="-165" font-family="Times,serif" font-size="14.00">Identifier (foo)</text>
<text text-anchor="middle" x="67" y="-148.2" font-family="Times,serif" font-size="14.00">Identifier (key)</text>
</g>

<g id="edge5" class="edge"><title>s1_2-&gt;s1_4</title>
<path fill="none" stroke="black" d="M60.9942,-267.646C60.5136,-259.848 60.2658,-251.114 60.2507,-242.351"></path>
<polygon fill="black" stroke="black" points="63.7527,-242.134 60.34,-232.104 56.7529,-242.073 63.7527,-242.134"></polygon>
</g>

<g id="edge6" class="edge"><title>s1_4-&gt;s1_2</title>
<path fill="none" stroke="black" d="M73.66,-232.104C73.8235,-240.564 73.7642,-249.334 73.4822,-257.568"></path>
<polygon fill="black" stroke="black" points="69.982,-257.492 73.0058,-267.646 76.9742,-257.823 69.982,-257.492"></polygon>
</g>

<g id="edge10" class="edge"><title>s1_4-&gt;s1_5</title>
<path fill="none" stroke="black" d="M88.0256,-139.817C92.2417,-130.757 96.5653,-121.466 100.445,-113.128"></path>
<polygon fill="black" stroke="black" points="103.718,-114.392 104.763,-103.849 97.3711,-111.439 103.718,-114.392"></polygon>
</g>

<g id="edge11" class="edge"><title>s1_5-&gt;final</title>
<path fill="none" stroke="black" d="M114,-62.3316C114,-54.2587 114,-44.8663 114,-36.5198"></path>
<polygon fill="black" stroke="black" points="117.5,-36.3487 114,-26.3488 110.5,-36.3488 117.5,-36.3487"></polygon>
</g>
</g>
</svg>