<?xml version="1.0"?>
<svg width="305pt" height="384pt" viewBox="0.00 0.00 305.00 384.00" xmlns="http://www.w3.org/2000/svg" xmlns:xlink="http://www.w3.org/1999/xlink">
<g id="graph1" class="graph" transform="scale(1 1) rotate(0) translate(4 380)">
<title>_anonymous_0</title>

<g id="node1" class="node"><title>initial</title>
<ellipse fill="black" stroke="black" cx="72" cy="-367" rx="9" ry="9"></ellipse>
</g>

<g id="node3" class="node"><title>s1_1</title>
<polygon fill="white" stroke="white" points="113.149,-321.602 30.8505,-321.602 18.8505,-309.602 18.8505,-292.398 30.8505,-280.398 113.149,-280.398 125.149,-292.398 125.149,-309.602 113.149,-321.602"></polygon>
<path fill="white" stroke="white" d="M30.8505,-321.602C24.8505,-321.602 18.8505,-315.602 18.8505,-309.602"></path>
<path fill="white" stroke="white" d="M18.8505,-292.398C18.8505,-286.398 24.8505,-280.398 30.8505,-280.398"></path>
<path fill="white" stroke="white" d="M113.149,-280.398C119.149,-280.398 125.149,-286.398 125.149,-292.398"></path>
<path fill="white" stroke="white" d="M125.149,-309.602C125.149,-315.602 119.149,-321.602 113.149,-321.602"></path>
<polyline fill="none" stroke="black" points="113.149,-321.602 30.8505,-321.602 "></polyline>
<path fill="none" stroke="black" d="M30.8505,-321.602C24.8505,-321.602 18.8505,-315.602 18.8505,-309.602"></path>
<polyline fill="none" stroke="black" points="18.8505,-309.602 18.8505,-292.398 "></polyline>
<path fill="none" stroke="black" d="M18.8505,-292.398C18.8505,-286.398 24.8505,-280.398 30.8505,-280.398"></path>
<polyline fill="none" stroke="black" points="30.8505,-280.398 113.149,-280.398 "></polyline>
<path fill="none" stroke="black" d="M113.149,-280.398C119.149,-280.398 125.149,-286.398 125.149,-292.398"></path>
<polyline fill="none" stroke="black" points="125.149,-292.398 125.149,-309.602 "></polyline>
<path fill="none" stroke="black" d="M125.149,-309.602C125.149,-315.602 119.149,-321.602 113.149,-321.602"></path>
<text text-anchor="middle" x="72" y="-305.2" font-family="Times,serif" font-size="14.00">Program</text>
<text text-anchor="middle" x="72" y="-288.4" font-family="Times,serif" font-size="14.00">WhileStatement</text>
</g>

<g id="edge2" class="edge"><title>initial-&gt;s1_1</title>
<path fill="none" stroke="black" d="M72,-357.894C72,-351.274 72,-341.485 72,-331.94"></path>
<polygon fill="black" stroke="black" points="75.5001,-331.842 72,-321.842 68.5001,-331.842 75.5001,-331.842"></polygon>
</g>

<g id="node2" class="node"><title>final</title>
<ellipse fill="black" stroke="black" cx="230" cy="-13" rx="9" ry="9"></ellipse>
<ellipse fill="none" stroke="black" cx="230" cy="-13" rx="13" ry="13"></ellipse>
</g>

<g id="node4" class="node"><title>s1_2</title>
<polygon fill="white" stroke="white" points="103.339,-244 40.6614,-244 28.6614,-232 28.6614,-220 40.6614,-208 103.339,-208 115.339,-220 115.339,-232 103.339,-244"></polygon>
<path fill="white" stroke="white" d="M40.6614,-244C34.6614,-244 28.6614,-238 28.6614,-232"></path>
<path fill="white" stroke="white" d="M28.6614,-220C28.6614,-214 34.6614,-208 40.6614,-208"></path>
<path fill="white" stroke="white" d="M103.339,-208C109.339,-208 115.339,-214 115.339,-220"></path>
<path fill="white" stroke="white" d="M115.339,-232C115.339,-238 109.339,-244 103.339,-244"></path>
<polyline fill="none" stroke="black" points="103.339,-244 40.6614,-244 "></polyline>
<path fill="none" stroke="black" d="M40.6614,-244C34.6614,-244 28.6614,-238 28.6614,-232"></path>
<polyline fill="none" stroke="black" points="28.6614,-232 28.6614,-220 "></polyline>
<path fill="none" stroke="black" d="M28.6614,-220C28.6614,-214 34.6614,-208 40.6614,-208"></path>
<polyline fill="none" stroke="black" points="40.6614,-208 103.339,-208 "></polyline>
<path fill="none" stroke="black" d="M103.339,-208C109.339,-208 115.339,-214 115.339,-220"></path>
<polyline fill="none" stroke="black" points="115.339,-220 115.339,-232 "></polyline>
<path fill="none" stroke="black" d="M115.339,-232C115.339,-238 109.339,-244 103.339,-244"></path>
<text text-anchor="middle" x="72" y="-221.8" font-family="Times,serif" font-size="14.00">Identifier (a)</text>
</g>

<g id="edge3" class="edge"><title>s1_1-&gt;s1_2</title>
<path fill="none" stroke="black" d="M72,-280.052C72,-272.216 72,-263.089 72,-254.636"></path>
<polygon fill="black" stroke="black" points="75.5001,-254.439 72,-244.439 68.5001,-254.439 75.5001,-254.439"></polygon>
</g>

<g id="node5" class="node"><title>s1_3</title>
<polygon fill="white" stroke="white" points="132.317,-171.3 11.6828,-171.3 -0.317209,-159.3 -0.317209,-74.6998 11.6828,-62.6998 132.317,-62.6998 144.317,-74.6998 144.317,-159.3 132.317,-171.3"></polygon>
<path fill="white" stroke="white" d="M11.6828,-171.3C5.68279,-171.3 -0.317209,-165.3 -0.317209,-159.3"></path>
<path fill="white" stroke="white" d="M-0.317209,-74.6998C-0.317209,-68.6998 5.68279,-62.6998 11.6828,-62.6998"></path>
<path fill="white" stroke="white" d="M132.317,-62.6998C138.317,-62.6998 144.317,-68.6998 144.317,-74.6998"></path>
<path fill="white" stroke="white" d="M144.317,-159.3C144.317,-165.3 138.317,-171.3 132.317,-171.3"></path>
<polyline fill="none" stroke="black" points="132.317,-171.3 11.6828,-171.3 "></polyline>
<path fill="none" stroke="black" d="M11.6828,-171.3C5.68279,-171.3 -0.317209,-165.3 -0.317209,-159.3"></path>
<polyline fill="none" stroke="black" points="-0.317209,-159.3 -0.317209,-74.6998 "></polyline>
<path fill="none" stroke="black" d="M-0.317209,-74.6998C-0.317209,-68.6998 5.68279,-62.6998 11.6828,-62.6998"></path>
<polyline fill="none" stroke="black" points="11.6828,-62.6998 132.317,-62.6998 "></polyline>
<path fill="none" stroke="black" d="M132.317,-62.6998C138.317,-62.6998 144.317,-68.6998 144.317,-74.6998"></path>
<polyline fill="none" stroke="black" points="144.317,-74.6998 144.317,-159.3 "></polyline>
<path fill="none" stroke="black" d="M144.317,-159.3C144.317,-165.3 138.317,-171.3 132.317,-171.3"></path>
<text text-anchor="middle" x="72" y="-154.8" font-family="Times,serif" font-size="14.00">BlockStatement</text>
<text text-anchor="middle" x="72" y="-138" font-family="Times,serif" font-size="14.00">ExpressionStatement</text>
<text text-anchor="middle" x="72" y="-121.2" font-family="Times,serif" font-size="14.00">AssignmentExpression</text>
<text text-anchor="middle" x="72" y="-104.4" font-family="Times,serif" font-size="14.00">Identifier (a)</text>
<text text-anchor="middle" x="72" y="-87.6" font-family="Times,serif" font-size="14.00">CallExpression</text>
<text text-anchor="middle" x="72" y="-70.8" font-family="Times,serif" font-size="14.00">Identifier (foo)</text>
</g>

<g id="edge4" class="edge"><title>s1_2-&gt;s1_3</title>
<path fill="none" stroke="black" d="M66.8852,-207.809C66.0803,-200.443 65.5726,-191.338 65.362,-181.779"></path>
<polygon fill="black" stroke="black" points="68.861,-181.666 65.25,-171.706 61.8615,-181.744 68.861,-181.666"></polygon>
</g>

<g id="node6" class="node"><title>s1_4</title>
<polygon fill="white" stroke="white" points="285.147,-146.401 174.853,-146.401 162.853,-134.401 162.853,-99.5986 174.853,-87.5986 285.147,-87.5986 297.147,-99.5986 297.147,-134.401 285.147,-146.401"></polygon>
<path fill="white" stroke="white" d="M174.853,-146.401C168.853,-146.401 162.853,-140.401 162.853,-134.401"></path>
<path fill="white" stroke="white" d="M162.853,-99.5986C162.853,-93.5986 168.853,-87.5986 174.853,-87.5986"></path>
<path fill="white" stroke="white" d="M285.147,-87.5986C291.147,-87.5986 297.147,-93.5986 297.147,-99.5986"></path>
<path fill="white" stroke="white" d="M297.147,-134.401C297.147,-140.401 291.147,-146.401 285.147,-146.401"></path>
<polyline fill="none" stroke="black" points="285.147,-146.401 174.853,-146.401 "></polyline>
<path fill="none" stroke="black" d="M174.853,-146.401C168.853,-146.401 162.853,-140.401 162.853,-134.401"></path>
<polyline fill="none" stroke="black" points="162.853,-134.401 162.853,-99.5986 "></polyline>
<path fill="none" stroke="black" d="M162.853,-99.5986C162.853,-93.5986 168.853,-87.5986 174.853,-87.5986"></path>
<polyline fill="none" stroke="black" points="174.853,-87.5986 285.147,-87.5986 "></polyline>
<path fill="none" stroke="black" d="M285.147,-87.5986C291.147,-87.5986 297.147,-93.5986 297.147,-99.5986"></path>
<polyline fill="none" stroke="black" points="297.147,-99.5986 297.147,-134.401 "></polyline>
<path fill="none" stroke="black" d="M297.147,-134.401C297.147,-140.401 291.147,-146.401 285.147,-146.401"></path>
<text text-anchor="middle" x="230" y="-129.6" font-family="Times,serif" font-size="14.00">ExpressionStatement</text>
<text text-anchor="middle" x="230" y="-112.8" font-family="Times,serif" font-size="14.00">CallExpression</text>
<text text-anchor="middle" x="230" y="-96" font-family="Times,serif" font-size="14.00">Identifier (bar)</text>
</g>

<g id="edge6" class="edge"><title>s1_2-&gt;s1_4</title>
<path fill="none" stroke="black" d="M98.7745,-207.789C114.625,-197.523 135.053,-184.16 153,-172 162.409,-165.625 172.395,-158.724 181.947,-152.055"></path>
<polygon fill="black" stroke="black" points="184.021,-154.875 190.205,-146.273 180.006,-149.141 184.021,-154.875"></polygon>
</g>

<g id="edge5" class="edge"><title>s1_3-&gt;s1_2</title>
<path fill="none" stroke="black" d="M78.75,-171.706C78.7461,-180.71 78.4872,-189.707 77.9735,-197.675"></path>
<polygon fill="black" stroke="black" points="74.4717,-197.549 77.1148,-207.809 81.4467,-198.14 74.4717,-197.549"></polygon>
</g>

<g id="edge7" class="edge"><title>s1_4-&gt;final</title>
<path fill="none" stroke="black" d="M230,-87.5873C230,-71.4284 230,-51.4784 230,-36.4288"></path>
<polygon fill="black" stroke="black" points="233.5,-36.0194 230,-26.0195 226.5,-36.0195 233.5,-36.0194"></polygon>
</g>
</g>
</svg>