<svg xmlns="http://www.w3.org/2000/svg" height="522" preserveAspectRatio="none" style="width:439px;height:522px" width="439"><defs><filter height="300%" id="a" width="300%" x="-1" y="-1"><feGaussianBlur result="blurOut" stdDeviation="2"/><feColorMatrix in="blurOut" result="blurOut2" values="0 0 0 0 0 0 0 0 0 0 0 0 0 0 0 0 0 0 .4 0"/><feOffset dx="4" dy="4" in="blurOut2" result="blurOut3"/><feBlend in="SourceGraphic" in2="blurOut3"/></filter></defs><path fill="#FFF" filter="url(#a)" style="stroke:#000;stroke-width:1.5" d="M271 24v.07l8-.208 8 .202 8 .07 8-.372 8 .238-.025-.008 1.29 4.425 1.413 4.463 1.5 4.491 1.202 4.398 1.62 4.528v.553l9.5-1.183 9.5.432 9.5.63 9.5-.518 9.5.154 9.5-.068h-.032l.21 10.784.061 10.784.347 10.783.085 10.784.008 10.784L375 111v.255l-10.4.209-10.4.238-10.4-1.423-10.4 1.4-10.4-.975-10.4.83-10.4-1.029-10.4.427-10.4.81L271 111h-.049l.154-9.667.234-9.666.077-9.667-.42-9.667.291-9.666-.86-9.667.857-9.667.264-9.666L271 24z"/><path d="M271 46.297v.28l9.4-.833 9.4.81 9.4.276 9.4-1.484 9.4.95" fill="#FFF" style="stroke:#000;stroke-width:1.5"/><text font-family="sans-serif" font-size="14" font-weight="bold" lengthAdjust="spacingAndGlyphs" textLength="24" x="280" y="38.995">bin</text><path fill="#FFF" filter="url(#a)" style="stroke:#000;stroke-width:1.5" d="M22 135v.07l6.8-.208 6.8.202 6.8.07 6.8-.372L56 135l-.025-.008 1.29 4.425 1.413 4.464 1.5 4.49 1.202 4.397 1.62 4.529v.554l10.114-1.184 10.115.432 10.114.63 10.114-.518 10.114.154 10.115-.1 10.114.21 10.114.061 10.115.347 10.114.085 10.114.008 10.114-.424 10.115.209 10.114.238 10.114-1.423 10.115 1.4 10.114-.976 10.114.83 10.114-1.028 10.115.426 10.114.81 10.114-.79 10.115.154 10.114.234 10.114.077 10.114-.42 10.115.291 10.114-.86 10.114.857 10.115.264 10.114-.104 10.114.169 10.114-1.096 10.115-.17 10.114.653h-.621l.562 10.077-.137 10.077.877 10.078-.856 10.077-.168 10.077.571 10.077-.895 10.078.148 10.077 1.168 10.077-.213 10.077.299 10.077-1.057 10.078.641 10.077.271 10.077-1.062 10.077.376 10.078.222 10.077.526 10.077-.656 10.077.467 10.077-1.017 10.078-.123 10.077 1.18 10.077-1.22 10.077 1.226 10.078-.302 10.077-.475 10.077-.086 10.077.813 10.078-.758 10.077.89 10.077-1.144 10.077 1.17 10.078-.133 10.077L417 510v.245l-9.875-.198-9.875.68-9.875-.113-9.875-.445-9.875.1-9.875-.4-9.875.847-9.875-.561-9.875.018-9.875-.781-9.875.203-9.875.936-9.875-.101-9.875-.473-9.875-.28-9.875.104-9.875-.467-9.875 1.1-9.875.326-9.875-.214-9.875.169-9.875-.832-9.875.224-9.875-.475-9.875.672-9.875-.037-9.875.305-9.875-.782-9.875.096-9.875.577-9.875.124-9.875-1.08-9.875.32-9.875.342-9.875-.76-9.875.964-9.875-.095-9.875-.359-9.875.243L22 510h.729l-1.042-9.868.628-9.869-.03-9.868-.17-9.869.026-9.868-.027-9.869-.738-9.868.223-9.868-.06-9.869.525-9.868.024-9.869.074-9.868-.453-9.868.224-9.869-.053-9.868.697-9.869-.15-9.868-.912-9.869.412-9.868-.504-9.868.865-9.869.32-9.868-.063-9.869-.98-9.868.899-9.869-1.207-9.868.943-9.868-.5-9.869.397-9.868.143-9.869.232-9.868-1.192-9.869 1.195-9.868-.297-9.868.177-9.869.393-9.868-.742-9.869L22 135z"/><path d="M22 157.297v.093l8.2-.277 8.2.27 8.2.091 8.2-.494 8.2.317" fill="#FFF" style="stroke:#000;stroke-width:1.5"/><text font-family="sans-serif" font-size="14" font-weight="bold" lengthAdjust="spacingAndGlyphs" textLength="18" x="31" y="149.995">lib</text><path fill="#F8F8F8" filter="url(#a)" style="stroke:#000;stroke-width:1.5" d="M287 59v.21l10.286-.624 10.285.607 10.286.207 10.286-1.113 10.286.635 10.285-.348L359 59h-.128l.105 7.26-.207 7.259.415 7.26-.395 7.258.21 7.26v-.198l-10.286.63-10.285-.518-10.286.154-10.286-.1-10.286.21-10.285.061-10.286-.24h.195l.029-7.259.002-7.259-.141-7.26.07-7.259L287 59z"/><text font-family="sans-serif" font-size="14" lengthAdjust="spacingAndGlyphs" textLength="52" x="297" y="81.995">eslint.js</text><path fill="#F8F8F8" filter="url(#a)" style="stroke:#000;stroke-width:1.5" d="M258.5 170v.21l9.8-.624 9.8.607 9.8.207 9.8-1.113 9.8.713h-.026l-.116 7.26.014 7.259.105 7.26-.207 7.258.23 7.26v.554l-9.8-1.184-9.8.432-9.8.63-9.8-.518-9.8.086h.023l-.034-7.26.07-7.259.02-7.26.116-7.259L258.5 170z"/><text font-family="sans-serif" font-size="14" lengthAdjust="spacingAndGlyphs" textLength="29" x="268.5" y="192.995">cli.js</text><path fill="#F8F8F8" filter="url(#a)" style="stroke:#000;stroke-width:1.5" d="M130.5 170v.21l9.167-.624 9.166.607 9.167.207 9.167-1.113 9.166.635 9.167.078h-.142l.014 7.26.105 7.259-.208 7.26.416 7.258-.185 7.26v-.63l-9.167.432-9.166.63-9.167-.518-9.167.154-9.166-.1-9.167.032h.06l.02-7.26.115-7.259.029-7.26.002-7.259L130.5 170z"/><text font-family="sans-serif" font-size="14" lengthAdjust="spacingAndGlyphs" textLength="35" x="140.5" y="192.995">api.js</text><path fill="#F8F8F8" filter="url(#a)" style="stroke:#000;stroke-width:1.5" d="M343 170v.07l8-.208 8 .202 8 .07 8-.372 8 .238h-.026l-.116 7.26.014 7.259.105 7.26-.207 7.258.23 7.26v.184l-8-.394-8 .144-8 .21-8-.173-8 .029h.023l-.034-7.26.07-7.259.02-7.26.116-7.259L343 170z"/><text font-family="sans-serif" font-size="14" lengthAdjust="spacingAndGlyphs" textLength="20" x="353" y="192.995">init</text><path fill="#F8F8F8" filter="url(#a)" style="stroke:#000;stroke-width:1.5" d="M239.5 266v.21l9.667-.624 9.666.607 9.667.207 9.667-1.113 9.666.635 9.667-.349 9.667.043 9.666.316 9.667.068h-.23l.415 7.26-.395 7.259.144 7.26.21 7.259-.144 7.259v-.086l-9.667.154-9.666-.1-9.667.21-9.667.061-9.666.347-9.667.085-9.667.008-9.666-.425-9.667-.254h.155l.08-7.26-.475-7.259.466-7.26-.325-7.259.099-7.259z"/><text font-family="sans-serif" font-size="14" lengthAdjust="spacingAndGlyphs" textLength="67" x="249.5" y="288.995">cli-engine</text><path fill="#F8F8F8" filter="url(#a)" style="stroke:#000;stroke-width:1.5" d="M178 362v.21l10.8-.624 10.8.607 10.8.207 10.8-1.113L232 362h-.026l-.116 7.26.014 7.259.105 7.26-.208 7.259.231 7.259v.553l-10.8-1.183-10.8.432-10.8.63-10.8-.518-10.8.086h.023l-.034-7.26.07-7.259.02-7.26.116-7.259L178 362z"/><text font-family="sans-serif" font-size="14" lengthAdjust="spacingAndGlyphs" textLength="34" x="188" y="384.995">linter</text><path fill="#F8F8F8" filter="url(#a)" style="stroke:#000;stroke-width:1.5" d="M94 458v.21l9.818-.624 9.818.607 9.819.207 9.818-1.113 9.818.635 9.818-.349 9.818.043 9.819.316 9.818-.623 9.818 1.245L202 458h-.21l.144 7.26.21 7.259-.173 7.26.052 7.259-.023 7.259v-.032l-9.818.21-9.818.061-9.819.347-9.818.085-9.818.008-9.818-.425-9.818.21-9.819.238-9.818-1.423-9.818 1.4-9.818-.68h-.099l.277-7.258-.343-7.26.142-7.26.27-7.259L94 458z"/><text font-family="sans-serif" font-size="14" lengthAdjust="spacingAndGlyphs" textLength="88" x="104" y="480.995">source-code</text><path fill="#F8F8F8" filter="url(#a)" style="stroke:#000;stroke-width:1.5" d="M75 266v.21l10.222-.624 10.222.607 10.223.207 10.222-1.113 10.222.635 10.222-.349 10.223.043 10.222.316L167 266h-.23l.415 7.26-.395 7.259.144 7.26.21 7.259-.144 7.259v-.086l-10.222.154-10.222-.1-10.223.21-10.222.061-10.222.347-10.222.085-10.223.008-10.222-.425L75 302.297h.154l.08-7.26-.474-7.259.466-7.26-.325-7.259L75 266z"/><text font-family="sans-serif" font-size="14" lengthAdjust="spacingAndGlyphs" textLength="72" x="85" y="288.995">rule-tester</text><path fill="#F8F8F8" filter="url(#a)" style="stroke:#000;stroke-width:1.5" d="M292 458v.21l10.8-.624 10.8.607 10.8.207 10.8-1.113L346 458h-.026l-.116 7.26.014 7.259.105 7.26-.207 7.259.23 7.259v.553l-10.8-1.183-10.8.432-10.8.63-10.8-.518-10.8.086h.023l-.034-7.26.07-7.259.02-7.26.116-7.259L292 458z"/><text font-family="sans-serif" font-size="14" lengthAdjust="spacingAndGlyphs" textLength="34" x="302" y="480.995">rules</text><path d="M283 206.241h.28l-.832 10.843.81 10.844.275 10.843-1.484 10.844.951 10.843" fill="none" style="stroke:#383838;stroke-width:1;stroke-dasharray:7,7"/><path fill="#383838" style="stroke:#383838;stroke-width:1" d="m283 265.868.064.029.61-1.885.985-1.718.863-1.772.46-1.95 1.018-1.704-.018-.018-.883.717-.79.81-.725.875-.947.653-.637.963.13.13-1.079-1.079-.698-.698-.651-.651-.922-.922-.78-.78.02.01.77 1.786.864 1.828.819 1.808.905 1.847.622 1.721z"/><path d="m164.598 206.218.088.032.676 2.49 1.192 2.679 1.023 2.617.473 2.417 1.235 2.693-.032-.01.878 2.935 1.043 2.991 1.158 3.032.763 2.895 1.316 3.086.235.075.512 3.03 1.197 3.247 1.28 3.274.796 3.119 1.05 3.2.029.009.86 3.184.995 3.221.93 3.203 1.052 3.238L184 266l.29.072.595 2.389.409 2.342.682 2.41.695 2.414.288 2.313-.312-.07 1.16 2.585.133 2.352.914 2.53.108 2.346.77 2.497-.03-.007.867 2.536.17 2.39.583 2.476.616 2.483.368 2.43.181.036.29 2.394.6 2.454.099 2.357.847 2.503.35 2.405.24.043.768 4.572.888 4.592.335 4.495.74 4.566 1.1 4.63-.273-.043.87 3.94.564 3.89 1.01 3.962.248 3.84.701 3.912" fill="none" style="stroke:#383838;stroke-width:1;stroke-dasharray:7,7"/><path fill="#383838" style="stroke:#383838;stroke-width:1" d="m202.609 361.988.067.019.323-1.955.718-1.845.59-1.88.165-1.998.753-1.836-.021-.015-.766.84-.66.92-.588.972-.839.787-.486 1.047.11.148-1.145-.99-.825-.555-.785-.503-1.013-.811-.893-.65.019.013 1.03 1.643 1.12 1.698 1.075 1.672 1.157 1.723.894 1.556z"/><path d="m180.637 206.023.168.224 7.876 5.633 8.863 6.946 8.541 6.519 7.484 5.112 8.885 6.977 8.097 5.927 8.41 6.344 8.628 6.635 8.431 6.371" fill="none" style="stroke:#383838;stroke-width:1;stroke-dasharray:7,7"/><path fill="#383838" style="stroke:#383838;stroke-width:1" d="m260.109 265.786.061.034-1.14-1.822-.78-1.623-.898-1.688-1.282-1.901-.75-1.606-.026-.004.044 1.104.172 1.123.263 1.134-.047 1.091.387 1.153.026.183-1.176-.233-1.1.302-1.09.366-1.145-.012-1.116.187.005.022 1.912.41 1.935.51 1.924.463 1.945.555 1.876.252z"/><path d="m151.214 206.241.26.103-4.36 8.803-2.83 9.405-3.33 9.21-4.966 8.564-2.796 9.419-3.489 9.146" fill="none" style="stroke:#383838;stroke-width:1;stroke-dasharray:7,7"/><path fill="#383838" style="stroke:#383838;stroke-width:1" d="m127.743 265.868.05.05 1.257-1.53 1.546-1.238 1.452-1.333 1.143-1.646 1.57-1.213-.01-.023-1.084.344-1.031.465-.996.548-1.12.26-.946.663.17.074-.814-1.195-.319-.98-.259-.953-.61-1.107-.425-1.026.023.001.052 1.967.155 1.97.105 1.97.2 1.973-.109 1.959z"/><path d="m130.322 201.197.044.082-2.034.774-1.775 1.256-1.86 1.1-2.136.581-1.753 1.298-.018-.03-2.094 1.06-2.005 1.208-1.944 1.313-2.155.954-1.859 1.457.136.205-2.352.927-1.954 1.526-1.907 1.599-2.188 1.174-2.04 1.397.019.024-2.068 1.502-1.985 1.613-2.025 1.559-1.948 1.66-2.198 1.33.197.225-1.953 1.71-2.08 1.567-1.893 1.778-1.886 1.789-2.16 1.473-.231-.222-1.355 2.309-2.115 1.578-1.537 2.133-2.133 1.562-1.645 2.03-.024-.018-1.3 2.267-1.863 1.831-1.531 2.088-1.504 2.11-1.704 1.955.16.094-1.462 2.119-1.19 2.28-1.63 2.02-.974 2.406L57 266l.226.09-1.067 2.544-.954 2.588-1.477 2.38-1.094 2.532-.755 2.668-.27-.061-.35 2.67-.654 2.6-.215 2.7-.965 2.53-.52 2.63-.151-.011.05 2.669-.6 2.62-.138 2.654.314 2.69-.49 2.627.193.011.283 2.676-.319 2.642.435 2.684.27 2.675-.111 2.653-.207-.036.63 2.698.564 2.686.696 2.71.178 2.619.468 2.67.198.055.308 2.53.69 2.638 1.249 2.795.22 2.506 1.05 2.739.213.08.857 2.57.785 2.546.947 2.605 1.32 2.746.793 2.547-.121-.056 1.544 2.733.722 2.355 1.657 2.785 1.13 2.542.989 2.478.096.051 1.27 2.457 1.614 2.642 1.303 2.475 1.174 2.404 1.282 2.463.101.063 1.322 2.32 1.795 2.608 1.26 2.282 1.48 2.416 1.408 2.373-.224-.152 1.635 2.359 1.906 2.542 1.523 2.283 1.387 2.19 1.577 2.32-.116-.085 1.647 2.214 1.444 2.064 2.004 2.478 1.726 2.272 1.346 1.993.183.145 1.68 2.095 1.333 1.819 1.7 2.11 1.456 1.918 1.757 2.155.096.082 1.583 1.881 1.7 1.98 1.329 1.668 1.628 1.92 1.64 1.93.148.132 1.572 1.755 1.172 1.4 1.637 1.813 1.645 1.82 1.481 1.674-.198-.185 1.741 1.82 1.398 1.499 1.311 1.419 1.508 1.601 1.382 1.484" fill="none" style="stroke:#383838;stroke-width:1;stroke-dasharray:7,7"/><path fill="#383838" style="stroke:#383838;stroke-width:1" d="m130.215 457.947.066.024-.873-1.921-.488-1.78-.613-1.826-1.026-1.977-.454-1.768h-.026l-.135 1.129-.003 1.132.087 1.132-.226 1.128.212 1.135.003.185-1.137-.413-1.13.126-1.127.192-1.134-.19-1.13.01.008.021 1.814.705 1.853.802 1.835.755 1.87.843 1.754.556z"/><path d="m364.479 206.028.093.003-.218 1.941.329 1.959.15 1.952-.435 1.935.376 1.96h-.035l-.18 2.236-.006 2.238.115 2.24-.301 2.235.282 2.241.245.015-.673 2.414.043 2.458.13 2.463-.377 2.432-.11 2.449.03.003-.357 2.57-.219 2.585-.284 2.578-.16 2.593-.57 2.543.293.058-.51 2.623-.7 2.587-.423 2.641-.41 2.643-.821 2.564-.308-.09-.16 2.766-1.172 2.47-.402 2.695-1.196 2.464-.545 2.654-.029-.012-.706 2.62-1.362 2.345-.976 2.507-.943 2.521-1.177 2.423.159.094-1.52 2.195-1.25 2.356-1.688 2.095-1.032 2.484L344 302l.188.155-2.17 2.563-2.075 2.639-2.51 2.282-2.192 2.544-1.91 2.777-.189-.202-2.301 2.499-2.514 2.271-2.205 2.601-2.732 2.038-2.419 2.373-.092-.122-2.565 2.255-2.957 1.734-2.679 2.104-2.405 2.465-2.892 1.822.103.164-2.801 1.91-3.121 1.4-2.72 2.04-2.808 1.9-3.011 1.576-.099-.185-2.855 1.704-2.887 1.643-2.824 1.762-3.07 1.299-2.932 1.557.085.187-3.09.914-2.926 1.276-2.685 1.802-3.128.832-2.77 1.615.083.21-2.83.98-2.858.91-2.794 1.07-2.647 1.44-2.856.916-.043-.125-2.435 1.27-2.733.417-2.394 1.388-2.585.841-2.636.694" fill="none" style="stroke:#383838;stroke-width:1;stroke-dasharray:7,7"/><path fill="#383838" style="stroke:#383838;stroke-width:1" d="m232.067 371.819.008.07 1.935.007 1.98.415 1.966.282 1.918-.155 1.984.45-.012-.023-1.06-.622-.998-.505-.958-.425-1.1-.703-.9-.314.163.085.168-1.187.647-.94.704-.909.365-1.084.544-.993.015.017-1.493 1.285-1.424 1.363-1.457 1.325-1.394 1.397-1.601 1.164z"/><path d="m348.327 206.241.213.182-7.382 7.39-6.132 8.455-6.54 8.107-7.878 6.968-6.103 8.48-7.103 7.628-6.316 8.298" fill="none" style="stroke:#383838;stroke-width:1;stroke-dasharray:7,7"/><path fill="#383838" style="stroke:#383838;stroke-width:1" d="m297.58 265.868.03.063 1.686-1.04 1.864-.67 1.805-.79 1.615-1.186 1.88-.638-.003-.026-1.137-.025-1.126.105-1.12.195-1.144-.116-1.11.32.185.015-.484-1.16.053-1.115.118-1.111-.263-1.142-.062-1.125.022.006-.59 1.88-.49 1.91-.538 1.894-.446 1.922-.745 1.834z"/><path d="m363.642 206.316.093.001-.22 3.917.329 3.924.15 3.922-.437 3.913.375 3.926h-.034l-.162 2.314.012 2.314.134 2.315-.284 2.314.3 2.316.247.004-.57 2.468.15 2.48.236 2.482-.274 2.473-.005 2.478h.03l-.134 2.583.003 2.588-.063 2.584.064 2.59-.35 2.575.298.016-.143 2.636-.334 2.625-.054 2.641-.04 2.642-.458 2.618-.32-.026.408 2.683-.644 2.597.156 2.661-.668 2.596.007 2.65-.03-.004.07 2.613-.638 2.534-.22 2.58-.185 2.585L360 302l.183.026-.476 2.05-.163 2.094-.67 2.023.086 2.129-.416 2.058.24.038-.378 2.096-.26 2.114-.815 2.026-.407 2.09-.047 2.148-.272-.048-.125 2.161-.43 2.107.014 2.185-.746 2.052-.293 2.13-.15-.028-.153 2.169-.793 2.047-.338 2.134.108 2.218-.686 2.067.19.04-.75 4.237-1.338 4.114-.6 4.268-.762 4.235-1.136 4.156-.204-.047-.782 4.13-.848 4.113-.717 4.144-1.228 4.026-.943 4.091.2.05-1.407 3.775-1.021 3.87-.459 4.01-1.494 3.753-.66 3.96.22.058-1.08 3.552-1.155 3.532-.987 3.576-.602 3.679-1.147 3.534-.128-.036-.51 3.306-1.381 3.062-.39 3.34-.949 3.182-1.099 3.142.105.03-.875 2.699-.5 2.807-.84 2.709-.98 2.667-.863 2.702" fill="none" style="stroke:#383838;stroke-width:1;stroke-dasharray:7,7"/><path fill="#383838" style="stroke:#383838;stroke-width:1" d="m324.406 457.54.053.046 1.123-1.632 1.435-1.365 1.333-1.451 1-1.738 1.461-1.341-.012-.023-1.05.435-.99.551-.945.63-1.094.356-.885.74.162.088-.885-1.183-.411-.926-.354-.896-.69-1.077-.512-.982.022.003.22 1.95.321 1.962.272 1.956.367 1.969.059 1.928z"/><path d="m268.694 302.241.216.179-7.221 7.398-5.957 8.447-6.368 8.105-7.722 6.983-5.928 8.47-6.938 7.633-6.142 8.293" fill="none" style="stroke:#383838;stroke-width:1;stroke-dasharray:7,7"/><path fill="#383838" style="stroke:#383838;stroke-width:1" d="m219.216 361.868.031.063 1.673-1.061 1.855-.693 1.796-.812 1.6-1.207 1.87-.661-.002-.026-1.137-.01-1.125.118-1.117.21-1.146-.103-1.105.335.184.017-.498-1.163.04-1.114.103-1.107-.276-1.142-.076-1.124.022.006-.566 1.887-.467 1.915-.514 1.902-.423 1.927-.722 1.843z"/><path d="m136.407 302.241.209.187 6.465 7.375 7.69 8.47 7.292 8.112 5.98 6.941 7.718 8.494 6.739 7.62 7.51 8.309" fill="none" style="stroke:#383838;stroke-width:1;stroke-dasharray:7,7"/><path fill="#383838" style="stroke:#383838;stroke-width:1" d="m189.691 361.868.067.021-.801-1.939-.41-1.813-.537-1.854-.956-1.989-.377-1.802-.025-.002-.18 1.123-.05 1.13.042 1.136-.27 1.118.166 1.142.01.185-1.152-.458-1.121.08-1.118.147-1.14-.236-1.127-.035.009.02 1.782.78 1.825.873 1.804.827 1.843.915 1.716.631z"/><path d="m225.645 398.023.178.216 7.08 5.633 8.127 6.9 7.785 6.488 6.666 5.13 8.15 6.93 7.314 5.916 7.647 6.32 7.878 6.599 7.668 6.345" fill="none" style="stroke:#383838;stroke-width:1;stroke-dasharray:7,7"/><path fill="#383838" style="stroke:#383838;stroke-width:1" d="m298.124 457.786.063.032-1.067-1.856-.699-1.671-.818-1.732-1.212-1.928-.667-1.656-.026-.002-.007 1.115.122 1.127.213 1.136-.098 1.107.338 1.148.017.184-1.163-.285-1.113.252-1.106.318-1.142-.064-1.124.137.006.022 1.889.495 1.917.596 1.903.547 1.928.639 1.846.34z"/><path d="m194.545 398.241.24.145-6.279 8.749-4.874 9.6-5.33 9.322-6.836 8.41-4.842 9.62-5.478 9.234" fill="none" style="stroke:#383838;stroke-width:1;stroke-dasharray:7,7"/><path fill="#383838" style="stroke:#383838;stroke-width:1" d="m158.388 457.868.04.058 1.499-1.295 1.733-.958 1.656-1.068 1.406-1.429 1.754-.928-.007-.025-1.126.156-1.096.283-1.074.37-1.148.068-1.044.493.18.044-.653-1.193-.13-1.064-.064-1.05-.437-1.14-.242-1.091.023.003-.283 1.95-.18 1.962-.229 1.957-.135 1.968-.443 1.93z"/><path d="m316.75 95.031.263.096-4.448 9.704-2.905 10.27-3.408 10.084-5.06 9.479-2.87 10.282-4.103 9.83-3.132 10.186" fill="none" style="stroke:#383838;stroke-width:1;stroke-dasharray:7,7"/><path fill="#383838" style="stroke:#383838;stroke-width:1" d="m289.338 169.729.05.049 1.222-1.56 1.517-1.272 1.42-1.367 1.105-1.672 1.542-1.249-.01-.023-1.076.37-1.021.488-.983.57-1.113.288-.93.684.167.078-.833-1.193-.345-.966-.285-.938-.632-1.1-.45-1.014.024.001.097 1.964.2 1.97.152 1.967.246 1.972-.064 1.953z"/><path d="m329.25 95.031.263.096 2.885 9.704 4.426 10.27 3.925 10.084 2.273 9.479 4.461 10.282 3.23 9.83 4.2 10.186" fill="none" style="stroke:#383838;stroke-width:1;stroke-dasharray:7,7"/><path fill="#383838" style="stroke:#383838;stroke-width:1" d="m356.662 169.729.07.005-.077-1.98.333-1.952.2-1.96-.24-1.99.368-1.95-.023-.011-.581.978-.462 1.032-.38 1.071-.664.94-.267 1.123.078.168-1.193-.834-.966-.344-.938-.285-1.1-.632-1.014-.45.016.016 1.348 1.391 1.421 1.463 1.386 1.428 1.454 1.495 1.231 1.278z"/></svg>