<svg xmlns="http://www.w3.org/2000/svg" width="24" height="25" fill="none"><g fill="#98A2B3" clip-path="url(#a)"><path d="M9.328 10.178a1.337 1.337 0 0 0 0 2.664 1.28 1.28 0 0 0 1.224-1.332 1.27 1.27 0 0 0-1.224-1.332m4.38 0a1.337 1.337 0 1 0 1.224 1.332 1.277 1.277 0 0 0-1.224-1.332"/><path d="M19.54.11H3.46A2.466 2.466 0 0 0 1 2.582V18.81a2.466 2.466 0 0 0 2.46 2.472h13.608l-.636-2.22 1.536 1.428 1.452 1.34L22 24.11V2.582A2.466 2.466 0 0 0 19.54.11m-4.632 15.672s-.432-.516-.792-.972a3.8 3.8 0 0 0 2.172-1.428 7 7 0 0 1-1.38.708 8 8 0 0 1-1.74.516 8.4 8.4 0 0 1-3.108-.012 10 10 0 0 1-1.76-.516 7 7 0 0 1-1.368-.708 3.73 3.73 0 0 0 2.1 1.416c-.36.456-.8 1-.8 1a4.35 4.35 0 0 1-3.66-1.824 16.1 16.1 0 0 1 1.728-7 5.93 5.93 0 0 1 3.372-1.26l.12.144a8.1 8.1 0 0 0-3.164 1.572s.264-.144.708-.348a9 9 0 0 1 2.724-.76q.1-.021.2-.024a10.2 10.2 0 0 1 2.424-.024A9.8 9.8 0 0 1 16.3 7.418a8 8 0 0 0-2.988-1.524l.168-.192a5.93 5.93 0 0 1 3.372 1.26 16.1 16.1 0 0 1 1.728 7 4.39 4.39 0 0 1-3.672 1.82"/></g><defs><clipPath id="a"><path fill="#fff" d="M0 .11h24v24H0z"/></clipPath></defs></svg>