<svg width="24" height="25" fill="none" xmlns="http://www.w3.org/2000/svg"><g clip-path="url(#a)" fill="#98A2B3"><path d="M9.328 10.178a1.337 1.337 0 0 0 0 2.664 1.278 1.278 0 0 0 1.224-1.332 1.272 1.272 0 0 0-1.224-1.332Zm4.38 0a1.337 1.337 0 1 0 1.224 1.332 1.277 1.277 0 0 0-1.224-1.332Z"/><path d="M19.54.11H3.46A2.466 2.466 0 0 0 1 2.582V18.81a2.466 2.466 0 0 0 2.46 2.472h13.608l-.636-2.22 1.536 1.428 1.452 1.34L22 24.11V2.582A2.466 2.466 0 0 0 19.54.11Zm-4.632 15.672s-.432-.516-.792-.972a3.786 3.786 0 0 0 2.172-1.428 6.863 6.863 0 0 1-1.38.708 7.898 7.898 0 0 1-1.74.516 8.406 8.406 0 0 1-3.108-.012 10.086 10.086 0 0 1-1.76-.516 6.847 6.847 0 0 1-1.368-.708 3.732 3.732 0 0 0 2.1 1.416c-.36.456-.8 1-.8 1a4.35 4.35 0 0 1-3.66-1.824 16.07 16.07 0 0 1 1.728-7 5.934 5.934 0 0 1 3.372-1.26l.12.144a8.1 8.1 0 0 0-3.164 1.572s.264-.144.708-.348a9.012 9.012 0 0 1 2.724-.76c.066-.014.133-.022.2-.024a10.153 10.153 0 0 1 2.424-.024A9.782 9.782 0 0 1 16.3 7.418a7.986 7.986 0 0 0-2.988-1.524l.168-.192a5.934 5.934 0 0 1 3.372 1.26 16.07 16.07 0 0 1 1.728 7 4.386 4.386 0 0 1-3.672 1.82Z"/></g><defs><clipPath id="a"><path fill="#fff" transform="translate(0 .11)" d="M0 0h24v24H0z"/></clipPath></defs></svg>