<svg width="64" height="64" fill="none" xmlns="http://www.w3.org/2000/svg"><path fill-rule="evenodd" clip-rule="evenodd" d="M32 .8C14.4.8 0 15.2 0 32.8a31.965 31.965 0 0 0 21.867 30.4c1.6.267 2.133-.8 2.133-1.6v-5.333C15.2 58.133 13.333 52 13.333 52 12 48.267 9.867 47.2 9.867 47.2c-3.2-1.867 0-1.867 0-1.867 3.2.267 4.8 3.2 4.8 3.2C17.6 53.333 22.133 52 24 51.2c.267-2.133 1.067-3.467 2.133-4.267-7.2-.8-14.666-3.466-14.666-15.733 0-3.467 1.333-6.4 3.2-8.533 0-1.067-1.334-4.267.533-8.534 0 0 2.667-.8 8.8 3.2 2.667-.8 5.333-1.066 8-1.066s5.333.266 8 1.066c6.133-4.266 8.8-3.2 8.8-3.2 1.867 4.534.533 7.734.267 8.534 2.133 2.133 3.2 5.066 3.2 8.533 0 12.267-7.467 14.933-14.667 15.733 1.067 1.067 2.133 2.934 2.133 5.867v8.8c0 .8.534 1.867 2.134 1.6a31.965 31.965 0 0 0 21.866-30.4C64 15.2 49.6.8 32 .8Z" fill="#101828"/></svg>