<svg width="16" height="16" fill="none" xmlns="http://www.w3.org/2000/svg"><path fill-rule="evenodd" clip-rule="evenodd" d="M8 .2c-4.4 0-8 3.6-8 8a7.991 7.991 0 0 0 5.467 7.6c.4.067.533-.2.533-.4v-1.333C3.8 14.533 3.333 13 3.333 13c-.333-.933-.866-1.2-.866-1.2-.8-.467 0-.467 0-.467.8.067 1.2.8 1.2.8C4.4 13.333 5.533 13 6 12.8c.067-.533.267-.867.533-1.067-1.8-.2-3.666-.866-3.666-3.933 0-.867.333-1.6.8-2.133 0-.267-.334-1.067.133-2.134 0 0 .667-.2 2.2.8.667-.2 1.333-.266 2-.266s1.333.066 2 .266c1.533-1.066 2.2-.8 2.2-.8.467 1.134.133 1.934.067 2.134.533.533.8 1.266.8 2.133 0 3.067-1.867 3.733-3.667 3.933.267.267.533.734.533 1.467v2.2c0 .2.134.467.534.4a7.991 7.991 0 0 0 5.466-7.6C16 3.8 12.4.2 8 .2Z" fill="#98A2B3"/></svg>