<svg width="25" height="24" fill="none" xmlns="http://www.w3.org/2000/svg"><path fill-rule="evenodd" clip-rule="evenodd" d="M12.5.147c-6.6 0-12 5.4-12 12 0 5.3 3.4 9.8 8.2 11.4.6.1.8-.3.8-.6v-2c-3.3.7-4-1.6-4-1.6-.5-1.4-1.3-1.8-1.3-1.8-1.2-.7 0-.7 0-.7 1.2.1 1.8 1.2 1.8 1.2 1.1 1.8 2.8 1.3 3.5 1 .1-.8.4-1.3.8-1.6-2.7-.3-5.5-1.3-5.5-5.9 0-1.3.5-2.4 1.2-3.2 0-.4-.5-1.6.2-3.2 0 0 1-.3 3.3 1.2 1-.3 2-.4 3-.4s2 .1 3 .4c2.3-1.6 3.3-1.2 3.3-1.2.7 1.7.2 2.9.1 3.2.8.8 1.2 1.9 1.2 3.2 0 4.6-2.8 5.6-5.5 5.9.4.4.8 1.1.8 2.2v3.3c0 .3.2.7.8.6 4.8-1.6 8.2-6.1 8.2-11.4.1-6.6-5.3-12-11.9-12Z" fill="#98A2B3"/></svg>