<svg width="21" height="20" fill="none" xmlns="http://www.w3.org/2000/svg"><path fill-rule="evenodd" clip-rule="evenodd" d="M10.25 0C4.611 0 0 4.612 0 10.25a10.24 10.24 0 0 0 7.004 9.737c.512.085.683-.257.683-.513v-1.708c-2.818.598-3.416-1.367-3.416-1.367-.427-1.196-1.11-1.537-1.11-1.537-1.026-.598 0-.598 0-.598 1.024.085 1.537 1.025 1.537 1.025.94 1.537 2.391 1.11 2.99.854.085-.683.34-1.11.682-1.367-2.306-.256-4.697-1.11-4.697-5.039 0-1.11.427-2.05 1.025-2.733 0-.342-.427-1.367.17-2.733 0 0 .855-.257 2.82 1.025.853-.257 1.707-.342 2.561-.342.855 0 1.709.085 2.563.342C14.776 3.929 15.63 4.27 15.63 4.27c.598 1.452.17 2.477.085 2.733.683.683 1.025 1.623 1.025 2.733 0 3.93-2.392 4.783-4.698 5.04.342.341.684.939.684 1.879v2.818c0 .256.17.598.683.513a10.238 10.238 0 0 0 7.004-9.737C20.499 4.611 15.887 0 10.249 0Z" fill="#fff"/></svg>