<svg xmlns="http://www.w3.org/2000/svg" viewBox="0 0 64 64" x="0px" y="0px"><title>language, translate, translation, translator</title><g><path d="M31.33,23.48a7.06,7.06,0,0,0-4.79,1.87A1.48,1.48,0,0,0,25.6,25s0,0,0,0a8.13,8.13,0,0,1-3.11-.59,12.28,12.28,0,0,0,2.48-6.3h.66a1.5,1.5,0,0,0,0-3H21.34V12.78a1.5,1.5,0,1,0-3,0v2.34H14.08a1.5,1.5,0,0,0,0,3h7.84A9,9,0,0,1,20,22.67a9.32,9.32,0,0,1-1.76-2.93,1.5,1.5,0,1,0-2.82,1,12.38,12.38,0,0,0,2.11,3.63,9.28,9.28,0,0,1-3.42.6h0a1.5,1.5,0,1,0,0,3h0A11.3,11.3,0,0,0,20,26.54,10.42,10.42,0,0,0,24.71,28a7,7,0,0,0-.51,2.63v1.12H13.77a1.5,1.5,0,0,0-1.14.52,1.47,1.47,0,0,0-.34,1.21c0,.1.19,1.23.53,2.82a1,1,0,0,1-1.57,1C8.1,35,4.74,32.2,3.69,30.23A1.82,1.82,0,0,0,3.54,30a4.07,4.07,0,0,1-.74-2.35V11.52A4.13,4.13,0,0,1,6.93,7.39H32.67a4.13,4.13,0,0,1,4.13,4.13v12ZM61.2,30.61V46.7a4,4,0,0,1-.74,2.35,1.17,1.17,0,0,0-.15.27c-1,2-4.41,4.77-7.56,7.09a1,1,0,0,1-1.57-1c.34-1.6.52-2.73.53-2.83a1.49,1.49,0,0,0-1.48-1.73H31.33A4.13,4.13,0,0,1,27.2,46.7V30.61a4.13,4.13,0,0,1,4.13-4.13H57.07A4.13,4.13,0,0,1,61.2,30.61Zm-10.42,14L49.05,40.3l-3.42-8.56h0a1.3,1.3,0,0,0-.08-.17l-.06-.1-.09-.12-.09-.1-.1-.09-.13-.1L45,31l-.16-.09h0a.38.38,0,0,0-.1,0l-.16-.05-.15,0h-.3l-.13,0-.17.05a.38.38,0,0,0-.1,0h0l-.15.09-.11.05-.12.1-.1.09-.09.1-.1.12s0,.07-.05.1l-.09.17h0L39.42,40.3l-1.73,4.32a1.51,1.51,0,0,0,.84,2,1.55,1.55,0,0,0,.56.11,1.51,1.51,0,0,0,1.39-1l1.34-3.35h4.84L48,45.73a1.49,1.49,0,0,0,1.39,1,1.54,1.54,0,0,0,.55-.11A1.5,1.5,0,0,0,50.78,44.62ZM43,39.38h2.44l-1.22-3Z"></path></g></svg>