<svg width="21" height="20" viewBox="0 0 21 20" fill="none" xmlns="http://www.w3.org/2000/svg">
<g clip-path="url(#clip0_79_80485)">
<path fill-rule="evenodd" clip-rule="evenodd" d="M16.8759 9.97371C16.8759 11.2331 16.5103 12.4409 15.8828 13.4384L18.4441 16.0103C19.6984 14.3306 20.4825 12.2309 20.4825 9.9734C20.4825 7.7159 19.6981 5.61652 18.4441 3.93652L15.8828 6.5084C16.51 7.5059 16.8759 8.66059 16.8759 9.97309V9.97371Z" fill="white"/>
<path fill-rule="evenodd" clip-rule="evenodd" d="M10.501 16.3781C6.99883 16.3781 4.12414 13.4906 4.12414 9.97406C4.12414 6.4575 6.99914 3.57 10.501 3.57C11.8079 3.57 12.9573 3.9375 13.951 4.62L16.5123 2.04813C14.8395 0.7875 12.7488 0 10.501 0C5.01227 0 0.517578 4.46187 0.517578 10.0262C0.517578 15.5906 5.01227 20 10.501 20C12.801 20 14.8916 19.2125 16.5645 17.9531L14.0032 15.3813C13.0101 16.0112 11.8079 16.3787 10.501 16.3787V16.3781Z" fill="white"/>
</g>
<defs>
<clipPath id="clip0_79_80485">
<rect width="20" height="20" fill="white" transform="translate(0.5)"/>
</clipPath>
</defs>
</svg>
