<svg width="21" height="20" fill="none" xmlns="http://www.w3.org/2000/svg"><g clip-path="url(#a)" fill-rule="evenodd" clip-rule="evenodd" fill="#fff"><path d="M16.876 9.974c0 1.26-.366 2.467-.993 3.464l2.561 2.572c1.254-1.68 2.039-3.78 2.039-6.037s-.785-4.356-2.039-6.036l-2.561 2.571c.627.998.993 2.153.993 3.465Z"/><path d="M10.501 16.378c-3.502 0-6.377-2.887-6.377-6.404S7 3.57 10.501 3.57c1.307 0 2.456.368 3.45 1.05l2.561-2.572C14.84.788 12.75 0 10.501 0 5.012 0 .518 4.462.518 10.026.518 15.591 5.012 20 10.5 20c2.3 0 4.39-.788 6.063-2.047l-2.56-2.572a6.515 6.515 0 0 1-3.503.998Z"/></g><defs><clipPath id="a"><path fill="#fff" transform="translate(.5)" d="M0 0h20v20H0z"/></clipPath></defs></svg>