<svg width="64" height="64" fill="none" xmlns="http://www.w3.org/2000/svg"><path fill-rule="evenodd" clip-rule="evenodd" d="M52.402 31.916c0 4.03-1.17 7.895-3.178 11.087l8.196 8.23c4.014-5.375 6.523-12.094 6.523-19.318 0-7.224-2.51-13.942-6.523-19.318l-8.196 8.23c2.007 3.192 3.178 6.887 3.178 11.087v.002Z" fill="#B8D3F4"/><path fill-rule="evenodd" clip-rule="evenodd" d="M32.004 52.41c-11.207 0-20.406-9.24-20.406-20.493 0-11.253 9.2-20.493 20.406-20.493 4.182 0 7.86 1.176 11.04 3.36l8.196-8.23C45.887 2.52 39.197 0 32.004 0 14.44 0 .057 14.278.057 32.084.057 49.89 14.44 64 32.004 64c7.36 0 14.05-2.52 19.403-6.55l-8.196-8.23c-3.178 2.016-7.025 3.192-11.207 3.192v-.002Z" fill="#3385FF"/></svg>