<svg width="360" height="328pt" viewBox="0 0 270 328" xmlns="http://www.w3.org/2000/svg"><g class="graph" transform="translate(4 324)"><g class="node"><circle stroke="#000" cx="125" cy="-311" r="9"/></g><g class="node"><path fill="#fff" stroke="#fff" d="M178.307-265.3H71.693l-12 12v84.6l12 12h106.614l12-12v-84.6l-12-12z"/><path fill="#fff" stroke="#fff" d="M71.693-265.3c-6 0-12 6-12 12M59.693-168.7c0 6 6 12 12 12M178.307-156.7c6 0 12-6 12-12M190.307-253.3c0-6-6-12-12-12"/><path fill="none" stroke="#000" d="M178.307-265.3H71.693M71.693-265.3c-6 0-12 6-12 12M59.693-253.3v84.6M59.693-168.7c0 6 6 12 12 12M71.693-156.7h106.614M178.307-156.7c6 0 12-6 12-12M190.307-168.7v-84.6M190.307-253.3c0-6-6-12-12-12"/><text text-anchor="middle" x="125" y="-248.8" font-family="Times,serif" font-size="14">FunctionDeclaration</text><text text-anchor="middle" x="125" y="-232" font-family="Times,serif" font-size="14">Identifier (foo)</text><text text-anchor="middle" x="125" y="-215.2" font-family="Times,serif" font-size="14">Identifier (a)</text><text text-anchor="middle" x="125" y="-198.4" font-family="Times,serif" font-size="14">BlockStatement</text><text text-anchor="middle" x="125" y="-181.6" font-family="Times,serif" font-size="14">IfStatement</text><text text-anchor="middle" x="125" y="-164.8" font-family="Times,serif" font-size="14">Identifier (a)</text></g><g class="edge"><path fill="none" stroke="#000" d="M125-301.98v26.167"/><path stroke="#000" d="m128.5-275.586-3.5 10-3.5-10h7z"/></g><g class="node"><circle stroke="#000" cx="125" cy="-13" r="9"/><circle fill="none" stroke="#000" cx="125" cy="-13" r="13"/></g><g class="node"><path fill="#fff" stroke="#fff" d="M98.068-111.602H11.932l-12 12v17.204l12 12h86.136l12-12v-17.204l-12-12z"/><path fill="#fff" stroke="#fff" d="M11.932-111.602c-6 0-12 6-12 12M-.068-82.398c0 6 6 12 12 12M98.068-70.398c6 0 12-6 12-12M110.068-99.602c0-6-6-12-12-12"/><path fill="none" stroke="#000" d="M98.068-111.602H11.932M11.932-111.602c-6 0-12 6-12 12M-.068-99.602v17.204M-.068-82.398c0 6 6 12 12 12M11.932-70.398h86.136M98.068-70.398c6 0 12-6 12-12M110.068-82.398v-17.204M110.068-99.602c0-6-6-12-12-12"/><text text-anchor="middle" x="55" y="-95.2" font-family="Times,serif" font-size="14">BlockStatement</text><text text-anchor="middle" x="55" y="-78.4" font-family="Times,serif" font-size="14">ReturnStatement</text></g><g class="edge"><path fill="none" stroke="#000" d="m93.277-156.524-21.464 36.182"/><path stroke="#000" d="m74.8-118.516-8.113 6.815 2.092-10.386 6.02 3.571z"/></g><g class="node"><path fill="#fff" stroke="#fff" d="M250.147-120.401H139.853l-12 12v34.802l12 12h110.294l12-12V-108.4l-12-12z"/><path fill="#fff" stroke="#fff" d="M139.853-120.401c-6 0-12 6-12 12M127.853-73.599c0 6 6 12 12 12M250.147-61.599c6 0 12-6 12-12M262.147-108.401c0-6-6-12-12-12"/><path fill="none" stroke="#000" d="M250.147-120.401H139.853M139.853-120.401c-6 0-12 6-12 12M127.853-108.401v34.802M127.853-73.599c0 6 6 12 12 12M139.853-61.599h110.294M250.147-61.599c6 0 12-6 12-12M262.147-73.599V-108.4M262.147-108.401c0-6-6-12-12-12"/><text text-anchor="middle" x="195" y="-103.6" font-family="Times,serif" font-size="14">ExpressionStatement</text><text text-anchor="middle" x="195" y="-86.8" font-family="Times,serif" font-size="14">CallExpression</text><text text-anchor="middle" x="195" y="-70" font-family="Times,serif" font-size="14">Identifier (bar)</text></g><g class="edge"><path fill="none" stroke="#000" d="m156.723-156.524 16.212 27.329"/><path stroke="#000" d="m176.03-130.838 2.092 10.386-8.112-6.815 6.02-3.571z"/></g><g class="edge"><path fill="none" stroke="#000" d="M73.392-70.032 109.434-30.9"/><path stroke="#000" d="m112.278-32.98 4.2 9.727-9.349-4.984 5.149-4.742z"/></g><g class="edge"><path fill="none" stroke="#000" d="m168.935-61.7-28.634 31.087"/><path stroke="#000" d="m142.676-28.024-9.35 4.984 4.201-9.727 5.149 4.743z"/></g></g></svg>