<svg width="347pt" height="802pt" viewBox="0 0 347 802" xmlns="http://www.w3.org/2000/svg"><g class="graph" transform="translate(4 798)"><g class="node"><circle stroke="#000" cx="121" cy="-785" r="9"/></g><g class="node"><path fill="#fff" stroke="#fff" d="M164.156-740H77.844l-12 12v68l12 12h86.312l12-12v-68l-12-12z"/><path fill="#fff" stroke="#fff" d="M77.844-740c-6 0-12 6-12 12M65.844-660c0 6 6 12 12 12M164.156-648c6 0 12-6 12-12M176.156-728c0-6-6-12-12-12"/><path fill="none" stroke="#000" d="M164.156-740H77.844M77.844-740c-6 0-12 6-12 12M65.844-728v68M65.844-660c0 6 6 12 12 12M77.844-648h86.312M164.156-648c6 0 12-6 12-12M176.156-660v-68M176.156-728c0-6-6-12-12-12"/><text text-anchor="middle" x="121" y="-723.4" font-family="Times,serif" font-size="14">Program</text><text text-anchor="middle" x="121" y="-706.6" font-family="Times,serif" font-size="14">SwitchStatement</text><text text-anchor="middle" x="121" y="-689.8" font-family="Times,serif" font-size="14">Identifier (a)</text><text text-anchor="middle" x="121" y="-673" font-family="Times,serif" font-size="14">SwitchCase</text><text text-anchor="middle" x="121" y="-656.2" font-family="Times,serif" font-size="14">Literal (0)</text></g><g class="edge"><path fill="none" stroke="#000" d="M121-775.787v25.49"/><path stroke="#000" d="m124.5-750.119-3.5 10-3.5-10h7z"/></g><g class="node"><circle stroke="#000" cx="162" cy="-13" r="9"/><circle fill="none" stroke="#000" cx="162" cy="-13" r="13"/></g><g class="node"><path fill="#fff" stroke="#fff" d="M122.147-533.7H11.853l-12 12v51.4l12 12h110.294l12-12v-51.4l-12-12z"/><path fill="#fff" stroke="#fff" d="M11.853-533.7c-6 0-12 6-12 12M-.147-470.3c0 6 6 12 12 12M122.147-458.3c6 0 12-6 12-12M134.147-521.7c0-6-6-12-12-12"/><path fill="none" stroke="#000" d="M122.147-533.7H11.853M11.853-533.7c-6 0-12 6-12 12M-.147-521.7v51.4M-.147-470.3c0 6 6 12 12 12M11.853-458.3h110.294M122.147-458.3c6 0 12-6 12-12M134.147-470.3v-51.4M134.147-521.7c0-6-6-12-12-12"/><text text-anchor="middle" x="67" y="-517" font-family="Times,serif" font-size="14">ExpressionStatement</text><text text-anchor="middle" x="67" y="-500.2" font-family="Times,serif" font-size="14">CallExpression</text><text text-anchor="middle" x="67" y="-483.4" font-family="Times,serif" font-size="14">Identifier (foo)</text><text text-anchor="middle" x="67" y="-466.6" font-family="Times,serif" font-size="14">BreakStatement</text></g><g class="edge"><path fill="none" stroke="#000" d="M108.476-647.541 79.82-543.533"/><path stroke="#000" d="m83.14-542.405-6.03 8.711-.719-10.57 6.749 1.859z"/></g><g class="node"><path fill="#fff" stroke="#fff" d="M191.072-611.602h-58.144l-12 12v17.204l12 12h58.144l12-12v-17.204l-12-12z"/><path fill="#fff" stroke="#fff" d="M132.928-611.602c-6 0-12 6-12 12M120.928-582.398c0 6 6 12 12 12M191.072-570.398c6 0 12-6 12-12M203.072-599.602c0-6-6-12-12-12"/><path fill="none" stroke="#000" d="M191.072-611.602h-58.144M132.928-611.602c-6 0-12 6-12 12M120.928-599.602v17.204M120.928-582.398c0 6 6 12 12 12M132.928-570.398h58.144M191.072-570.398c6 0 12-6 12-12M203.072-582.398v-17.204M203.072-599.602c0-6-6-12-12-12"/><text text-anchor="middle" x="162" y="-595.2" font-family="Times,serif" font-size="14">SwitchCase</text><text text-anchor="middle" x="162" y="-578.4" font-family="Times,serif" font-size="14">Literal (1)</text></g><g class="edge"><path fill="none" stroke="#000" d="m139.341-647.817 10.835 26.689"/><path stroke="#000" d="m153.424-622.431.519 10.582-7.005-7.949 6.486-2.633z"/></g><g class="node"><path fill="#fff" stroke="#fff" d="M217.321-103.602H106.679l-12 12v17.204l12 12h110.642l12-12v-17.204l-12-12z"/><path fill="#fff" stroke="#fff" d="M106.679-103.602c-6 0-12 6-12 12M94.679-74.398c0 6 6 12 12 12M217.321-62.398c6 0 12-6 12-12M229.321-91.602c0-6-6-12-12-12"/><path fill="none" stroke="#000" d="M217.321-103.602H106.679M106.679-103.602c-6 0-12 6-12 12M94.679-91.602v17.204M94.679-74.398c0 6 6 12 12 12M106.679-62.398h110.642M217.321-62.398c6 0 12-6 12-12M229.321-74.398v-17.204M229.321-91.602c0-6-6-12-12-12"/><text text-anchor="middle" x="162" y="-87.2" font-family="Times,serif" font-size="14">SwitchStatement:exit</text><text text-anchor="middle" x="162" y="-70.4" font-family="Times,serif" font-size="14">Program:exit</text></g><g class="edge"><path fill="none" stroke="#000" d="M65.96-458.127C65.488-409.946 67.683-323.315 86-252c13.193 51.361 41.133 106.594 59.212 139.184"/><path stroke="#000" d="m148.402-114.284 1.852 10.432-7.953-7 6.101-3.432z"/></g><g class="node"><path fill="#fff" stroke="#fff" d="M217.147-422.401H106.853l-12 12v34.802l12 12h110.294l12-12v-34.802l-12-12z"/><path fill="#fff" stroke="#fff" d="M106.853-422.401c-6 0-12 6-12 12M94.853-375.599c0 6 6 12 12 12M217.147-363.599c6 0 12-6 12-12M229.147-410.401c0-6-6-12-12-12"/><path fill="none" stroke="#000" d="M217.147-422.401H106.853M106.853-422.401c-6 0-12 6-12 12M94.853-410.401v34.802M94.853-375.599c0 6 6 12 12 12M106.853-363.599h110.294M217.147-363.599c6 0 12-6 12-12M229.147-375.599v-34.802M229.147-410.401c0-6-6-12-12-12"/><text text-anchor="middle" x="162" y="-405.6" font-family="Times,serif" font-size="14">ExpressionStatement</text><text text-anchor="middle" x="162" y="-388.8" font-family="Times,serif" font-size="14">CallExpression</text><text text-anchor="middle" x="162" y="-372" font-family="Times,serif" font-size="14">Identifier (bar)</text></g><g class="node"><path fill="#fff" stroke="#fff" d="M217.147-327.7H106.853l-12 12v51.4l12 12h110.294l12-12v-51.4l-12-12z"/><path fill="#fff" stroke="#fff" d="M106.853-327.7c-6 0-12 6-12 12M94.853-264.3c0 6 6 12 12 12M217.147-252.3c6 0 12-6 12-12M229.147-315.7c0-6-6-12-12-12"/><path fill="none" stroke="#000" d="M217.147-327.7H106.853M106.853-327.7c-6 0-12 6-12 12M94.853-315.7v51.4M94.853-264.3c0 6 6 12 12 12M106.853-252.3h110.294M217.147-252.3c6 0 12-6 12-12M229.147-264.3v-51.4M229.147-315.7c0-6-6-12-12-12"/><text text-anchor="middle" x="162" y="-311" font-family="Times,serif" font-size="14">ExpressionStatement</text><text text-anchor="middle" x="162" y="-294.2" font-family="Times,serif" font-size="14">CallExpression</text><text text-anchor="middle" x="162" y="-277.4" font-family="Times,serif" font-size="14">Identifier (hoge)</text><text text-anchor="middle" x="162" y="-260.6" font-family="Times,serif" font-size="14">BreakStatement</text></g><g class="edge"><path fill="none" stroke="#000" d="M162-363.597v25.592"/><path stroke="#000" d="m165.5-337.871-3.5 10-3.5-10h7z"/></g><g class="edge"><path fill="none" stroke="#000" d="M162-252.35v138.677"/><path stroke="#000" d="m165.5-113.613-3.5 10-3.5-10h7z"/></g><g class="node"><path fill="#fff" stroke="#fff" d="M327.147-215.7H216.853l-12 12v51.4l12 12h110.294l12-12v-51.4l-12-12z"/><path fill="#fff" stroke="#fff" d="M216.853-215.7c-6 0-12 6-12 12M204.853-152.3c0 6 6 12 12 12M327.147-140.3c6 0 12-6 12-12M339.147-203.7c0-6-6-12-12-12"/><path fill="none" stroke="#000" d="M327.147-215.7H216.853M216.853-215.7c-6 0-12 6-12 12M204.853-203.7v51.4M204.853-152.3c0 6 6 12 12 12M216.853-140.3h110.294M327.147-140.3c6 0 12-6 12-12M339.147-152.3v-51.4M339.147-203.7c0-6-6-12-12-12"/><text text-anchor="middle" x="272" y="-199" font-family="Times,serif" font-size="14">ExpressionStatement</text><text text-anchor="middle" x="272" y="-182.2" font-family="Times,serif" font-size="14">CallExpression</text><text text-anchor="middle" x="272" y="-165.4" font-family="Times,serif" font-size="14">Identifier (fuga)</text><text text-anchor="middle" x="272" y="-148.6" font-family="Times,serif" font-size="14">BreakStatement</text></g><g class="edge"><path fill="none" stroke="#000" d="m228.525-140.244-35.56 30.065"/><path stroke="#000" d="m195.145-107.439-9.897 3.784 5.377-9.13 4.52 5.346z"/></g><g class="edge"><path fill="none" stroke="#000" d="M162-62.332v25.812"/><path stroke="#000" d="m165.5-36.349-3.5 10-3.5-10h7z"/></g><g class="edge"><path fill="none" stroke="#000" d="M162-570.128v137.454"/><path stroke="#000" d="m165.5-432.424-3.5 10-3.5-10h7z"/></g><g class="node"><path fill="#fff" stroke="#fff" d="M260.072-516.602h-58.144l-12 12v17.204l12 12h58.144l12-12v-17.204l-12-12z"/><path fill="#fff" stroke="#fff" d="M201.928-516.602c-6 0-12 6-12 12M189.928-487.398c0 6 6 12 12 12M260.072-475.398c6 0 12-6 12-12M272.072-504.602c0-6-6-12-12-12"/><path fill="none" stroke="#000" d="M260.072-516.602h-58.144M201.928-516.602c-6 0-12 6-12 12M189.928-504.602v17.204M189.928-487.398c0 6 6 12 12 12M201.928-475.398h58.144M260.072-475.398c6 0 12-6 12-12M272.072-487.398v-17.204M272.072-504.602c0-6-6-12-12-12"/><text text-anchor="middle" x="231" y="-500.2" font-family="Times,serif" font-size="14">SwitchCase</text><text text-anchor="middle" x="231" y="-483.4" font-family="Times,serif" font-size="14">Literal (2)</text></g><g class="edge"><path fill="none" stroke="#000" d="m176.633-570.277 33.661 45.369"/><path stroke="#000" d="m213.24-526.811 3.148 10.117-8.769-5.946 5.621-4.171z"/></g><g class="edge"><path fill="none" stroke="#000" d="m217.368-475.046-30.177 44.172"/><path stroke="#000" d="m189.882-428.608-8.531 6.283 2.751-10.232 5.78 3.949z"/></g><g class="node"><path fill="#fff" stroke="#fff" d="M317.072-413.602h-58.144l-12 12v17.204l12 12h58.144l12-12v-17.204l-12-12z"/><path fill="#fff" stroke="#fff" d="M258.928-413.602c-6 0-12 6-12 12M246.928-384.398c0 6 6 12 12 12M317.072-372.398c6 0 12-6 12-12M329.072-401.602c0-6-6-12-12-12"/><path fill="none" stroke="#000" d="M317.072-413.602h-58.144M258.928-413.602c-6 0-12 6-12 12M246.928-401.602v17.204M246.928-384.398c0 6 6 12 12 12M258.928-372.398h58.144M317.072-372.398c6 0 12-6 12-12M329.072-384.398v-17.204M329.072-401.602c0-6-6-12-12-12"/><text text-anchor="middle" x="288" y="-397.2" font-family="Times,serif" font-size="14">SwitchCase</text><text text-anchor="middle" x="288" y="-380.4" font-family="Times,serif" font-size="14">Literal (3)</text></g><g class="edge"><path fill="none" stroke="#000" d="m242.261-475.046 29.523 52.312"/><path stroke="#000" d="m274.895-424.342 1.867 10.429-7.963-6.989 6.096-3.44z"/></g><g class="edge"><path fill="none" stroke="#000" d="m263.407-372.286-47.656 38.2"/><path stroke="#000" d="m217.69-331.155-9.992 3.524 5.614-8.986 4.378 5.462z"/></g><g class="node"><path fill="#fff" stroke="#fff" d="M317.072-308h-58.144l-12 12v12l12 12h58.144l12-12v-12l-12-12z"/><path fill="#fff" stroke="#fff" d="M258.928-308c-6 0-12 6-12 12M246.928-284c0 6 6 12 12 12M317.072-272c6 0 12-6 12-12M329.072-296c0-6-6-12-12-12"/><path fill="none" stroke="#000" d="M317.072-308h-58.144M258.928-308c-6 0-12 6-12 12M246.928-296v12M246.928-284c0 6 6 12 12 12M258.928-272h58.144M317.072-272c6 0 12-6 12-12M329.072-284v-12M329.072-296c0-6-6-12-12-12"/><text text-anchor="middle" x="288" y="-285.8" font-family="Times,serif" font-size="14">SwitchCase</text></g><g class="edge"><path fill="none" stroke="#000" d="M288-372.046v53.445"/><path stroke="#000" d="m291.5-318.223-3.5 10-3.5-10h7z"/></g><g class="edge"><path fill="none" stroke="#000" d="m285.5-271.813-6.716 46.173"/><path stroke="#000" d="m282.231-225.02-4.903 9.392-2.024-10.4 6.927 1.008z"/></g></g></svg>