<?xml version="1.0"?>
<svg width="146pt" height="250pt" viewBox="0.00 0.00 146.00 250.00" xmlns="http://www.w3.org/2000/svg" xmlns:xlink="http://www.w3.org/1999/xlink">
<g id="graph1" class="graph" transform="scale(1 1) rotate(0) translate(4 246)">
<title>_anonymous_0</title>

<g id="node1" class="node"><title>initial</title>
<ellipse fill="black" stroke="black" cx="69" cy="-233" rx="9" ry="9"></ellipse>
</g>

<g id="node3" class="node"><title>s1_1</title>
<polygon fill="white" stroke="white" points="126.042,-187.601 11.9578,-187.601 -0.0421557,-175.601 -0.0421557,-74.3994 11.9578,-62.3994 126.042,-62.3994 138.042,-74.3994 138.042,-175.601 126.042,-187.601"></polygon>
<path fill="white" stroke="white" d="M11.9578,-187.601C5.95784,-187.601 -0.0421557,-181.601 -0.0421557,-175.601"></path>
<path fill="white" stroke="white" d="M-0.0421557,-74.3994C-0.0421557,-68.3994 5.95784,-62.3994 11.9578,-62.3994"></path>
<path fill="white" stroke="white" d="M126.042,-62.3994C132.042,-62.3994 138.042,-68.3994 138.042,-74.3994"></path>
<path fill="white" stroke="white" d="M138.042,-175.601C138.042,-181.601 132.042,-187.601 126.042,-187.601"></path>
<polyline fill="none" stroke="black" points="126.042,-187.601 11.9578,-187.601 "></polyline>
<path fill="none" stroke="black" d="M11.9578,-187.601C5.95784,-187.601 -0.0421557,-181.601 -0.0421557,-175.601"></path>
<polyline fill="none" stroke="black" points="-0.0421557,-175.601 -0.0421557,-74.3994 "></polyline>
<path fill="none" stroke="black" d="M-0.0421557,-74.3994C-0.0421557,-68.3994 5.95784,-62.3994 11.9578,-62.3994"></path>
<polyline fill="none" stroke="black" points="11.9578,-62.3994 126.042,-62.3994 "></polyline>
<path fill="none" stroke="black" d="M126.042,-62.3994C132.042,-62.3994 138.042,-68.3994 138.042,-74.3994"></path>
<polyline fill="none" stroke="black" points="138.042,-74.3994 138.042,-175.601 "></polyline>
<path fill="none" stroke="black" d="M138.042,-175.601C138.042,-181.601 132.042,-187.601 126.042,-187.601"></path>
<text text-anchor="middle" x="69" y="-171.2" font-family="Times,serif" font-size="14.00">Program</text>
<text text-anchor="middle" x="69" y="-154.4" font-family="Times,serif" font-size="14.00">ExpressionStatement</text>
<text text-anchor="middle" x="69" y="-137.6" font-family="Times,serif" font-size="14.00">CallExpression</text>
<text text-anchor="middle" x="69" y="-120.8" font-family="Times,serif" font-size="14.00">MemberExpression</text>
<text text-anchor="middle" x="69" y="-104" font-family="Times,serif" font-size="14.00">Identifier (console)</text>
<text text-anchor="middle" x="69" y="-87.2" font-family="Times,serif" font-size="14.00">Identifier (log)</text>
<text text-anchor="middle" x="69" y="-70.4" font-family="Times,serif" font-size="14.00">Literal (Hello world!)</text>
</g>

<g id="edge2" class="edge"><title>initial-&gt;s1_1</title>
<path fill="none" stroke="black" d="M69,-223.682C69,-217.432 69,-208.196 69,-197.86"></path>
<polygon fill="black" stroke="black" points="72.5001,-197.675 69,-187.675 65.5001,-197.675 72.5001,-197.675"></polygon>
</g>

<g id="node2" class="node"><title>final</title>
<ellipse fill="black" stroke="black" cx="69" cy="-13" rx="9" ry="9"></ellipse>
<ellipse fill="none" stroke="black" cx="69" cy="-13" rx="13" ry="13"></ellipse>
</g>

<g id="edge3" class="edge"><title>s1_1-&gt;final</title>
<path fill="none" stroke="black" d="M69,-62.2476C69,-53.0345 69,-44.0781 69,-36.4335"></path>
<polygon fill="black" stroke="black" points="72.5001,-36.2949 69,-26.2949 65.5001,-36.2949 72.5001,-36.2949"></polygon>
</g>
</g>
</svg>