<?xml version="1.0"?>
<svg width="350pt" height="646pt" viewBox="0.00 0.00 350.00 646.00" xmlns="http://www.w3.org/2000/svg" xmlns:xlink="http://www.w3.org/1999/xlink">
<g id="graph1" class="graph" transform="scale(1 1) rotate(0) translate(4 642)">
<title>_anonymous_0</title>

<g id="node1" class="node"><title>initial</title>
<ellipse fill="black" stroke="black" cx="174" cy="-629" rx="9" ry="9"></ellipse>
</g>

<g id="node3" class="node"><title>s1_1</title>
<polygon fill="white" stroke="white" points="226.617,-583.3 121.383,-583.3 109.383,-571.3 109.383,-486.7 121.383,-474.7 226.617,-474.7 238.617,-486.7 238.617,-571.3 226.617,-583.3"></polygon>
<path fill="white" stroke="white" d="M121.383,-583.3C115.383,-583.3 109.383,-577.3 109.383,-571.3"></path>
<path fill="white" stroke="white" d="M109.383,-486.7C109.383,-480.7 115.383,-474.7 121.383,-474.7"></path>
<path fill="white" stroke="white" d="M226.617,-474.7C232.617,-474.7 238.617,-480.7 238.617,-486.7"></path>
<path fill="white" stroke="white" d="M238.617,-571.3C238.617,-577.3 232.617,-583.3 226.617,-583.3"></path>
<polyline fill="none" stroke="black" points="226.617,-583.3 121.383,-583.3 "></polyline>
<path fill="none" stroke="black" d="M121.383,-583.3C115.383,-583.3 109.383,-577.3 109.383,-571.3"></path>
<polyline fill="none" stroke="black" points="109.383,-571.3 109.383,-486.7 "></polyline>
<path fill="none" stroke="black" d="M109.383,-486.7C109.383,-480.7 115.383,-474.7 121.383,-474.7"></path>
<polyline fill="none" stroke="black" points="121.383,-474.7 226.617,-474.7 "></polyline>
<path fill="none" stroke="black" d="M226.617,-474.7C232.617,-474.7 238.617,-480.7 238.617,-486.7"></path>
<polyline fill="none" stroke="black" points="238.617,-486.7 238.617,-571.3 "></polyline>
<path fill="none" stroke="black" d="M238.617,-571.3C238.617,-577.3 232.617,-583.3 226.617,-583.3"></path>
<text text-anchor="middle" x="174" y="-566.8" font-family="Times,serif" font-size="14.00">Program</text>
<text text-anchor="middle" x="174" y="-550" font-family="Times,serif" font-size="14.00">ForStatement</text>
<text text-anchor="middle" x="174" y="-533.2" font-family="Times,serif" font-size="14.00">VariableDeclaration</text>
<text text-anchor="middle" x="174" y="-516.4" font-family="Times,serif" font-size="14.00">VariableDeclarator</text>
<text text-anchor="middle" x="174" y="-499.6" font-family="Times,serif" font-size="14.00">Identifier (i)</text>
<text text-anchor="middle" x="174" y="-482.8" font-family="Times,serif" font-size="14.00">Literal (0)</text>
</g>

<g id="edge2" class="edge"><title>initial-&gt;s1_1</title>
<path fill="none" stroke="black" d="M174,-619.98C174,-613.675 174,-604.238 174,-593.813"></path>
<polygon fill="black" stroke="black" points="177.5,-593.586 174,-583.586 170.5,-593.586 177.5,-593.586"></polygon>
</g>

<g id="node2" class="node"><title>final</title>
<ellipse fill="black" stroke="black" cx="58" cy="-13" rx="9" ry="9"></ellipse>
<ellipse fill="none" stroke="black" cx="58" cy="-13" rx="13" ry="13"></ellipse>
</g>

<g id="node4" class="node"><title>s1_2</title>
<polygon fill="white" stroke="white" points="220.233,-438.401 127.767,-438.401 115.767,-426.401 115.767,-391.599 127.767,-379.599 220.233,-379.599 232.233,-391.599 232.233,-426.401 220.233,-438.401"></polygon>
<path fill="white" stroke="white" d="M127.767,-438.401C121.767,-438.401 115.767,-432.401 115.767,-426.401"></path>
<path fill="white" stroke="white" d="M115.767,-391.599C115.767,-385.599 121.767,-379.599 127.767,-379.599"></path>
<path fill="white" stroke="white" d="M220.233,-379.599C226.233,-379.599 232.233,-385.599 232.233,-391.599"></path>
<path fill="white" stroke="white" d="M232.233,-426.401C232.233,-432.401 226.233,-438.401 220.233,-438.401"></path>
<polyline fill="none" stroke="black" points="220.233,-438.401 127.767,-438.401 "></polyline>
<path fill="none" stroke="black" d="M127.767,-438.401C121.767,-438.401 115.767,-432.401 115.767,-426.401"></path>
<polyline fill="none" stroke="black" points="115.767,-426.401 115.767,-391.599 "></polyline>
<path fill="none" stroke="black" d="M115.767,-391.599C115.767,-385.599 121.767,-379.599 127.767,-379.599"></path>
<polyline fill="none" stroke="black" points="127.767,-379.599 220.233,-379.599 "></polyline>
<path fill="none" stroke="black" d="M220.233,-379.599C226.233,-379.599 232.233,-385.599 232.233,-391.599"></path>
<polyline fill="none" stroke="black" points="232.233,-391.599 232.233,-426.401 "></polyline>
<path fill="none" stroke="black" d="M232.233,-426.401C232.233,-432.401 226.233,-438.401 220.233,-438.401"></path>
<text text-anchor="middle" x="174" y="-421.6" font-family="Times,serif" font-size="14.00">BinaryExpression</text>
<text text-anchor="middle" x="174" y="-404.8" font-family="Times,serif" font-size="14.00">Identifier (i)</text>
<text text-anchor="middle" x="174" y="-388" font-family="Times,serif" font-size="14.00">Literal (10)</text>
</g>

<g id="edge3" class="edge"><title>s1_1-&gt;s1_2</title>
<path fill="none" stroke="black" d="M174,-474.524C174,-465.777 174,-456.867 174,-448.572"></path>
<polygon fill="black" stroke="black" points="177.5,-448.452 174,-438.452 170.5,-448.452 177.5,-448.452"></polygon>
</g>

<g id="node5" class="node"><title>s1_3</title>
<polygon fill="white" stroke="white" points="229.147,-343.3 118.853,-343.3 106.853,-331.3 106.853,-246.7 118.853,-234.7 229.147,-234.7 241.147,-246.7 241.147,-331.3 229.147,-343.3"></polygon>
<path fill="white" stroke="white" d="M118.853,-343.3C112.853,-343.3 106.853,-337.3 106.853,-331.3"></path>
<path fill="white" stroke="white" d="M106.853,-246.7C106.853,-240.7 112.853,-234.7 118.853,-234.7"></path>
<path fill="white" stroke="white" d="M229.147,-234.7C235.147,-234.7 241.147,-240.7 241.147,-246.7"></path>
<path fill="white" stroke="white" d="M241.147,-331.3C241.147,-337.3 235.147,-343.3 229.147,-343.3"></path>
<polyline fill="none" stroke="black" points="229.147,-343.3 118.853,-343.3 "></polyline>
<path fill="none" stroke="black" d="M118.853,-343.3C112.853,-343.3 106.853,-337.3 106.853,-331.3"></path>
<polyline fill="none" stroke="black" points="106.853,-331.3 106.853,-246.7 "></polyline>
<path fill="none" stroke="black" d="M106.853,-246.7C106.853,-240.7 112.853,-234.7 118.853,-234.7"></path>
<polyline fill="none" stroke="black" points="118.853,-234.7 229.147,-234.7 "></polyline>
<path fill="none" stroke="black" d="M229.147,-234.7C235.147,-234.7 241.147,-240.7 241.147,-246.7"></path>
<polyline fill="none" stroke="black" points="241.147,-246.7 241.147,-331.3 "></polyline>
<path fill="none" stroke="black" d="M241.147,-331.3C241.147,-337.3 235.147,-343.3 229.147,-343.3"></path>
<text text-anchor="middle" x="174" y="-326.8" font-family="Times,serif" font-size="14.00">BlockStatement</text>
<text text-anchor="middle" x="174" y="-310" font-family="Times,serif" font-size="14.00">ExpressionStatement</text>
<text text-anchor="middle" x="174" y="-293.2" font-family="Times,serif" font-size="14.00">CallExpression</text>
<text text-anchor="middle" x="174" y="-276.4" font-family="Times,serif" font-size="14.00">Identifier (foo)</text>
<text text-anchor="middle" x="174" y="-259.6" font-family="Times,serif" font-size="14.00">IfStatement</text>
<text text-anchor="middle" x="174" y="-242.8" font-family="Times,serif" font-size="14.00">Identifier (b)</text>
</g>

<g id="edge4" class="edge"><title>s1_2-&gt;s1_3</title>
<path fill="none" stroke="black" d="M174,-379.736C174,-371.725 174,-362.664 174,-353.458"></path>
<polygon fill="black" stroke="black" points="177.5,-353.454 174,-343.454 170.5,-353.454 177.5,-353.454"></polygon>
</g>

<g id="node9" class="node"><title>s1_8</title>
<polygon fill="white" stroke="white" points="104.239,-103.602 11.761,-103.602 -0.239018,-91.6019 -0.239018,-74.3981 11.761,-62.3981 104.239,-62.3981 116.239,-74.3981 116.239,-91.6019 104.239,-103.602"></polygon>
<path fill="white" stroke="white" d="M11.761,-103.602C5.76098,-103.602 -0.239018,-97.6019 -0.239018,-91.6019"></path>
<path fill="white" stroke="white" d="M-0.239018,-74.3981C-0.239018,-68.3981 5.76098,-62.3981 11.761,-62.3981"></path>
<path fill="white" stroke="white" d="M104.239,-62.3981C110.239,-62.3981 116.239,-68.3981 116.239,-74.3981"></path>
<path fill="white" stroke="white" d="M116.239,-91.6019C116.239,-97.6019 110.239,-103.602 104.239,-103.602"></path>
<polyline fill="none" stroke="black" points="104.239,-103.602 11.761,-103.602 "></polyline>
<path fill="none" stroke="black" d="M11.761,-103.602C5.76098,-103.602 -0.239018,-97.6019 -0.239018,-91.6019"></path>
<polyline fill="none" stroke="black" points="-0.239018,-91.6019 -0.239018,-74.3981 "></polyline>
<path fill="none" stroke="black" d="M-0.239018,-74.3981C-0.239018,-68.3981 5.76098,-62.3981 11.761,-62.3981"></path>
<polyline fill="none" stroke="black" points="11.761,-62.3981 104.239,-62.3981 "></polyline>
<path fill="none" stroke="black" d="M104.239,-62.3981C110.239,-62.3981 116.239,-68.3981 116.239,-74.3981"></path>
<polyline fill="none" stroke="black" points="116.239,-74.3981 116.239,-91.6019 "></polyline>
<path fill="none" stroke="black" d="M116.239,-91.6019C116.239,-97.6019 110.239,-103.602 104.239,-103.602"></path>
<text text-anchor="middle" x="58" y="-87.2" font-family="Times,serif" font-size="14.00">ForStatement:exit</text>
<text text-anchor="middle" x="58" y="-70.4" font-family="Times,serif" font-size="14.00">Program:exit</text>
</g>

<g id="edge9" class="edge"><title>s1_2-&gt;s1_8</title>
<path fill="none" stroke="black" d="M133.184,-379.539C120.713,-369.392 107.737,-357.181 98,-344 56.1121,-287.297 50.0603,-267.081 36,-198 30.8588,-172.74 31.2034,-165.328 36,-140 37.7044,-131.001 40.8223,-121.596 44.1855,-113.12"></path>
<polygon fill="black" stroke="black" points="47.5078,-114.249 48.1762,-103.676 41.0598,-111.525 47.5078,-114.249"></polygon>
</g>

<g id="node6" class="node"><title>s1_5</title>
<polygon fill="white" stroke="white" points="138.572,-189.602 57.4276,-189.602 45.4276,-177.602 45.4276,-160.398 57.4276,-148.398 138.572,-148.398 150.572,-160.398 150.572,-177.602 138.572,-189.602"></polygon>
<path fill="white" stroke="white" d="M57.4276,-189.602C51.4276,-189.602 45.4276,-183.602 45.4276,-177.602"></path>
<path fill="white" stroke="white" d="M45.4276,-160.398C45.4276,-154.398 51.4276,-148.398 57.4276,-148.398"></path>
<path fill="white" stroke="white" d="M138.572,-148.398C144.572,-148.398 150.572,-154.398 150.572,-160.398"></path>
<path fill="white" stroke="white" d="M150.572,-177.602C150.572,-183.602 144.572,-189.602 138.572,-189.602"></path>
<polyline fill="none" stroke="black" points="138.572,-189.602 57.4276,-189.602 "></polyline>
<path fill="none" stroke="black" d="M57.4276,-189.602C51.4276,-189.602 45.4276,-183.602 45.4276,-177.602"></path>
<polyline fill="none" stroke="black" points="45.4276,-177.602 45.4276,-160.398 "></polyline>
<path fill="none" stroke="black" d="M45.4276,-160.398C45.4276,-154.398 51.4276,-148.398 57.4276,-148.398"></path>
<polyline fill="none" stroke="black" points="57.4276,-148.398 138.572,-148.398 "></polyline>
<path fill="none" stroke="black" d="M138.572,-148.398C144.572,-148.398 150.572,-154.398 150.572,-160.398"></path>
<polyline fill="none" stroke="black" points="150.572,-160.398 150.572,-177.602 "></polyline>
<path fill="none" stroke="black" d="M150.572,-177.602C150.572,-183.602 144.572,-189.602 138.572,-189.602"></path>
<text text-anchor="middle" x="98" y="-173.2" font-family="Times,serif" font-size="14.00">BlockStatement</text>
<text text-anchor="middle" x="98" y="-156.4" font-family="Times,serif" font-size="14.00">BreakStatement</text>
</g>

<g id="edge5" class="edge"><title>s1_3-&gt;s1_5</title>
<path fill="none" stroke="black" d="M139.558,-234.524C131.519,-222.042 123.266,-209.228 116.254,-198.342"></path>
<polygon fill="black" stroke="black" points="119.046,-196.213 110.689,-189.701 113.161,-200.003 119.046,-196.213"></polygon>
</g>

<g id="node7" class="node"><title>s1_7</title>
<polygon fill="white" stroke="white" points="291.147,-198.401 180.853,-198.401 168.853,-186.401 168.853,-151.599 180.853,-139.599 291.147,-139.599 303.147,-151.599 303.147,-186.401 291.147,-198.401"></polygon>
<path fill="white" stroke="white" d="M180.853,-198.401C174.853,-198.401 168.853,-192.401 168.853,-186.401"></path>
<path fill="white" stroke="white" d="M168.853,-151.599C168.853,-145.599 174.853,-139.599 180.853,-139.599"></path>
<path fill="white" stroke="white" d="M291.147,-139.599C297.147,-139.599 303.147,-145.599 303.147,-151.599"></path>
<path fill="white" stroke="white" d="M303.147,-186.401C303.147,-192.401 297.147,-198.401 291.147,-198.401"></path>
<polyline fill="none" stroke="black" points="291.147,-198.401 180.853,-198.401 "></polyline>
<path fill="none" stroke="black" d="M180.853,-198.401C174.853,-198.401 168.853,-192.401 168.853,-186.401"></path>
<polyline fill="none" stroke="black" points="168.853,-186.401 168.853,-151.599 "></polyline>
<path fill="none" stroke="black" d="M168.853,-151.599C168.853,-145.599 174.853,-139.599 180.853,-139.599"></path>
<polyline fill="none" stroke="black" points="180.853,-139.599 291.147,-139.599 "></polyline>
<path fill="none" stroke="black" d="M291.147,-139.599C297.147,-139.599 303.147,-145.599 303.147,-151.599"></path>
<polyline fill="none" stroke="black" points="303.147,-151.599 303.147,-186.401 "></polyline>
<path fill="none" stroke="black" d="M303.147,-186.401C303.147,-192.401 297.147,-198.401 291.147,-198.401"></path>
<text text-anchor="middle" x="236" y="-181.6" font-family="Times,serif" font-size="14.00">ExpressionStatement</text>
<text text-anchor="middle" x="236" y="-164.8" font-family="Times,serif" font-size="14.00">CallExpression</text>
<text text-anchor="middle" x="236" y="-148" font-family="Times,serif" font-size="14.00">Identifier (bar)</text>
</g>

<g id="edge11" class="edge"><title>s1_3-&gt;s1_7</title>
<path fill="none" stroke="black" d="M202.098,-234.524C206.898,-225.389 211.791,-216.075 216.313,-207.47"></path>
<polygon fill="black" stroke="black" points="219.498,-208.932 221.051,-198.452 213.301,-205.676 219.498,-208.932"></polygon>
</g>

<g id="edge13" class="edge"><title>s1_5-&gt;s1_8</title>
<path fill="none" stroke="black" d="M88.5206,-148.093C83.5391,-137.632 77.3402,-124.615 71.833,-113.049"></path>
<polygon fill="black" stroke="black" points="74.8708,-111.288 67.4114,-103.764 68.5508,-114.297 74.8708,-111.288"></polygon>
</g>

<g id="node8" class="node"><title>s1_4</title>
<polygon fill="white" stroke="white" points="329.977,-103.602 236.023,-103.602 224.023,-91.6019 224.023,-74.3981 236.023,-62.3981 329.977,-62.3981 341.977,-74.3981 341.977,-91.6019 329.977,-103.602"></polygon>
<path fill="white" stroke="white" d="M236.023,-103.602C230.023,-103.602 224.023,-97.6019 224.023,-91.6019"></path>
<path fill="white" stroke="white" d="M224.023,-74.3981C224.023,-68.3981 230.023,-62.3981 236.023,-62.3981"></path>
<path fill="white" stroke="white" d="M329.977,-62.3981C335.977,-62.3981 341.977,-68.3981 341.977,-74.3981"></path>
<path fill="white" stroke="white" d="M341.977,-91.6019C341.977,-97.6019 335.977,-103.602 329.977,-103.602"></path>
<polyline fill="none" stroke="black" points="329.977,-103.602 236.023,-103.602 "></polyline>
<path fill="none" stroke="black" d="M236.023,-103.602C230.023,-103.602 224.023,-97.6019 224.023,-91.6019"></path>
<polyline fill="none" stroke="black" points="224.023,-91.6019 224.023,-74.3981 "></polyline>
<path fill="none" stroke="black" d="M224.023,-74.3981C224.023,-68.3981 230.023,-62.3981 236.023,-62.3981"></path>
<polyline fill="none" stroke="black" points="236.023,-62.3981 329.977,-62.3981 "></polyline>
<path fill="none" stroke="black" d="M329.977,-62.3981C335.977,-62.3981 341.977,-68.3981 341.977,-74.3981"></path>
<polyline fill="none" stroke="black" points="341.977,-74.3981 341.977,-91.6019 "></polyline>
<path fill="none" stroke="black" d="M341.977,-91.6019C341.977,-97.6019 335.977,-103.602 329.977,-103.602"></path>
<text text-anchor="middle" x="283" y="-87.2" font-family="Times,serif" font-size="14.00">UpdateExpression</text>
<text text-anchor="middle" x="283" y="-70.4" font-family="Times,serif" font-size="14.00">Identifier (i)</text>
</g>

<g id="edge7" class="edge"><title>s1_7-&gt;s1_4</title>
<path fill="none" stroke="black" d="M251.912,-139.561C256.814,-130.801 262.209,-121.158 267.109,-112.4"></path>
<polygon fill="black" stroke="black" points="270.167,-114.104 271.995,-103.668 264.058,-110.686 270.167,-114.104"></polygon>
</g>

<g id="edge8" class="edge"><title>s1_4-&gt;s1_2</title>
<path fill="none" stroke="black" d="M296.225,-103.814C302.324,-114.132 308.891,-127.235 312,-140 318.1,-165.046 317.141,-172.74 312,-198 297.94,-267.081 291.888,-287.297 250,-344 242.317,-354.4 232.617,-364.197 222.74,-372.853"></path>
<polygon fill="black" stroke="black" points="220.202,-370.415 214.816,-379.539 224.716,-375.765 220.202,-370.415"></polygon>
</g>

<g id="edge14" class="edge"><title>s1_8-&gt;final</title>
<path fill="none" stroke="black" d="M58,-62.3316C58,-54.2587 58,-44.8663 58,-36.5198"></path>
<polygon fill="black" stroke="black" points="61.5001,-36.3487 58,-26.3488 54.5001,-36.3488 61.5001,-36.3487"></polygon>
</g>
</g>
</svg>