<svg width="392" height="490pt" viewBox="0 0 294 490" xmlns="http://www.w3.org/2000/svg"><g class="graph" transform="translate(4 486)"><g class="node"><circle stroke="#000" cx="171" cy="-473" r="9"/></g><g class="node"><path fill="#fff" stroke="#fff" d="M226.147-427.3H115.853l-12 12v84.6l12 12h110.294l12-12v-84.6l-12-12z"/><path fill="#fff" stroke="#fff" d="M115.853-427.3c-6 0-12 6-12 12M103.853-330.7c0 6 6 12 12 12M226.147-318.7c6 0 12-6 12-12M238.147-415.3c0-6-6-12-12-12"/><path fill="none" stroke="#000" d="M226.147-427.3H115.853M115.853-427.3c-6 0-12 6-12 12M103.853-415.3v84.6M103.853-330.7c0 6 6 12 12 12M115.853-318.7h110.294M226.147-318.7c6 0 12-6 12-12M238.147-330.7v-84.6M238.147-415.3c0-6-6-12-12-12"/><text text-anchor="middle" x="171" y="-410.8" font-family="Times,serif" font-size="14">Program</text><text text-anchor="middle" x="171" y="-394" font-family="Times,serif" font-size="14">TryStatement</text><text text-anchor="middle" x="171" y="-377.2" font-family="Times,serif" font-size="14">BlockStatement</text><text text-anchor="middle" x="171" y="-360.4" font-family="Times,serif" font-size="14">ExpressionStatement</text><text text-anchor="middle" x="171" y="-343.6" font-family="Times,serif" font-size="14">CallExpression</text><text text-anchor="middle" x="171" y="-326.8" font-family="Times,serif" font-size="14">Identifier (foo)</text></g><g class="edge"><path fill="none" stroke="#000" d="M171-463.98v26.167"/><path stroke="#000" d="m174.5-437.586-3.5 10-3.5-10h7z"/></g><g class="node"><circle stroke="#000" cx="67" cy="-13" r="9"/><circle fill="none" stroke="#000" cx="67" cy="-13" r="13"/></g><g class="node"><circle fill="#fff" stroke="#000" cx="219" cy="-13" r="11"/><text text-anchor="middle" x="219" y="-8.8" font-family="Times,serif" font-size="14">✘</text></g><g class="node"><path fill="#fff" stroke="#fff" d="M179.147-282.401H68.853l-12 12v34.802l12 12h110.294l12-12v-34.802l-12-12z"/><path fill="#fff" stroke="#fff" d="M68.853-282.401c-6 0-12 6-12 12M56.853-235.599c0 6 6 12 12 12M179.147-223.599c6 0 12-6 12-12M191.147-270.401c0-6-6-12-12-12"/><path fill="none" stroke="#000" d="M179.147-282.401H68.853M68.853-282.401c-6 0-12 6-12 12M56.853-270.401v34.802M56.853-235.599c0 6 6 12 12 12M68.853-223.599h110.294M179.147-223.599c6 0 12-6 12-12M191.147-235.599v-34.802M191.147-270.401c0-6-6-12-12-12"/><text text-anchor="middle" x="124" y="-265.6" font-family="Times,serif" font-size="14">ExpressionStatement</text><text text-anchor="middle" x="124" y="-248.8" font-family="Times,serif" font-size="14">CallExpression</text><text text-anchor="middle" x="124" y="-232" font-family="Times,serif" font-size="14">Identifier (bar)</text></g><g class="edge"><path fill="none" stroke="#000" d="m149.7-318.524-10.666 26.78"/><path stroke="#000" d="m142.284-290.447-6.952 7.995.449-10.585 6.503 2.59z"/></g><g class="node"><path fill="#fff" stroke="#fff" d="M274.147-162.7H163.853l-12 12v51.4l12 12h110.294l12-12v-51.4l-12-12z"/><path fill="#fff" stroke="#fff" d="M163.853-162.7c-6 0-12 6-12 12M151.853-99.3c0 6 6 12 12 12M274.147-87.3c6 0 12-6 12-12M286.147-150.7c0-6-6-12-12-12"/><path fill="none" stroke="#000" d="M274.147-162.7H163.853M163.853-162.7c-6 0-12 6-12 12M151.853-150.7v51.4M151.853-99.3c0 6 6 12 12 12M163.853-87.3h110.294M274.147-87.3c6 0 12-6 12-12M286.147-99.3v-51.4M286.147-150.7c0-6-6-12-12-12"/><text text-anchor="middle" x="219" y="-146" font-family="Times,serif" font-size="14">BlockStatement</text><text text-anchor="middle" x="219" y="-129.2" font-family="Times,serif" font-size="14">ExpressionStatement</text><text text-anchor="middle" x="219" y="-112.4" font-family="Times,serif" font-size="14">CallExpression</text><text text-anchor="middle" x="219" y="-95.6" font-family="Times,serif" font-size="14">Identifier (fuga)</text></g><g class="edge"><path fill="none" stroke="#000" d="M190.026-318.681c3.746 11.952 7.33 24.656 9.974 36.681 7.95 36.15 12.809 77.796 15.622 108.96"/><path stroke="#000" d="m219.124-173.16-2.625 10.264-4.349-9.661 6.974-.603z"/></g><g class="node"><path fill="#fff" stroke="#fff" d="M122.147-187.601H11.853l-12 12v101.202l12 12h110.294l12-12v-101.202l-12-12z"/><path fill="#fff" stroke="#fff" d="M11.853-187.601c-6 0-12 6-12 12M-.147-74.4c0 6 6 12 12 12M122.147-62.4c6 0 12-6 12-12M134.147-175.601c0-6-6-12-12-12"/><path fill="none" stroke="#000" d="M122.147-187.601H11.853M11.853-187.601c-6 0-12 6-12 12M-.147-175.601v101.202M-.147-74.4c0 6 6 12 12 12M11.853-62.4h110.294M122.147-62.4c6 0 12-6 12-12M134.147-74.4V-175.6M134.147-175.601c0-6-6-12-12-12"/><text text-anchor="middle" x="67" y="-171.2" font-family="Times,serif" font-size="14">BlockStatement</text><text text-anchor="middle" x="67" y="-154.4" font-family="Times,serif" font-size="14">ExpressionStatement</text><text text-anchor="middle" x="67" y="-137.6" font-family="Times,serif" font-size="14">CallExpression</text><text text-anchor="middle" x="67" y="-120.8" font-family="Times,serif" font-size="14">Identifier (fuga)</text><text text-anchor="middle" x="67" y="-104" font-family="Times,serif" font-size="14">ExpressionStatement</text><text text-anchor="middle" x="67" y="-87.2" font-family="Times,serif" font-size="14">CallExpression</text><text text-anchor="middle" x="67" y="-70.4" font-family="Times,serif" font-size="14">Identifier (last)</text></g><g class="edge"><path fill="none" stroke="#000" d="m111.208-223.723-12.17 26.902"/><path stroke="#000" d="m102.207-195.333-7.311 7.668.933-10.554 6.378 2.886z"/></g><g class="edge"><path fill="none" stroke="#000" d="m145.32-223.723 39.59 52.509"/><path stroke="#000" d="m188.029-172.891 3.226 10.092-8.815-5.878 5.589-4.214z"/></g><g class="edge"><path fill="none" stroke="#000" d="M67-62.248v25.814"/><path stroke="#000" d="m70.5-36.295-3.5 10-3.5-10h7z"/></g><g class="edge"><path fill="none" stroke="#000" d="M219-87.372v53.191"/><path stroke="#000" d="m222.5-34.087-3.5 10-3.5-10h7z"/></g></g></svg>