<?xml version="1.0"?>
<svg width="323pt" height="680pt" viewBox="0.00 0.00 323.00 680.00" xmlns="http://www.w3.org/2000/svg" xmlns:xlink="http://www.w3.org/1999/xlink">
<g id="graph1" class="graph" transform="scale(1 1) rotate(0) translate(4 676)">
<title>_anonymous_0</title>

<g id="node1" class="node"><title>initial</title>
<ellipse fill="black" stroke="black" cx="248" cy="-663" rx="9" ry="9"></ellipse>
</g>

<g id="node3" class="node"><title>s1_1</title>
<polygon fill="white" stroke="white" points="303.147,-617.3 192.853,-617.3 180.853,-605.3 180.853,-520.7 192.853,-508.7 303.147,-508.7 315.147,-520.7 315.147,-605.3 303.147,-617.3"></polygon>
<path fill="white" stroke="white" d="M192.853,-617.3C186.853,-617.3 180.853,-611.3 180.853,-605.3"></path>
<path fill="white" stroke="white" d="M180.853,-520.7C180.853,-514.7 186.853,-508.7 192.853,-508.7"></path>
<path fill="white" stroke="white" d="M303.147,-508.7C309.147,-508.7 315.147,-514.7 315.147,-520.7"></path>
<path fill="white" stroke="white" d="M315.147,-605.3C315.147,-611.3 309.147,-617.3 303.147,-617.3"></path>
<polyline fill="none" stroke="black" points="303.147,-617.3 192.853,-617.3 "></polyline>
<path fill="none" stroke="black" d="M192.853,-617.3C186.853,-617.3 180.853,-611.3 180.853,-605.3"></path>
<polyline fill="none" stroke="black" points="180.853,-605.3 180.853,-520.7 "></polyline>
<path fill="none" stroke="black" d="M180.853,-520.7C180.853,-514.7 186.853,-508.7 192.853,-508.7"></path>
<polyline fill="none" stroke="black" points="192.853,-508.7 303.147,-508.7 "></polyline>
<path fill="none" stroke="black" d="M303.147,-508.7C309.147,-508.7 315.147,-514.7 315.147,-520.7"></path>
<polyline fill="none" stroke="black" points="315.147,-520.7 315.147,-605.3 "></polyline>
<path fill="none" stroke="black" d="M315.147,-605.3C315.147,-611.3 309.147,-617.3 303.147,-617.3"></path>
<text text-anchor="middle" x="248" y="-600.8" font-family="Times,serif" font-size="14.00">Program</text>
<text text-anchor="middle" x="248" y="-584" font-family="Times,serif" font-size="14.00">TryStatement</text>
<text text-anchor="middle" x="248" y="-567.2" font-family="Times,serif" font-size="14.00">BlockStatement</text>
<text text-anchor="middle" x="248" y="-550.4" font-family="Times,serif" font-size="14.00">ExpressionStatement</text>
<text text-anchor="middle" x="248" y="-533.6" font-family="Times,serif" font-size="14.00">CallExpression</text>
<text text-anchor="middle" x="248" y="-516.8" font-family="Times,serif" font-size="14.00">Identifier (foo)</text>
</g>

<g id="edge2" class="edge"><title>initial-&gt;s1_1</title>
<path fill="none" stroke="black" d="M248,-653.98C248,-647.675 248,-638.238 248,-627.813"></path>
<polygon fill="black" stroke="black" points="251.5,-627.586 248,-617.586 244.5,-627.586 251.5,-627.586"></polygon>
</g>

<g id="node2" class="node"><title>final</title>
<ellipse fill="black" stroke="black" cx="142" cy="-13" rx="9" ry="9"></ellipse>
<ellipse fill="none" stroke="black" cx="142" cy="-13" rx="13" ry="13"></ellipse>
</g>

<g id="node4" class="node"><title>s1_2</title>
<polygon fill="white" stroke="white" points="238.339,-471.602 175.661,-471.602 163.661,-459.602 163.661,-442.398 175.661,-430.398 238.339,-430.398 250.339,-442.398 250.339,-459.602 238.339,-471.602"></polygon>
<path fill="white" stroke="white" d="M175.661,-471.602C169.661,-471.602 163.661,-465.602 163.661,-459.602"></path>
<path fill="white" stroke="white" d="M163.661,-442.398C163.661,-436.398 169.661,-430.398 175.661,-430.398"></path>
<path fill="white" stroke="white" d="M238.339,-430.398C244.339,-430.398 250.339,-436.398 250.339,-442.398"></path>
<path fill="white" stroke="white" d="M250.339,-459.602C250.339,-465.602 244.339,-471.602 238.339,-471.602"></path>
<polyline fill="none" stroke="black" points="238.339,-471.602 175.661,-471.602 "></polyline>
<path fill="none" stroke="black" d="M175.661,-471.602C169.661,-471.602 163.661,-465.602 163.661,-459.602"></path>
<polyline fill="none" stroke="black" points="163.661,-459.602 163.661,-442.398 "></polyline>
<path fill="none" stroke="black" d="M163.661,-442.398C163.661,-436.398 169.661,-430.398 175.661,-430.398"></path>
<polyline fill="none" stroke="black" points="175.661,-430.398 238.339,-430.398 "></polyline>
<path fill="none" stroke="black" d="M238.339,-430.398C244.339,-430.398 250.339,-436.398 250.339,-442.398"></path>
<polyline fill="none" stroke="black" points="250.339,-442.398 250.339,-459.602 "></polyline>
<path fill="none" stroke="black" d="M250.339,-459.602C250.339,-465.602 244.339,-471.602 238.339,-471.602"></path>
<text text-anchor="middle" x="207" y="-455.2" font-family="Times,serif" font-size="14.00">IfStatement</text>
<text text-anchor="middle" x="207" y="-438.4" font-family="Times,serif" font-size="14.00">Identifier (a)</text>
</g>

<g id="edge3" class="edge"><title>s1_1-&gt;s1_2</title>
<path fill="none" stroke="black" d="M228.101,-508.611C224.581,-499.169 221.038,-489.663 217.887,-481.208"></path>
<polygon fill="black" stroke="black" points="221.164,-479.98 214.392,-471.833 214.605,-482.425 221.164,-479.98"></polygon>
</g>

<g id="node7" class="node"><title>s1_6</title>
<polygon fill="white" stroke="white" points="250.147,-281.601 139.853,-281.601 127.853,-269.601 127.853,-168.399 139.853,-156.399 250.147,-156.399 262.147,-168.399 262.147,-269.601 250.147,-281.601"></polygon>
<path fill="white" stroke="white" d="M139.853,-281.601C133.853,-281.601 127.853,-275.601 127.853,-269.601"></path>
<path fill="white" stroke="white" d="M127.853,-168.399C127.853,-162.399 133.853,-156.399 139.853,-156.399"></path>
<path fill="white" stroke="white" d="M250.147,-156.399C256.147,-156.399 262.147,-162.399 262.147,-168.399"></path>
<path fill="white" stroke="white" d="M262.147,-269.601C262.147,-275.601 256.147,-281.601 250.147,-281.601"></path>
<polyline fill="none" stroke="black" points="250.147,-281.601 139.853,-281.601 "></polyline>
<path fill="none" stroke="black" d="M139.853,-281.601C133.853,-281.601 127.853,-275.601 127.853,-269.601"></path>
<polyline fill="none" stroke="black" points="127.853,-269.601 127.853,-168.399 "></polyline>
<path fill="none" stroke="black" d="M127.853,-168.399C127.853,-162.399 133.853,-156.399 139.853,-156.399"></path>
<polyline fill="none" stroke="black" points="139.853,-156.399 250.147,-156.399 "></polyline>
<path fill="none" stroke="black" d="M250.147,-156.399C256.147,-156.399 262.147,-162.399 262.147,-168.399"></path>
<polyline fill="none" stroke="black" points="262.147,-168.399 262.147,-269.601 "></polyline>
<path fill="none" stroke="black" d="M262.147,-269.601C262.147,-275.601 256.147,-281.601 250.147,-281.601"></path>
<text text-anchor="middle" x="195" y="-265.2" font-family="Times,serif" font-size="14.00">CatchClause</text>
<text text-anchor="middle" x="195" y="-248.4" font-family="Times,serif" font-size="14.00">Identifier (err)</text>
<text text-anchor="middle" x="195" y="-231.6" font-family="Times,serif" font-size="14.00">BlockStatement</text>
<text text-anchor="middle" x="195" y="-214.8" font-family="Times,serif" font-size="14.00">ExpressionStatement</text>
<text text-anchor="middle" x="195" y="-198" font-family="Times,serif" font-size="14.00">CallExpression</text>
<text text-anchor="middle" x="195" y="-181.2" font-family="Times,serif" font-size="14.00">Identifier (hoge)</text>
<text text-anchor="middle" x="195" y="-164.4" font-family="Times,serif" font-size="14.00">Identifier (err)</text>
</g>

<g id="edge9" class="edge"><title>s1_1-&gt;s1_6</title>
<path fill="none" stroke="black" d="M265.496,-508.624C279.169,-458.161 292.566,-381 271,-318 267.758,-308.528 263.185,-299.263 257.874,-290.444"></path>
<polygon fill="black" stroke="black" points="260.672,-288.323 252.338,-281.781 254.774,-292.092 260.672,-288.323"></polygon>
</g>

<g id="node5" class="node"><title>s1_3</title>
<polygon fill="white" stroke="white" points="250.329,-393.7 163.671,-393.7 151.671,-381.7 151.671,-330.3 163.671,-318.3 250.329,-318.3 262.329,-330.3 262.329,-381.7 250.329,-393.7"></polygon>
<path fill="white" stroke="white" d="M163.671,-393.7C157.671,-393.7 151.671,-387.7 151.671,-381.7"></path>
<path fill="white" stroke="white" d="M151.671,-330.3C151.671,-324.3 157.671,-318.3 163.671,-318.3"></path>
<path fill="white" stroke="white" d="M250.329,-318.3C256.329,-318.3 262.329,-324.3 262.329,-330.3"></path>
<path fill="white" stroke="white" d="M262.329,-381.7C262.329,-387.7 256.329,-393.7 250.329,-393.7"></path>
<polyline fill="none" stroke="black" points="250.329,-393.7 163.671,-393.7 "></polyline>
<path fill="none" stroke="black" d="M163.671,-393.7C157.671,-393.7 151.671,-387.7 151.671,-381.7"></path>
<polyline fill="none" stroke="black" points="151.671,-381.7 151.671,-330.3 "></polyline>
<path fill="none" stroke="black" d="M151.671,-330.3C151.671,-324.3 157.671,-318.3 163.671,-318.3"></path>
<polyline fill="none" stroke="black" points="163.671,-318.3 250.329,-318.3 "></polyline>
<path fill="none" stroke="black" d="M250.329,-318.3C256.329,-318.3 262.329,-324.3 262.329,-330.3"></path>
<polyline fill="none" stroke="black" points="262.329,-330.3 262.329,-381.7 "></polyline>
<path fill="none" stroke="black" d="M262.329,-381.7C262.329,-387.7 256.329,-393.7 250.329,-393.7"></path>
<text text-anchor="middle" x="207" y="-377" font-family="Times,serif" font-size="14.00">BlockStatement</text>
<text text-anchor="middle" x="207" y="-360.2" font-family="Times,serif" font-size="14.00">ThrowStatement</text>
<text text-anchor="middle" x="207" y="-343.4" font-family="Times,serif" font-size="14.00">NewExpression</text>
<text text-anchor="middle" x="207" y="-326.6" font-family="Times,serif" font-size="14.00">Identifier (Error)</text>
</g>

<g id="edge4" class="edge"><title>s1_2-&gt;s1_3</title>
<path fill="none" stroke="black" d="M207,-430.277C207,-422.524 207,-413.265 207,-403.98"></path>
<polygon fill="black" stroke="black" points="210.5,-403.965 207,-393.965 203.5,-403.965 210.5,-403.965"></polygon>
</g>

<g id="node6" class="node"><title>s1_5</title>
<polygon fill="white" stroke="white" points="122.147,-385.401 11.8526,-385.401 -0.147372,-373.401 -0.147372,-338.599 11.8526,-326.599 122.147,-326.599 134.147,-338.599 134.147,-373.401 122.147,-385.401"></polygon>
<path fill="white" stroke="white" d="M11.8526,-385.401C5.85263,-385.401 -0.147372,-379.401 -0.147372,-373.401"></path>
<path fill="white" stroke="white" d="M-0.147372,-338.599C-0.147372,-332.599 5.85263,-326.599 11.8526,-326.599"></path>
<path fill="white" stroke="white" d="M122.147,-326.599C128.147,-326.599 134.147,-332.599 134.147,-338.599"></path>
<path fill="white" stroke="white" d="M134.147,-373.401C134.147,-379.401 128.147,-385.401 122.147,-385.401"></path>
<polyline fill="none" stroke="black" points="122.147,-385.401 11.8526,-385.401 "></polyline>
<path fill="none" stroke="black" d="M11.8526,-385.401C5.85263,-385.401 -0.147372,-379.401 -0.147372,-373.401"></path>
<polyline fill="none" stroke="black" points="-0.147372,-373.401 -0.147372,-338.599 "></polyline>
<path fill="none" stroke="black" d="M-0.147372,-338.599C-0.147372,-332.599 5.85263,-326.599 11.8526,-326.599"></path>
<polyline fill="none" stroke="black" points="11.8526,-326.599 122.147,-326.599 "></polyline>
<path fill="none" stroke="black" d="M122.147,-326.599C128.147,-326.599 134.147,-332.599 134.147,-338.599"></path>
<polyline fill="none" stroke="black" points="134.147,-338.599 134.147,-373.401 "></polyline>
<path fill="none" stroke="black" d="M134.147,-373.401C134.147,-379.401 128.147,-385.401 122.147,-385.401"></path>
<text text-anchor="middle" x="67" y="-368.6" font-family="Times,serif" font-size="14.00">ExpressionStatement</text>
<text text-anchor="middle" x="67" y="-351.8" font-family="Times,serif" font-size="14.00">CallExpression</text>
<text text-anchor="middle" x="67" y="-335" font-family="Times,serif" font-size="14.00">Identifier (bar)</text>
</g>

<g id="edge11" class="edge"><title>s1_2-&gt;s1_5</title>
<path fill="none" stroke="black" d="M177.31,-430.277C160.103,-418.847 137.967,-404.142 118.045,-390.909"></path>
<polygon fill="black" stroke="black" points="119.93,-387.959 109.664,-385.341 116.057,-393.79 119.93,-387.959"></polygon>
</g>

<g id="edge13" class="edge"><title>s1_3-&gt;s1_6</title>
<path fill="none" stroke="black" d="M203.721,-318.111C202.995,-309.943 202.201,-301.016 201.398,-291.982"></path>
<polygon fill="black" stroke="black" points="204.863,-291.422 200.491,-281.771 197.89,-292.042 204.863,-291.422"></polygon>
</g>

<g id="edge6" class="edge"><title>s1_5-&gt;s1_6</title>
<path fill="none" stroke="black" d="M93.833,-326.7C104.348,-315.609 116.912,-302.359 129.551,-289.029"></path>
<polygon fill="black" stroke="black" points="132.227,-291.293 136.567,-281.628 127.147,-286.477 132.227,-291.293"></polygon>
</g>

<g id="node8" class="node"><title>s1_7</title>
<polygon fill="white" stroke="white" points="197.147,-120.401 86.8526,-120.401 74.8526,-108.401 74.8526,-73.5986 86.8526,-61.5986 197.147,-61.5986 209.147,-73.5986 209.147,-108.401 197.147,-120.401"></polygon>
<path fill="white" stroke="white" d="M86.8526,-120.401C80.8526,-120.401 74.8526,-114.401 74.8526,-108.401"></path>
<path fill="white" stroke="white" d="M74.8526,-73.5986C74.8526,-67.5986 80.8526,-61.5986 86.8526,-61.5986"></path>
<path fill="white" stroke="white" d="M197.147,-61.5986C203.147,-61.5986 209.147,-67.5986 209.147,-73.5986"></path>
<path fill="white" stroke="white" d="M209.147,-108.401C209.147,-114.401 203.147,-120.401 197.147,-120.401"></path>
<polyline fill="none" stroke="black" points="197.147,-120.401 86.8526,-120.401 "></polyline>
<path fill="none" stroke="black" d="M86.8526,-120.401C80.8526,-120.401 74.8526,-114.401 74.8526,-108.401"></path>
<polyline fill="none" stroke="black" points="74.8526,-108.401 74.8526,-73.5986 "></polyline>
<path fill="none" stroke="black" d="M74.8526,-73.5986C74.8526,-67.5986 80.8526,-61.5986 86.8526,-61.5986"></path>
<polyline fill="none" stroke="black" points="86.8526,-61.5986 197.147,-61.5986 "></polyline>
<path fill="none" stroke="black" d="M197.147,-61.5986C203.147,-61.5986 209.147,-67.5986 209.147,-73.5986"></path>
<polyline fill="none" stroke="black" points="209.147,-73.5986 209.147,-108.401 "></polyline>
<path fill="none" stroke="black" d="M209.147,-108.401C209.147,-114.401 203.147,-120.401 197.147,-120.401"></path>
<text text-anchor="middle" x="142" y="-103.6" font-family="Times,serif" font-size="14.00">ExpressionStatement</text>
<text text-anchor="middle" x="142" y="-86.8" font-family="Times,serif" font-size="14.00">CallExpression</text>
<text text-anchor="middle" x="142" y="-70" font-family="Times,serif" font-size="14.00">Identifier (last)</text>
</g>

<g id="edge15" class="edge"><title>s1_5-&gt;s1_7</title>
<path fill="none" stroke="black" d="M73.536,-326.764C82.7028,-287.987 100.357,-216.205 119,-156 121.611,-147.569 124.658,-138.605 127.664,-130.139"></path>
<polygon fill="black" stroke="black" points="131.044,-131.083 131.145,-120.489 124.459,-128.708 131.044,-131.083"></polygon>
</g>

<g id="edge7" class="edge"><title>s1_6-&gt;s1_7</title>
<path fill="none" stroke="black" d="M168.966,-156.107C165.165,-147.072 161.351,-138.005 157.838,-129.652"></path>
<polygon fill="black" stroke="black" points="160.974,-128.08 153.87,-120.219 154.521,-130.794 160.974,-128.08"></polygon>
</g>

<g id="edge16" class="edge"><title>s1_7-&gt;final</title>
<path fill="none" stroke="black" d="M142,-61.7004C142,-53.2282 142,-44.0665 142,-36.0585"></path>
<polygon fill="black" stroke="black" points="145.5,-36.0267 142,-26.0267 138.5,-36.0267 145.5,-36.0267"></polygon>
</g>
</g>
</svg>