<svg xmlns="http://www.w3.org/2000/svg" width="392" height="706pt" viewBox="0 0 294.2 705.6"><g class="graph"><circle cx="171.1" cy="-688.6" r="9" stroke="#000" class="node" data-name="initial" pointer-events="visible" transform="translate(5.79 699.223)scale(.9977)"/><g class="node" data-name="s1_1" pointer-events="visible"><path fill="#fff" stroke="#000" stroke-width=".998" d="M231.569 57.208H121.423c-5.986 0-11.972 5.986-11.972 11.973v84.404c0 5.986 5.986 11.973 11.972 11.973H231.57c5.986 0 11.972-5.987 11.972-11.973V69.181c0-5.987-5.986-11.973-11.972-11.973"/><text x="171.1" y="-627" font-family="Times,serif" font-size="14" text-anchor="middle" transform="translate(5.79 699.223)scale(.9977)">Program</text><text x="171.1" y="-610.2" font-family="Times,serif" font-size="14" text-anchor="middle" transform="translate(5.79 699.223)scale(.9977)">TryStatement</text><text x="171.1" y="-593.4" font-family="Times,serif" font-size="14" text-anchor="middle" transform="translate(5.79 699.223)scale(.9977)">BlockStatement</text><text x="171.1" y="-576.6" font-family="Times,serif" font-size="14" text-anchor="middle" transform="translate(5.79 699.223)scale(.9977)">ExpressionStatement</text><text x="171.1" y="-559.8" font-family="Times,serif" font-size="14" text-anchor="middle" transform="translate(5.79 699.223)scale(.9977)">CallExpression</text><text x="171.1" y="-543" font-family="Times,serif" font-size="14" text-anchor="middle" transform="translate(5.79 699.223)scale(.9977)">Identifier (foo)</text></g><g stroke="#000" stroke-width=".998" class="edge" data-name="initial-&gt;s1_1"><path fill="none" d="M176.496 21.49v24.424"/><path d="m179.988 45.665-3.492 9.977-3.492-9.977z"/></g><g stroke="#000" class="node" data-name="final" pointer-events="visible" transform="translate(5.79 699.223)scale(.9977)"><circle cx="219.1" cy="-13" r="9"/><circle cx="219.1" cy="-13" r="13" fill="none"/></g><g class="node" data-name="thrown" pointer-events="visible" transform="translate(5.79 699.223)scale(.9977)"><circle cx="67.1" cy="-13" r="11" fill="#fff" stroke="#000"/><text x="67.1" y="-8.8" font-family="Times,serif" font-size="14" text-anchor="middle">✘</text></g><g class="node" data-name="s1_2" pointer-events="visible"><path fill="#fff" stroke="#000" stroke-width=".998" d="M279.458 201.375H169.313c-5.987 0-11.973 5.986-11.973 11.972v34.72c0 5.986 5.986 11.972 11.973 11.972h110.145c5.986 0 11.972-5.986 11.972-11.972v-34.72c0-5.986-5.986-11.972-11.972-11.972"/><text x="219.1" y="-482.2" font-family="Times,serif" font-size="14" text-anchor="middle" transform="translate(5.79 699.223)scale(.9977)">ExpressionStatement</text><text x="219.1" y="-465.4" font-family="Times,serif" font-size="14" text-anchor="middle" transform="translate(5.79 699.223)scale(.9977)">CallExpression</text><text x="219.1" y="-448.6" font-family="Times,serif" font-size="14" text-anchor="middle" transform="translate(5.79 699.223)scale(.9977)">Identifier (bar)</text></g><g stroke="#000" stroke-width=".998" class="edge" data-name="s1_1-&gt;s1_2"><path fill="none" d="m198.335 165.897 10.077 24.673"/><path d="m211.545 189.013.539 10.556-7.004-7.922z"/></g><g class="node" data-name="s1_3" pointer-events="visible"><path fill="#fff" stroke="#000" stroke-width=".998" d="M184.677 295.856H74.532c-5.986 0-11.973 5.986-11.973 11.973v84.404c0 5.986 5.987 11.973 11.973 11.973h110.145c5.986 0 11.972-5.987 11.972-11.973V307.83c0-5.987-5.986-11.973-11.972-11.973"/><text x="124.1" y="-387.8" font-family="Times,serif" font-size="14" text-anchor="middle" transform="translate(5.79 699.223)scale(.9977)">CatchClause</text><text x="124.1" y="-371" font-family="Times,serif" font-size="14" text-anchor="middle" transform="translate(5.79 699.223)scale(.9977)">Identifier (err)</text><text x="124.1" y="-354.2" font-family="Times,serif" font-size="14" text-anchor="middle" transform="translate(5.79 699.223)scale(.9977)">BlockStatement</text><text x="124.1" y="-337.4" font-family="Times,serif" font-size="14" text-anchor="middle" transform="translate(5.79 699.223)scale(.9977)">ExpressionStatement</text><text x="124.1" y="-320.6" font-family="Times,serif" font-size="14" text-anchor="middle" transform="translate(5.79 699.223)scale(.9977)">CallExpression</text><text x="124.1" y="-303.8" font-family="Times,serif" font-size="14" text-anchor="middle" transform="translate(5.79 699.223)scale(.9977)">Identifier (hoge)</text></g><g stroke="#000" stroke-width=".998" class="edge" data-name="s1_1-&gt;s1_3"><path fill="none" d="M158.108 165.737c-3.561 11.703-6.973 24.104-9.547 35.837-5.867 26.798-10.137 56.759-13.11 82.64"/><path d="m138.943 284.373-4.57 9.538L132 283.605z"/></g><g stroke="#000" stroke-width=".998" class="edge" data-name="s1_2-&gt;s1_3"><path fill="none" d="M201.199 260.408c-6.475 8.022-13.778 17.06-21.181 26.22"/><path d="m182.841 288.683-8.979 5.567 3.552-9.957z"/></g><g class="node" data-name="s1_6" pointer-events="visible"><path fill="#fff" stroke="#000" stroke-width=".998" d="M279.458 512.256H169.313c-5.987 0-11.973 5.986-11.973 11.972v100.966c0 5.987 5.986 11.973 11.973 11.973h110.145c5.986 0 11.972-5.986 11.972-11.973V524.228c0-5.986-5.986-11.972-11.972-11.972"/><text x="219.1" y="-171" font-family="Times,serif" font-size="14" text-anchor="middle" transform="translate(5.79 699.223)scale(.9977)">BlockStatement</text><text x="219.1" y="-154.2" font-family="Times,serif" font-size="14" text-anchor="middle" transform="translate(5.79 699.223)scale(.9977)">ExpressionStatement</text><text x="219.1" y="-137.4" font-family="Times,serif" font-size="14" text-anchor="middle" transform="translate(5.79 699.223)scale(.9977)">CallExpression</text><text x="219.1" y="-120.6" font-family="Times,serif" font-size="14" text-anchor="middle" transform="translate(5.79 699.223)scale(.9977)">Identifier (fuga)</text><text x="219.1" y="-103.8" font-family="Times,serif" font-size="14" text-anchor="middle" transform="translate(5.79 699.223)scale(.9977)">ExpressionStatement</text><text x="219.1" y="-87" font-family="Times,serif" font-size="14" text-anchor="middle" transform="translate(5.79 699.223)scale(.9977)">CallExpression</text><text x="219.1" y="-70.2" font-family="Times,serif" font-size="14" text-anchor="middle" transform="translate(5.79 699.223)scale(.9977)">Identifier (last)</text></g><g stroke="#000" stroke-width=".998" class="edge" data-name="s1_2-&gt;s1_6"><path fill="none" d="M224.385 260.279v240.284"/><path d="m227.877 500.323-3.492 9.977-3.492-9.977z"/></g><g class="node" data-name="s1_4" pointer-events="visible"><path fill="#fff" stroke="#000" stroke-width=".998" d="M184.926 440.222h-72.731c-5.986 0-11.973 5.986-11.973 11.973v11.972c0 5.986 5.987 11.972 11.973 11.972h72.731c5.987 0 11.973-5.986 11.973-11.972v-11.972c0-5.987-5.986-11.973-11.973-11.973"/><text x="143.1" y="-237.4" font-family="Times,serif" font-size="14" text-anchor="middle" transform="translate(5.79 699.223)scale(.9977)">Identifier (err)</text></g><g stroke="#000" stroke-width=".998" class="edge" data-name="s1_3-&gt;s1_4"><path fill="none" d="M139.142 404.415c1.477 8.3 2.963 16.602 4.29 24.064"/><path d="m146.874 427.85-1.686 10.437-5.188-9.209z"/></g><g class="node" data-name="s1_7" pointer-events="visible"><path fill="#fff" stroke="#000" stroke-width=".998" d="M127.809 537.098H17.663c-5.986 0-11.972 5.986-11.972 11.973v51.28c0 5.987 5.986 11.973 11.972 11.973H127.81c5.986 0 11.972-5.986 11.972-11.972V549.07c0-5.987-5.986-11.973-11.972-11.973"/><text x="67.1" y="-145.8" font-family="Times,serif" font-size="14" text-anchor="middle" transform="translate(5.79 699.223)scale(.9977)">BlockStatement</text><text x="67.1" y="-129" font-family="Times,serif" font-size="14" text-anchor="middle" transform="translate(5.79 699.223)scale(.9977)">ExpressionStatement</text><text x="67.1" y="-112.2" font-family="Times,serif" font-size="14" text-anchor="middle" transform="translate(5.79 699.223)scale(.9977)">CallExpression</text><text x="67.1" y="-95.4" font-family="Times,serif" font-size="14" text-anchor="middle" transform="translate(5.79 699.223)scale(.9977)">Identifier (fuga)</text></g><g stroke="#000" stroke-width=".998" class="edge" data-name="s1_3-&gt;s1_7"><path fill="none" d="M104.233 404.465c-4.749 11.583-9.249 23.925-12.54 35.757-7.703 27.676-12.372 59.483-15.156 85.113"/><path d="m80.02 525.565-4.48 9.568-2.465-10.276z"/></g><g stroke="#000" stroke-width=".998" class="edge" data-name="s1_4-&gt;s1_6"><path fill="none" d="M160.074 476.578c4.839 7.303 10.805 16.322 17.15 25.9"/><path d="m179.958 500.283 2.594 10.247-8.42-6.396z"/></g><g stroke="#000" stroke-width=".998" class="edge" data-name="s1_4-&gt;s1_7"><path fill="none" d="M137.047 476.578c-8.96 13.529-21.83 32.964-33.702 50.902"/><path d="m106.508 529.037-8.42 6.385 2.593-10.246z"/></g><g stroke="#000" stroke-width=".998" class="edge" data-name="s1_6-&gt;final"><path fill="none" d="M224.385 637.526v24.224"/><path d="m227.877 661.62-3.492 9.977-3.492-9.977z"/></g><g stroke="#000" stroke-width=".998" class="edge" data-name="s1_7-&gt;thrown"><path fill="none" d="M72.736 612.793v50.793"/><path d="m76.228 663.366-3.492 9.977-3.492-9.977z"/></g></g></svg>