<svg width="392" height="496" viewBox="0 0 294 372" xmlns="http://www.w3.org/2000/svg"><g class="graph" transform="translate(4 368)"><g class="node"><circle stroke="#000" cx="143" cy="-355" r="9"/></g><g class="node"><path fill="#fff" stroke="#fff" d="M174.339-310.401h-62.678l-12 12v34.802l12 12h62.678l12-12v-34.802l-12-12z"/><path fill="#fff" stroke="#fff" d="M111.661-310.401c-6 0-12 6-12 12M99.661-263.599c0 6 6 12 12 12M174.339-251.599c6 0 12-6 12-12M186.339-298.401c0-6-6-12-12-12"/><path fill="none" stroke="#000" d="M174.339-310.401h-62.678M111.661-310.401c-6 0-12 6-12 12M99.661-298.401v34.802M99.661-263.599c0 6 6 12 12 12M111.661-251.599h62.678M174.339-251.599c6 0 12-6 12-12M186.339-263.599v-34.802M186.339-298.401c0-6-6-12-12-12"/><text text-anchor="middle" x="143" y="-293.6" font-family="Times,serif" font-size="14">Program</text><text text-anchor="middle" x="143" y="-276.8" font-family="Times,serif" font-size="14">IfStatement</text><text text-anchor="middle" x="143" y="-260" font-family="Times,serif" font-size="14">Identifier (a)</text></g><g class="edge"><path fill="none" stroke="#000" d="M143-345.741v25.126"/><path stroke="#000" d="m146.5-320.324-3.5 10-3.5-10h7z"/></g><g class="node"><circle stroke="#000" cx="143" cy="-13" r="9"/><circle fill="none" stroke="#000" cx="143" cy="-13" r="13"/></g><g class="node"><path fill="#fff" stroke="#fff" d="M122.147-215.7H11.853l-12 12v51.4l12 12h110.294l12-12v-51.4l-12-12z"/><path fill="#fff" stroke="#fff" d="M11.853-215.7c-6 0-12 6-12 12M-.147-152.3c0 6 6 12 12 12M122.147-140.3c6 0 12-6 12-12M134.147-203.7c0-6-6-12-12-12"/><path fill="none" stroke="#000" d="M122.147-215.7H11.853M11.853-215.7c-6 0-12 6-12 12M-.147-203.7v51.4M-.147-152.3c0 6 6 12 12 12M11.853-140.3h110.294M122.147-140.3c6 0 12-6 12-12M134.147-152.3v-51.4M134.147-203.7c0-6-6-12-12-12"/><text text-anchor="middle" x="67" y="-199" font-family="Times,serif" font-size="14">BlockStatement</text><text text-anchor="middle" x="67" y="-182.2" font-family="Times,serif" font-size="14">ExpressionStatement</text><text text-anchor="middle" x="67" y="-165.4" font-family="Times,serif" font-size="14">CallExpression</text><text text-anchor="middle" x="67" y="-148.6" font-family="Times,serif" font-size="14">Identifier (foo)</text></g><g class="edge"><path fill="none" stroke="#000" d="m121.628-251.597-20.757 27.584"/><path stroke="#000" d="m103.554-221.757-8.81 5.886 3.216-10.095 5.594 4.209z"/></g><g class="node"><path fill="#fff" stroke="#fff" d="M274.147-215.7H163.853l-12 12v51.4l12 12h110.294l12-12v-51.4l-12-12z"/><path fill="#fff" stroke="#fff" d="M163.853-215.7c-6 0-12 6-12 12M151.853-152.3c0 6 6 12 12 12M274.147-140.3c6 0 12-6 12-12M286.147-203.7c0-6-6-12-12-12"/><path fill="none" stroke="#000" d="M274.147-215.7H163.853M163.853-215.7c-6 0-12 6-12 12M151.853-203.7v51.4M151.853-152.3c0 6 6 12 12 12M163.853-140.3h110.294M274.147-140.3c6 0 12-6 12-12M286.147-152.3v-51.4M286.147-203.7c0-6-6-12-12-12"/><text text-anchor="middle" x="219" y="-199" font-family="Times,serif" font-size="14">BlockStatement</text><text text-anchor="middle" x="219" y="-182.2" font-family="Times,serif" font-size="14">ExpressionStatement</text><text text-anchor="middle" x="219" y="-165.4" font-family="Times,serif" font-size="14">CallExpression</text><text text-anchor="middle" x="219" y="-148.6" font-family="Times,serif" font-size="14">Identifier (bar)</text></g><g class="edge"><path fill="none" stroke="#000" d="m164.372-251.597 20.757 27.584"/><path stroke="#000" d="m188.04-225.966 3.216 10.095-8.81-5.886 5.594-4.209z"/></g><g class="node"><path fill="#fff" stroke="#fff" d="M184.147-103.602h-82.294l-12 12v17.204l12 12h82.294l12-12v-17.204l-12-12z"/><path fill="#fff" stroke="#fff" d="M101.853-103.602c-6 0-12 6-12 12M89.853-74.398c0 6 6 12 12 12M184.147-62.398c6 0 12-6 12-12M196.147-91.602c0-6-6-12-12-12"/><path fill="none" stroke="#000" d="M184.147-103.602h-82.294M101.853-103.602c-6 0-12 6-12 12M89.853-91.602v17.204M89.853-74.398c0 6 6 12 12 12M101.853-62.398h82.294M184.147-62.398c6 0 12-6 12-12M196.147-74.398v-17.204M196.147-91.602c0-6-6-12-12-12"/><text text-anchor="middle" x="143" y="-87.2" font-family="Times,serif" font-size="14">IfStatement:exit</text><text text-anchor="middle" x="143" y="-70.4" font-family="Times,serif" font-size="14">Program:exit</text></g><g class="edge"><path fill="none" stroke="#000" d="m97.037-140.244 23.451 28.697"/><path stroke="#000" d="m123.32-113.613 3.618 9.958-9.039-5.529 5.421-4.429z"/></g><g class="edge"><path fill="none" stroke="#000" d="M143-62.332v25.812"/><path stroke="#000" d="m146.5-36.349-3.5 10-3.5-10h7z"/></g><g class="edge"><path fill="none" stroke="#000" d="m188.963-140.244-23.451 28.697"/><path stroke="#000" d="m168.101-109.184-9.039 5.529 3.618-9.958 5.421 4.429z"/></g></g></svg>