<svg width="500" height="500" xmlns="http://www.w3.org/2000/svg" xmlns:xlink="http://www.w3.org/1999/xlink" viewBox="0.00 0.00 192.07 505.60">
<g id="graph0" class="graph" transform="scale(1 1) rotate(0) translate(4 501.6)">
<title>%0</title>
<!-- initial -->
<g id="node1" class="node">
<title>initial</title>
<ellipse fill="#98a2b3" stroke="#98a2b3" cx="83.0337" cy="-488.6" rx="9" ry="9"></ellipse>
</g>
<!-- s1_1 -->
<g id="node3" class="node">
<title>s1_1</title>
<path fill="#ffffff" stroke="#e4e7ec" d="M148.7106,-443.4019C148.7106,-443.4019 17.3568,-443.4019 17.3568,-443.4019 11.3568,-443.4019 5.3568,-437.4019 5.3568,-431.4019 5.3568,-431.4019 5.3568,-414.1981 5.3568,-414.1981 5.3568,-408.1981 11.3568,-402.1981 17.3568,-402.1981 17.3568,-402.1981 148.7106,-402.1981 148.7106,-402.1981 154.7106,-402.1981 160.7106,-408.1981 160.7106,-414.1981 160.7106,-414.1981 160.7106,-431.4019 160.7106,-431.4019 160.7106,-437.4019 154.7106,-443.4019 148.7106,-443.4019"></path>
<text text-anchor="middle" x="83.0337" y="-427" font-family="Times,serif" font-size="14.00" fill="#000000">Program:enter</text>
<text text-anchor="middle" x="83.0337" y="-410.2" font-family="Times,serif" font-size="14.00" fill="#000000">DoWhileStatement:enter</text>
</g>
<!-- initial&#45;&gt;s1_1 -->
<g id="edge1" class="edge">
<title>initial-&gt;s1_1</title>
<path fill="none" stroke="#98a2b3" d="M83.0337,-479.4508C83.0337,-472.6564 83.0337,-462.9684 83.0337,-453.521"></path>
<polygon fill="#98a2b3" stroke="#98a2b3" points="86.5338,-453.5123 83.0337,-443.5123 79.5338,-453.5123 86.5338,-453.5123"></polygon>
</g>
<!-- final -->
<g id="node2" class="node">
<title>final</title>
<ellipse fill="#98a2b3" stroke="#98a2b3" cx="83.0337" cy="-13" rx="9" ry="9"></ellipse>
<ellipse fill="none" stroke="#98a2b3" cx="83.0337" cy="-13" rx="13" ry="13"></ellipse>
</g>
<!-- s1_2 -->
<g id="node4" class="node">
<title>s1_2</title>
<path fill="#ffffff" stroke="#e4e7ec" d="M154.1011,-366.2004C154.1011,-366.2004 11.9663,-366.2004 11.9663,-366.2004 5.9663,-366.2004 -.0337,-360.2004 -.0337,-354.2004 -.0337,-354.2004 -.0337,-151.3996 -.0337,-151.3996 -.0337,-145.3996 5.9663,-139.3996 11.9663,-139.3996 11.9663,-139.3996 154.1011,-139.3996 154.1011,-139.3996 160.1011,-139.3996 166.1011,-145.3996 166.1011,-151.3996 166.1011,-151.3996 166.1011,-354.2004 166.1011,-354.2004 166.1011,-360.2004 160.1011,-366.2004 154.1011,-366.2004"></path>
<text text-anchor="middle" x="83.0337" y="-349.4" font-family="Times,serif" font-size="14.00" fill="#000000">BlockStatement:enter</text>
<text text-anchor="middle" x="83.0337" y="-332.6" font-family="Times,serif" font-size="14.00" fill="#000000">ExpressionStatement:enter</text>
<text text-anchor="middle" x="83.0337" y="-315.8" font-family="Times,serif" font-size="14.00" fill="#000000">CallExpression:enter</text>
<text text-anchor="middle" x="83.0337" y="-299" font-family="Times,serif" font-size="14.00" fill="#000000">Identifier (foo)</text>
<text text-anchor="middle" x="83.0337" y="-282.2" font-family="Times,serif" font-size="14.00" fill="#000000">CallExpression:exit</text>
<text text-anchor="middle" x="83.0337" y="-265.4" font-family="Times,serif" font-size="14.00" fill="#000000">ExpressionStatement:exit</text>
<text text-anchor="middle" x="83.0337" y="-248.6" font-family="Times,serif" font-size="14.00" fill="#000000">ExpressionStatement:enter</text>
<text text-anchor="middle" x="83.0337" y="-231.8" font-family="Times,serif" font-size="14.00" fill="#000000">CallExpression:enter</text>
<text text-anchor="middle" x="83.0337" y="-215" font-family="Times,serif" font-size="14.00" fill="#000000">Identifier (bar)</text>
<text text-anchor="middle" x="83.0337" y="-198.2" font-family="Times,serif" font-size="14.00" fill="#000000">CallExpression:exit</text>
<text text-anchor="middle" x="83.0337" y="-181.4" font-family="Times,serif" font-size="14.00" fill="#000000">ExpressionStatement:exit</text>
<text text-anchor="middle" x="83.0337" y="-164.6" font-family="Times,serif" font-size="14.00" fill="#000000">BlockStatement:exit</text>
<text text-anchor="middle" x="83.0337" y="-147.8" font-family="Times,serif" font-size="14.00" fill="#000000">Identifier (a)</text>
</g>
<!-- s1_1&#45;&gt;s1_2 -->
<g id="edge2" class="edge">
<title>s1_1-&gt;s1_2</title>
<path fill="none" stroke="#98a2b3" d="M83.0337,-401.9547C83.0337,-394.7162 83.0337,-385.9939 83.0337,-376.4448"></path>
<polygon fill="#98a2b3" stroke="#98a2b3" points="86.5338,-376.222 83.0337,-366.222 79.5338,-376.222 86.5338,-376.222"></polygon>
</g>
<!-- s1_6 -->
<g id="edge3" class="edge">
<title>s1_2-&gt;s1_2</title>
<path fill="none" stroke="#98a2b3" d="M166.2699,-280.7354C176.9871,-275.8911 184.0674,-266.5793 184.0674,-252.8 184.0674,-243.1114 180.567,-235.6315 174.7632,-230.3603"></path>
<polygon fill="#98a2b3" stroke="#98a2b3" points="176.567,-227.3587 166.2699,-224.8646 172.7642,-233.2357 176.567,-227.3587"></polygon>
</g>
<!-- s1_1&#45;&gt;s1_6 -->

<!-- s1_3 -->
<g id="node5" class="node">
<title>s1_3</title>
<path fill="#ffffff" stroke="#e4e7ec" d="M145.226,-103.4019C145.226,-103.4019 20.8414,-103.4019 20.8414,-103.4019 14.8414,-103.4019 8.8414,-97.4019 8.8414,-91.4019 8.8414,-91.4019 8.8414,-74.1981 8.8414,-74.1981 8.8414,-68.1981 14.8414,-62.1981 20.8414,-62.1981 20.8414,-62.1981 145.226,-62.1981 145.226,-62.1981 151.226,-62.1981 157.226,-68.1981 157.226,-74.1981 157.226,-74.1981 157.226,-91.4019 157.226,-91.4019 157.226,-97.4019 151.226,-103.4019 145.226,-103.4019"></path>
<text text-anchor="middle" x="83.0337" y="-87" font-family="Times,serif" font-size="14.00" fill="#000000">DoWhileStatement:exit</text>
<text text-anchor="middle" x="83.0337" y="-70.2" font-family="Times,serif" font-size="14.00" fill="#000000">Program:exit</text>
</g>
<!-- s1_2&#45;&gt;s1_3 -->
<g id="edge4" class="edge">
<title>s1_2-&gt;s1_3</title>
<path fill="none" stroke="#98a2b3" d="M83.0337,-139.4075C83.0337,-130.1346 83.0337,-121.371 83.0337,-113.6338"></path>
<polygon fill="#98a2b3" stroke="#98a2b3" points="86.5338,-113.4329 83.0337,-103.433 79.5338,-113.433 86.5338,-113.4329"></polygon>
</g><g id="edge5" class="edge">
<title>s1_3-&gt;final</title>
<path fill="none" stroke="#98a2b3" d="M83.0337,-61.8577C83.0337,-53.8164 83.0337,-44.5915 83.0337,-36.3389"></path>
<polygon fill="#98a2b3" stroke="#98a2b3" points="86.5338,-36.2314 83.0337,-26.2314 79.5338,-36.2315 86.5338,-36.2314"></polygon>
</g>
</g>
</svg>
