<svg xmlns="http://www.w3.org/2000/svg" width="500" height="500" viewBox="0 0 174.07 266.4"><g class="graph" transform="translate(4 262.4)"><title>%0</title><g class="node"><title>initial</title><circle cx="83.034" cy="-249.4" r="9" fill="#98a2b3" stroke="#98a2b3"/></g><g class="node"><title>s1_1</title><path fill="#fff" stroke="#e4e7ec" d="M154.101-204.6H11.966c-6 0-12 6-12 12v118.8c0 6 6 12 12 12h142.135c6 0 12-6 12-12v-118.8c0-6-6-12-12-12"/><text x="83.034" y="-187.8" font-family="Times,serif" font-size="14" text-anchor="middle">Program:enter</text><text x="83.034" y="-171" font-family="Times,serif" font-size="14" text-anchor="middle">ExpressionStatement:enter</text><text x="83.034" y="-154.2" font-family="Times,serif" font-size="14" text-anchor="middle">CallExpression:enter</text><text x="83.034" y="-137.4" font-family="Times,serif" font-size="14" text-anchor="middle">Identifier (foo)</text><text x="83.034" y="-120.6" font-family="Times,serif" font-size="14" text-anchor="middle">Literal (false)</text><text x="83.034" y="-103.8" font-family="Times,serif" font-size="14" text-anchor="middle">CallExpression:exit</text><text x="83.034" y="-87" font-family="Times,serif" font-size="14" text-anchor="middle">ExpressionStatement:exit</text><text x="83.034" y="-70.2" font-family="Times,serif" font-size="14" text-anchor="middle">Program:exit</text></g><g class="edge"><title>initial-&gt;s1_1</title><path fill="none" stroke="#98a2b3" d="M83.034-240.282v25.714"/><path fill="#98a2b3" stroke="#98a2b3" d="m86.534-214.412-3.5 10-3.5-10z"/></g><g class="node"><title>final</title><circle cx="83.034" cy="-13" r="9" fill="#98a2b3" stroke="#98a2b3"/><circle cx="83.034" cy="-13" r="13" fill="none" stroke="#98a2b3"/></g><g class="edge"><title>s1_1-&gt;final</title><path fill="none" stroke="#98a2b3" d="M83.034-61.89v25.7"/><path fill="#98a2b3" stroke="#98a2b3" d="m86.534-36.092-3.5 10-3.5-10z"/></g></g></svg>