<svg width="544" height="416pt" viewBox="0 0 408 416" xmlns="http://www.w3.org/2000/svg"><g class="graph" transform="translate(4 412)"><g class="node"><circle stroke="#000" cx="193" cy="-399" r="9"/></g><g class="node"><path fill="#fff" stroke="#fff" d="M234.149-353.602h-82.298l-12 12v17.204l12 12h82.298l12-12v-17.204l-12-12z"/><path fill="#fff" stroke="#fff" d="M151.851-353.602c-6 0-12 6-12 12M139.851-324.398c0 6 6 12 12 12M234.149-312.398c6 0 12-6 12-12M246.149-341.602c0-6-6-12-12-12"/><path fill="none" stroke="#000" d="M234.149-353.602h-82.298M151.851-353.602c-6 0-12 6-12 12M139.851-341.602v17.204M139.851-324.398c0 6 6 12 12 12M151.851-312.398h82.298M234.149-312.398c6 0 12-6 12-12M246.149-324.398v-17.204M246.149-341.602c0-6-6-12-12-12"/><text text-anchor="middle" x="193" y="-337.2" font-family="Times,serif" font-size="14">Program</text><text text-anchor="middle" x="193" y="-320.4" font-family="Times,serif" font-size="14">WhileStatement</text></g><g class="edge"><path fill="none" stroke="#000" d="M193-389.894v25.954"/><path stroke="#000" d="m196.5-363.842-3.5 10-3.5-10h7z"/></g><g class="node"><circle stroke="#000" cx="335" cy="-29" r="9"/><circle fill="none" stroke="#000" cx="335" cy="-29" r="13"/></g><g class="node"><path fill="#fff" stroke="#fff" d="M224.339-276h-62.678l-12 12v12l12 12h62.678l12-12v-12l-12-12z"/><path fill="#fff" stroke="#fff" d="M161.661-276c-6 0-12 6-12 12M149.661-252c0 6 6 12 12 12M224.339-240c6 0 12-6 12-12M236.339-264c0-6-6-12-12-12"/><path fill="none" stroke="#000" d="M224.339-276h-62.678M161.661-276c-6 0-12 6-12 12M149.661-264v12M149.661-252c0 6 6 12 12 12M161.661-240h62.678M224.339-240c6 0 12-6 12-12M236.339-252v-12M236.339-264c0-6-6-12-12-12"/><text text-anchor="middle" x="193" y="-253.8" font-family="Times,serif" font-size="14">Identifier (a)</text></g><g class="edge"><path fill="none" stroke="#000" d="M193-312.052v25.416"/><path stroke="#000" d="m196.5-286.439-3.5 10-3.5-10h7z"/></g><g class="node"><path fill="#fff" stroke="#fff" d="M201.147-203.3H90.853l-12 12v84.6l12 12h110.294l12-12v-84.6l-12-12z"/><path fill="#fff" stroke="#fff" d="M90.853-203.3c-6 0-12 6-12 12M78.853-106.7c0 6 6 12 12 12M201.147-94.7c6 0 12-6 12-12M213.147-191.3c0-6-6-12-12-12"/><path fill="none" stroke="#000" d="M201.147-203.3H90.853M90.853-203.3c-6 0-12 6-12 12M78.853-191.3v84.6M78.853-106.7c0 6 6 12 12 12M90.853-94.7h110.294M201.147-94.7c6 0 12-6 12-12M213.147-106.7v-84.6M213.147-191.3c0-6-6-12-12-12"/><text text-anchor="middle" x="146" y="-186.8" font-family="Times,serif" font-size="14">BlockStatement</text><text text-anchor="middle" x="146" y="-170" font-family="Times,serif" font-size="14">ExpressionStatement</text><text text-anchor="middle" x="146" y="-153.2" font-family="Times,serif" font-size="14">CallExpression</text><text text-anchor="middle" x="146" y="-136.4" font-family="Times,serif" font-size="14">Identifier (foo)</text><text text-anchor="middle" x="146" y="-119.6" font-family="Times,serif" font-size="14">IfStatement</text><text text-anchor="middle" x="146" y="-102.8" font-family="Times,serif" font-size="14">Identifier (b)</text></g><g class="edge"><path fill="none" stroke="#000" d="m185.449-239.809-11.832 26.937"/><path stroke="#000" d="m176.817-211.454-7.227 7.748.818-10.563 6.409 2.815z"/></g><g class="node"><path fill="#fff" stroke="#fff" d="M388.314-169.602H281.686l-12 12v17.204l12 12h106.628l12-12v-17.204l-12-12z"/><path fill="#fff" stroke="#fff" d="M281.686-169.602c-6 0-12 6-12 12M269.686-140.398c0 6 6 12 12 12M388.314-128.398c6 0 12-6 12-12M400.314-157.602c0-6-6-12-12-12"/><path fill="none" stroke="#000" d="M388.314-169.602H281.686M281.686-169.602c-6 0-12 6-12 12M269.686-157.602v17.204M269.686-140.398c0 6 6 12 12 12M281.686-128.398h106.628M388.314-128.398c6 0 12-6 12-12M400.314-140.398v-17.204M400.314-157.602c0-6-6-12-12-12"/><text text-anchor="middle" x="335" y="-153.2" font-family="Times,serif" font-size="14">WhileStatement:exit</text><text text-anchor="middle" x="335" y="-136.4" font-family="Times,serif" font-size="14">Program:exit</text></g><g class="edge"><path fill="none" stroke="#000" d="m215.815-239.809 84.857 63.942"/><path stroke="#000" d="m302.987-178.505 5.88 8.813-10.093-3.222 4.213-5.591z"/></g><g class="node"><path fill="#fff" stroke="#fff" d="M110.49-49.602H11.51l-12 12v17.204l12 12h98.98l12-12v-17.204l-12-12z"/><path fill="#fff" stroke="#fff" d="M11.51-49.602c-6 0-12 6-12 12M-.49-20.398c0 6 6 12 12 12M110.49-8.398c6 0 12-6 12-12M122.49-37.602c0-6-6-12-12-12"/><path fill="none" stroke="#000" d="M110.49-49.602H11.51M11.51-49.602c-6 0-12 6-12 12M-.49-37.602v17.204M-.49-20.398c0 6 6 12 12 12M11.51-8.398h98.98M110.49-8.398c6 0 12-6 12-12M122.49-20.398v-17.204M122.49-37.602c0-6-6-12-12-12"/><text text-anchor="middle" x="61" y="-33.2" font-family="Times,serif" font-size="14">BlockStatement</text><text text-anchor="middle" x="61" y="-16.4" font-family="Times,serif" font-size="14">ContinueStatement</text></g><g class="edge"><path fill="none" stroke="#000" d="M107.479-94.524 81.181-58.016"/><path stroke="#000" d="m83.876-55.77-8.685 6.07 3.005-10.16 5.68 4.09z"/></g><g class="node"><path fill="#fff" stroke="#fff" d="M282.147-58.401H171.853l-12 12V-11.6l12 12h110.294l12-12V-46.4l-12-12z"/><path fill="#fff" stroke="#fff" d="M171.853-58.401c-6 0-12 6-12 12M159.853-11.599c0 6 6 12 12 12M282.147.401c6 0 12-6 12-12M294.147-46.401c0-6-6-12-12-12"/><path fill="none" stroke="#000" d="M282.147-58.401H171.853M171.853-58.401c-6 0-12 6-12 12M159.853-46.401V-11.6M159.853-11.599c0 6 6 12 12 12M171.853.401h110.294M282.147.401c6 0 12-6 12-12M294.147-11.599V-46.4M294.147-46.401c0-6-6-12-12-12"/><text text-anchor="middle" x="227" y="-41.6" font-family="Times,serif" font-size="14">ExpressionStatement</text><text text-anchor="middle" x="227" y="-24.8" font-family="Times,serif" font-size="14">CallExpression</text><text text-anchor="middle" x="227" y="-8" font-family="Times,serif" font-size="14">Identifier (bar)</text></g><g class="edge"><path fill="none" stroke="#000" d="m182.708-94.524 18.948 27.603"/><path stroke="#000" d="m204.696-68.677 2.774 10.225-8.545-6.263 5.771-3.962z"/></g><g class="edge"><path fill="none" stroke="#000" d="M55.818-49.873C48.005-84.594 37.352-157.069 70-204c16.001-23.001 44.192-36.092 69.552-43.506"/><path stroke="#000" d="m138.9-250.955 10.566.787-8.751 5.974-1.815-6.761z"/></g><g class="edge"><path fill="none" stroke="#000" d="M335-128.249v76.008"/><path stroke="#000" d="m338.5-52.217-3.5 10-3.5-10h7z"/></g><g class="edge"><path fill="none" stroke="#000" d="M230.184-58.313C233.209-93.243 235.52-154.122 222-204c-2.512-9.268-6.936-18.685-11.583-26.959"/><path stroke="#000" d="m207.291-229.367-2.126-10.38 8.134 6.789-6.008 3.591z"/></g></g></svg>