<svg width="185pt" height="538pt" viewBox="0 0 185 538" xmlns="http://www.w3.org/2000/svg"><g class="graph" transform="translate(4 534)"><g class="node"><circle stroke="#000" cx="114" cy="-521" r="9"/></g><g class="node"><path fill="#fff" stroke="#fff" d="M153.319-475.602H74.681l-12 12v17.204l12 12h78.638l12-12v-17.204l-12-12zM74.68-475.602c-6 0-12 6-12 12M62.68-446.398c0 6 6 12 12 12"/><path fill="#fff" stroke="#fff" d="M153.319-434.398c6 0 12-6 12-12M165.319-463.602c0-6-6-12-12-12"/><path fill="none" stroke="#000" d="M153.319-475.602H74.681M74.68-475.602c-6 0-12 6-12 12M62.68-463.602v17.204M62.68-446.398c0 6 6 12 12 12M74.68-434.398h78.639M153.319-434.398c6 0 12-6 12-12M165.319-446.398v-17.204M165.319-463.602c0-6-6-12-12-12"/><text text-anchor="middle" x="114" y="-459.2" font-family="Times,serif" font-size="14">Program</text><text text-anchor="middle" x="114" y="-442.4" font-family="Times,serif" font-size="14">ForInStatement</text></g><g class="edge"><path fill="none" stroke="#000" d="M114-511.894v25.954"/><path stroke="#000" d="m117.5-485.842-3.5 10-3.5-10h7z"/></g><g class="node"><circle stroke="#000" cx="114" cy="-13" r="9"/><circle fill="none" stroke="#000" cx="114" cy="-13" r="13"/></g><g class="node"><path fill="#fff" stroke="#fff" d="M151.097-398H76.903l-12 12v12l12 12h74.194l12-12v-12l-12-12z"/><path fill="#fff" stroke="#fff" d="M76.903-398c-6 0-12 6-12 12M64.903-374c0 6 6 12 12 12M151.097-362c6 0 12-6 12-12M163.097-386c0-6-6-12-12-12"/><path fill="none" stroke="#000" d="M151.097-398H76.903M76.903-398c-6 0-12 6-12 12M64.903-386v12M64.903-374c0 6 6 12 12 12M76.903-362h74.194M151.097-362c6 0 12-6 12-12M163.097-374v-12M163.097-386c0-6-6-12-12-12"/><text text-anchor="middle" x="114" y="-375.8" font-family="Times,serif" font-size="14">Identifier (obj)</text></g><g class="edge"><path fill="none" stroke="#000" d="M114-434.052v25.416"/><path stroke="#000" d="m117.5-408.439-3.5 10-3.5-10h7z"/></g><g class="node"><path fill="#fff" stroke="#fff" d="M119.617-326.401H14.383l-12 12v34.802l12 12h105.234l12-12v-34.802l-12-12z"/><path fill="#fff" stroke="#fff" d="M14.383-326.401c-6 0-12 6-12 12M2.383-279.599c0 6 6 12 12 12M119.617-267.599c6 0 12-6 12-12M131.617-314.401c0-6-6-12-12-12"/><path fill="none" stroke="#000" d="M119.617-326.401H14.383M14.383-326.401c-6 0-12 6-12 12M2.383-314.401v34.802M2.383-279.599c0 6 6 12 12 12M14.383-267.599h105.234M119.617-267.599c6 0 12-6 12-12M131.617-279.599v-34.802M131.617-314.401c0-6-6-12-12-12"/><text text-anchor="middle" x="67" y="-309.6" font-family="Times,serif" font-size="14">VariableDeclaration</text><text text-anchor="middle" x="67" y="-292.8" font-family="Times,serif" font-size="14">VariableDeclarator</text><text text-anchor="middle" x="67" y="-276" font-family="Times,serif" font-size="14">Identifier (key)</text></g><g class="edge"><path fill="none" stroke="#000" d="m104.033-361.822-15.499 26.71"/><path stroke="#000" d="m91.472-333.201-8.046 6.892 1.992-10.406 6.054 3.514z"/></g><g class="node"><path fill="#fff" stroke="#fff" d="M165.484-103.602H62.516l-12 12v17.204l12 12h102.968l12-12v-17.204l-12-12z"/><path fill="#fff" stroke="#fff" d="M62.516-103.602c-6 0-12 6-12 12M50.516-74.398c0 6 6 12 12 12M165.484-62.398c6 0 12-6 12-12M177.484-91.602c0-6-6-12-12-12"/><path fill="none" stroke="#000" d="M165.484-103.602H62.516M62.516-103.602c-6 0-12 6-12 12M50.516-91.602v17.204M50.516-74.398c0 6 6 12 12 12M62.516-62.398h102.968M165.484-62.398c6 0 12-6 12-12M177.484-74.398v-17.204M177.484-91.602c0-6-6-12-12-12"/><text text-anchor="middle" x="114" y="-87.2" font-family="Times,serif" font-size="14">ForInStatement:exit</text><text text-anchor="middle" x="114" y="-70.4" font-family="Times,serif" font-size="14">Program:exit</text></g><g class="edge"><path fill="none" stroke="#000" d="M124.891-361.573C130.533-351.566 136.88-338.531 140-326c19.973 80.229 22.566 105.671 3 186-2.283 9.374-6.431 18.931-10.889 27.433"/><path stroke="#000" d="m135.155-110.84-7.93 7.026 1.818-10.437 6.112 3.411z"/></g><g class="node"><path fill="#fff" stroke="#fff" d="M122.147-232H11.853l-12 12v68l12 12h110.294l12-12v-68l-12-12z"/><path fill="#fff" stroke="#fff" d="M11.853-232c-6 0-12 6-12 12M-.147-152c0 6 6 12 12 12M122.147-140c6 0 12-6 12-12M134.147-220c0-6-6-12-12-12"/><path fill="none" stroke="#000" d="M122.147-232H11.853M11.853-232c-6 0-12 6-12 12M-.147-220v68M-.147-152c0 6 6 12 12 12M11.853-140h110.294M122.147-140c6 0 12-6 12-12M134.147-152v-68M134.147-220c0-6-6-12-12-12"/><text text-anchor="middle" x="67" y="-215.4" font-family="Times,serif" font-size="14">BlockStatement</text><text text-anchor="middle" x="67" y="-198.6" font-family="Times,serif" font-size="14">ExpressionStatement</text><text text-anchor="middle" x="67" y="-181.8" font-family="Times,serif" font-size="14">CallExpression</text><text text-anchor="middle" x="67" y="-165" font-family="Times,serif" font-size="14">Identifier (foo)</text><text text-anchor="middle" x="67" y="-148.2" font-family="Times,serif" font-size="14">Identifier (key)</text></g><g class="edge"><path fill="none" stroke="#000" d="M60.994-267.646c-.48 7.798-.728 16.532-.743 25.295"/><path stroke="#000" d="m63.753-242.134-3.413 10.03-3.587-9.969 7-.061z"/></g><g class="edge"><path fill="none" stroke="#000" d="M73.66-232.104c.163-8.46.104-17.23-.178-25.464"/><path stroke="#000" d="m69.982-257.492 3.024-10.154 3.968 9.823-6.992.331z"/></g><g class="edge"><path fill="none" stroke="#000" d="m88.026-139.817 12.419 26.689"/><path stroke="#000" d="m103.718-114.392 1.045 10.543-7.392-7.59 6.347-2.953z"/></g><g class="edge"><path fill="none" stroke="#000" d="M114-62.332v25.812"/><path stroke="#000" d="m117.5-36.349-3.5 10-3.5-10h7z"/></g></g></svg>