<svg width="371pt" height="562pt" viewBox="0 0 371 562" xmlns="http://www.w3.org/2000/svg"><g class="graph" transform="translate(4 558)"><g class="node"><circle stroke="#000" cx="114" cy="-545" r="9"/></g><g class="node"><path fill="#fff" stroke="#fff" d="M145.339-500.401H82.661l-12 12v34.802l12 12h62.678l12-12v-34.802l-12-12z"/><path fill="#fff" stroke="#fff" d="M82.661-500.401c-6 0-12 6-12 12M70.661-453.599c0 6 6 12 12 12M145.339-441.599c6 0 12-6 12-12M157.339-488.401c0-6-6-12-12-12"/><path fill="none" stroke="#000" d="M145.339-500.401H82.661M82.661-500.401c-6 0-12 6-12 12M70.661-488.401v34.802M70.661-453.599c0 6 6 12 12 12M82.661-441.599h62.678M145.339-441.599c6 0 12-6 12-12M157.339-453.599v-34.802M157.339-488.401c0-6-6-12-12-12"/><text text-anchor="middle" x="114" y="-483.6" font-family="Times,serif" font-size="14">Program</text><text text-anchor="middle" x="114" y="-466.8" font-family="Times,serif" font-size="14">IfStatement</text><text text-anchor="middle" x="114" y="-450" font-family="Times,serif" font-size="14">Identifier (a)</text></g><g class="edge"><path fill="none" stroke="#000" d="M114-535.741v25.126"/><path stroke="#000" d="m117.5-510.324-3.5 10-3.5-10h7z"/></g><g class="node"><circle stroke="#000" cx="181" cy="-13" r="9"/><circle fill="none" stroke="#000" cx="181" cy="-13" r="13"/></g><g class="node"><path fill="#fff" stroke="#fff" d="M122.147-215.7H11.853l-12 12v51.4l12 12h110.294l12-12v-51.4l-12-12z"/><path fill="#fff" stroke="#fff" d="M11.853-215.7c-6 0-12 6-12 12M-.147-152.3c0 6 6 12 12 12M122.147-140.3c6 0 12-6 12-12M134.147-203.7c0-6-6-12-12-12"/><path fill="none" stroke="#000" d="M122.147-215.7H11.853M11.853-215.7c-6 0-12 6-12 12M-.147-203.7v51.4M-.147-152.3c0 6 6 12 12 12M11.853-140.3h110.294M122.147-140.3c6 0 12-6 12-12M134.147-152.3v-51.4M134.147-203.7c0-6-6-12-12-12"/><text text-anchor="middle" x="67" y="-199" font-family="Times,serif" font-size="14">BlockStatement</text><text text-anchor="middle" x="67" y="-182.2" font-family="Times,serif" font-size="14">ExpressionStatement</text><text text-anchor="middle" x="67" y="-165.4" font-family="Times,serif" font-size="14">CallExpression</text><text text-anchor="middle" x="67" y="-148.6" font-family="Times,serif" font-size="14">Identifier (foo)</text></g><g class="edge"><path fill="none" stroke="#000" d="M107.798-441.544C101.706-412.948 92.415-367.562 86-328c-5.526 34.079-10.418 72.759-13.854 102.168"/><path stroke="#000" d="m75.617-225.373-4.624 9.533-2.33-10.335 6.954.802z"/></g><g class="node"><path fill="#fff" stroke="#fff" d="M193.429-405.602h-62.858l-12 12v17.204l12 12h62.858l12-12v-17.204l-12-12z"/><path fill="#fff" stroke="#fff" d="M130.571-405.602c-6 0-12 6-12 12M118.571-376.398c0 6 6 12 12 12M193.429-364.398c6 0 12-6 12-12M205.429-393.602c0-6-6-12-12-12"/><path fill="none" stroke="#000" d="M193.429-405.602h-62.858M130.571-405.602c-6 0-12 6-12 12M118.571-393.602v17.204M118.571-376.398c0 6 6 12 12 12M130.571-364.398h62.858M193.429-364.398c6 0 12-6 12-12M205.429-376.398v-17.204M205.429-393.602c0-6-6-12-12-12"/><text text-anchor="middle" x="162" y="-389.2" font-family="Times,serif" font-size="14">IfStatement</text><text text-anchor="middle" x="162" y="-372.4" font-family="Times,serif" font-size="14">Identifier (b)</text></g><g class="edge"><path fill="none" stroke="#000" d="m130.251-441.561 15.52 27.161"/><path stroke="#000" d="m148.839-416.087 1.922 10.419-8-6.946 6.078-3.473z"/></g><g class="node"><path fill="#fff" stroke="#fff" d="M222.147-103.602h-82.294l-12 12v17.204l12 12h82.294l12-12v-17.204l-12-12z"/><path fill="#fff" stroke="#fff" d="M139.853-103.602c-6 0-12 6-12 12M127.853-74.398c0 6 6 12 12 12M222.147-62.398c6 0 12-6 12-12M234.147-91.602c0-6-6-12-12-12"/><path fill="none" stroke="#000" d="M222.147-103.602h-82.294M139.853-103.602c-6 0-12 6-12 12M127.853-91.602v17.204M127.853-74.398c0 6 6 12 12 12M139.853-62.398h82.294M222.147-62.398c6 0 12-6 12-12M234.147-74.398v-17.204M234.147-91.602c0-6-6-12-12-12"/><text text-anchor="middle" x="181" y="-87.2" font-family="Times,serif" font-size="14">IfStatement:exit</text><text text-anchor="middle" x="181" y="-70.4" font-family="Times,serif" font-size="14">Program:exit</text></g><g class="edge"><path fill="none" stroke="#000" d="m112.056-140.244 36.853 30.065"/><path stroke="#000" d="m151.37-112.689 5.536 9.034-9.961-3.61 4.425-5.424z"/></g><g class="edge"><path fill="none" stroke="#000" d="M181-62.332v25.812"/><path stroke="#000" d="m184.5-36.349-3.5 10-3.5-10h7z"/></g><g class="node"><path fill="#fff" stroke="#fff" d="M217.147-327.7H106.853l-12 12v51.4l12 12h110.294l12-12v-51.4l-12-12z"/><path fill="#fff" stroke="#fff" d="M106.853-327.7c-6 0-12 6-12 12M94.853-264.3c0 6 6 12 12 12M217.147-252.3c6 0 12-6 12-12M229.147-315.7c0-6-6-12-12-12"/><path fill="none" stroke="#000" d="M217.147-327.7H106.853M106.853-327.7c-6 0-12 6-12 12M94.853-315.7v51.4M94.853-264.3c0 6 6 12 12 12M106.853-252.3h110.294M217.147-252.3c6 0 12-6 12-12M229.147-264.3v-51.4M229.147-315.7c0-6-6-12-12-12"/><text text-anchor="middle" x="162" y="-311" font-family="Times,serif" font-size="14">BlockStatement</text><text text-anchor="middle" x="162" y="-294.2" font-family="Times,serif" font-size="14">ExpressionStatement</text><text text-anchor="middle" x="162" y="-277.4" font-family="Times,serif" font-size="14">CallExpression</text><text text-anchor="middle" x="162" y="-260.6" font-family="Times,serif" font-size="14">Identifier (bar)</text></g><g class="edge"><path fill="none" stroke="#000" d="M162-364.277v26.297"/><path stroke="#000" d="m165.5-337.965-3.5 10-3.5-10h7z"/></g><g class="node"><path fill="#fff" stroke="#fff" d="M322.339-310.602h-62.678l-12 12v17.204l12 12h62.678l12-12v-17.204l-12-12z"/><path fill="#fff" stroke="#fff" d="M259.661-310.602c-6 0-12 6-12 12M247.661-281.398c0 6 6 12 12 12M322.339-269.398c6 0 12-6 12-12M334.339-298.602c0-6-6-12-12-12"/><path fill="none" stroke="#000" d="M322.339-310.602h-62.678M259.661-310.602c-6 0-12 6-12 12M247.661-298.602v17.204M247.661-281.398c0 6 6 12 12 12M259.661-269.398h62.678M322.339-269.398c6 0 12-6 12-12M334.339-281.398v-17.204M334.339-298.602c0-6-6-12-12-12"/><text text-anchor="middle" x="291" y="-294.2" font-family="Times,serif" font-size="14">IfStatement</text><text text-anchor="middle" x="291" y="-277.4" font-family="Times,serif" font-size="14">Identifier (c)</text></g><g class="edge"><path fill="none" stroke="#000" d="m189.358-364.277 66.024 47.599"/><path stroke="#000" d="m257.617-319.382 6.065 8.688-10.159-3.009 4.094-5.679z"/></g><g class="edge"><path fill="none" stroke="#000" d="m165.397-252.35 12.853 138.677"/><path stroke="#000" d="m181.744-113.893-2.562 10.28-4.408-9.634 6.97-.646z"/></g><g class="edge"><path fill="none" stroke="#000" d="M266.084-269.392C250.495-255.908 231.136-236.742 219-216c-18.795 32.122-28.797 74.136-33.741 102.043"/><path stroke="#000" d="m188.697-113.293-5.093 9.291-1.813-10.439 6.906 1.148z"/></g><g class="node"><path fill="#fff" stroke="#fff" d="M350.147-215.7H239.853l-12 12v51.4l12 12h110.294l12-12v-51.4l-12-12z"/><path fill="#fff" stroke="#fff" d="M239.853-215.7c-6 0-12 6-12 12M227.853-152.3c0 6 6 12 12 12M350.147-140.3c6 0 12-6 12-12M362.147-203.7c0-6-6-12-12-12"/><path fill="none" stroke="#000" d="M350.147-215.7H239.853M239.853-215.7c-6 0-12 6-12 12M227.853-203.7v51.4M227.853-152.3c0 6 6 12 12 12M239.853-140.3h110.294M350.147-140.3c6 0 12-6 12-12M362.147-152.3v-51.4M362.147-203.7c0-6-6-12-12-12"/><text text-anchor="middle" x="295" y="-199" font-family="Times,serif" font-size="14">BlockStatement</text><text text-anchor="middle" x="295" y="-182.2" font-family="Times,serif" font-size="14">ExpressionStatement</text><text text-anchor="middle" x="295" y="-165.4" font-family="Times,serif" font-size="14">CallExpression</text><text text-anchor="middle" x="295" y="-148.6" font-family="Times,serif" font-size="14">Identifier (hoge)</text></g><g class="edge"><path fill="none" stroke="#000" d="m291.715-269.334 1.571 43.187"/><path stroke="#000" d="m296.795-225.959-3.135 10.12-3.861-9.866 6.996-.254z"/></g><g class="edge"><path fill="none" stroke="#000" d="m249.944-140.244-36.853 30.065"/><path stroke="#000" d="m215.055-107.265-9.961 3.61 5.536-9.034 4.425 5.424z"/></g></g></svg>