<svg width="167pt" height="422pt" viewBox="0 0 167 422" xmlns="http://www.w3.org/2000/svg"><g class="graph" transform="translate(4 418)"><g class="node"><circle stroke="#000" cx="74" cy="-405" r="9"/></g><g class="node"><path fill="#fff" stroke="#fff" d="M123.479-359.602H24.521l-12 12v17.204l12 12h98.958l12-12v-17.204l-12-12z"/><path fill="#fff" stroke="#fff" d="M24.521-359.602c-6 0-12 6-12 12M12.521-330.398c0 6 6 12 12 12M123.479-318.398c6 0 12-6 12-12M135.479-347.602c0-6-6-12-12-12"/><path fill="none" stroke="#000" d="M123.479-359.602H24.521M24.521-359.602c-6 0-12 6-12 12M12.521-347.602v17.204M12.521-330.398c0 6 6 12 12 12M24.521-318.398h98.958M123.479-318.398c6 0 12-6 12-12M135.479-330.398v-17.204M135.479-347.602c0-6-6-12-12-12"/><text text-anchor="middle" x="74" y="-343.2" font-family="Times,serif" font-size="14">Program</text><text text-anchor="middle" x="74" y="-326.4" font-family="Times,serif" font-size="14">DoWhileStatement</text></g><g class="edge"><path fill="none" stroke="#000" d="M74-395.894v25.954"/><path stroke="#000" d="m77.5-369.842-3.5 10-3.5-10h7z"/></g><g class="node"><circle stroke="#000" cx="74" cy="-13" r="9"/><circle fill="none" stroke="#000" cx="74" cy="-13" r="13"/></g><g class="node"><path fill="#fff" stroke="#fff" d="M129.147-282.401H18.853l-12 12v118.802l12 12h110.294l12-12v-118.802l-12-12z"/><path fill="#fff" stroke="#fff" d="M18.853-282.401c-6 0-12 6-12 12M6.853-151.599c0 6 6 12 12 12M129.147-139.599c6 0 12-6 12-12M141.147-270.401c0-6-6-12-12-12"/><path fill="none" stroke="#000" d="M129.147-282.401H18.853M18.853-282.401c-6 0-12 6-12 12M6.853-270.401v118.802M6.853-151.599c0 6 6 12 12 12M18.853-139.599h110.294M129.147-139.599c6 0 12-6 12-12M141.147-151.599v-118.802M141.147-270.401c0-6-6-12-12-12"/><text text-anchor="middle" x="74" y="-265.6" font-family="Times,serif" font-size="14">BlockStatement</text><text text-anchor="middle" x="74" y="-248.8" font-family="Times,serif" font-size="14">ExpressionStatement</text><text text-anchor="middle" x="74" y="-232" font-family="Times,serif" font-size="14">CallExpression</text><text text-anchor="middle" x="74" y="-215.2" font-family="Times,serif" font-size="14">Identifier (foo)</text><text text-anchor="middle" x="74" y="-198.4" font-family="Times,serif" font-size="14">ExpressionStatement</text><text text-anchor="middle" x="74" y="-181.6" font-family="Times,serif" font-size="14">CallExpression</text><text text-anchor="middle" x="74" y="-164.8" font-family="Times,serif" font-size="14">Identifier (bar)</text><text text-anchor="middle" x="74" y="-148" font-family="Times,serif" font-size="14">Identifier (a)</text></g><g class="edge"><path fill="none" stroke="#000" d="M74-318.313v25.858"/><path stroke="#000" d="m77.5-292.368-3.5 10-3.5-10h7z"/></g><g class="edge"><path fill="none" stroke="#000" d="M141.337-232.995C151.84-229.707 159-222.375 159-211c0 7.643-3.232 13.46-8.539 17.452"/><path stroke="#000" d="m151.849-190.329-10.512 1.324 7.392-7.591 3.12 6.267z"/></g><g class="node"><path fill="#fff" stroke="#fff" d="M136.144-103.602H11.856l-12 12v17.204l12 12h124.288l12-12v-17.204l-12-12z"/><path fill="#fff" stroke="#fff" d="M11.856-103.602c-6 0-12 6-12 12M-.144-74.398c0 6 6 12 12 12M136.144-62.398c6 0 12-6 12-12M148.144-91.602c0-6-6-12-12-12"/><path fill="none" stroke="#000" d="M136.144-103.602H11.856M11.856-103.602c-6 0-12 6-12 12M-.144-91.602v17.204M-.144-74.398c0 6 6 12 12 12M11.856-62.398h124.288M136.144-62.398c6 0 12-6 12-12M148.144-74.398v-17.204M148.144-91.602c0-6-6-12-12-12"/><text text-anchor="middle" x="74" y="-87.2" font-family="Times,serif" font-size="14">DoWhileStatement:exit</text><text text-anchor="middle" x="74" y="-70.4" font-family="Times,serif" font-size="14">Program:exit</text></g><g class="edge"><path fill="none" stroke="#000" d="M74-139.632v25.821"/><path stroke="#000" d="m77.5-113.726-3.5 10-3.5-10h7z"/></g><g class="edge"><path fill="none" stroke="#000" d="M74-62.332v25.812"/><path stroke="#000" d="m77.5-36.349-3.5 10-3.5-10h7z"/></g></g></svg>