<svg width="500" height="500" xmlns="http://www.w3.org/2000/svg" xmlns:xlink="http://www.w3.org/1999/xlink" viewBox="0.00 0.00 358.07 556.00">
<g id="graph0" class="graph" transform="scale(1 1) rotate(0) translate(4 552)">
<title>%0</title>
<!-- initial -->
<g id="node1" class="node">
<title>initial</title>
<ellipse fill="#98a2b3" stroke="#98a2b3" cx="175.0337" cy="-539" rx="9" ry="9"></ellipse>
</g>
<!-- s1_1 -->
<g id="node3" class="node">
<title>s1_1</title>
<path fill="#ffffff" stroke="#e4e7ec" d="M241.5381,-493.9001C241.5381,-493.9001 108.5293,-493.9001 108.5293,-493.9001 102.5293,-493.9001 96.5293,-487.9001 96.5293,-481.9001 96.5293,-481.9001 96.5293,-313.2999 96.5293,-313.2999 96.5293,-307.2999 102.5293,-301.2999 108.5293,-301.2999 108.5293,-301.2999 241.5381,-301.2999 241.5381,-301.2999 247.5381,-301.2999 253.5381,-307.2999 253.5381,-313.2999 253.5381,-313.2999 253.5381,-481.9001 253.5381,-481.9001 253.5381,-487.9001 247.5381,-493.9001 241.5381,-493.9001"></path>
<text text-anchor="middle" x="175.0337" y="-477.4" font-family="Times,serif" font-size="14.00" fill="#000000">Program:enter</text>
<text text-anchor="middle" x="175.0337" y="-460.6" font-family="Times,serif" font-size="14.00" fill="#000000">IfStatement:enter</text>
<text text-anchor="middle" x="175.0337" y="-443.8" font-family="Times,serif" font-size="14.00" fill="#000000">BinaryExpression:enter</text>
<text text-anchor="middle" x="175.0337" y="-427" font-family="Times,serif" font-size="14.00" fill="#000000">CallExpression:enter</text>
<text text-anchor="middle" x="175.0337" y="-410.2" font-family="Times,serif" font-size="14.00" fill="#000000">MemberExpression:enter</text>
<text text-anchor="middle" x="175.0337" y="-393.4" font-family="Times,serif" font-size="14.00" fill="#000000">Identifier (Math)</text>
<text text-anchor="middle" x="175.0337" y="-376.6" font-family="Times,serif" font-size="14.00" fill="#000000">Identifier (random)</text>
<text text-anchor="middle" x="175.0337" y="-359.8" font-family="Times,serif" font-size="14.00" fill="#000000">MemberExpression:exit</text>
<text text-anchor="middle" x="175.0337" y="-343" font-family="Times,serif" font-size="14.00" fill="#000000">CallExpression:exit</text>
<text text-anchor="middle" x="175.0337" y="-326.2" font-family="Times,serif" font-size="14.00" fill="#000000">Literal (0.5)</text>
<text text-anchor="middle" x="175.0337" y="-309.4" font-family="Times,serif" font-size="14.00" fill="#000000">BinaryExpression:exit</text>
</g>
<!-- initial&#45;&gt;s1_1 -->
<g id="edge1" class="edge">
<title>initial-&gt;s1_1</title>
<path fill="none" stroke="#98a2b3" d="M175.0337,-529.7224C175.0337,-523.5298 175.0337,-514.6554 175.0337,-504.3949"></path>
<polygon fill="#98a2b3" stroke="#98a2b3" points="178.5338,-504.1751 175.0337,-494.1752 171.5338,-504.1752 178.5338,-504.1751"></polygon>
</g>
<!-- final -->
<g id="node2" class="node">
<title>final</title>
<ellipse fill="#98a2b3" stroke="#98a2b3" cx="175.0337" cy="-13" rx="9" ry="9"></ellipse>
<ellipse fill="none" stroke="#98a2b3" cx="175.0337" cy="-13" rx="13" ry="13"></ellipse>
</g>
<!-- s1_2 -->
<g id="node4" class="node">
<title>s1_2</title>
<path fill="#ffffff" stroke="#e4e7ec" d="M154.1011,-265.0006C154.1011,-265.0006 11.9663,-265.0006 11.9663,-265.0006 5.9663,-265.0006 -.0337,-259.0006 -.0337,-253.0006 -.0337,-253.0006 -.0337,-151.7994 -.0337,-151.7994 -.0337,-145.7994 5.9663,-139.7994 11.9663,-139.7994 11.9663,-139.7994 154.1011,-139.7994 154.1011,-139.7994 160.1011,-139.7994 166.1011,-145.7994 166.1011,-151.7994 166.1011,-151.7994 166.1011,-253.0006 166.1011,-253.0006 166.1011,-259.0006 160.1011,-265.0006 154.1011,-265.0006"></path>
<text text-anchor="middle" x="83.0337" y="-248.6" font-family="Times,serif" font-size="14.00" fill="#000000">BlockStatement:enter</text>
<text text-anchor="middle" x="83.0337" y="-231.8" font-family="Times,serif" font-size="14.00" fill="#000000">ExpressionStatement:enter</text>
<text text-anchor="middle" x="83.0337" y="-215" font-family="Times,serif" font-size="14.00" fill="#000000">CallExpression:enter</text>
<text text-anchor="middle" x="83.0337" y="-198.2" font-family="Times,serif" font-size="14.00" fill="#000000">Identifier (foo)</text>
<text text-anchor="middle" x="83.0337" y="-181.4" font-family="Times,serif" font-size="14.00" fill="#000000">CallExpression:exit</text>
<text text-anchor="middle" x="83.0337" y="-164.6" font-family="Times,serif" font-size="14.00" fill="#000000">ExpressionStatement:exit</text>
<text text-anchor="middle" x="83.0337" y="-147.8" font-family="Times,serif" font-size="14.00" fill="#000000">BlockStatement:exit</text>
</g>
<!-- s1_1&#45;&gt;s1_2 -->
<g id="edge2" class="edge">
<title>s1_1-&gt;s1_2</title>
<path fill="none" stroke="#98a2b3" d="M129.5728,-301.1437C125.3506,-292.1854 121.1224,-283.2143 117.0305,-274.5323"></path>
<polygon fill="#98a2b3" stroke="#98a2b3" points="120.0798,-272.7926 112.6505,-265.2391 113.7479,-275.7769 120.0798,-272.7926"></polygon>
</g>
<!-- s1_3 -->
<g id="node5" class="node">
<title>s1_3</title>
<path fill="#ffffff" stroke="#e4e7ec" d="M338.1011,-265.0006C338.1011,-265.0006 195.9663,-265.0006 195.9663,-265.0006 189.9663,-265.0006 183.9663,-259.0006 183.9663,-253.0006 183.9663,-253.0006 183.9663,-151.7994 183.9663,-151.7994 183.9663,-145.7994 189.9663,-139.7994 195.9663,-139.7994 195.9663,-139.7994 338.1011,-139.7994 338.1011,-139.7994 344.1011,-139.7994 350.1011,-145.7994 350.1011,-151.7994 350.1011,-151.7994 350.1011,-253.0006 350.1011,-253.0006 350.1011,-259.0006 344.1011,-265.0006 338.1011,-265.0006"></path>
<text text-anchor="middle" x="267.0337" y="-248.6" font-family="Times,serif" font-size="14.00" fill="#000000">BlockStatement:enter</text>
<text text-anchor="middle" x="267.0337" y="-231.8" font-family="Times,serif" font-size="14.00" fill="#000000">ExpressionStatement:enter</text>
<text text-anchor="middle" x="267.0337" y="-215" font-family="Times,serif" font-size="14.00" fill="#000000">CallExpression:enter</text>
<text text-anchor="middle" x="267.0337" y="-198.2" font-family="Times,serif" font-size="14.00" fill="#000000">Identifier (bar)</text>
<text text-anchor="middle" x="267.0337" y="-181.4" font-family="Times,serif" font-size="14.00" fill="#000000">CallExpression:exit</text>
<text text-anchor="middle" x="267.0337" y="-164.6" font-family="Times,serif" font-size="14.00" fill="#000000">ExpressionStatement:exit</text>
<text text-anchor="middle" x="267.0337" y="-147.8" font-family="Times,serif" font-size="14.00" fill="#000000">BlockStatement:exit</text>
</g>
<!-- s1_1&#45;&gt;s1_3 -->
<g id="edge4" class="edge">
<title>s1_1-&gt;s1_3</title>
<path fill="none" stroke="#98a2b3" d="M220.4946,-301.1437C224.7168,-292.1854 228.945,-283.2143 233.0369,-274.5323"></path>
<polygon fill="#98a2b3" stroke="#98a2b3" points="236.3195,-275.7769 237.4169,-265.2391 229.9876,-272.7926 236.3195,-275.7769"></polygon>
</g>
<!-- s1_4 -->
<g id="node6" class="node">
<title>s1_4</title>
<path fill="#ffffff" stroke="#e4e7ec" d="M216.2303,-103.4019C216.2303,-103.4019 133.8371,-103.4019 133.8371,-103.4019 127.8371,-103.4019 121.8371,-97.4019 121.8371,-91.4019 121.8371,-91.4019 121.8371,-74.1981 121.8371,-74.1981 121.8371,-68.1981 127.8371,-62.1981 133.8371,-62.1981 133.8371,-62.1981 216.2303,-62.1981 216.2303,-62.1981 222.2303,-62.1981 228.2303,-68.1981 228.2303,-74.1981 228.2303,-74.1981 228.2303,-91.4019 228.2303,-91.4019 228.2303,-97.4019 222.2303,-103.4019 216.2303,-103.4019"></path>
<text text-anchor="middle" x="175.0337" y="-87" font-family="Times,serif" font-size="14.00" fill="#000000">IfStatement:exit</text>
<text text-anchor="middle" x="175.0337" y="-70.2" font-family="Times,serif" font-size="14.00" fill="#000000">Program:exit</text>
</g>
<!-- s1_2&#45;&gt;s1_4 -->
<g id="edge3" class="edge">
<title>s1_2-&gt;s1_4</title>
<path fill="none" stroke="#98a2b3" d="M131.1892,-139.7978C138.754,-129.9636 146.2408,-120.2307 152.8291,-111.666"></path>
<polygon fill="#98a2b3" stroke="#98a2b3" points="155.7644,-113.5906 159.0873,-103.5303 150.216,-109.3226 155.7644,-113.5906"></polygon>
</g>
<!-- s1_3&#45;&gt;s1_4 -->
<g id="edge5" class="edge">
<title>s1_3-&gt;s1_4</title>
<path fill="none" stroke="#98a2b3" d="M218.8782,-139.7978C211.3134,-129.9636 203.8266,-120.2307 197.2383,-111.666"></path>
<polygon fill="#98a2b3" stroke="#98a2b3" points="199.8514,-109.3226 190.9801,-103.5303 194.303,-113.5906 199.8514,-109.3226"></polygon>
</g>
<!-- s1_4&#45;&gt;final -->
<g id="edge6" class="edge">
<title>s1_4-&gt;final</title>
<path fill="none" stroke="#98a2b3" d="M175.0337,-61.8577C175.0337,-53.8164 175.0337,-44.5915 175.0337,-36.3389"></path>
<polygon fill="#98a2b3" stroke="#98a2b3" points="178.5338,-36.2314 175.0337,-26.2314 171.5338,-36.2315 178.5338,-36.2314"></polygon>
</g>
</g>
</svg>
