<svg width="337pt" height="920" viewBox="0 0 337 690" xmlns="http://www.w3.org/2000/svg"><g class="graph" transform="translate(4 686)"><g class="node"><circle stroke="#000" cx="121" cy="-673" r="9"/></g><g class="node"><path fill="#fff" stroke="#fff" d="M164.156-628H77.844l-12 12v68l12 12h86.312l12-12v-68l-12-12z"/><path fill="#fff" stroke="#fff" d="M77.844-628c-6 0-12 6-12 12M65.844-548c0 6 6 12 12 12M164.156-536c6 0 12-6 12-12M176.156-616c0-6-6-12-12-12"/><path fill="none" stroke="#000" d="M164.156-628H77.844M77.844-628c-6 0-12 6-12 12M65.844-616v68M65.844-548c0 6 6 12 12 12M77.844-536h86.312M164.156-536c6 0 12-6 12-12M176.156-548v-68M176.156-616c0-6-6-12-12-12"/><text text-anchor="middle" x="121" y="-611.4" font-family="Times,serif" font-size="14">Program</text><text text-anchor="middle" x="121" y="-594.6" font-family="Times,serif" font-size="14">SwitchStatement</text><text text-anchor="middle" x="121" y="-577.8" font-family="Times,serif" font-size="14">Identifier (a)</text><text text-anchor="middle" x="121" y="-561" font-family="Times,serif" font-size="14">SwitchCase</text><text text-anchor="middle" x="121" y="-544.2" font-family="Times,serif" font-size="14">Literal (0)</text></g><g class="edge"><path fill="none" stroke="#000" d="M121-663.787v25.49"/><path stroke="#000" d="m124.5-638.119-3.5 10-3.5-10h7z"/></g><g class="node"><circle stroke="#000" cx="170" cy="-13" r="9"/><circle fill="none" stroke="#000" cx="170" cy="-13" r="13"/></g><g class="node"><path fill="#fff" stroke="#fff" d="M122.147-421.7H11.853l-12 12v51.4l12 12h110.294l12-12v-51.4l-12-12z"/><path fill="#fff" stroke="#fff" d="M11.853-421.7c-6 0-12 6-12 12M-.147-358.3c0 6 6 12 12 12M122.147-346.3c6 0 12-6 12-12M134.147-409.7c0-6-6-12-12-12"/><path fill="none" stroke="#000" d="M122.147-421.7H11.853M11.853-421.7c-6 0-12 6-12 12M-.147-409.7v51.4M-.147-358.3c0 6 6 12 12 12M11.853-346.3h110.294M122.147-346.3c6 0 12-6 12-12M134.147-358.3v-51.4M134.147-409.7c0-6-6-12-12-12"/><text text-anchor="middle" x="67" y="-405" font-family="Times,serif" font-size="14">ExpressionStatement</text><text text-anchor="middle" x="67" y="-388.2" font-family="Times,serif" font-size="14">CallExpression</text><text text-anchor="middle" x="67" y="-371.4" font-family="Times,serif" font-size="14">Identifier (foo)</text><text text-anchor="middle" x="67" y="-354.6" font-family="Times,serif" font-size="14">BreakStatement</text></g><g class="edge"><path fill="none" stroke="#000" d="M108.476-535.541 79.82-431.533"/><path stroke="#000" d="m83.14-430.405-6.03 8.711-.719-10.57 6.749 1.859z"/></g><g class="node"><path fill="#fff" stroke="#fff" d="M191.072-499.602h-58.144l-12 12v17.204l12 12h58.144l12-12v-17.204l-12-12z"/><path fill="#fff" stroke="#fff" d="M132.928-499.602c-6 0-12 6-12 12M120.928-470.398c0 6 6 12 12 12M191.072-458.398c6 0 12-6 12-12M203.072-487.602c0-6-6-12-12-12"/><path fill="none" stroke="#000" d="M191.072-499.602h-58.144M132.928-499.602c-6 0-12 6-12 12M120.928-487.602v17.204M120.928-470.398c0 6 6 12 12 12M132.928-458.398h58.144M191.072-458.398c6 0 12-6 12-12M203.072-470.398v-17.204M203.072-487.602c0-6-6-12-12-12"/><text text-anchor="middle" x="162" y="-483.2" font-family="Times,serif" font-size="14">SwitchCase</text><text text-anchor="middle" x="162" y="-466.4" font-family="Times,serif" font-size="14">Literal (1)</text></g><g class="edge"><path fill="none" stroke="#000" d="m139.341-535.817 10.835 26.689"/><path stroke="#000" d="m153.424-510.431.519 10.582-7.005-7.949 6.486-2.633z"/></g><g class="node"><path fill="#fff" stroke="#fff" d="M225.321-103.602H114.679l-12 12v17.204l12 12h110.642l12-12v-17.204l-12-12z"/><path fill="#fff" stroke="#fff" d="M114.679-103.602c-6 0-12 6-12 12M102.679-74.398c0 6 6 12 12 12M225.321-62.398c6 0 12-6 12-12M237.321-91.602c0-6-6-12-12-12"/><path fill="none" stroke="#000" d="M225.321-103.602H114.679M114.679-103.602c-6 0-12 6-12 12M102.679-91.602v17.204M102.679-74.398c0 6 6 12 12 12M114.679-62.398h110.642M225.321-62.398c6 0 12-6 12-12M237.321-74.398v-17.204M237.321-91.602c0-6-6-12-12-12"/><text text-anchor="middle" x="170" y="-87.2" font-family="Times,serif" font-size="14">SwitchStatement:exit</text><text text-anchor="middle" x="170" y="-70.4" font-family="Times,serif" font-size="14">Program:exit</text></g><g class="edge"><path fill="none" stroke="#000" d="M62.364-346.027C57.915-295.816 56.565-204.896 94-140c6.985 12.109 17.753 22.366 29.007 30.661"/><path stroke="#000" d="m125.004-112.213 6.236 8.565-10.216-2.807 3.98-5.758z"/></g><g class="node"><path fill="#fff" stroke="#fff" d="M217.147-310.401H106.853l-12 12v34.802l12 12h110.294l12-12v-34.802l-12-12z"/><path fill="#fff" stroke="#fff" d="M106.853-310.401c-6 0-12 6-12 12M94.853-263.599c0 6 6 12 12 12M217.147-251.599c6 0 12-6 12-12M229.147-298.401c0-6-6-12-12-12"/><path fill="none" stroke="#000" d="M217.147-310.401H106.853M106.853-310.401c-6 0-12 6-12 12M94.853-298.401v34.802M94.853-263.599c0 6 6 12 12 12M106.853-251.599h110.294M217.147-251.599c6 0 12-6 12-12M229.147-263.599v-34.802M229.147-298.401c0-6-6-12-12-12"/><text text-anchor="middle" x="162" y="-293.6" font-family="Times,serif" font-size="14">ExpressionStatement</text><text text-anchor="middle" x="162" y="-276.8" font-family="Times,serif" font-size="14">CallExpression</text><text text-anchor="middle" x="162" y="-260" font-family="Times,serif" font-size="14">Identifier (bar)</text></g><g class="node"><path fill="#fff" stroke="#fff" d="M225.147-215.7H114.853l-12 12v51.4l12 12h110.294l12-12v-51.4l-12-12z"/><path fill="#fff" stroke="#fff" d="M114.853-215.7c-6 0-12 6-12 12M102.853-152.3c0 6 6 12 12 12M225.147-140.3c6 0 12-6 12-12M237.147-203.7c0-6-6-12-12-12"/><path fill="none" stroke="#000" d="M225.147-215.7H114.853M114.853-215.7c-6 0-12 6-12 12M102.853-203.7v51.4M102.853-152.3c0 6 6 12 12 12M114.853-140.3h110.294M225.147-140.3c6 0 12-6 12-12M237.147-152.3v-51.4M237.147-203.7c0-6-6-12-12-12"/><text text-anchor="middle" x="170" y="-199" font-family="Times,serif" font-size="14">ExpressionStatement</text><text text-anchor="middle" x="170" y="-182.2" font-family="Times,serif" font-size="14">CallExpression</text><text text-anchor="middle" x="170" y="-165.4" font-family="Times,serif" font-size="14">Identifier (hoge)</text><text text-anchor="middle" x="170" y="-148.6" font-family="Times,serif" font-size="14">BreakStatement</text></g><g class="edge"><path fill="none" stroke="#000" d="m164.25-251.597 2.027 25.592"/><path stroke="#000" d="m169.779-226.116-2.699 10.245-4.279-9.692 6.978-.553z"/></g><g class="edge"><path fill="none" stroke="#000" d="M170-140.244v26.472"/><path stroke="#000" d="m173.5-113.655-3.5 10-3.5-10h7z"/></g><g class="edge"><path fill="none" stroke="#000" d="M170-62.332v25.812"/><path stroke="#000" d="m173.5-36.349-3.5 10-3.5-10h7z"/></g><g class="edge"><path fill="none" stroke="#000" d="M162-458.128v137.454"/><path stroke="#000" d="m165.5-320.424-3.5 10-3.5-10h7z"/></g><g class="node"><path fill="#fff" stroke="#fff" d="M260.072-404.602h-58.144l-12 12v17.204l12 12h58.144l12-12v-17.204l-12-12z"/><path fill="#fff" stroke="#fff" d="M201.928-404.602c-6 0-12 6-12 12M189.928-375.398c0 6 6 12 12 12M260.072-363.398c6 0 12-6 12-12M272.072-392.602c0-6-6-12-12-12"/><path fill="none" stroke="#000" d="M260.072-404.602h-58.144M201.928-404.602c-6 0-12 6-12 12M189.928-392.602v17.204M189.928-375.398c0 6 6 12 12 12M201.928-363.398h58.144M260.072-363.398c6 0 12-6 12-12M272.072-375.398v-17.204M272.072-392.602c0-6-6-12-12-12"/><text text-anchor="middle" x="231" y="-388.2" font-family="Times,serif" font-size="14">SwitchCase</text><text text-anchor="middle" x="231" y="-371.4" font-family="Times,serif" font-size="14">Literal (2)</text></g><g class="edge"><path fill="none" stroke="#000" d="m176.633-458.277 33.661 45.369"/><path stroke="#000" d="m213.24-414.811 3.148 10.117-8.769-5.946 5.621-4.171z"/></g><g class="edge"><path fill="none" stroke="#000" d="m217.368-363.046-30.177 44.172"/><path stroke="#000" d="m189.882-316.608-8.531 6.283 2.751-10.232 5.78 3.949z"/></g><g class="node"><path fill="#fff" stroke="#fff" d="M317.072-301.602h-58.144l-12 12v17.204l12 12h58.144l12-12v-17.204l-12-12z"/><path fill="#fff" stroke="#fff" d="M258.928-301.602c-6 0-12 6-12 12M246.928-272.398c0 6 6 12 12 12M317.072-260.398c6 0 12-6 12-12M329.072-289.602c0-6-6-12-12-12"/><path fill="none" stroke="#000" d="M317.072-301.602h-58.144M258.928-301.602c-6 0-12 6-12 12M246.928-289.602v17.204M246.928-272.398c0 6 6 12 12 12M258.928-260.398h58.144M317.072-260.398c6 0 12-6 12-12M329.072-272.398v-17.204M329.072-289.602c0-6-6-12-12-12"/><text text-anchor="middle" x="288" y="-285.2" font-family="Times,serif" font-size="14">SwitchCase</text><text text-anchor="middle" x="288" y="-268.4" font-family="Times,serif" font-size="14">Literal (3)</text></g><g class="edge"><path fill="none" stroke="#000" d="m242.261-363.046 29.523 52.312"/><path stroke="#000" d="m274.895-312.342 1.867 10.429-7.963-6.989 6.096-3.44z"/></g><g class="edge"><path fill="none" stroke="#000" d="m264.968-260.286-43.996 37.658"/><path stroke="#000" d="m222.909-219.68-9.873 3.844 5.322-9.162 4.551 5.318z"/></g><g class="edge"><path fill="none" stroke="#000" d="M286.047-260.183C282.381-231.387 272.302-177.344 246-140c-8.278 11.753-19.805 22.026-31.383 30.454"/><path stroke="#000" d="m216.439-106.551-10.216 2.81 6.234-8.567 3.982 5.757z"/></g></g></svg>