<svg width="500" height="500" xmlns="http://www.w3.org/2000/svg" xmlns:xlink="http://www.w3.org/1999/xlink" viewBox="0.00 0.00 374.07 963.20">
<g id="graph0" class="graph" transform="scale(1 1) rotate(0) translate(4 959.2)">
<title>%0</title>
<!-- initial -->
<g id="node1" class="node">
<title>initial</title>
<ellipse fill="#98a2b3" stroke="#98a2b3" cx="227.0337" cy="-946.2" rx="9" ry="9"></ellipse>
</g>
<!-- s1_1 -->
<g id="node4" class="node">
<title>s1_1</title>
<path fill="#ffffff" stroke="#e4e7ec" d="M298.1011,-901.1002C298.1011,-901.1002 155.9663,-901.1002 155.9663,-901.1002 149.9663,-901.1002 143.9663,-895.1002 143.9663,-889.1002 143.9663,-889.1002 143.9663,-804.4998 143.9663,-804.4998 143.9663,-798.4998 149.9663,-792.4998 155.9663,-792.4998 155.9663,-792.4998 298.1011,-792.4998 298.1011,-792.4998 304.1011,-792.4998 310.1011,-798.4998 310.1011,-804.4998 310.1011,-804.4998 310.1011,-889.1002 310.1011,-889.1002 310.1011,-895.1002 304.1011,-901.1002 298.1011,-901.1002"></path>
<text text-anchor="middle" x="227.0337" y="-884.6" font-family="Times,serif" font-size="14.00" fill="#000000">Program:enter</text>
<text text-anchor="middle" x="227.0337" y="-867.8" font-family="Times,serif" font-size="14.00" fill="#000000">TryStatement:enter</text>
<text text-anchor="middle" x="227.0337" y="-851" font-family="Times,serif" font-size="14.00" fill="#000000">BlockStatement:enter</text>
<text text-anchor="middle" x="227.0337" y="-834.2" font-family="Times,serif" font-size="14.00" fill="#000000">ExpressionStatement:enter</text>
<text text-anchor="middle" x="227.0337" y="-817.4" font-family="Times,serif" font-size="14.00" fill="#000000">CallExpression:enter</text>
<text text-anchor="middle" x="227.0337" y="-800.6" font-family="Times,serif" font-size="14.00" fill="#000000">Identifier (foo)</text>
</g>
<!-- initial&#45;&gt;s1_1 -->
<g id="edge1" class="edge">
<title>initial-&gt;s1_1</title>
<path fill="none" stroke="#98a2b3" d="M227.0337,-937.0269C227.0337,-930.6828 227.0337,-921.6127 227.0337,-911.644"></path>
<polygon fill="#98a2b3" stroke="#98a2b3" points="230.5338,-911.4433 227.0337,-901.4433 223.5338,-911.4433 230.5338,-911.4433"></polygon>
</g>
<!-- final -->
<g id="node2" class="node">
<title>final</title>
<ellipse fill="#98a2b3" stroke="#98a2b3" cx="275.0337" cy="-13" rx="9" ry="9"></ellipse>
<ellipse fill="none" stroke="#98a2b3" cx="275.0337" cy="-13" rx="13" ry="13"></ellipse>
</g>
<!-- s1_2 -->
<g id="node5" class="node">
<title>s1_2</title>
<path fill="#ffffff" stroke="#e4e7ec" d="M354.1011,-756.6006C354.1011,-756.6006 211.9663,-756.6006 211.9663,-756.6006 205.9663,-756.6006 199.9663,-750.6006 199.9663,-744.6006 199.9663,-744.6006 199.9663,-625.7994 199.9663,-625.7994 199.9663,-619.7994 205.9663,-613.7994 211.9663,-613.7994 211.9663,-613.7994 354.1011,-613.7994 354.1011,-613.7994 360.1011,-613.7994 366.1011,-619.7994 366.1011,-625.7994 366.1011,-625.7994 366.1011,-744.6006 366.1011,-744.6006 366.1011,-750.6006 360.1011,-756.6006 354.1011,-756.6006"></path>
<text text-anchor="middle" x="283.0337" y="-739.8" font-family="Times,serif" font-size="14.00" fill="#000000">CallExpression:exit</text>
<text text-anchor="middle" x="283.0337" y="-723" font-family="Times,serif" font-size="14.00" fill="#000000">ExpressionStatement:exit</text>
<text text-anchor="middle" x="283.0337" y="-706.2" font-family="Times,serif" font-size="14.00" fill="#000000">ExpressionStatement:enter</text>
<text text-anchor="middle" x="283.0337" y="-689.4" font-family="Times,serif" font-size="14.00" fill="#000000">CallExpression:enter</text>
<text text-anchor="middle" x="283.0337" y="-672.6" font-family="Times,serif" font-size="14.00" fill="#000000">Identifier (bar)</text>
<text text-anchor="middle" x="283.0337" y="-655.8" font-family="Times,serif" font-size="14.00" fill="#000000">CallExpression:exit</text>
<text text-anchor="middle" x="283.0337" y="-639" font-family="Times,serif" font-size="14.00" fill="#000000">ExpressionStatement:exit</text>
<text text-anchor="middle" x="283.0337" y="-622.2" font-family="Times,serif" font-size="14.00" fill="#000000">BlockStatement:exit</text>
</g><g id="node3" class="node">
<title>thrown</title>
<ellipse fill="#ffffff" stroke="#e4e7ec" cx="83.0337" cy="-13" rx="11" ry="11"></ellipse>
<text text-anchor="middle" x="83.0337" y="-8.8" font-family="Times,serif" font-size="14.00" fill="#000000">✘</text>
</g>
<!-- s1_1&#45;&gt;s1_2 -->
<g id="edge2" class="edge">
<title>s1_1-&gt;s1_2</title>
<path fill="none" stroke="#98a2b3" d="M245.9927,-792.0896C248.9055,-783.6842 251.9645,-774.8568 255.0236,-766.029"></path>
<polygon fill="#98a2b3" stroke="#98a2b3" points="258.369,-767.0644 258.3363,-756.4696 251.7549,-764.7724 258.369,-767.0644"></polygon>
</g>
<!-- s1_6 -->

<!-- s1_1&#45;&gt;s1_6 -->

<!-- s1_3 -->
<g id="node6" class="node">
<title>s1_3</title>
<path fill="#ffffff" stroke="#e4e7ec" d="M243.1011,-577.9002C243.1011,-577.9002 100.9663,-577.9002 100.9663,-577.9002 94.9663,-577.9002 88.9663,-571.9002 88.9663,-565.9002 88.9663,-565.9002 88.9663,-481.2998 88.9663,-481.2998 88.9663,-475.2998 94.9663,-469.2998 100.9663,-469.2998 100.9663,-469.2998 243.1011,-469.2998 243.1011,-469.2998 249.1011,-469.2998 255.1011,-475.2998 255.1011,-481.2998 255.1011,-481.2998 255.1011,-565.9002 255.1011,-565.9002 255.1011,-571.9002 249.1011,-577.9002 243.1011,-577.9002"></path>
<text text-anchor="middle" x="172.0337" y="-561.4" font-family="Times,serif" font-size="14.00" fill="#000000">CatchClause:enter</text>
<text text-anchor="middle" x="172.0337" y="-544.6" font-family="Times,serif" font-size="14.00" fill="#000000">Identifier (err)</text>
<text text-anchor="middle" x="172.0337" y="-527.8" font-family="Times,serif" font-size="14.00" fill="#000000">BlockStatement:enter</text>
<text text-anchor="middle" x="172.0337" y="-511" font-family="Times,serif" font-size="14.00" fill="#000000">ExpressionStatement:enter</text>
<text text-anchor="middle" x="172.0337" y="-494.2" font-family="Times,serif" font-size="14.00" fill="#000000">CallExpression:enter</text>
<text text-anchor="middle" x="172.0337" y="-477.4" font-family="Times,serif" font-size="14.00" fill="#000000">Identifier (baz)</text>
</g><g id="edge6" class="edge">
<title>s1_1-&gt;s1_3</title>
<path fill="none" stroke="#98a2b3" d="M202.2761,-792.1831C197.8709,-780.5739 193.8091,-768.2422 191.0337,-756.4 177.9307,-700.4908 173.5101,-635.2013 172.1757,-588.0167"></path>
<polygon fill="#98a2b3" stroke="#98a2b3" points="175.6726,-587.845 171.9296,-577.9334 168.6747,-588.0158 175.6726,-587.845"></polygon>
</g>
<!-- s1_2&#45;&gt;s1_3 -->
<g id="edge3" class="edge">
<title>s1_2-&gt;s1_3</title>
<path fill="none" stroke="#98a2b3" d="M234.0244,-613.8495C227.7748,-604.7509 221.4138,-595.4903 215.2644,-586.5377"></path>
<polygon fill="#98a2b3" stroke="#98a2b3" points="217.9908,-584.3252 209.444,-578.064 212.2209,-588.2885 217.9908,-584.3252"></polygon>
</g>
<!-- s1_5 -->
<g id="node8" class="node">
<title>s1_6</title>
<path fill="#ffffff" stroke="#e4e7ec" d="M346.1011,-305.3001C346.1011,-305.3001 203.9663,-305.3001 203.9663,-305.3001 197.9663,-305.3001 191.9663,-299.3001 191.9663,-293.3001 191.9663,-293.3001 191.9663,-73.8999 191.9663,-73.8999 191.9663,-67.8999 197.9663,-61.8999 203.9663,-61.8999 203.9663,-61.8999 346.1011,-61.8999 346.1011,-61.8999 352.1011,-61.8999 358.1011,-67.8999 358.1011,-73.8999 358.1011,-73.8999 358.1011,-293.3001 358.1011,-293.3001 358.1011,-299.3001 352.1011,-305.3001 346.1011,-305.3001"></path>
<text text-anchor="middle" x="275.0337" y="-288.6" font-family="Times,serif" font-size="14.00" fill="#000000">BlockStatement:enter</text>
<text text-anchor="middle" x="275.0337" y="-271.8" font-family="Times,serif" font-size="14.00" fill="#000000">ExpressionStatement:enter</text>
<text text-anchor="middle" x="275.0337" y="-255" font-family="Times,serif" font-size="14.00" fill="#000000">CallExpression:enter</text>
<text text-anchor="middle" x="275.0337" y="-238.2" font-family="Times,serif" font-size="14.00" fill="#000000">Identifier (quux)</text>
<text text-anchor="middle" x="275.0337" y="-221.4" font-family="Times,serif" font-size="14.00" fill="#000000">CallExpression:exit</text>
<text text-anchor="middle" x="275.0337" y="-204.6" font-family="Times,serif" font-size="14.00" fill="#000000">ExpressionStatement:exit</text>
<text text-anchor="middle" x="275.0337" y="-187.8" font-family="Times,serif" font-size="14.00" fill="#000000">BlockStatement:exit</text>
<text text-anchor="middle" x="275.0337" y="-171" font-family="Times,serif" font-size="14.00" fill="#000000">TryStatement:exit</text>
<text text-anchor="middle" x="275.0337" y="-154.2" font-family="Times,serif" font-size="14.00" fill="#000000">ExpressionStatement:enter</text>
<text text-anchor="middle" x="275.0337" y="-137.4" font-family="Times,serif" font-size="14.00" fill="#000000">CallExpression:enter</text>
<text text-anchor="middle" x="275.0337" y="-120.6" font-family="Times,serif" font-size="14.00" fill="#000000">Identifier (last)</text>
<text text-anchor="middle" x="275.0337" y="-103.8" font-family="Times,serif" font-size="14.00" fill="#000000">CallExpression:exit</text>
<text text-anchor="middle" x="275.0337" y="-87" font-family="Times,serif" font-size="14.00" fill="#000000">ExpressionStatement:exit</text>
<text text-anchor="middle" x="275.0337" y="-70.2" font-family="Times,serif" font-size="14.00" fill="#000000">Program:exit</text>
</g>
<!-- s1_2&#45;&gt;s1_5 -->
<g id="edge7" class="edge">
<title>s1_2-&gt;s1_6</title>
<path fill="none" stroke="#98a2b3" d="M281.896,-613.8656C280.6607,-536.4111 278.6605,-411.0004 277.1375,-315.5078"></path>
<polygon fill="#98a2b3" stroke="#98a2b3" points="280.6368,-315.4283 276.9776,-305.4854 273.6377,-315.54 280.6368,-315.4283"></polygon>
</g>
<!-- s1_4 -->
<g id="node7" class="node">
<title>s1_4</title>
<path fill="#ffffff" stroke="#e4e7ec" d="M242.6165,-433.2C242.6165,-433.2 107.4509,-433.2 107.4509,-433.2 101.4509,-433.2 95.4509,-427.2 95.4509,-421.2 95.4509,-421.2 95.4509,-353.2 95.4509,-353.2 95.4509,-347.2 101.4509,-341.2 107.4509,-341.2 107.4509,-341.2 242.6165,-341.2 242.6165,-341.2 248.6165,-341.2 254.6165,-347.2 254.6165,-353.2 254.6165,-353.2 254.6165,-421.2 254.6165,-421.2 254.6165,-427.2 248.6165,-433.2 242.6165,-433.2"></path>
<text text-anchor="middle" x="175.0337" y="-416.6" font-family="Times,serif" font-size="14.00" fill="#000000">Identifier (err)</text>
<text text-anchor="middle" x="175.0337" y="-399.8" font-family="Times,serif" font-size="14.00" fill="#000000">CallExpression:exit</text>
<text text-anchor="middle" x="175.0337" y="-383" font-family="Times,serif" font-size="14.00" fill="#000000">ExpressionStatement:exit</text>
<text text-anchor="middle" x="175.0337" y="-366.2" font-family="Times,serif" font-size="14.00" fill="#000000">BlockStatement:exit</text>
<text text-anchor="middle" x="175.0337" y="-349.4" font-family="Times,serif" font-size="14.00" fill="#000000">CatchClause:exit</text>
</g>
<!-- s1_3&#45;&gt;s1_4 -->
<g id="edge4" class="edge">
<title>s1_3-&gt;s1_4</title>
<path fill="none" stroke="#98a2b3" d="M173.228,-469.2992C173.4139,-460.8485 173.6063,-452.1004 173.7931,-443.6042"></path>
<polygon fill="#98a2b3" stroke="#98a2b3" points="177.2967,-443.4772 174.0175,-433.4026 170.2984,-443.3232 177.2967,-443.4772"></polygon>
</g>
<!-- s1_7 -->
<g id="node9" class="node">
<title>s1_7</title>
<path fill="#ffffff" stroke="#e4e7ec" d="M154.1011,-246.2006C154.1011,-246.2006 11.9663,-246.2006 11.9663,-246.2006 5.9663,-246.2006 -.0337,-240.2006 -.0337,-234.2006 -.0337,-234.2006 -.0337,-132.9994 -.0337,-132.9994 -.0337,-126.9994 5.9663,-120.9994 11.9663,-120.9994 11.9663,-120.9994 154.1011,-120.9994 154.1011,-120.9994 160.1011,-120.9994 166.1011,-126.9994 166.1011,-132.9994 166.1011,-132.9994 166.1011,-234.2006 166.1011,-234.2006 166.1011,-240.2006 160.1011,-246.2006 154.1011,-246.2006"></path>
<text text-anchor="middle" x="83.0337" y="-229.8" font-family="Times,serif" font-size="14.00" fill="#000000">BlockStatement:enter</text>
<text text-anchor="middle" x="83.0337" y="-213" font-family="Times,serif" font-size="14.00" fill="#000000">ExpressionStatement:enter</text>
<text text-anchor="middle" x="83.0337" y="-196.2" font-family="Times,serif" font-size="14.00" fill="#000000">CallExpression:enter</text>
<text text-anchor="middle" x="83.0337" y="-179.4" font-family="Times,serif" font-size="14.00" fill="#000000">Identifier (quux)</text>
<text text-anchor="middle" x="83.0337" y="-162.6" font-family="Times,serif" font-size="14.00" fill="#000000">CallExpression:exit</text>
<text text-anchor="middle" x="83.0337" y="-145.8" font-family="Times,serif" font-size="14.00" fill="#000000">ExpressionStatement:exit</text>
<text text-anchor="middle" x="83.0337" y="-129" font-family="Times,serif" font-size="14.00" fill="#000000">BlockStatement:exit</text>
</g>
<!-- s1_3&#45;&gt;s1_7 -->
<g id="edge8" class="edge">
<title>s1_3-&gt;s1_7</title>
<path fill="none" stroke="#98a2b3" d="M108.4963,-469.2512C99.3674,-458.302 91.297,-446.1426 86.0337,-433.2 63.1912,-377.0298 64.4225,-307.6963 70.2356,-256.3691"></path>
<polygon fill="#98a2b3" stroke="#98a2b3" points="73.7207,-256.7023 71.4535,-246.353 66.7719,-255.8573 73.7207,-256.7023"></polygon>
</g>
<!-- s1_4&#45;&gt;s1_6 -->
<g id="edge5" class="edge">
<title>s1_4-&gt;s1_6</title>
<path fill="none" stroke="#98a2b3" d="M197.7252,-341C201.7865,-332.7313 206.1945,-323.7567 210.7768,-314.4271"></path>
<polygon fill="#98a2b3" stroke="#98a2b3" points="213.9508,-315.9038 215.2179,-305.385 207.6678,-312.8177 213.9508,-315.9038"></polygon>
</g>
<!-- s1_4&#45;&gt;s1_7 -->
<g id="edge9" class="edge">
<title>s1_4-&gt;s1_7</title>
<path fill="none" stroke="#98a2b3" d="M154.1575,-341C142.7737,-315.8072 128.4286,-284.061 115.6084,-255.6893"></path>
<polygon fill="#98a2b3" stroke="#98a2b3" points="118.633,-253.8829 111.3257,-246.2113 112.254,-256.7654 118.633,-253.8829"></polygon>
</g>
<!-- s1_6&#45;&gt;final -->
<g id="edge10" class="edge">
<title>s1_6-&gt;final</title>
<path fill="none" stroke="#98a2b3" d="M275.0337,-61.8871C275.0337,-52.4481 275.0337,-43.7414 275.0337,-36.3722"></path>
<polygon fill="#98a2b3" stroke="#98a2b3" points="278.5338,-36.2934 275.0337,-26.2935 271.5338,-36.2935 278.5338,-36.2934"></polygon>
</g>
<!-- s1_7&#45;&gt;thrown -->
<g id="edge11" class="edge">
<title>s1_7-&gt;thrown</title>
<path fill="none" stroke="#98a2b3" d="M83.0337,-120.5596C83.0337,-90.3077 83.0337,-56.0396 83.0337,-34.4781"></path>
<polygon fill="#98a2b3" stroke="#98a2b3" points="86.5338,-34.1812 83.0337,-24.1812 79.5338,-34.1812 86.5338,-34.1812"></polygon>
</g>
</g>
</svg>
