<svg width="142pt" height="312" viewBox="0 0 142 234" xmlns="http://www.w3.org/2000/svg"><g class="graph" transform="translate(4 230)"><g class="node"><circle stroke="#000" cx="67" cy="-217" r="9"/></g><g class="node"><path fill="#fff" stroke="#fff" d="M122.147-171.3H11.853l-12 12v84.6l12 12h110.294l12-12v-84.6l-12-12z"/><path fill="#fff" stroke="#fff" d="M11.853-171.3c-6 0-12 6-12 12M-.147-74.7c0 6 6 12 12 12M122.147-62.7c6 0 12-6 12-12M134.147-159.3c0-6-6-12-12-12"/><path fill="none" stroke="#000" d="M122.147-171.3H11.853M11.853-171.3c-6 0-12 6-12 12M-.147-159.3v84.6M-.147-74.7c0 6 6 12 12 12M11.853-62.7h110.294M122.147-62.7c6 0 12-6 12-12M134.147-74.7v-84.6M134.147-159.3c0-6-6-12-12-12"/><text text-anchor="middle" x="67" y="-154.8" font-family="Times,serif" font-size="14">Program</text><text text-anchor="middle" x="67" y="-138" font-family="Times,serif" font-size="14">FunctionDeclaration</text><text text-anchor="middle" x="67" y="-121.2" font-family="Times,serif" font-size="14">ExpressionStatement</text><text text-anchor="middle" x="67" y="-104.4" font-family="Times,serif" font-size="14">CallExpression</text><text text-anchor="middle" x="67" y="-87.6" font-family="Times,serif" font-size="14">Identifier (foo)</text><text text-anchor="middle" x="67" y="-70.8" font-family="Times,serif" font-size="14">Literal (false)</text></g><g class="edge"><path fill="none" stroke="#000" d="M67-207.98v26.167"/><path stroke="#000" d="m70.5-181.586-3.5 10-3.5-10h7z"/></g><g class="node"><circle stroke="#000" cx="67" cy="-13" r="9"/><circle fill="none" stroke="#000" cx="67" cy="-13" r="13"/></g><g class="edge"><path fill="none" stroke="#000" d="M67-62.61v26.352"/><path stroke="#000" d="m70.5-36.19-3.5 10-3.5-10h7z"/></g></g></svg>