<svg width="160pt" height="288" viewBox="0 0 160 216" xmlns="http://www.w3.org/2000/svg"><g class="graph" transform="translate(4 212)"><g class="node"><circle stroke="#000" cx="67" cy="-199" r="9"/></g><g class="node"><path fill="#fff" stroke="#fff" d="M100.573-153.602H33.427l-12 12v17.204l12 12h67.146l12-12v-17.204l-12-12z"/><path fill="#fff" stroke="#fff" d="M33.427-153.602c-6 0-12 6-12 12M21.427-124.398c0 6 6 12 12 12M100.573-112.398c6 0 12-6 12-12M112.573-141.602c0-6-6-12-12-12"/><path fill="none" stroke="#000" d="M100.573-153.602H33.427M33.427-153.602c-6 0-12 6-12 12M21.427-141.602v17.204M21.427-124.398c0 6 6 12 12 12M33.427-112.398h67.146M100.573-112.398c6 0 12-6 12-12M112.573-124.398v-17.204M112.573-141.602c0-6-6-12-12-12"/><text text-anchor="middle" x="67" y="-137.2" font-family="Times,serif" font-size="14">Program</text><text text-anchor="middle" x="67" y="-120.4" font-family="Times,serif" font-size="14">ForStatement</text></g><g class="edge"><path fill="none" stroke="#000" d="M67-189.894v25.954"/><path stroke="#000" d="m70.5-163.842-3.5 10-3.5-10h7z"/></g><g class="node"><path fill="#fff" stroke="#fff" d="M122.147-75.7H11.853l-12 12v51.4l12 12h110.294l12-12v-51.4l-12-12z"/><path fill="#fff" stroke="#fff" d="M11.853-75.7c-6 0-12 6-12 12M-.147-12.3c0 6 6 12 12 12M122.147-.3c6 0 12-6 12-12M134.147-63.7c0-6-6-12-12-12"/><path fill="none" stroke="#000" d="M122.147-75.7H11.853M11.853-75.7c-6 0-12 6-12 12M-.147-63.7v51.4M-.147-12.3c0 6 6 12 12 12M11.853-.3h110.294M122.147-.3c6 0 12-6 12-12M134.147-12.3v-51.4M134.147-63.7c0-6-6-12-12-12"/><text text-anchor="middle" x="67" y="-59" font-family="Times,serif" font-size="14">BlockStatement</text><text text-anchor="middle" x="67" y="-42.2" font-family="Times,serif" font-size="14">ExpressionStatement</text><text text-anchor="middle" x="67" y="-25.4" font-family="Times,serif" font-size="14">CallExpression</text><text text-anchor="middle" x="67" y="-8.6" font-family="Times,serif" font-size="14">Identifier (foo)</text></g><g class="edge"><path fill="none" stroke="#000" d="M67-112.277v26.297"/><path stroke="#000" d="m70.5-85.965-3.5 10-3.5-10h7z"/></g><g class="edge"><path fill="none" stroke="#000" d="M134.337-54.152C144.84-51.738 152-46.353 152-38c0 5.482-3.084 9.685-8.172 12.61"/><path stroke="#000" d="m144.93-22.066-10.593.218 8.145-6.776 2.448 6.558z"/></g></g></svg>