<svg width="146pt" height="250pt" viewBox="0 0 146 250" xmlns="http://www.w3.org/2000/svg"><g class="graph" transform="translate(4 246)"><g class="node"><circle stroke="#000" cx="69" cy="-233" r="9"/></g><g class="node"><path fill="#fff" stroke="#fff" d="M126.042-187.601H11.958l-12 12v101.202l12 12h114.084l12-12v-101.202l-12-12z"/><path fill="#fff" stroke="#fff" d="M11.958-187.601c-6 0-12 6-12 12M-.042-74.4c0 6 6 12 12 12M126.042-62.4c6 0 12-6 12-12M138.042-175.601c0-6-6-12-12-12"/><path fill="none" stroke="#000" d="M126.042-187.601H11.958M11.958-187.601c-6 0-12 6-12 12M-.042-175.601v101.202M-.042-74.4c0 6 6 12 12 12M11.958-62.4h114.084M126.042-62.4c6 0 12-6 12-12M138.042-74.4V-175.6M138.042-175.601c0-6-6-12-12-12"/><text text-anchor="middle" x="69" y="-171.2" font-family="Times,serif" font-size="14">Program</text><text text-anchor="middle" x="69" y="-154.4" font-family="Times,serif" font-size="14">ExpressionStatement</text><text text-anchor="middle" x="69" y="-137.6" font-family="Times,serif" font-size="14">CallExpression</text><text text-anchor="middle" x="69" y="-120.8" font-family="Times,serif" font-size="14">MemberExpression</text><text text-anchor="middle" x="69" y="-104" font-family="Times,serif" font-size="14">Identifier (console)</text><text text-anchor="middle" x="69" y="-87.2" font-family="Times,serif" font-size="14">Identifier (log)</text><text text-anchor="middle" x="69" y="-70.4" font-family="Times,serif" font-size="14">Literal (Hello world!)</text></g><g class="edge"><path fill="none" stroke="#000" d="M69-223.682v25.822"/><path stroke="#000" d="m72.5-197.675-3.5 10-3.5-10h7z"/></g><g class="node"><circle stroke="#000" cx="69" cy="-13" r="9"/><circle fill="none" stroke="#000" cx="69" cy="-13" r="13"/></g><g class="edge"><path fill="none" stroke="#000" d="M69-62.248v25.814"/><path stroke="#000" d="m72.5-36.295-3.5 10-3.5-10h7z"/></g></g></svg>