<svg width="323pt" height="680pt" viewBox="0 0 323 680" xmlns="http://www.w3.org/2000/svg"><g class="graph" transform="translate(4 676)"><g class="node"><circle stroke="#000" cx="248" cy="-663" r="9"/></g><g class="node"><path fill="#fff" stroke="#fff" d="M303.147-617.3H192.853l-12 12v84.6l12 12h110.294l12-12v-84.6l-12-12z"/><path fill="#fff" stroke="#fff" d="M192.853-617.3c-6 0-12 6-12 12M180.853-520.7c0 6 6 12 12 12M303.147-508.7c6 0 12-6 12-12M315.147-605.3c0-6-6-12-12-12"/><path fill="none" stroke="#000" d="M303.147-617.3H192.853M192.853-617.3c-6 0-12 6-12 12M180.853-605.3v84.6M180.853-520.7c0 6 6 12 12 12M192.853-508.7h110.294M303.147-508.7c6 0 12-6 12-12M315.147-520.7v-84.6M315.147-605.3c0-6-6-12-12-12"/><text text-anchor="middle" x="248" y="-600.8" font-family="Times,serif" font-size="14">Program</text><text text-anchor="middle" x="248" y="-584" font-family="Times,serif" font-size="14">TryStatement</text><text text-anchor="middle" x="248" y="-567.2" font-family="Times,serif" font-size="14">BlockStatement</text><text text-anchor="middle" x="248" y="-550.4" font-family="Times,serif" font-size="14">ExpressionStatement</text><text text-anchor="middle" x="248" y="-533.6" font-family="Times,serif" font-size="14">CallExpression</text><text text-anchor="middle" x="248" y="-516.8" font-family="Times,serif" font-size="14">Identifier (foo)</text></g><g class="edge"><path fill="none" stroke="#000" d="M248-653.98v26.167"/><path stroke="#000" d="m251.5-627.586-3.5 10-3.5-10h7z"/></g><g class="node"><circle stroke="#000" cx="142" cy="-13" r="9"/><circle fill="none" stroke="#000" cx="142" cy="-13" r="13"/></g><g class="node"><path fill="#fff" stroke="#fff" d="M238.339-471.602h-62.678l-12 12v17.204l12 12h62.678l12-12v-17.204l-12-12z"/><path fill="#fff" stroke="#fff" d="M175.661-471.602c-6 0-12 6-12 12M163.661-442.398c0 6 6 12 12 12M238.339-430.398c6 0 12-6 12-12M250.339-459.602c0-6-6-12-12-12"/><path fill="none" stroke="#000" d="M238.339-471.602h-62.678M175.661-471.602c-6 0-12 6-12 12M163.661-459.602v17.204M163.661-442.398c0 6 6 12 12 12M175.661-430.398h62.678M238.339-430.398c6 0 12-6 12-12M250.339-442.398v-17.204M250.339-459.602c0-6-6-12-12-12"/><text text-anchor="middle" x="207" y="-455.2" font-family="Times,serif" font-size="14">IfStatement</text><text text-anchor="middle" x="207" y="-438.4" font-family="Times,serif" font-size="14">Identifier (a)</text></g><g class="edge"><path fill="none" stroke="#000" d="m228.101-508.611-10.214 27.403"/><path stroke="#000" d="m221.164-479.98-6.772 8.147.213-10.592 6.559 2.445z"/></g><g class="node"><path fill="#fff" stroke="#fff" d="M250.147-281.601H139.853l-12 12v101.202l12 12h110.294l12-12v-101.202l-12-12z"/><path fill="#fff" stroke="#fff" d="M139.853-281.601c-6 0-12 6-12 12M127.853-168.399c0 6 6 12 12 12M250.147-156.399c6 0 12-6 12-12M262.147-269.601c0-6-6-12-12-12"/><path fill="none" stroke="#000" d="M250.147-281.601H139.853M139.853-281.601c-6 0-12 6-12 12M127.853-269.601v101.202M127.853-168.399c0 6 6 12 12 12M139.853-156.399h110.294M250.147-156.399c6 0 12-6 12-12M262.147-168.399v-101.202M262.147-269.601c0-6-6-12-12-12"/><text text-anchor="middle" x="195" y="-265.2" font-family="Times,serif" font-size="14">CatchClause</text><text text-anchor="middle" x="195" y="-248.4" font-family="Times,serif" font-size="14">Identifier (err)</text><text text-anchor="middle" x="195" y="-231.6" font-family="Times,serif" font-size="14">BlockStatement</text><text text-anchor="middle" x="195" y="-214.8" font-family="Times,serif" font-size="14">ExpressionStatement</text><text text-anchor="middle" x="195" y="-198" font-family="Times,serif" font-size="14">CallExpression</text><text text-anchor="middle" x="195" y="-181.2" font-family="Times,serif" font-size="14">Identifier (hoge)</text><text text-anchor="middle" x="195" y="-164.4" font-family="Times,serif" font-size="14">Identifier (err)</text></g><g class="edge"><path fill="none" stroke="#000" d="M265.496-508.624C279.169-458.161 292.566-381 271-318c-3.242 9.472-7.815 18.737-13.126 27.556"/><path stroke="#000" d="m260.672-288.323-8.334 6.542 2.436-10.311 5.898 3.769z"/></g><g class="node"><path fill="#fff" stroke="#fff" d="M250.329-393.7h-86.658l-12 12v51.4l12 12h86.658l12-12v-51.4l-12-12z"/><path fill="#fff" stroke="#fff" d="M163.671-393.7c-6 0-12 6-12 12M151.671-330.3c0 6 6 12 12 12M250.329-318.3c6 0 12-6 12-12M262.329-381.7c0-6-6-12-12-12"/><path fill="none" stroke="#000" d="M250.329-393.7h-86.658M163.671-393.7c-6 0-12 6-12 12M151.671-381.7v51.4M151.671-330.3c0 6 6 12 12 12M163.671-318.3h86.658M250.329-318.3c6 0 12-6 12-12M262.329-330.3v-51.4M262.329-381.7c0-6-6-12-12-12"/><text text-anchor="middle" x="207" y="-377" font-family="Times,serif" font-size="14">BlockStatement</text><text text-anchor="middle" x="207" y="-360.2" font-family="Times,serif" font-size="14">ThrowStatement</text><text text-anchor="middle" x="207" y="-343.4" font-family="Times,serif" font-size="14">NewExpression</text><text text-anchor="middle" x="207" y="-326.6" font-family="Times,serif" font-size="14">Identifier (Error)</text></g><g class="edge"><path fill="none" stroke="#000" d="M207-430.277v26.297"/><path stroke="#000" d="m210.5-403.965-3.5 10-3.5-10h7z"/></g><g class="node"><path fill="#fff" stroke="#fff" d="M122.147-385.401H11.853l-12 12v34.802l12 12h110.294l12-12v-34.802l-12-12z"/><path fill="#fff" stroke="#fff" d="M11.853-385.401c-6 0-12 6-12 12M-.147-338.599c0 6 6 12 12 12M122.147-326.599c6 0 12-6 12-12M134.147-373.401c0-6-6-12-12-12"/><path fill="none" stroke="#000" d="M122.147-385.401H11.853M11.853-385.401c-6 0-12 6-12 12M-.147-373.401v34.802M-.147-338.599c0 6 6 12 12 12M11.853-326.599h110.294M122.147-326.599c6 0 12-6 12-12M134.147-338.599v-34.802M134.147-373.401c0-6-6-12-12-12"/><text text-anchor="middle" x="67" y="-368.6" font-family="Times,serif" font-size="14">ExpressionStatement</text><text text-anchor="middle" x="67" y="-351.8" font-family="Times,serif" font-size="14">CallExpression</text><text text-anchor="middle" x="67" y="-335" font-family="Times,serif" font-size="14">Identifier (bar)</text></g><g class="edge"><path fill="none" stroke="#000" d="m177.31-430.277-59.265 39.368"/><path stroke="#000" d="m119.93-387.959-10.266 2.618 6.393-8.449 3.873 5.831z"/></g><g class="edge"><path fill="none" stroke="#000" d="m203.721-318.111-2.323 26.129"/><path stroke="#000" d="m204.863-291.422-4.372 9.651-2.601-10.271 6.973.62z"/></g><g class="edge"><path fill="none" stroke="#000" d="m93.833-326.7 35.718 37.671"/><path stroke="#000" d="m132.227-291.293 4.34 9.665-9.42-4.849 5.08-4.816z"/></g><g class="node"><path fill="#fff" stroke="#fff" d="M197.147-120.401H86.853l-12 12v34.802l12 12h110.294l12-12V-108.4l-12-12z"/><path fill="#fff" stroke="#fff" d="M86.853-120.401c-6 0-12 6-12 12M74.853-73.599c0 6 6 12 12 12M197.147-61.599c6 0 12-6 12-12M209.147-108.401c0-6-6-12-12-12"/><path fill="none" stroke="#000" d="M197.147-120.401H86.853M86.853-120.401c-6 0-12 6-12 12M74.853-108.401v34.802M74.853-73.599c0 6 6 12 12 12M86.853-61.599h110.294M197.147-61.599c6 0 12-6 12-12M209.147-73.599V-108.4M209.147-108.401c0-6-6-12-12-12"/><text text-anchor="middle" x="142" y="-103.6" font-family="Times,serif" font-size="14">ExpressionStatement</text><text text-anchor="middle" x="142" y="-86.8" font-family="Times,serif" font-size="14">CallExpression</text><text text-anchor="middle" x="142" y="-70" font-family="Times,serif" font-size="14">Identifier (last)</text></g><g class="edge"><path fill="none" stroke="#000" d="M73.536-326.764C82.703-287.987 100.357-216.205 119-156c2.611 8.431 5.658 17.395 8.664 25.861"/><path stroke="#000" d="m131.044-131.083.101 10.594-6.686-8.219 6.585-2.375z"/></g><g class="edge"><path fill="none" stroke="#000" d="m168.966-156.107-11.128 26.455"/><path stroke="#000" d="m160.974-128.08-7.104 7.861.651-10.575 6.453 2.714z"/></g><g class="edge"><path fill="none" stroke="#000" d="M142-61.7v25.642"/><path stroke="#000" d="m145.5-36.027-3.5 10-3.5-10h7z"/></g></g></svg>