<svg width="146pt" height="250pt" viewBox="0 0 146 250" xmlns="http://www.w3.org/2000/svg"><g class="graph"><circle stroke="#000" cx="69" cy="-233" r="9" class="node" transform="translate(4 246)"/><g class="node"><path fill="#fff" stroke="#fff" d="M130.042 58.399H15.958l-12 12v101.202l12 12h114.084l12-12V70.399l-12-12z"/><path fill="#fff" stroke="#fff" d="M15.958 58.399c-6 0-12 6-12 12m0 101.201c0 6 6 12 12 12m114.084 0c6 0 12-6 12-12m0-101.201c0-6-6-12-12-12"/><path fill="none" stroke="#000" d="M130.042 58.399H15.958m0 0c-6 0-12 6-12 12m0 0v101.202m0-.001c0 6 6 12 12 12m0 0h114.084m0 0c6 0 12-6 12-12m0 0V70.4m0-.001c0-6-6-12-12-12"/><text text-anchor="middle" x="69" y="-171.2" font-family="Times,serif" font-size="14" transform="translate(4 246)">Program</text><text text-anchor="middle" x="69" y="-154.4" font-family="Times,serif" font-size="14" transform="translate(4 246)">ExpressionStatement</text><text text-anchor="middle" x="69" y="-137.6" font-family="Times,serif" font-size="14" transform="translate(4 246)">CallExpression</text><text text-anchor="middle" x="69" y="-120.8" font-family="Times,serif" font-size="14" transform="translate(4 246)">MemberExpression</text><text text-anchor="middle" x="69" y="-104" font-family="Times,serif" font-size="14" transform="translate(4 246)">Identifier (console)</text><text text-anchor="middle" x="69" y="-87.2" font-family="Times,serif" font-size="14" transform="translate(4 246)">Identifier (log)</text><text text-anchor="middle" x="69" y="-70.4" font-family="Times,serif" font-size="14" transform="translate(4 246)">Literal (Hello world!)</text></g><g class="edge" stroke="#000"><path fill="none" d="M73 22.318V48.14"/><path d="m76.5 48.325-3.5 10-3.5-10h7z"/></g><g class="node" stroke="#000" transform="translate(4 246)"><circle cx="69" cy="-13" r="9"/><circle fill="none" cx="69" cy="-13" r="13"/></g><g class="edge" stroke="#000"><path fill="none" d="M73 183.752v25.814"/><path d="m76.5 209.705-3.5 10-3.5-10h7z"/></g></g></svg>