<svg width="350pt" height="646pt" viewBox="0 0 350 646" xmlns="http://www.w3.org/2000/svg"><g class="graph" transform="translate(4 642)"><g class="node"><circle stroke="#000" cx="174" cy="-629" r="9"/></g><g class="node"><path fill="#fff" stroke="#fff" d="M226.617-583.3H121.383l-12 12v84.6l12 12h105.234l12-12v-84.6l-12-12z"/><path fill="#fff" stroke="#fff" d="M121.383-583.3c-6 0-12 6-12 12M109.383-486.7c0 6 6 12 12 12M226.617-474.7c6 0 12-6 12-12M238.617-571.3c0-6-6-12-12-12"/><path fill="none" stroke="#000" d="M226.617-583.3H121.383M121.383-583.3c-6 0-12 6-12 12M109.383-571.3v84.6M109.383-486.7c0 6 6 12 12 12M121.383-474.7h105.234M226.617-474.7c6 0 12-6 12-12M238.617-486.7v-84.6M238.617-571.3c0-6-6-12-12-12"/><text text-anchor="middle" x="174" y="-566.8" font-family="Times,serif" font-size="14">Program</text><text text-anchor="middle" x="174" y="-550" font-family="Times,serif" font-size="14">ForStatement</text><text text-anchor="middle" x="174" y="-533.2" font-family="Times,serif" font-size="14">VariableDeclaration</text><text text-anchor="middle" x="174" y="-516.4" font-family="Times,serif" font-size="14">VariableDeclarator</text><text text-anchor="middle" x="174" y="-499.6" font-family="Times,serif" font-size="14">Identifier (i)</text><text text-anchor="middle" x="174" y="-482.8" font-family="Times,serif" font-size="14">Literal (0)</text></g><g class="edge"><path fill="none" stroke="#000" d="M174-619.98v26.167"/><path stroke="#000" d="m177.5-593.586-3.5 10-3.5-10h7z"/></g><g class="node"><circle stroke="#000" cx="58" cy="-13" r="9"/><circle fill="none" stroke="#000" cx="58" cy="-13" r="13"/></g><g class="node"><path fill="#fff" stroke="#fff" d="M220.233-438.401h-92.466l-12 12v34.802l12 12h92.466l12-12v-34.802l-12-12zM127.767-438.401c-6 0-12 6-12 12M115.767-391.599c0 6 6 12 12 12"/><path fill="#fff" stroke="#fff" d="M220.233-379.599c6 0 12-6 12-12M232.233-426.401c0-6-6-12-12-12"/><path fill="none" stroke="#000" d="M220.233-438.401h-92.466M127.767-438.401c-6 0-12 6-12 12M115.767-426.401v34.802M115.767-391.599c0 6 6 12 12 12M127.767-379.599h92.466M220.233-379.599c6 0 12-6 12-12M232.233-391.599v-34.802M232.233-426.401c0-6-6-12-12-12"/><text text-anchor="middle" x="174" y="-421.6" font-family="Times,serif" font-size="14">BinaryExpression</text><text text-anchor="middle" x="174" y="-404.8" font-family="Times,serif" font-size="14">Identifier (i)</text><text text-anchor="middle" x="174" y="-388" font-family="Times,serif" font-size="14">Literal (10)</text></g><g class="edge"><path fill="none" stroke="#000" d="M174-474.524v25.952"/><path stroke="#000" d="m177.5-448.452-3.5 10-3.5-10h7z"/></g><g class="node"><path fill="#fff" stroke="#fff" d="M229.147-343.3H118.853l-12 12v84.6l12 12h110.294l12-12v-84.6l-12-12z"/><path fill="#fff" stroke="#fff" d="M118.853-343.3c-6 0-12 6-12 12M106.853-246.7c0 6 6 12 12 12M229.147-234.7c6 0 12-6 12-12M241.147-331.3c0-6-6-12-12-12"/><path fill="none" stroke="#000" d="M229.147-343.3H118.853M118.853-343.3c-6 0-12 6-12 12M106.853-331.3v84.6M106.853-246.7c0 6 6 12 12 12M118.853-234.7h110.294M229.147-234.7c6 0 12-6 12-12M241.147-246.7v-84.6M241.147-331.3c0-6-6-12-12-12"/><text text-anchor="middle" x="174" y="-326.8" font-family="Times,serif" font-size="14">BlockStatement</text><text text-anchor="middle" x="174" y="-310" font-family="Times,serif" font-size="14">ExpressionStatement</text><text text-anchor="middle" x="174" y="-293.2" font-family="Times,serif" font-size="14">CallExpression</text><text text-anchor="middle" x="174" y="-276.4" font-family="Times,serif" font-size="14">Identifier (foo)</text><text text-anchor="middle" x="174" y="-259.6" font-family="Times,serif" font-size="14">IfStatement</text><text text-anchor="middle" x="174" y="-242.8" font-family="Times,serif" font-size="14">Identifier (b)</text></g><g class="edge"><path fill="none" stroke="#000" d="M174-379.736v26.278"/><path stroke="#000" d="m177.5-353.454-3.5 10-3.5-10h7z"/></g><g class="node"><path fill="#fff" stroke="#fff" d="M104.239-103.602H11.761l-12 12v17.204l12 12h92.478l12-12v-17.204l-12-12z"/><path fill="#fff" stroke="#fff" d="M11.761-103.602c-6 0-12 6-12 12M-.239-74.398c0 6 6 12 12 12M104.239-62.398c6 0 12-6 12-12M116.239-91.602c0-6-6-12-12-12"/><path fill="none" stroke="#000" d="M104.239-103.602H11.761M11.761-103.602c-6 0-12 6-12 12M-.239-91.602v17.204M-.239-74.398c0 6 6 12 12 12M11.761-62.398h92.478M104.239-62.398c6 0 12-6 12-12M116.239-74.398v-17.204M116.239-91.602c0-6-6-12-12-12"/><text text-anchor="middle" x="58" y="-87.2" font-family="Times,serif" font-size="14">ForStatement:exit</text><text text-anchor="middle" x="58" y="-70.4" font-family="Times,serif" font-size="14">Program:exit</text></g><g class="edge"><path fill="none" stroke="#000" d="M133.184-379.539C120.713-369.392 107.737-357.181 98-344c-41.888 56.703-47.94 76.919-62 146-5.141 25.26-4.797 32.672 0 58 1.704 8.999 4.822 18.404 8.185 26.88"/><path stroke="#000" d="m47.508-114.249.668 10.573-7.116-7.849 6.448-2.724z"/></g><g class="node"><path fill="#fff" stroke="#fff" d="M138.572-189.602H57.428l-12 12v17.204l12 12h81.144l12-12v-17.204l-12-12z"/><path fill="#fff" stroke="#fff" d="M57.428-189.602c-6 0-12 6-12 12M45.428-160.398c0 6 6 12 12 12M138.572-148.398c6 0 12-6 12-12M150.572-177.602c0-6-6-12-12-12"/><path fill="none" stroke="#000" d="M138.572-189.602H57.428M57.428-189.602c-6 0-12 6-12 12M45.428-177.602v17.204M45.428-160.398c0 6 6 12 12 12M57.428-148.398h81.144M138.572-148.398c6 0 12-6 12-12M150.572-160.398v-17.204M150.572-177.602c0-6-6-12-12-12"/><text text-anchor="middle" x="98" y="-173.2" font-family="Times,serif" font-size="14">BlockStatement</text><text text-anchor="middle" x="98" y="-156.4" font-family="Times,serif" font-size="14">BreakStatement</text></g><g class="edge"><path fill="none" stroke="#000" d="m139.558-234.524-23.304 36.182"/><path stroke="#000" d="m119.046-196.213-8.357 6.512 2.472-10.302 5.885 3.79z"/></g><g class="node"><path fill="#fff" stroke="#fff" d="M291.147-198.401H180.853l-12 12v34.802l12 12h110.294l12-12v-34.802l-12-12z"/><path fill="#fff" stroke="#fff" d="M180.853-198.401c-6 0-12 6-12 12M168.853-151.599c0 6 6 12 12 12M291.147-139.599c6 0 12-6 12-12M303.147-186.401c0-6-6-12-12-12"/><path fill="none" stroke="#000" d="M291.147-198.401H180.853M180.853-198.401c-6 0-12 6-12 12M168.853-186.401v34.802M168.853-151.599c0 6 6 12 12 12M180.853-139.599h110.294M291.147-139.599c6 0 12-6 12-12M303.147-151.599v-34.802M303.147-186.401c0-6-6-12-12-12"/><text text-anchor="middle" x="236" y="-181.6" font-family="Times,serif" font-size="14">ExpressionStatement</text><text text-anchor="middle" x="236" y="-164.8" font-family="Times,serif" font-size="14">CallExpression</text><text text-anchor="middle" x="236" y="-148" font-family="Times,serif" font-size="14">Identifier (bar)</text></g><g class="edge"><path fill="none" stroke="#000" d="m202.098-234.524 14.215 27.054"/><path stroke="#000" d="m219.498-208.932 1.553 10.48-7.75-7.224 6.197-3.256z"/></g><g class="edge"><path fill="none" stroke="#000" d="M88.52-148.093c-4.98 10.461-11.18 23.478-16.687 35.044"/><path stroke="#000" d="m74.87-111.288-7.459 7.524 1.14-10.533 6.32 3.009z"/></g><g class="node"><path fill="#fff" stroke="#fff" d="M329.977-103.602h-93.954l-12 12v17.204l12 12h93.954l12-12v-17.204l-12-12z"/><path fill="#fff" stroke="#fff" d="M236.023-103.602c-6 0-12 6-12 12M224.023-74.398c0 6 6 12 12 12M329.977-62.398c6 0 12-6 12-12M341.977-91.602c0-6-6-12-12-12"/><path fill="none" stroke="#000" d="M329.977-103.602h-93.954M236.023-103.602c-6 0-12 6-12 12M224.023-91.602v17.204M224.023-74.398c0 6 6 12 12 12M236.023-62.398h93.954M329.977-62.398c6 0 12-6 12-12M341.977-74.398v-17.204M341.977-91.602c0-6-6-12-12-12"/><text text-anchor="middle" x="283" y="-87.2" font-family="Times,serif" font-size="14">UpdateExpression</text><text text-anchor="middle" x="283" y="-70.4" font-family="Times,serif" font-size="14">Identifier (i)</text></g><g class="edge"><path fill="none" stroke="#000" d="m251.912-139.561 15.197 27.161"/><path stroke="#000" d="m270.167-114.104 1.828 10.436-7.937-7.018 6.109-3.418z"/></g><g class="edge"><path fill="none" stroke="#000" d="M296.225-103.814C302.324-114.132 308.891-127.235 312-140c6.1-25.046 5.141-32.74 0-58-14.06-69.081-20.112-89.297-62-146-7.683-10.4-17.383-20.197-27.26-28.853"/><path stroke="#000" d="m220.202-370.415-5.386-9.124 9.9 3.774-4.514 5.35z"/></g><g class="edge"><path fill="none" stroke="#000" d="M58-62.332v25.812"/><path stroke="#000" d="m61.5-36.349-3.5 10-3.5-10h7z"/></g></g></svg>