<svg width="142pt" height="312" viewBox="0 0 142 234" xmlns="http://www.w3.org/2000/svg"><g class="graph"><circle stroke="#000" cx="67" cy="-217" r="9" class="node" transform="translate(4 230)"/><g class="node"><path fill="#fff" stroke="#fff" d="M126.147 58.7H15.853l-12 12v84.6l12 12h110.294l12-12V70.7l-12-12z"/><path fill="#fff" stroke="#fff" d="M15.853 58.7c-6 0-12 6-12 12m0 84.6c0 6 6 12 12 12m110.294 0c6 0 12-6 12-12m0-84.6c0-6-6-12-12-12"/><path fill="none" stroke="#000" d="M126.147 58.7H15.853m0 0c-6 0-12 6-12 12m0 0v84.6m0 0c0 6 6 12 12 12m0 0h110.294m0 0c6 0 12-6 12-12m0 0V70.7m0 0c0-6-6-12-12-12"/><text text-anchor="middle" x="67" y="-154.8" font-family="Times,serif" font-size="14" transform="translate(4 230)">Program</text><text text-anchor="middle" x="67" y="-138" font-family="Times,serif" font-size="14" transform="translate(4 230)">FunctionDeclaration</text><text text-anchor="middle" x="67" y="-121.2" font-family="Times,serif" font-size="14" transform="translate(4 230)">ExpressionStatement</text><text text-anchor="middle" x="67" y="-104.4" font-family="Times,serif" font-size="14" transform="translate(4 230)">CallExpression</text><text text-anchor="middle" x="67" y="-87.6" font-family="Times,serif" font-size="14" transform="translate(4 230)">Identifier (foo)</text><text text-anchor="middle" x="67" y="-70.8" font-family="Times,serif" font-size="14" transform="translate(4 230)">Literal (false)</text></g><g class="edge" stroke="#000"><path fill="none" d="M71 22.02v26.167"/><path d="m74.5 48.414-3.5 10-3.5-10h7z"/></g><g class="node" stroke="#000" transform="translate(4 230)"><circle cx="67" cy="-13" r="9"/><circle fill="none" cx="67" cy="-13" r="13"/></g><g class="edge" stroke="#000"><path fill="none" d="M71 167.39v26.352"/><path d="m74.5 193.81-3.5 10-3.5-10h7z"/></g></g></svg>