<?xml version="1.0"?>
<svg width="337pt" height="690pt" viewBox="0.00 0.00 337.00 690.00" xmlns="http://www.w3.org/2000/svg" xmlns:xlink="http://www.w3.org/1999/xlink">
<g id="graph1" class="graph" transform="scale(1 1) rotate(0) translate(4 686)">
<title>_anonymous_0</title>

<g id="node1" class="node"><title>initial</title>
<ellipse fill="black" stroke="black" cx="121" cy="-673" rx="9" ry="9"></ellipse>
</g>

<g id="node3" class="node"><title>s1_1</title>
<polygon fill="white" stroke="white" points="164.156,-628 77.8443,-628 65.8443,-616 65.8443,-548 77.8443,-536 164.156,-536 176.156,-548 176.156,-616 164.156,-628"></polygon>
<path fill="white" stroke="white" d="M77.8443,-628C71.8443,-628 65.8443,-622 65.8443,-616"></path>
<path fill="white" stroke="white" d="M65.8443,-548C65.8443,-542 71.8443,-536 77.8443,-536"></path>
<path fill="white" stroke="white" d="M164.156,-536C170.156,-536 176.156,-542 176.156,-548"></path>
<path fill="white" stroke="white" d="M176.156,-616C176.156,-622 170.156,-628 164.156,-628"></path>
<polyline fill="none" stroke="black" points="164.156,-628 77.8443,-628 "></polyline>
<path fill="none" stroke="black" d="M77.8443,-628C71.8443,-628 65.8443,-622 65.8443,-616"></path>
<polyline fill="none" stroke="black" points="65.8443,-616 65.8443,-548 "></polyline>
<path fill="none" stroke="black" d="M65.8443,-548C65.8443,-542 71.8443,-536 77.8443,-536"></path>
<polyline fill="none" stroke="black" points="77.8443,-536 164.156,-536 "></polyline>
<path fill="none" stroke="black" d="M164.156,-536C170.156,-536 176.156,-542 176.156,-548"></path>
<polyline fill="none" stroke="black" points="176.156,-548 176.156,-616 "></polyline>
<path fill="none" stroke="black" d="M176.156,-616C176.156,-622 170.156,-628 164.156,-628"></path>
<text text-anchor="middle" x="121" y="-611.4" font-family="Times,serif" font-size="14.00">Program</text>
<text text-anchor="middle" x="121" y="-594.6" font-family="Times,serif" font-size="14.00">SwitchStatement</text>
<text text-anchor="middle" x="121" y="-577.8" font-family="Times,serif" font-size="14.00">Identifier (a)</text>
<text text-anchor="middle" x="121" y="-561" font-family="Times,serif" font-size="14.00">SwitchCase</text>
<text text-anchor="middle" x="121" y="-544.2" font-family="Times,serif" font-size="14.00">Literal (0)</text>
</g>

<g id="edge2" class="edge"><title>initial-&gt;s1_1</title>
<path fill="none" stroke="black" d="M121,-663.787C121,-657.525 121,-648.299 121,-638.297"></path>
<polygon fill="black" stroke="black" points="124.5,-638.119 121,-628.119 117.5,-638.119 124.5,-638.119"></polygon>
</g>

<g id="node2" class="node"><title>final</title>
<ellipse fill="black" stroke="black" cx="170" cy="-13" rx="9" ry="9"></ellipse>
<ellipse fill="none" stroke="black" cx="170" cy="-13" rx="13" ry="13"></ellipse>
</g>

<g id="node4" class="node"><title>s1_2</title>
<polygon fill="white" stroke="white" points="122.147,-421.7 11.8526,-421.7 -0.147372,-409.7 -0.147372,-358.3 11.8526,-346.3 122.147,-346.3 134.147,-358.3 134.147,-409.7 122.147,-421.7"></polygon>
<path fill="white" stroke="white" d="M11.8526,-421.7C5.85263,-421.7 -0.147372,-415.7 -0.147372,-409.7"></path>
<path fill="white" stroke="white" d="M-0.147372,-358.3C-0.147372,-352.3 5.85263,-346.3 11.8526,-346.3"></path>
<path fill="white" stroke="white" d="M122.147,-346.3C128.147,-346.3 134.147,-352.3 134.147,-358.3"></path>
<path fill="white" stroke="white" d="M134.147,-409.7C134.147,-415.7 128.147,-421.7 122.147,-421.7"></path>
<polyline fill="none" stroke="black" points="122.147,-421.7 11.8526,-421.7 "></polyline>
<path fill="none" stroke="black" d="M11.8526,-421.7C5.85263,-421.7 -0.147372,-415.7 -0.147372,-409.7"></path>
<polyline fill="none" stroke="black" points="-0.147372,-409.7 -0.147372,-358.3 "></polyline>
<path fill="none" stroke="black" d="M-0.147372,-358.3C-0.147372,-352.3 5.85263,-346.3 11.8526,-346.3"></path>
<polyline fill="none" stroke="black" points="11.8526,-346.3 122.147,-346.3 "></polyline>
<path fill="none" stroke="black" d="M122.147,-346.3C128.147,-346.3 134.147,-352.3 134.147,-358.3"></path>
<polyline fill="none" stroke="black" points="134.147,-358.3 134.147,-409.7 "></polyline>
<path fill="none" stroke="black" d="M134.147,-409.7C134.147,-415.7 128.147,-421.7 122.147,-421.7"></path>
<text text-anchor="middle" x="67" y="-405" font-family="Times,serif" font-size="14.00">ExpressionStatement</text>
<text text-anchor="middle" x="67" y="-388.2" font-family="Times,serif" font-size="14.00">CallExpression</text>
<text text-anchor="middle" x="67" y="-371.4" font-family="Times,serif" font-size="14.00">Identifier (foo)</text>
<text text-anchor="middle" x="67" y="-354.6" font-family="Times,serif" font-size="14.00">BreakStatement</text>
</g>

<g id="edge3" class="edge"><title>s1_1-&gt;s1_2</title>
<path fill="none" stroke="black" d="M108.476,-535.541C99.8727,-504.316 88.4862,-462.987 79.8204,-431.533"></path>
<polygon fill="black" stroke="black" points="83.14,-430.405 77.1095,-421.694 76.3914,-432.264 83.14,-430.405"></polygon>
</g>

<g id="node8" class="node"><title>s1_4</title>
<polygon fill="white" stroke="white" points="191.072,-499.602 132.928,-499.602 120.928,-487.602 120.928,-470.398 132.928,-458.398 191.072,-458.398 203.072,-470.398 203.072,-487.602 191.072,-499.602"></polygon>
<path fill="white" stroke="white" d="M132.928,-499.602C126.928,-499.602 120.928,-493.602 120.928,-487.602"></path>
<path fill="white" stroke="white" d="M120.928,-470.398C120.928,-464.398 126.928,-458.398 132.928,-458.398"></path>
<path fill="white" stroke="white" d="M191.072,-458.398C197.072,-458.398 203.072,-464.398 203.072,-470.398"></path>
<path fill="white" stroke="white" d="M203.072,-487.602C203.072,-493.602 197.072,-499.602 191.072,-499.602"></path>
<polyline fill="none" stroke="black" points="191.072,-499.602 132.928,-499.602 "></polyline>
<path fill="none" stroke="black" d="M132.928,-499.602C126.928,-499.602 120.928,-493.602 120.928,-487.602"></path>
<polyline fill="none" stroke="black" points="120.928,-487.602 120.928,-470.398 "></polyline>
<path fill="none" stroke="black" d="M120.928,-470.398C120.928,-464.398 126.928,-458.398 132.928,-458.398"></path>
<polyline fill="none" stroke="black" points="132.928,-458.398 191.072,-458.398 "></polyline>
<path fill="none" stroke="black" d="M191.072,-458.398C197.072,-458.398 203.072,-464.398 203.072,-470.398"></path>
<polyline fill="none" stroke="black" points="203.072,-470.398 203.072,-487.602 "></polyline>
<path fill="none" stroke="black" d="M203.072,-487.602C203.072,-493.602 197.072,-499.602 191.072,-499.602"></path>
<text text-anchor="middle" x="162" y="-483.2" font-family="Times,serif" font-size="14.00">SwitchCase</text>
<text text-anchor="middle" x="162" y="-466.4" font-family="Times,serif" font-size="14.00">Literal (1)</text>
</g>

<g id="edge7" class="edge"><title>s1_1-&gt;s1_4</title>
<path fill="none" stroke="black" d="M139.341,-535.817C143.019,-526.757 146.791,-517.466 150.176,-509.128"></path>
<polygon fill="black" stroke="black" points="153.424,-510.431 153.943,-499.849 146.938,-507.798 153.424,-510.431"></polygon>
</g>

<g id="node7" class="node"><title>s1_11</title>
<polygon fill="white" stroke="white" points="225.321,-103.602 114.679,-103.602 102.679,-91.6019 102.679,-74.3981 114.679,-62.3981 225.321,-62.3981 237.321,-74.3981 237.321,-91.6019 225.321,-103.602"></polygon>
<path fill="white" stroke="white" d="M114.679,-103.602C108.679,-103.602 102.679,-97.6019 102.679,-91.6019"></path>
<path fill="white" stroke="white" d="M102.679,-74.3981C102.679,-68.3981 108.679,-62.3981 114.679,-62.3981"></path>
<path fill="white" stroke="white" d="M225.321,-62.3981C231.321,-62.3981 237.321,-68.3981 237.321,-74.3981"></path>
<path fill="white" stroke="white" d="M237.321,-91.6019C237.321,-97.6019 231.321,-103.602 225.321,-103.602"></path>
<polyline fill="none" stroke="black" points="225.321,-103.602 114.679,-103.602 "></polyline>
<path fill="none" stroke="black" d="M114.679,-103.602C108.679,-103.602 102.679,-97.6019 102.679,-91.6019"></path>
<polyline fill="none" stroke="black" points="102.679,-91.6019 102.679,-74.3981 "></polyline>
<path fill="none" stroke="black" d="M102.679,-74.3981C102.679,-68.3981 108.679,-62.3981 114.679,-62.3981"></path>
<polyline fill="none" stroke="black" points="114.679,-62.3981 225.321,-62.3981 "></polyline>
<path fill="none" stroke="black" d="M225.321,-62.3981C231.321,-62.3981 237.321,-68.3981 237.321,-74.3981"></path>
<polyline fill="none" stroke="black" points="237.321,-74.3981 237.321,-91.6019 "></polyline>
<path fill="none" stroke="black" d="M237.321,-91.6019C237.321,-97.6019 231.321,-103.602 225.321,-103.602"></path>
<text text-anchor="middle" x="170" y="-87.2" font-family="Times,serif" font-size="14.00">SwitchStatement:exit</text>
<text text-anchor="middle" x="170" y="-70.4" font-family="Times,serif" font-size="14.00">Program:exit</text>
</g>

<g id="edge11" class="edge"><title>s1_2-&gt;s1_11</title>
<path fill="none" stroke="black" d="M62.3638,-346.027C57.9153,-295.816 56.5654,-204.896 94,-140 100.985,-127.891 111.753,-117.634 123.007,-109.339"></path>
<polygon fill="black" stroke="black" points="125.004,-112.213 131.24,-103.648 121.024,-106.455 125.004,-112.213"></polygon>
</g>

<g id="node5" class="node"><title>s1_7</title>
<polygon fill="white" stroke="white" points="217.147,-310.401 106.853,-310.401 94.8526,-298.401 94.8526,-263.599 106.853,-251.599 217.147,-251.599 229.147,-263.599 229.147,-298.401 217.147,-310.401"></polygon>
<path fill="white" stroke="white" d="M106.853,-310.401C100.853,-310.401 94.8526,-304.401 94.8526,-298.401"></path>
<path fill="white" stroke="white" d="M94.8526,-263.599C94.8526,-257.599 100.853,-251.599 106.853,-251.599"></path>
<path fill="white" stroke="white" d="M217.147,-251.599C223.147,-251.599 229.147,-257.599 229.147,-263.599"></path>
<path fill="white" stroke="white" d="M229.147,-298.401C229.147,-304.401 223.147,-310.401 217.147,-310.401"></path>
<polyline fill="none" stroke="black" points="217.147,-310.401 106.853,-310.401 "></polyline>
<path fill="none" stroke="black" d="M106.853,-310.401C100.853,-310.401 94.8526,-304.401 94.8526,-298.401"></path>
<polyline fill="none" stroke="black" points="94.8526,-298.401 94.8526,-263.599 "></polyline>
<path fill="none" stroke="black" d="M94.8526,-263.599C94.8526,-257.599 100.853,-251.599 106.853,-251.599"></path>
<polyline fill="none" stroke="black" points="106.853,-251.599 217.147,-251.599 "></polyline>
<path fill="none" stroke="black" d="M217.147,-251.599C223.147,-251.599 229.147,-257.599 229.147,-263.599"></path>
<polyline fill="none" stroke="black" points="229.147,-263.599 229.147,-298.401 "></polyline>
<path fill="none" stroke="black" d="M229.147,-298.401C229.147,-304.401 223.147,-310.401 217.147,-310.401"></path>
<text text-anchor="middle" x="162" y="-293.6" font-family="Times,serif" font-size="14.00">ExpressionStatement</text>
<text text-anchor="middle" x="162" y="-276.8" font-family="Times,serif" font-size="14.00">CallExpression</text>
<text text-anchor="middle" x="162" y="-260" font-family="Times,serif" font-size="14.00">Identifier (bar)</text>
</g>

<g id="node6" class="node"><title>s1_9</title>
<polygon fill="white" stroke="white" points="225.147,-215.7 114.853,-215.7 102.853,-203.7 102.853,-152.3 114.853,-140.3 225.147,-140.3 237.147,-152.3 237.147,-203.7 225.147,-215.7"></polygon>
<path fill="white" stroke="white" d="M114.853,-215.7C108.853,-215.7 102.853,-209.7 102.853,-203.7"></path>
<path fill="white" stroke="white" d="M102.853,-152.3C102.853,-146.3 108.853,-140.3 114.853,-140.3"></path>
<path fill="white" stroke="white" d="M225.147,-140.3C231.147,-140.3 237.147,-146.3 237.147,-152.3"></path>
<path fill="white" stroke="white" d="M237.147,-203.7C237.147,-209.7 231.147,-215.7 225.147,-215.7"></path>
<polyline fill="none" stroke="black" points="225.147,-215.7 114.853,-215.7 "></polyline>
<path fill="none" stroke="black" d="M114.853,-215.7C108.853,-215.7 102.853,-209.7 102.853,-203.7"></path>
<polyline fill="none" stroke="black" points="102.853,-203.7 102.853,-152.3 "></polyline>
<path fill="none" stroke="black" d="M102.853,-152.3C102.853,-146.3 108.853,-140.3 114.853,-140.3"></path>
<polyline fill="none" stroke="black" points="114.853,-140.3 225.147,-140.3 "></polyline>
<path fill="none" stroke="black" d="M225.147,-140.3C231.147,-140.3 237.147,-146.3 237.147,-152.3"></path>
<polyline fill="none" stroke="black" points="237.147,-152.3 237.147,-203.7 "></polyline>
<path fill="none" stroke="black" d="M237.147,-203.7C237.147,-209.7 231.147,-215.7 225.147,-215.7"></path>
<text text-anchor="middle" x="170" y="-199" font-family="Times,serif" font-size="14.00">ExpressionStatement</text>
<text text-anchor="middle" x="170" y="-182.2" font-family="Times,serif" font-size="14.00">CallExpression</text>
<text text-anchor="middle" x="170" y="-165.4" font-family="Times,serif" font-size="14.00">Identifier (hoge)</text>
<text text-anchor="middle" x="170" y="-148.6" font-family="Times,serif" font-size="14.00">BreakStatement</text>
</g>

<g id="edge5" class="edge"><title>s1_7-&gt;s1_9</title>
<path fill="none" stroke="black" d="M164.25,-251.597C164.881,-243.629 165.584,-234.747 166.277,-226.005"></path>
<polygon fill="black" stroke="black" points="169.779,-226.116 167.08,-215.871 162.801,-225.563 169.779,-226.116"></polygon>
</g>

<g id="edge13" class="edge"><title>s1_9-&gt;s1_11</title>
<path fill="none" stroke="black" d="M170,-140.244C170,-131.462 170,-122.195 170,-113.772"></path>
<polygon fill="black" stroke="black" points="173.5,-113.655 170,-103.655 166.5,-113.655 173.5,-113.655"></polygon>
</g>

<g id="edge21" class="edge"><title>s1_11-&gt;final</title>
<path fill="none" stroke="black" d="M170,-62.3316C170,-54.2587 170,-44.8663 170,-36.5198"></path>
<polygon fill="black" stroke="black" points="173.5,-36.3487 170,-26.3488 166.5,-36.3488 173.5,-36.3487"></polygon>
</g>

<g id="edge15" class="edge"><title>s1_4-&gt;s1_7</title>
<path fill="none" stroke="black" d="M162,-458.128C162,-425.987 162,-362.03 162,-320.674"></path>
<polygon fill="black" stroke="black" points="165.5,-320.424 162,-310.424 158.5,-320.424 165.5,-320.424"></polygon>
</g>

<g id="node9" class="node"><title>s1_6</title>
<polygon fill="white" stroke="white" points="260.072,-404.602 201.928,-404.602 189.928,-392.602 189.928,-375.398 201.928,-363.398 260.072,-363.398 272.072,-375.398 272.072,-392.602 260.072,-404.602"></polygon>
<path fill="white" stroke="white" d="M201.928,-404.602C195.928,-404.602 189.928,-398.602 189.928,-392.602"></path>
<path fill="white" stroke="white" d="M189.928,-375.398C189.928,-369.398 195.928,-363.398 201.928,-363.398"></path>
<path fill="white" stroke="white" d="M260.072,-363.398C266.072,-363.398 272.072,-369.398 272.072,-375.398"></path>
<path fill="white" stroke="white" d="M272.072,-392.602C272.072,-398.602 266.072,-404.602 260.072,-404.602"></path>
<polyline fill="none" stroke="black" points="260.072,-404.602 201.928,-404.602 "></polyline>
<path fill="none" stroke="black" d="M201.928,-404.602C195.928,-404.602 189.928,-398.602 189.928,-392.602"></path>
<polyline fill="none" stroke="black" points="189.928,-392.602 189.928,-375.398 "></polyline>
<path fill="none" stroke="black" d="M189.928,-375.398C189.928,-369.398 195.928,-363.398 201.928,-363.398"></path>
<polyline fill="none" stroke="black" points="201.928,-363.398 260.072,-363.398 "></polyline>
<path fill="none" stroke="black" d="M260.072,-363.398C266.072,-363.398 272.072,-369.398 272.072,-375.398"></path>
<polyline fill="none" stroke="black" points="272.072,-375.398 272.072,-392.602 "></polyline>
<path fill="none" stroke="black" d="M272.072,-392.602C272.072,-398.602 266.072,-404.602 260.072,-404.602"></path>
<text text-anchor="middle" x="231" y="-388.2" font-family="Times,serif" font-size="14.00">SwitchCase</text>
<text text-anchor="middle" x="231" y="-371.4" font-family="Times,serif" font-size="14.00">Literal (2)</text>
</g>

<g id="edge8" class="edge"><title>s1_4-&gt;s1_6</title>
<path fill="none" stroke="black" d="M176.633,-458.277C186.422,-445.084 199.447,-427.528 210.294,-412.908"></path>
<polygon fill="black" stroke="black" points="213.24,-414.811 216.388,-404.694 207.619,-410.64 213.24,-414.811"></polygon>
</g>

<g id="edge9" class="edge"><title>s1_6-&gt;s1_7</title>
<path fill="none" stroke="black" d="M217.368,-363.046C208.766,-350.455 197.392,-333.806 187.191,-318.874"></path>
<polygon fill="black" stroke="black" points="189.882,-316.608 181.351,-310.325 184.102,-320.557 189.882,-316.608"></polygon>
</g>

<g id="node10" class="node"><title>s1_8</title>
<polygon fill="white" stroke="white" points="317.072,-301.602 258.928,-301.602 246.928,-289.602 246.928,-272.398 258.928,-260.398 317.072,-260.398 329.072,-272.398 329.072,-289.602 317.072,-301.602"></polygon>
<path fill="white" stroke="white" d="M258.928,-301.602C252.928,-301.602 246.928,-295.602 246.928,-289.602"></path>
<path fill="white" stroke="white" d="M246.928,-272.398C246.928,-266.398 252.928,-260.398 258.928,-260.398"></path>
<path fill="white" stroke="white" d="M317.072,-260.398C323.072,-260.398 329.072,-266.398 329.072,-272.398"></path>
<path fill="white" stroke="white" d="M329.072,-289.602C329.072,-295.602 323.072,-301.602 317.072,-301.602"></path>
<polyline fill="none" stroke="black" points="317.072,-301.602 258.928,-301.602 "></polyline>
<path fill="none" stroke="black" d="M258.928,-301.602C252.928,-301.602 246.928,-295.602 246.928,-289.602"></path>
<polyline fill="none" stroke="black" points="246.928,-289.602 246.928,-272.398 "></polyline>
<path fill="none" stroke="black" d="M246.928,-272.398C246.928,-266.398 252.928,-260.398 258.928,-260.398"></path>
<polyline fill="none" stroke="black" points="258.928,-260.398 317.072,-260.398 "></polyline>
<path fill="none" stroke="black" d="M317.072,-260.398C323.072,-260.398 329.072,-266.398 329.072,-272.398"></path>
<polyline fill="none" stroke="black" points="329.072,-272.398 329.072,-289.602 "></polyline>
<path fill="none" stroke="black" d="M329.072,-289.602C329.072,-295.602 323.072,-301.602 317.072,-301.602"></path>
<text text-anchor="middle" x="288" y="-285.2" font-family="Times,serif" font-size="14.00">SwitchCase</text>
<text text-anchor="middle" x="288" y="-268.4" font-family="Times,serif" font-size="14.00">Literal (3)</text>
</g>

<g id="edge17" class="edge"><title>s1_6-&gt;s1_8</title>
<path fill="none" stroke="black" d="M242.261,-363.046C250.693,-348.106 262.349,-327.452 271.784,-310.734"></path>
<polygon fill="black" stroke="black" points="274.895,-312.342 276.762,-301.913 268.799,-308.902 274.895,-312.342"></polygon>
</g>

<g id="edge18" class="edge"><title>s1_8-&gt;s1_9</title>
<path fill="none" stroke="black" d="M264.968,-260.286C252.403,-249.531 236.318,-235.764 220.972,-222.628"></path>
<polygon fill="black" stroke="black" points="222.909,-219.68 213.036,-215.836 218.358,-224.998 222.909,-219.68"></polygon>
</g>

<g id="edge20" class="edge"><title>s1_8-&gt;s1_11</title>
<path fill="none" stroke="black" d="M286.047,-260.183C282.381,-231.387 272.302,-177.344 246,-140 237.722,-128.247 226.195,-117.974 214.617,-109.546"></path>
<polygon fill="black" stroke="black" points="216.439,-106.551 206.223,-103.741 212.457,-112.308 216.439,-106.551"></polygon>
</g>
</g>
</svg>