<svg xmlns="http://www.w3.org/2000/svg" width="500" height="500" viewBox="0 0 229.26 539.2"><g class="graph" transform="translate(4 535.2)"><title>%0</title><g class="node"><title>initial</title><circle cx="138.034" cy="-522.2" r="9" fill="#98a2b3" stroke="#98a2b3"/></g><g class="node"><title>s1_1</title><path fill="#fff" stroke="#e4e7ec" d="M209.497-477.2H66.57c-6 0-12 6-12 12v68c0 6 6 12 12 12h142.926c6 0 12-6 12-12v-68c0-6-6-12-12-12"/><text x="138.034" y="-460.6" font-family="Times,serif" font-size="14" text-anchor="middle">Program:enter</text><text x="138.034" y="-443.8" font-family="Times,serif" font-size="14" text-anchor="middle">IfStatement:enter</text><text x="138.034" y="-427" font-family="Times,serif" font-size="14" text-anchor="middle">CallExpression:enter</text><text x="138.034" y="-410.2" font-family="Times,serif" font-size="14" text-anchor="middle">Identifier (someCondition)</text><text x="138.034" y="-393.4" font-family="Times,serif" font-size="14" text-anchor="middle">CallExpression:exit</text></g><g class="edge"><title>initial-&gt;s1_1</title><path fill="none" stroke="#98a2b3" d="M138.034-513.142v25.519"/><path fill="#98a2b3" stroke="#98a2b3" d="m141.534-487.529-3.5 10-3.5-10z"/></g><g class="node"><title>final</title><circle cx="138.034" cy="-13" r="9" fill="#98a2b3" stroke="#98a2b3"/><circle cx="138.034" cy="-13" r="13" fill="none" stroke="#98a2b3"/></g><g class="node"><title>s1_2</title><path fill="#fff" stroke="#e4e7ec" d="M154.101-349H11.966c-6 0-12 6-12 12v101.2c0 6 6 12 12 12h142.135c6 0 12-6 12-12V-337c0-6-6-12-12-12"/><text x="83.034" y="-332.6" font-family="Times,serif" font-size="14" text-anchor="middle">BlockStatement:enter</text><text x="83.034" y="-315.8" font-family="Times,serif" font-size="14" text-anchor="middle">ExpressionStatement:enter</text><text x="83.034" y="-299" font-family="Times,serif" font-size="14" text-anchor="middle">CallExpression:enter</text><text x="83.034" y="-282.2" font-family="Times,serif" font-size="14" text-anchor="middle">Identifier (foo)</text><text x="83.034" y="-265.4" font-family="Times,serif" font-size="14" text-anchor="middle">CallExpression:exit</text><text x="83.034" y="-248.6" font-family="Times,serif" font-size="14" text-anchor="middle">ExpressionStatement:exit</text><text x="83.034" y="-231.8" font-family="Times,serif" font-size="14" text-anchor="middle">BlockStatement:exit</text></g><g class="edge"><title>s1_1-&gt;s1_2</title><path fill="none" stroke="#98a2b3" d="m120.48-384.986-10.077 26.531"/><path fill="#98a2b3" stroke="#98a2b3" d="m113.664-357.183-6.823 8.106.279-10.592z"/></g><g class="node"><title>s1_3</title><path fill="#fff" stroke="#e4e7ec" d="M209.101-187.4H66.966c-6 0-12 6-12 12v101.2c0 6 6 12 12 12h142.135c6 0 12-6 12-12v-101.2c0-6-6-12-12-12"/><text x="138.034" y="-171" font-family="Times,serif" font-size="14" text-anchor="middle">IfStatement:exit</text><text x="138.034" y="-154.2" font-family="Times,serif" font-size="14" text-anchor="middle">ExpressionStatement:enter</text><text x="138.034" y="-137.4" font-family="Times,serif" font-size="14" text-anchor="middle">CallExpression:enter</text><text x="138.034" y="-120.6" font-family="Times,serif" font-size="14" text-anchor="middle">Identifier (bar)</text><text x="138.034" y="-103.8" font-family="Times,serif" font-size="14" text-anchor="middle">CallExpression:exit</text><text x="138.034" y="-87" font-family="Times,serif" font-size="14" text-anchor="middle">ExpressionStatement:exit</text><text x="138.034" y="-70.2" font-family="Times,serif" font-size="14" text-anchor="middle">Program:exit</text></g><g class="edge"><title>s1_2-&gt;s1_3</title><path fill="none" stroke="#98a2b3" d="m104.456-223.458 8.987 26.406"/><path fill="#98a2b3" stroke="#98a2b3" d="m116.762-198.164-.092 10.594-6.535-8.339z"/></g><g class="edge"><title>s1_1-&gt;s1_3</title><path fill="none" stroke="#98a2b3" d="M162.916-385.106c5.005 11.417 9.522 23.844 12.118 35.906 11.742 54.573 9.948 70.671 0 125.6-1.565 8.643-3.843 17.514-6.51 26.225"/><path fill="#98a2b3" stroke="#98a2b3" d="m171.778-196.061-6.414 8.433-.245-10.592z"/></g><g class="edge"><title>s1_3-&gt;final</title><path fill="none" stroke="#98a2b3" d="M138.034-62.037v25.567"/><path fill="#98a2b3" stroke="#98a2b3" d="m141.534-36.298-3.5 10-3.5-10z"/></g></g></svg>