<svg width="316" height="652pt" viewBox="0 0 237 652" xmlns="http://www.w3.org/2000/svg"><g class="graph" transform="translate(4 648)"><g class="node"><circle stroke="#000" cx="114" cy="-635" r="9"/></g><g class="node"><path fill="#fff" stroke="#fff" d="M169.147-589.3H58.853l-12 12v84.6l12 12h110.294l12-12v-84.6l-12-12z"/><path fill="#fff" stroke="#fff" d="M58.853-589.3c-6 0-12 6-12 12M46.853-492.7c0 6 6 12 12 12M169.147-480.7c6 0 12-6 12-12M181.147-577.3c0-6-6-12-12-12"/><path fill="none" stroke="#000" d="M169.147-589.3H58.853M58.853-589.3c-6 0-12 6-12 12M46.853-577.3v84.6M46.853-492.7c0 6 6 12 12 12M58.853-480.7h110.294M169.147-480.7c6 0 12-6 12-12M181.147-492.7v-84.6M181.147-577.3c0-6-6-12-12-12"/><text text-anchor="middle" x="114" y="-572.8" font-family="Times,serif" font-size="14">Program</text><text text-anchor="middle" x="114" y="-556" font-family="Times,serif" font-size="14">TryStatement</text><text text-anchor="middle" x="114" y="-539.2" font-family="Times,serif" font-size="14">BlockStatement</text><text text-anchor="middle" x="114" y="-522.4" font-family="Times,serif" font-size="14">ExpressionStatement</text><text text-anchor="middle" x="114" y="-505.6" font-family="Times,serif" font-size="14">CallExpression</text><text text-anchor="middle" x="114" y="-488.8" font-family="Times,serif" font-size="14">Identifier (foo)</text></g><g class="edge"><path fill="none" stroke="#000" d="M114-625.98v26.167"/><path stroke="#000" d="m117.5-599.586-3.5 10-3.5-10h7z"/></g><g class="node"><circle stroke="#000" cx="114" cy="-13" r="9"/><circle fill="none" stroke="#000" cx="114" cy="-13" r="13"/></g><g class="node"><path fill="#fff" stroke="#fff" d="M217.147-444.401H106.853l-12 12v34.802l12 12h110.294l12-12v-34.802l-12-12z"/><path fill="#fff" stroke="#fff" d="M106.853-444.401c-6 0-12 6-12 12M94.853-397.599c0 6 6 12 12 12M217.147-385.599c6 0 12-6 12-12M229.147-432.401c0-6-6-12-12-12"/><path fill="none" stroke="#000" d="M217.147-444.401H106.853M106.853-444.401c-6 0-12 6-12 12M94.853-432.401v34.802M94.853-397.599c0 6 6 12 12 12M106.853-385.599h110.294M217.147-385.599c6 0 12-6 12-12M229.147-397.599v-34.802M229.147-432.401c0-6-6-12-12-12"/><text text-anchor="middle" x="162" y="-427.6" font-family="Times,serif" font-size="14">ExpressionStatement</text><text text-anchor="middle" x="162" y="-410.8" font-family="Times,serif" font-size="14">CallExpression</text><text text-anchor="middle" x="162" y="-394" font-family="Times,serif" font-size="14">Identifier (bar)</text></g><g class="edge"><path fill="none" stroke="#000" d="m135.753-480.524 10.893 26.78"/><path stroke="#000" d="m149.9-455.033.526 10.581-7.01-7.944 6.484-2.637z"/></g><g class="node"><path fill="#fff" stroke="#fff" d="M122.147-349.601H11.853l-12 12v101.202l12 12h110.294l12-12v-101.202l-12-12z"/><path fill="#fff" stroke="#fff" d="M11.853-349.601c-6 0-12 6-12 12M-.147-236.399c0 6 6 12 12 12M122.147-224.399c6 0 12-6 12-12M134.147-337.601c0-6-6-12-12-12"/><path fill="none" stroke="#000" d="M122.147-349.601H11.853M11.853-349.601c-6 0-12 6-12 12M-.147-337.601v101.202M-.147-236.399c0 6 6 12 12 12M11.853-224.399h110.294M122.147-224.399c6 0 12-6 12-12M134.147-236.399v-101.202M134.147-337.601c0-6-6-12-12-12"/><text text-anchor="middle" x="67" y="-333.2" font-family="Times,serif" font-size="14">CatchClause</text><text text-anchor="middle" x="67" y="-316.4" font-family="Times,serif" font-size="14">Identifier (err)</text><text text-anchor="middle" x="67" y="-299.6" font-family="Times,serif" font-size="14">BlockStatement</text><text text-anchor="middle" x="67" y="-282.8" font-family="Times,serif" font-size="14">ExpressionStatement</text><text text-anchor="middle" x="67" y="-266" font-family="Times,serif" font-size="14">CallExpression</text><text text-anchor="middle" x="67" y="-249.2" font-family="Times,serif" font-size="14">Identifier (hoge)</text><text text-anchor="middle" x="67" y="-232.4" font-family="Times,serif" font-size="14">Identifier (err)</text></g><g class="edge"><path fill="none" stroke="#000" d="M95.664-480.644C92.044-468.693 88.575-456 86-444c-5.838 27.202-10.04 57.486-12.983 84.079"/><path stroke="#000" d="m76.492-359.495-4.541 9.572-2.42-10.315 6.961.743z"/></g><g class="edge"><path fill="none" stroke="#000" d="m140.68-385.723-20.949 27.784"/><path stroke="#000" d="m122.308-355.543-8.815 5.878 3.226-10.092 5.589 4.214z"/></g><g class="node"><path fill="#fff" stroke="#fff" d="M169.147-187.601H58.853l-12 12v101.202l12 12h110.294l12-12v-101.202l-12-12z"/><path fill="#fff" stroke="#fff" d="M58.853-187.601c-6 0-12 6-12 12M46.853-74.4c0 6 6 12 12 12M169.147-62.4c6 0 12-6 12-12M181.147-175.601c0-6-6-12-12-12"/><path fill="none" stroke="#000" d="M169.147-187.601H58.853M58.853-187.601c-6 0-12 6-12 12M46.853-175.601v101.202M46.853-74.4c0 6 6 12 12 12M58.853-62.4h110.294M169.147-62.4c6 0 12-6 12-12M181.147-74.4V-175.6M181.147-175.601c0-6-6-12-12-12"/><text text-anchor="middle" x="114" y="-171.2" font-family="Times,serif" font-size="14">BlockStatement</text><text text-anchor="middle" x="114" y="-154.4" font-family="Times,serif" font-size="14">ExpressionStatement</text><text text-anchor="middle" x="114" y="-137.6" font-family="Times,serif" font-size="14">CallExpression</text><text text-anchor="middle" x="114" y="-120.8" font-family="Times,serif" font-size="14">Identifier (fuga)</text><text text-anchor="middle" x="114" y="-104" font-family="Times,serif" font-size="14">ExpressionStatement</text><text text-anchor="middle" x="114" y="-87.2" font-family="Times,serif" font-size="14">CallExpression</text><text text-anchor="middle" x="114" y="-70.4" font-family="Times,serif" font-size="14">Identifier (last)</text></g><g class="edge"><path fill="none" stroke="#000" d="M160.835-385.75c-1.917 37.325-6.7 104.984-17.835 161.75-1.687 8.602-3.804 17.534-6.12 26.349"/><path stroke="#000" d="m140.195-196.504-6.004 8.73-.75-10.568 6.754 1.838z"/></g><g class="edge"><path fill="none" stroke="#000" d="m85.171-224.14 7.878 26.818"/><path stroke="#000" d="m96.416-198.277-.54 10.581-6.176-8.608 6.716-1.973z"/></g><g class="edge"><path fill="none" stroke="#000" d="M114-62.248v25.814"/><path stroke="#000" d="m117.5-36.295-3.5 10-3.5-10h7z"/></g></g></svg>