<svg xmlns="http://www.w3.org/2000/svg" width="292" height="550pt" viewBox="0 0 219.31 549.6"><g class="graph"><circle cx="67.1" cy="-532.6" r="9" stroke="#000" class="node" data-name="initial" pointer-events="visible" transform="translate(4 543.872)"/><g class="node" data-name="s2_1" pointer-events="visible"><path fill="#fff" stroke="#000" d="M126.3 56.472H15.9c-6 0-12 6-12 12v101.2c0 6 6 12 12 12h110.4c6 0 12-6 12-12v-101.2c0-6-6-12-12-12"/><text x="67.1" y="-471" font-family="Times,serif" font-size="14" text-anchor="middle" transform="translate(4 543.872)">FunctionDeclaration</text><text x="67.1" y="-454.2" font-family="Times,serif" font-size="14" text-anchor="middle" transform="translate(4 543.872)">Identifier (generator)</text><text x="67.1" y="-437.4" font-family="Times,serif" font-size="14" text-anchor="middle" transform="translate(4 543.872)">Identifier (flag)</text><text x="67.1" y="-420.6" font-family="Times,serif" font-size="14" text-anchor="middle" transform="translate(4 543.872)">BlockStatement</text><text x="67.1" y="-403.8" font-family="Times,serif" font-size="14" text-anchor="middle" transform="translate(4 543.872)">ExpressionStatement</text><text x="67.1" y="-387" font-family="Times,serif" font-size="14" text-anchor="middle" transform="translate(4 543.872)">YieldExpression</text><text x="67.1" y="-370.2" font-family="Times,serif" font-size="14" text-anchor="middle" transform="translate(4 543.872)">Literal (1)</text></g><g stroke="#000" class="edge" data-name="initial-&gt;s2_1"><path fill="none" d="M71.1 20.572v24.16"/><path d="m74.6 44.492-3.5 10-3.5-10z"/></g><g stroke="#000" class="node" data-name="final" pointer-events="visible" transform="translate(4 543.872)"><circle cx="75.1" cy="-13" r="9"/><circle cx="75.1" cy="-13" r="13" fill="none"/></g><g class="node" data-name="thrown" pointer-events="visible" transform="translate(4 543.872)"><circle cx="67.1" cy="-305.2" r="11" fill="#fff" stroke="#000"/><text x="67.1" y="-301" font-family="Times,serif" font-size="14" text-anchor="middle">✘</text></g><g stroke="#000" class="edge" data-name="s2_1-&gt;final"><path fill="none" d="M56.45 182.132c-2.22 11.8-4.17 24.1-5.35 35.74-11.81 116.74-30.62 150.73 0 264 2.79 10.33 8.42 20.72 13.9 29.17"/><path d="m67.72 508.822 2.83 10.21-8.58-6.21z"/></g><g stroke="#000" class="edge" data-name="s2_1-&gt;thrown"><path fill="none" d="M71.1 181.972v34.22"/><path d="m74.6 216.002-3.5 10-3.5-10z"/></g><g class="node" data-name="s2_2" pointer-events="visible"><path fill="#fff" stroke="#000" d="M190.27 218.072h-78.34c-6 0-12 6-12 12v17.2c0 6 6 12 12 12h78.34c6 0 12-6 12-12v-17.2c0-6-6-12-12-12"/><text x="147.1" y="-309.4" font-family="Times,serif" font-size="14" text-anchor="middle" transform="translate(4 543.872)">IfStatement</text><text x="147.1" y="-292.6" font-family="Times,serif" font-size="14" text-anchor="middle" transform="translate(4 543.872)">Identifier (flag)</text></g><g stroke="#000" class="edge" data-name="s2_1-&gt;s2_2"><path fill="none" d="M113.21 181.972c6.26 9.2 12.45 18.31 17.96 26.41"/><path d="m133.93 206.202 2.73 10.24-8.52-6.3z"/></g><g class="node" data-name="s2_3" pointer-events="visible"><path fill="#fff" stroke="#000" d="M182.3 295.472H71.9c-6 0-12 6-12 12v68c0 6 6 12 12 12h110.4c6 0 12-6 12-12v-68c0-6-6-12-12-12"/><text x="123.1" y="-231.8" font-family="Times,serif" font-size="14" text-anchor="middle" transform="translate(4 543.872)">BlockStatement</text><text x="123.1" y="-215" font-family="Times,serif" font-size="14" text-anchor="middle" transform="translate(4 543.872)">ExpressionStatement</text><text x="123.1" y="-198.2" font-family="Times,serif" font-size="14" text-anchor="middle" transform="translate(4 543.872)">CallExpression</text><text x="123.1" y="-181.4" font-family="Times,serif" font-size="14" text-anchor="middle" transform="translate(4 543.872)">Identifier (foo)</text><text x="123.1" y="-164.6" font-family="Times,serif" font-size="14" text-anchor="middle" transform="translate(4 543.872)">CallExpression</text></g><g stroke="#000" class="edge" data-name="s2_2-&gt;s2_3"><path fill="none" d="M146.36 259.582c-1.71 7.19-3.74 15.69-5.82 24.44"/><path d="m143.96 284.762-5.72 8.92-1.09-10.54z"/></g><g class="node" data-name="s2_4" pointer-events="visible"><path fill="#fff" stroke="#000" d="M182.3 423.272H71.9c-6 0-12 6-12 12v34.8c0 6 6 12 12 12h110.4c6 0 12-6 12-12v-34.8c0-6-6-12-12-12"/><text x="123.1" y="-103.8" font-family="Times,serif" font-size="14" text-anchor="middle" transform="translate(4 543.872)">ExpressionStatement</text><text x="123.1" y="-87" font-family="Times,serif" font-size="14" text-anchor="middle" transform="translate(4 543.872)">CallExpression</text><text x="123.1" y="-70.2" font-family="Times,serif" font-size="14" text-anchor="middle" transform="translate(4 543.872)">Identifier (bar)</text></g><g stroke="#000" class="edge" data-name="s2_2-&gt;s2_4"><path fill="none" d="M176.79 259.672c10.24 9.59 20.88 22 26.31 35.8 14.98 38.05 17.22 54.91 0 92-4.8 10.34-12.18 19.61-20.48 27.69"/><path d="m184.97 417.752-9.78 4.06 5.11-9.28z"/></g><g stroke="#000" class="edge" data-name="s2_3-&gt;s2_4"><path fill="none" d="M127.1 387.832v23.7"/><path d="m130.6 411.312-3.5 10-3.5-10z"/></g><g stroke="#000" class="edge" data-name="s2_4-&gt;final"><path fill="none" d="M108.95 482.482c-5.75 9.13-11.97 19.01-17.24 27.38"/><path d="m94.75 511.602-8.3 6.6 2.37-10.33z"/></g></g></svg>