<svg width="238pt" height="478pt" viewBox="0 0 238 478" xmlns="http://www.w3.org/2000/svg"><g class="graph" transform="translate(4 474)"><g class="node"><circle stroke="#000" cx="164" cy="-461" r="9"/></g><g class="node"><path fill="#fff" stroke="#fff" d="M212.228-415.7h-96.456l-12 12v51.4l12 12h96.456l12-12v-51.4l-12-12z"/><path fill="#fff" stroke="#fff" d="M115.772-415.7c-6 0-12 6-12 12M103.772-352.3c0 6 6 12 12 12M212.228-340.3c6 0 12-6 12-12M224.228-403.7c0-6-6-12-12-12"/><path fill="none" stroke="#000" d="M212.228-415.7h-96.456M115.772-415.7c-6 0-12 6-12 12M103.772-403.7v51.4M103.772-352.3c0 6 6 12 12 12M115.772-340.3h96.456M212.228-340.3c6 0 12-6 12-12M224.228-352.3v-51.4M224.228-403.7c0-6-6-12-12-12"/><text text-anchor="middle" x="164" y="-399" font-family="Times,serif" font-size="14">Program</text><text text-anchor="middle" x="164" y="-382.2" font-family="Times,serif" font-size="14">IfStatement</text><text text-anchor="middle" x="164" y="-365.4" font-family="Times,serif" font-size="14">LogicalExpression</text><text text-anchor="middle" x="164" y="-348.6" font-family="Times,serif" font-size="14">Identifier (a)</text></g><g class="edge"><path fill="none" stroke="#000" d="M164-451.937v26.089"/><path stroke="#000" d="m167.5-425.66-3.5 10-3.5-10h7z"/></g><g class="node"><circle stroke="#000" cx="162" cy="-13" r="9"/><circle fill="none" stroke="#000" cx="162" cy="-13" r="13"/></g><g class="node"><path fill="#fff" stroke="#fff" d="M159.429-304H96.571l-12 12v12l12 12h62.858l12-12v-12l-12-12z"/><path fill="#fff" stroke="#fff" d="M96.571-304c-6 0-12 6-12 12M84.571-280c0 6 6 12 12 12M159.429-268c6 0 12-6 12-12M171.429-292c0-6-6-12-12-12"/><path fill="none" stroke="#000" d="M159.429-304H96.571M96.571-304c-6 0-12 6-12 12M84.571-292v12M84.571-280c0 6 6 12 12 12M96.571-268h62.858M159.429-268c6 0 12-6 12-12M171.429-280v-12M171.429-292c0-6-6-12-12-12"/><text text-anchor="middle" x="128" y="-281.8" font-family="Times,serif" font-size="14">Identifier (b)</text></g><g class="edge"><path fill="none" stroke="#000" d="m149.357-340.394-10.592 26.482"/><path stroke="#000" d="m141.905-312.338-6.964 7.985.464-10.585 6.5 2.6z"/></g><g class="node"><path fill="#fff" stroke="#fff" d="M217.147-120.401H106.853l-12 12v34.802l12 12h110.294l12-12V-108.4l-12-12z"/><path fill="#fff" stroke="#fff" d="M106.853-120.401c-6 0-12 6-12 12M94.853-73.599c0 6 6 12 12 12M217.147-61.599c6 0 12-6 12-12M229.147-108.401c0-6-6-12-12-12"/><path fill="none" stroke="#000" d="M217.147-120.401H106.853M106.853-120.401c-6 0-12 6-12 12M94.853-108.401v34.802M94.853-73.599c0 6 6 12 12 12M106.853-61.599h110.294M217.147-61.599c6 0 12-6 12-12M229.147-73.599V-108.4M229.147-108.401c0-6-6-12-12-12"/><text text-anchor="middle" x="162" y="-103.6" font-family="Times,serif" font-size="14">ExpressionStatement</text><text text-anchor="middle" x="162" y="-86.8" font-family="Times,serif" font-size="14">CallExpression</text><text text-anchor="middle" x="162" y="-70" font-family="Times,serif" font-size="14">Identifier (bar)</text></g><g class="edge"><path fill="none" stroke="#000" d="M173.704-340.118c2.583 11.485 5.011 24.251 6.296 36.118 6.559 60.558-2.801 131.065-10.293 173.575"/><path stroke="#000" d="m173.135-129.714-5.233 9.213-1.654-10.465 6.887 1.252z"/></g><g class="node"><path fill="#fff" stroke="#fff" d="M122.147-231.7H11.853l-12 12v51.4l12 12h110.294l12-12v-51.4l-12-12z"/><path fill="#fff" stroke="#fff" d="M11.853-231.7c-6 0-12 6-12 12M-.147-168.3c0 6 6 12 12 12M122.147-156.3c6 0 12-6 12-12M134.147-219.7c0-6-6-12-12-12"/><path fill="none" stroke="#000" d="M122.147-231.7H11.853M11.853-231.7c-6 0-12 6-12 12M-.147-219.7v51.4M-.147-168.3c0 6 6 12 12 12M11.853-156.3h110.294M122.147-156.3c6 0 12-6 12-12M134.147-168.3v-51.4M134.147-219.7c0-6-6-12-12-12"/><text text-anchor="middle" x="67" y="-215" font-family="Times,serif" font-size="14">BlockStatement</text><text text-anchor="middle" x="67" y="-198.2" font-family="Times,serif" font-size="14">ExpressionStatement</text><text text-anchor="middle" x="67" y="-181.4" font-family="Times,serif" font-size="14">CallExpression</text><text text-anchor="middle" x="67" y="-164.6" font-family="Times,serif" font-size="14">Identifier (foo)</text></g><g class="edge"><path fill="none" stroke="#000" d="m116.239-267.647-18.593 27.431"/><path stroke="#000" d="m100.363-237.985-8.508 6.314 2.713-10.242 5.795 3.928z"/></g><g class="edge"><path fill="none" stroke="#000" d="M133.482-267.966c3.155 10.318 6.983 23.796 9.518 35.966 7.074 33.962 12.131 73.129 15.24 101.384"/><path stroke="#000" d="m161.754-130.67-2.417 10.315-4.543-9.571 6.96-.744z"/></g><g class="edge"><path fill="none" stroke="#000" d="m101.566-156.251 26.698 28.384"/><path stroke="#000" d="m131.053-130.01 4.302 9.682-9.401-4.886 5.099-4.796z"/></g><g class="edge"><path fill="none" stroke="#000" d="M162-61.7v25.642"/><path stroke="#000" d="m165.5-36.027-3.5 10-3.5-10h7z"/></g></g></svg>