<svg width="332pt" height="472pt" viewBox="0 0 332 472" xmlns="http://www.w3.org/2000/svg"><g class="graph" transform="translate(4 468)"><g class="node"><circle stroke="#000" cx="162" cy="-455" r="9"/></g><g class="node"><path fill="#fff" stroke="#fff" d="M214.617-409.3H109.383l-12 12v84.6l12 12h105.234l12-12v-84.6l-12-12z"/><path fill="#fff" stroke="#fff" d="M109.383-409.3c-6 0-12 6-12 12M97.383-312.7c0 6 6 12 12 12M214.617-300.7c6 0 12-6 12-12M226.617-397.3c0-6-6-12-12-12"/><path fill="none" stroke="#000" d="M214.617-409.3H109.383M109.383-409.3c-6 0-12 6-12 12M97.383-397.3v84.6M97.383-312.7c0 6 6 12 12 12M109.383-300.7h105.234M214.617-300.7c6 0 12-6 12-12M226.617-312.7v-84.6M226.617-397.3c0-6-6-12-12-12"/><text text-anchor="middle" x="162" y="-392.8" font-family="Times,serif" font-size="14">Program</text><text text-anchor="middle" x="162" y="-376" font-family="Times,serif" font-size="14">ForStatement</text><text text-anchor="middle" x="162" y="-359.2" font-family="Times,serif" font-size="14">VariableDeclaration</text><text text-anchor="middle" x="162" y="-342.4" font-family="Times,serif" font-size="14">VariableDeclarator</text><text text-anchor="middle" x="162" y="-325.6" font-family="Times,serif" font-size="14">Identifier (i)</text><text text-anchor="middle" x="162" y="-308.8" font-family="Times,serif" font-size="14">Literal (0)</text></g><g class="edge"><path fill="none" stroke="#000" d="M162-445.98v26.167"/><path stroke="#000" d="m165.5-419.586-3.5 10-3.5-10h7z"/></g><g class="node"><circle stroke="#000" cx="257" cy="-21" r="9"/><circle fill="none" stroke="#000" cx="257" cy="-21" r="13"/></g><g class="node"><path fill="#fff" stroke="#fff" d="M208.233-264.401h-92.466l-12 12v34.802l12 12h92.466l12-12v-34.802l-12-12zM115.767-264.401c-6 0-12 6-12 12M103.767-217.599c0 6 6 12 12 12M208.233-205.599c6 0 12-6 12-12"/><path fill="#fff" stroke="#fff" d="M220.233-252.401c0-6-6-12-12-12"/><path fill="none" stroke="#000" d="M208.233-264.401h-92.466M115.767-264.401c-6 0-12 6-12 12M103.767-252.401v34.802M103.767-217.599c0 6 6 12 12 12M115.767-205.599h92.466M208.233-205.599c6 0 12-6 12-12M220.233-217.599v-34.802M220.233-252.401c0-6-6-12-12-12"/><text text-anchor="middle" x="162" y="-247.6" font-family="Times,serif" font-size="14">BinaryExpression</text><text text-anchor="middle" x="162" y="-230.8" font-family="Times,serif" font-size="14">Identifier (i)</text><text text-anchor="middle" x="162" y="-214" font-family="Times,serif" font-size="14">Literal (10)</text></g><g class="edge"><path fill="none" stroke="#000" d="M162-300.524v25.952"/><path stroke="#000" d="m165.5-274.452-3.5 10-3.5-10h7z"/></g><g class="node"><path fill="#fff" stroke="#fff" d="M122.147-170H11.853l-12 12v68l12 12h110.294l12-12v-68l-12-12z"/><path fill="#fff" stroke="#fff" d="M11.853-170c-6 0-12 6-12 12M-.147-90c0 6 6 12 12 12M122.147-78c6 0 12-6 12-12M134.147-158c0-6-6-12-12-12"/><path fill="none" stroke="#000" d="M122.147-170H11.853M11.853-170c-6 0-12 6-12 12M-.147-158v68M-.147-90c0 6 6 12 12 12M11.853-78h110.294M122.147-78c6 0 12-6 12-12M134.147-90v-68M134.147-158c0-6-6-12-12-12"/><text text-anchor="middle" x="67" y="-153.4" font-family="Times,serif" font-size="14">BlockStatement</text><text text-anchor="middle" x="67" y="-136.6" font-family="Times,serif" font-size="14">ExpressionStatement</text><text text-anchor="middle" x="67" y="-119.8" font-family="Times,serif" font-size="14">CallExpression</text><text text-anchor="middle" x="67" y="-103" font-family="Times,serif" font-size="14">Identifier (foo)</text><text text-anchor="middle" x="67" y="-86.2" font-family="Times,serif" font-size="14">Identifier (i)</text></g><g class="edge"><path fill="none" stroke="#000" d="M137.288-205.646 113-177.779"/><path stroke="#000" d="m115.52-175.343-9.209 5.239 3.932-9.838 5.277 4.599z"/></g><g class="node"><path fill="#fff" stroke="#fff" d="M312.147-153.401H201.853l-12 12v34.802l12 12h110.294l12-12v-34.802l-12-12z"/><path fill="#fff" stroke="#fff" d="M201.853-153.401c-6 0-12 6-12 12M189.853-106.599c0 6 6 12 12 12M312.147-94.599c6 0 12-6 12-12M324.147-141.401c0-6-6-12-12-12"/><path fill="none" stroke="#000" d="M312.147-153.401H201.853M201.853-153.401c-6 0-12 6-12 12M189.853-141.401v34.802M189.853-106.599c0 6 6 12 12 12M201.853-94.599h110.294M312.147-94.599c6 0 12-6 12-12M324.147-106.599v-34.802M324.147-141.401c0-6-6-12-12-12"/><text text-anchor="middle" x="257" y="-136.6" font-family="Times,serif" font-size="14">ExpressionStatement</text><text text-anchor="middle" x="257" y="-119.8" font-family="Times,serif" font-size="14">CallExpression</text><text text-anchor="middle" x="257" y="-103" font-family="Times,serif" font-size="14">Identifier (bar)</text></g><g class="edge"><path fill="none" stroke="#000" d="m186.712-205.646 38.881 44.611"/><path stroke="#000" d="m228.48-163.05 3.932 9.838-9.209-5.239 5.277-4.599z"/></g><g class="node"><path fill="#fff" stroke="#fff" d="M160.977-41.602H67.023l-12 12v17.204l12 12h93.954l12-12v-17.204l-12-12z"/><path fill="#fff" stroke="#fff" d="M67.023-41.602c-6 0-12 6-12 12M55.023-12.398c0 6 6 12 12 12M160.977-.398c6 0 12-6 12-12M172.977-29.602c0-6-6-12-12-12"/><path fill="none" stroke="#000" d="M160.977-41.602H67.023M67.023-41.602c-6 0-12 6-12 12M55.023-29.602v17.204M55.023-12.398c0 6 6 12 12 12M67.023-.398h93.954M160.977-.398c6 0 12-6 12-12M172.977-12.398v-17.204M172.977-29.602c0-6-6-12-12-12"/><text text-anchor="middle" x="114" y="-25.2" font-family="Times,serif" font-size="14">UpdateExpression</text><text text-anchor="middle" x="114" y="-8.4" font-family="Times,serif" font-size="14">Identifier (i)</text></g><g class="edge"><path fill="none" stroke="#000" d="M88.026-77.817c4.216 9.06 8.54 18.35 12.419 26.689"/><path stroke="#000" d="m103.718-52.392 1.045 10.543-7.392-7.59 6.347-2.953z"/></g><g class="edge"><path fill="none" stroke="#000" d="M126.427-41.734C132.399-52.14 139.091-65.342 143-78c12.006-38.879 16.472-85.404 18.108-117.471"/><path stroke="#000" d="m157.624-195.923 3.937-9.837 3.057 10.145-6.994-.308z"/></g><g class="edge"><path fill="none" stroke="#000" d="M257-94.597v50.245"/><path stroke="#000" d="m260.5-44.096-3.5 10-3.5-10h7z"/></g></g></svg>