<svg width="278pt" height="394pt" viewBox="0 0 278 394" xmlns="http://www.w3.org/2000/svg"><g class="graph" transform="translate(4 390)"><g class="node"><circle stroke="#000" cx="139" cy="-377" r="9"/></g><g class="node"><path fill="#fff" stroke="#fff" d="M191.617-331.3H86.383l-12 12v84.6l12 12h105.234l12-12v-84.6l-12-12z"/><path fill="#fff" stroke="#fff" d="M86.383-331.3c-6 0-12 6-12 12M74.383-234.7c0 6 6 12 12 12M191.617-222.7c6 0 12-6 12-12M203.617-319.3c0-6-6-12-12-12"/><path fill="none" stroke="#000" d="M191.617-331.3H86.383M86.383-331.3c-6 0-12 6-12 12M74.383-319.3v84.6M74.383-234.7c0 6 6 12 12 12M86.383-222.7h105.234M191.617-222.7c6 0 12-6 12-12M203.617-234.7v-84.6M203.617-319.3c0-6-6-12-12-12"/><text text-anchor="middle" x="139" y="-314.8" font-family="Times,serif" font-size="14">Program</text><text text-anchor="middle" x="139" y="-298" font-family="Times,serif" font-size="14">ForStatement</text><text text-anchor="middle" x="139" y="-281.2" font-family="Times,serif" font-size="14">VariableDeclaration</text><text text-anchor="middle" x="139" y="-264.4" font-family="Times,serif" font-size="14">VariableDeclarator</text><text text-anchor="middle" x="139" y="-247.6" font-family="Times,serif" font-size="14">Identifier (i)</text><text text-anchor="middle" x="139" y="-230.8" font-family="Times,serif" font-size="14">Literal (0)</text></g><g class="edge"><path fill="none" stroke="#000" d="M139-367.98v26.167"/><path stroke="#000" d="m142.5-341.586-3.5 10-3.5-10h7z"/></g><g class="node"><path fill="#fff" stroke="#fff" d="M185.233-186.401H92.767l-12 12v34.802l12 12h92.466l12-12v-34.802l-12-12z"/><path fill="#fff" stroke="#fff" d="M92.767-186.401c-6 0-12 6-12 12M80.767-139.599c0 6 6 12 12 12M185.233-127.599c6 0 12-6 12-12M197.233-174.401c0-6-6-12-12-12"/><path fill="none" stroke="#000" d="M185.233-186.401H92.767M92.767-186.401c-6 0-12 6-12 12M80.767-174.401v34.802M80.767-139.599c0 6 6 12 12 12M92.767-127.599h92.466M185.233-127.599c6 0 12-6 12-12M197.233-139.599v-34.802M197.233-174.401c0-6-6-12-12-12"/><text text-anchor="middle" x="139" y="-169.6" font-family="Times,serif" font-size="14">BinaryExpression</text><text text-anchor="middle" x="139" y="-152.8" font-family="Times,serif" font-size="14">Identifier (i)</text><text text-anchor="middle" x="139" y="-136" font-family="Times,serif" font-size="14">Literal (10)</text></g><g class="edge"><path fill="none" stroke="#000" d="M139-222.524v25.952"/><path stroke="#000" d="m142.5-196.452-3.5 10-3.5-10h7z"/></g><g class="node"><path fill="#fff" stroke="#fff" d="M122.147-92H11.853l-12 12v68l12 12h110.294l12-12v-68l-12-12z"/><path fill="#fff" stroke="#fff" d="M11.853-92c-6 0-12 6-12 12M-.147-12c0 6 6 12 12 12M122.147 0c6 0 12-6 12-12M134.147-80c0-6-6-12-12-12"/><path fill="none" stroke="#000" d="M122.147-92H11.853M11.853-92c-6 0-12 6-12 12M-.147-80v68M-.147-12c0 6 6 12 12 12M11.853 0h110.294M122.147 0c6 0 12-6 12-12M134.147-12v-68M134.147-80c0-6-6-12-12-12"/><text text-anchor="middle" x="67" y="-75.4" font-family="Times,serif" font-size="14">BlockStatement</text><text text-anchor="middle" x="67" y="-58.6" font-family="Times,serif" font-size="14">ExpressionStatement</text><text text-anchor="middle" x="67" y="-41.8" font-family="Times,serif" font-size="14">CallExpression</text><text text-anchor="middle" x="67" y="-25" font-family="Times,serif" font-size="14">Identifier (foo)</text><text text-anchor="middle" x="67" y="-8.2" font-family="Times,serif" font-size="14">Identifier (i)</text></g><g class="edge"><path fill="none" stroke="#000" d="m120.271-127.646-17.842 27.01"/><path stroke="#000" d="m105.226-98.519-8.433 6.415 2.592-10.273 5.841 3.858z"/></g><g class="node"><path fill="#fff" stroke="#fff" d="M257.977-66.602h-93.954l-12 12v17.204l12 12h93.954l12-12v-17.204l-12-12z"/><path fill="#fff" stroke="#fff" d="M164.023-66.602c-6 0-12 6-12 12M152.023-37.398c0 6 6 12 12 12M257.977-25.398c6 0 12-6 12-12M269.977-54.602c0-6-6-12-12-12"/><path fill="none" stroke="#000" d="M257.977-66.602h-93.954M164.023-66.602c-6 0-12 6-12 12M152.023-54.602v17.204M152.023-37.398c0 6 6 12 12 12M164.023-25.398h93.954M257.977-25.398c6 0 12-6 12-12M269.977-37.398v-17.204M269.977-54.602c0-6-6-12-12-12"/><text text-anchor="middle" x="211" y="-50.2" font-family="Times,serif" font-size="14">UpdateExpression</text><text text-anchor="middle" x="211" y="-33.4" font-family="Times,serif" font-size="14">Identifier (i)</text></g><g class="edge"><path fill="none" d="m157.729-127.646 34.698 52.528M195.448-76.894l2.591 10.273-8.432-6.415 5.841-3.858z"/></g></g></svg>