<svg width="152pt" height="322pt" viewBox="0 0 152 322" xmlns="http://www.w3.org/2000/svg"><g class="graph" transform="translate(4 318)"><g class="node"><circle stroke="#000" cx="72" cy="-305" r="9"/></g><g class="node"><path fill="#fff" stroke="#fff" d="M113.149-259.602H30.85l-12 12v17.204l12 12h82.299l12-12v-17.204l-12-12z"/><path fill="#fff" stroke="#fff" d="M30.85-259.602c-6 0-12 6-12 12M18.85-230.398c0 6 6 12 12 12M113.149-218.398c6 0 12-6 12-12M125.149-247.602c0-6-6-12-12-12"/><path fill="none" stroke="#000" d="M113.149-259.602H30.85M30.85-259.602c-6 0-12 6-12 12M18.85-247.602v17.204M18.85-230.398c0 6 6 12 12 12M30.85-218.398h82.299M113.149-218.398c6 0 12-6 12-12M125.149-230.398v-17.204M125.149-247.602c0-6-6-12-12-12"/><text text-anchor="middle" x="72" y="-243.2" font-family="Times,serif" font-size="14">Program</text><text text-anchor="middle" x="72" y="-226.4" font-family="Times,serif" font-size="14">WhileStatement</text></g><g class="edge"><path fill="none" stroke="#000" d="M72-295.894v25.954"/><path stroke="#000" d="m75.5-269.842-3.5 10-3.5-10h7z"/></g><g class="node"><path fill="#fff" stroke="#fff" d="M103.339-182H40.661l-12 12v12l12 12h62.678l12-12v-12l-12-12z"/><path fill="#fff" stroke="#fff" d="M40.661-182c-6 0-12 6-12 12M28.661-158c0 6 6 12 12 12M103.339-146c6 0 12-6 12-12M115.339-170c0-6-6-12-12-12"/><path fill="none" stroke="#000" d="M103.339-182H40.661M40.661-182c-6 0-12 6-12 12M28.661-170v12M28.661-158c0 6 6 12 12 12M40.661-146h62.678M103.339-146c6 0 12-6 12-12M115.339-158v-12M115.339-170c0-6-6-12-12-12"/><text text-anchor="middle" x="72" y="-159.8" font-family="Times,serif" font-size="14">Identifier (a)</text></g><g class="edge"><path fill="none" stroke="#000" d="M72-218.052v25.416"/><path stroke="#000" d="m75.5-192.439-3.5 10-3.5-10h7z"/></g><g class="node"><path fill="#fff" stroke="#fff" d="M132.317-109.3H11.683l-12 12v84.6l12 12h120.634l12-12v-84.6l-12-12z"/><path fill="#fff" stroke="#fff" d="M11.683-109.3c-6 0-12 6-12 12M-.317-12.7c0 6 6 12 12 12M132.317-.7c6 0 12-6 12-12M144.317-97.3c0-6-6-12-12-12"/><path fill="none" stroke="#000" d="M132.317-109.3H11.683M11.683-109.3c-6 0-12 6-12 12M-.317-97.3v84.6M-.317-12.7c0 6 6 12 12 12M11.683-.7h120.634M132.317-.7c6 0 12-6 12-12M144.317-12.7v-84.6M144.317-97.3c0-6-6-12-12-12"/><text text-anchor="middle" x="72" y="-92.8" font-family="Times,serif" font-size="14">BlockStatement</text><text text-anchor="middle" x="72" y="-76" font-family="Times,serif" font-size="14">ExpressionStatement</text><text text-anchor="middle" x="72" y="-59.2" font-family="Times,serif" font-size="14">AssignmentExpression</text><text text-anchor="middle" x="72" y="-42.4" font-family="Times,serif" font-size="14">Identifier (a)</text><text text-anchor="middle" x="72" y="-25.6" font-family="Times,serif" font-size="14">CallExpression</text><text text-anchor="middle" x="72" y="-8.8" font-family="Times,serif" font-size="14">Identifier (foo)</text></g><g class="edge"><path fill="none" stroke="#000" d="M72-145.809v26.03"/><path stroke="#000" d="m75.5-119.706-3.5 10-3.5-10h7z"/></g></g></svg>