<svg width="136pt" height="344pt" viewBox="0 0 136 344" xmlns="http://www.w3.org/2000/svg"><g class="graph" transform="translate(4 340)"><g class="node"><circle stroke="#000" cx="64" cy="-327" r="9"/></g><g class="node"><path fill="#fff" stroke="#fff" d="M116.617-281.3H11.383l-12 12v84.6l12 12h105.234l12-12v-84.6l-12-12z"/><path fill="#fff" stroke="#fff" d="M11.383-281.3c-6 0-12 6-12 12M-.617-184.7c0 6 6 12 12 12M116.617-172.7c6 0 12-6 12-12M128.617-269.3c0-6-6-12-12-12"/><path fill="none" stroke="#000" d="M116.617-281.3H11.383M11.383-281.3c-6 0-12 6-12 12M-.617-269.3v84.6M-.617-184.7c0 6 6 12 12 12M11.383-172.7h105.234M116.617-172.7c6 0 12-6 12-12M128.617-184.7v-84.6M128.617-269.3c0-6-6-12-12-12"/><text text-anchor="middle" x="64" y="-264.8" font-family="Times,serif" font-size="14">Program</text><text text-anchor="middle" x="64" y="-248" font-family="Times,serif" font-size="14">ForStatement</text><text text-anchor="middle" x="64" y="-231.2" font-family="Times,serif" font-size="14">VariableDeclaration</text><text text-anchor="middle" x="64" y="-214.4" font-family="Times,serif" font-size="14">VariableDeclarator</text><text text-anchor="middle" x="64" y="-197.6" font-family="Times,serif" font-size="14">Identifier (i)</text><text text-anchor="middle" x="64" y="-180.8" font-family="Times,serif" font-size="14">Literal (0)</text></g><g class="edge"><path fill="none" stroke="#000" d="M64-317.98v26.167"/><path stroke="#000" d="m67.5-291.586-3.5 10-3.5-10h7z"/></g><g class="node"><path fill="#fff" stroke="#fff" d="M110.233-136.401H17.767l-12 12v34.802l12 12h92.466l12-12V-124.4l-12-12z"/><path fill="#fff" stroke="#fff" d="M17.767-136.401c-6 0-12 6-12 12M5.767-89.599c0 6 6 12 12 12M110.233-77.599c6 0 12-6 12-12M122.233-124.401c0-6-6-12-12-12"/><path fill="none" stroke="#000" d="M110.233-136.401H17.767M17.767-136.401c-6 0-12 6-12 12M5.767-124.401v34.802M5.767-89.599c0 6 6 12 12 12M17.767-77.599h92.466M110.233-77.599c6 0 12-6 12-12M122.233-89.599V-124.4M122.233-124.401c0-6-6-12-12-12"/><text text-anchor="middle" x="64" y="-119.6" font-family="Times,serif" font-size="14">BinaryExpression</text><text text-anchor="middle" x="64" y="-102.8" font-family="Times,serif" font-size="14">Identifier (i)</text><text text-anchor="middle" x="64" y="-86" font-family="Times,serif" font-size="14">Literal (10)</text></g><g class="edge"><path fill="none" stroke="#000" d="M64-172.524v25.952"/><path stroke="#000" d="m67.5-146.452-3.5 10-3.5-10h7z"/></g><g class="node"><path fill="#fff" stroke="#fff" d="M110.977-41.602H17.023l-12 12v17.204l12 12h93.954l12-12v-17.204l-12-12z"/><path fill="#fff" stroke="#fff" d="M17.023-41.602c-6 0-12 6-12 12M5.023-12.398c0 6 6 12 12 12M110.977-.398c6 0 12-6 12-12M122.977-29.602c0-6-6-12-12-12"/><path fill="none" stroke="#000" d="M110.977-41.602H17.023M17.023-41.602c-6 0-12 6-12 12M5.023-29.602v17.204M5.023-12.398c0 6 6 12 12 12M17.023-.398h93.954M110.977-.398c6 0 12-6 12-12M122.977-12.398v-17.204M122.977-29.602c0-6-6-12-12-12"/><text text-anchor="middle" x="64" y="-25.2" font-family="Times,serif" font-size="14">UpdateExpression</text><text text-anchor="middle" x="64" y="-8.4" font-family="Times,serif" font-size="14">Identifier (i)</text></g><g class="edge"><path fill="none" d="M64-77.561v25.77M67.5-51.668l-3.5 10-3.5-10h7z"/></g></g></svg>