<?xml version="1.0"?>
<svg width="136pt" height="344pt" viewBox="0.00 0.00 136.00 344.00" xmlns="http://www.w3.org/2000/svg" xmlns:xlink="http://www.w3.org/1999/xlink">
<g id="graph1" class="graph" transform="scale(1 1) rotate(0) translate(4 340)">
<title>_anonymous_0</title>

<g id="node1" class="node"><title>initial</title>
<ellipse fill="black" stroke="black" cx="64" cy="-327" rx="9" ry="9"></ellipse>
</g>

<g id="node2" class="node"><title>s1_1</title>
<polygon fill="white" stroke="white" points="116.617,-281.3 11.3833,-281.3 -0.616716,-269.3 -0.616716,-184.7 11.3833,-172.7 116.617,-172.7 128.617,-184.7 128.617,-269.3 116.617,-281.3"></polygon>
<path fill="white" stroke="white" d="M11.3833,-281.3C5.38328,-281.3 -0.616716,-275.3 -0.616716,-269.3"></path>
<path fill="white" stroke="white" d="M-0.616716,-184.7C-0.616716,-178.7 5.38328,-172.7 11.3833,-172.7"></path>
<path fill="white" stroke="white" d="M116.617,-172.7C122.617,-172.7 128.617,-178.7 128.617,-184.7"></path>
<path fill="white" stroke="white" d="M128.617,-269.3C128.617,-275.3 122.617,-281.3 116.617,-281.3"></path>
<polyline fill="none" stroke="black" points="116.617,-281.3 11.3833,-281.3 "></polyline>
<path fill="none" stroke="black" d="M11.3833,-281.3C5.38328,-281.3 -0.616716,-275.3 -0.616716,-269.3"></path>
<polyline fill="none" stroke="black" points="-0.616716,-269.3 -0.616716,-184.7 "></polyline>
<path fill="none" stroke="black" d="M-0.616716,-184.7C-0.616716,-178.7 5.38328,-172.7 11.3833,-172.7"></path>
<polyline fill="none" stroke="black" points="11.3833,-172.7 116.617,-172.7 "></polyline>
<path fill="none" stroke="black" d="M116.617,-172.7C122.617,-172.7 128.617,-178.7 128.617,-184.7"></path>
<polyline fill="none" stroke="black" points="128.617,-184.7 128.617,-269.3 "></polyline>
<path fill="none" stroke="black" d="M128.617,-269.3C128.617,-275.3 122.617,-281.3 116.617,-281.3"></path>
<text text-anchor="middle" x="64" y="-264.8" font-family="Times,serif" font-size="14.00">Program</text>
<text text-anchor="middle" x="64" y="-248" font-family="Times,serif" font-size="14.00">ForStatement</text>
<text text-anchor="middle" x="64" y="-231.2" font-family="Times,serif" font-size="14.00">VariableDeclaration</text>
<text text-anchor="middle" x="64" y="-214.4" font-family="Times,serif" font-size="14.00">VariableDeclarator</text>
<text text-anchor="middle" x="64" y="-197.6" font-family="Times,serif" font-size="14.00">Identifier (i)</text>
<text text-anchor="middle" x="64" y="-180.8" font-family="Times,serif" font-size="14.00">Literal (0)</text>
</g>

<g id="edge2" class="edge"><title>initial-&gt;s1_1</title>
<path fill="none" stroke="black" d="M64,-317.98C64,-311.675 64,-302.238 64,-291.813"></path>
<polygon fill="black" stroke="black" points="67.5001,-291.586 64,-281.586 60.5001,-291.586 67.5001,-291.586"></polygon>
</g>

<g id="node3" class="node"><title>s1_2</title>
<polygon fill="white" stroke="white" points="110.233,-136.401 17.7673,-136.401 5.76729,-124.401 5.76729,-89.5986 17.7673,-77.5986 110.233,-77.5986 122.233,-89.5986 122.233,-124.401 110.233,-136.401"></polygon>
<path fill="white" stroke="white" d="M17.7673,-136.401C11.7673,-136.401 5.76729,-130.401 5.76729,-124.401"></path>
<path fill="white" stroke="white" d="M5.76729,-89.5986C5.76729,-83.5986 11.7673,-77.5986 17.7673,-77.5986"></path>
<path fill="white" stroke="white" d="M110.233,-77.5986C116.233,-77.5986 122.233,-83.5986 122.233,-89.5986"></path>
<path fill="white" stroke="white" d="M122.233,-124.401C122.233,-130.401 116.233,-136.401 110.233,-136.401"></path>
<polyline fill="none" stroke="black" points="110.233,-136.401 17.7673,-136.401 "></polyline>
<path fill="none" stroke="black" d="M17.7673,-136.401C11.7673,-136.401 5.76729,-130.401 5.76729,-124.401"></path>
<polyline fill="none" stroke="black" points="5.76729,-124.401 5.76729,-89.5986 "></polyline>
<path fill="none" stroke="black" d="M5.76729,-89.5986C5.76729,-83.5986 11.7673,-77.5986 17.7673,-77.5986"></path>
<polyline fill="none" stroke="black" points="17.7673,-77.5986 110.233,-77.5986 "></polyline>
<path fill="none" stroke="black" d="M110.233,-77.5986C116.233,-77.5986 122.233,-83.5986 122.233,-89.5986"></path>
<polyline fill="none" stroke="black" points="122.233,-89.5986 122.233,-124.401 "></polyline>
<path fill="none" stroke="black" d="M122.233,-124.401C122.233,-130.401 116.233,-136.401 110.233,-136.401"></path>
<text text-anchor="middle" x="64" y="-119.6" font-family="Times,serif" font-size="14.00">BinaryExpression</text>
<text text-anchor="middle" x="64" y="-102.8" font-family="Times,serif" font-size="14.00">Identifier (i)</text>
<text text-anchor="middle" x="64" y="-86" font-family="Times,serif" font-size="14.00">Literal (10)</text>
</g>

<g id="edge3" class="edge"><title>s1_1-&gt;s1_2</title>
<path fill="none" stroke="black" d="M64,-172.524C64,-163.777 64,-154.867 64,-146.572"></path>
<polygon fill="black" stroke="black" points="67.5001,-146.452 64,-136.452 60.5001,-146.452 67.5001,-146.452"></polygon>
</g>

<g id="node4" class="node"><title>s1_4</title>
<polygon fill="white" stroke="white" points="110.977,-41.6019 17.0234,-41.6019 5.02345,-29.6019 5.02345,-12.3981 17.0234,-0.398095 110.977,-0.398095 122.977,-12.3981 122.977,-29.6019 110.977,-41.6019"></polygon>
<path fill="white" stroke="white" d="M17.0234,-41.6019C11.0234,-41.6019 5.02345,-35.6019 5.02345,-29.6019"></path>
<path fill="white" stroke="white" d="M5.02345,-12.3981C5.02345,-6.3981 11.0234,-0.398095 17.0234,-0.398095"></path>
<path fill="white" stroke="white" d="M110.977,-0.398095C116.977,-0.398095 122.977,-6.3981 122.977,-12.3981"></path>
<path fill="white" stroke="white" d="M122.977,-29.6019C122.977,-35.6019 116.977,-41.6019 110.977,-41.6019"></path>
<polyline fill="none" stroke="black" points="110.977,-41.6019 17.0234,-41.6019 "></polyline>
<path fill="none" stroke="black" d="M17.0234,-41.6019C11.0234,-41.6019 5.02345,-35.6019 5.02345,-29.6019"></path>
<polyline fill="none" stroke="black" points="5.02345,-29.6019 5.02345,-12.3981 "></polyline>
<path fill="none" stroke="black" d="M5.02345,-12.3981C5.02345,-6.3981 11.0234,-0.398095 17.0234,-0.398095"></path>
<polyline fill="none" stroke="black" points="17.0234,-0.398095 110.977,-0.398095 "></polyline>
<path fill="none" stroke="black" d="M110.977,-0.398095C116.977,-0.398095 122.977,-6.3981 122.977,-12.3981"></path>
<polyline fill="none" stroke="black" points="122.977,-12.3981 122.977,-29.6019 "></polyline>
<path fill="none" stroke="black" d="M122.977,-29.6019C122.977,-35.6019 116.977,-41.6019 110.977,-41.6019"></path>
<text text-anchor="middle" x="64" y="-25.2" font-family="Times,serif" font-size="14.00">UpdateExpression</text>
<text text-anchor="middle" x="64" y="-8.4" font-family="Times,serif" font-size="14.00">Identifier (i)</text>
</g>

<g id="edge5" class="edge"><title>s1_2-&gt;s1_4</title>
<path fill="none" stroke="none" d="M64,-77.5614C64,-69.2619 64,-60.1709 64,-51.7903"></path>
<polygon fill="none" stroke="none" points="67.5001,-51.6677 64,-41.6677 60.5001,-51.6678 67.5001,-51.6677"></polygon>
</g>
</g>
</svg>