<svg width="248" height="472pt" viewBox="0 0 186 472" xmlns="http://www.w3.org/2000/svg"><g class="graph" transform="translate(4 468)"><g class="node"><circle stroke="#000" cx="114" cy="-455" r="9"/></g><g class="node"><path fill="#fff" stroke="#fff" d="M166.617-409.3H61.383l-12 12v84.6l12 12h105.234l12-12v-84.6l-12-12z"/><path fill="#fff" stroke="#fff" d="M61.383-409.3c-6 0-12 6-12 12M49.383-312.7c0 6 6 12 12 12M166.617-300.7c6 0 12-6 12-12M178.617-397.3c0-6-6-12-12-12"/><path fill="none" stroke="#000" d="M166.617-409.3H61.383M61.383-409.3c-6 0-12 6-12 12M49.383-397.3v84.6M49.383-312.7c0 6 6 12 12 12M61.383-300.7h105.234M166.617-300.7c6 0 12-6 12-12M178.617-312.7v-84.6M178.617-397.3c0-6-6-12-12-12"/><text text-anchor="middle" x="114" y="-392.8" font-family="Times,serif" font-size="14">Program</text><text text-anchor="middle" x="114" y="-376" font-family="Times,serif" font-size="14">ForStatement</text><text text-anchor="middle" x="114" y="-359.2" font-family="Times,serif" font-size="14">VariableDeclaration</text><text text-anchor="middle" x="114" y="-342.4" font-family="Times,serif" font-size="14">VariableDeclarator</text><text text-anchor="middle" x="114" y="-325.6" font-family="Times,serif" font-size="14">Identifier (i)</text><text text-anchor="middle" x="114" y="-308.8" font-family="Times,serif" font-size="14">Literal (0)</text></g><g class="edge"><path fill="none" stroke="#000" d="M114-445.98v26.167"/><path stroke="#000" d="m117.5-419.586-3.5 10-3.5-10h7z"/></g><g class="node"><path fill="#fff" stroke="#fff" d="M160.233-264.401H67.767l-12 12v34.802l12 12h92.466l12-12v-34.802l-12-12z"/><path fill="#fff" stroke="#fff" d="M67.767-264.401c-6 0-12 6-12 12M55.767-217.599c0 6 6 12 12 12M160.233-205.599c6 0 12-6 12-12M172.233-252.401c0-6-6-12-12-12"/><path fill="none" stroke="#000" d="M160.233-264.401H67.767M67.767-264.401c-6 0-12 6-12 12M55.767-252.401v34.802M55.767-217.599c0 6 6 12 12 12M67.767-205.599h92.466M160.233-205.599c6 0 12-6 12-12M172.233-217.599v-34.802M172.233-252.401c0-6-6-12-12-12"/><text text-anchor="middle" x="114" y="-247.6" font-family="Times,serif" font-size="14">BinaryExpression</text><text text-anchor="middle" x="114" y="-230.8" font-family="Times,serif" font-size="14">Identifier (i)</text><text text-anchor="middle" x="114" y="-214" font-family="Times,serif" font-size="14">Literal (10)</text></g><g class="edge"><path fill="none" stroke="#000" d="M114-300.524v25.952"/><path stroke="#000" d="m117.5-274.452-3.5 10-3.5-10h7z"/></g><g class="node"><path fill="#fff" stroke="#fff" d="M122.147-170H11.853l-12 12v68l12 12h110.294l12-12v-68l-12-12z"/><path fill="#fff" stroke="#fff" d="M11.853-170c-6 0-12 6-12 12M-.147-90c0 6 6 12 12 12M122.147-78c6 0 12-6 12-12M134.147-158c0-6-6-12-12-12"/><path fill="none" stroke="#000" d="M122.147-170H11.853M11.853-170c-6 0-12 6-12 12M-.147-158v68M-.147-90c0 6 6 12 12 12M11.853-78h110.294M122.147-78c6 0 12-6 12-12M134.147-90v-68M134.147-158c0-6-6-12-12-12"/><text text-anchor="middle" x="67" y="-153.4" font-family="Times,serif" font-size="14">BlockStatement</text><text text-anchor="middle" x="67" y="-136.6" font-family="Times,serif" font-size="14">ExpressionStatement</text><text text-anchor="middle" x="67" y="-119.8" font-family="Times,serif" font-size="14">CallExpression</text><text text-anchor="middle" x="67" y="-103" font-family="Times,serif" font-size="14">Identifier (foo)</text><text text-anchor="middle" x="67" y="-86.2" font-family="Times,serif" font-size="14">Identifier (i)</text></g><g class="edge"><path fill="none" stroke="#000" d="m101.774-205.646-11.277 26.153"/><path stroke="#000" d="m93.622-177.901-7.174 7.797.746-10.569 6.428 2.772z"/></g><g class="node"><path fill="#fff" stroke="#fff" d="M160.977-41.602H67.023l-12 12v17.204l12 12h93.954l12-12v-17.204l-12-12z"/><path fill="#fff" stroke="#fff" d="M67.023-41.602c-6 0-12 6-12 12M55.023-12.398c0 6 6 12 12 12M160.977-.398c6 0 12-6 12-12M172.977-29.602c0-6-6-12-12-12"/><path fill="none" stroke="#000" d="M160.977-41.602H67.023M67.023-41.602c-6 0-12 6-12 12M55.023-29.602v17.204M55.023-12.398c0 6 6 12 12 12M67.023-.398h93.954M160.977-.398c6 0 12-6 12-12M172.977-12.398v-17.204M172.977-29.602c0-6-6-12-12-12"/><text text-anchor="middle" x="114" y="-25.2" font-family="Times,serif" font-size="14">UpdateExpression</text><text text-anchor="middle" x="114" y="-8.4" font-family="Times,serif" font-size="14">Identifier (i)</text></g><g class="edge"><path fill="none" stroke="red" d="M88.026-77.817c4.216 9.06 8.54 18.35 12.419 26.689"/><path fill="red" stroke="red" d="m103.718-52.392 1.045 10.543-7.392-7.59 6.347-2.953z"/></g><g class="edge"><path fill="none" d="M127.225-41.814C133.324-52.133 139.891-65.235 143-78c9.676-39.727 8.633-52.033 0-92-1.909-8.837-5.143-17.92-8.774-26.368M130.985-195.038l-.98-10.55 7.345 7.636-6.365 2.914z"/></g></g></svg>