<?xml version="1.0"?>
<svg width="332pt" height="472pt" viewBox="0.00 0.00 332.00 472.00" xmlns="http://www.w3.org/2000/svg" xmlns:xlink="http://www.w3.org/1999/xlink">
<g id="graph1" class="graph" transform="scale(1 1) rotate(0) translate(4 468)">
<title>_anonymous_0</title>

<g id="node1" class="node"><title>initial</title>
<ellipse fill="black" stroke="black" cx="162" cy="-455" rx="9" ry="9"></ellipse>
</g>

<g id="node3" class="node"><title>s1_1</title>
<polygon fill="white" stroke="white" points="214.617,-409.3 109.383,-409.3 97.3833,-397.3 97.3833,-312.7 109.383,-300.7 214.617,-300.7 226.617,-312.7 226.617,-397.3 214.617,-409.3"></polygon>
<path fill="white" stroke="white" d="M109.383,-409.3C103.383,-409.3 97.3833,-403.3 97.3833,-397.3"></path>
<path fill="white" stroke="white" d="M97.3833,-312.7C97.3833,-306.7 103.383,-300.7 109.383,-300.7"></path>
<path fill="white" stroke="white" d="M214.617,-300.7C220.617,-300.7 226.617,-306.7 226.617,-312.7"></path>
<path fill="white" stroke="white" d="M226.617,-397.3C226.617,-403.3 220.617,-409.3 214.617,-409.3"></path>
<polyline fill="none" stroke="black" points="214.617,-409.3 109.383,-409.3 "></polyline>
<path fill="none" stroke="black" d="M109.383,-409.3C103.383,-409.3 97.3833,-403.3 97.3833,-397.3"></path>
<polyline fill="none" stroke="black" points="97.3833,-397.3 97.3833,-312.7 "></polyline>
<path fill="none" stroke="black" d="M97.3833,-312.7C97.3833,-306.7 103.383,-300.7 109.383,-300.7"></path>
<polyline fill="none" stroke="black" points="109.383,-300.7 214.617,-300.7 "></polyline>
<path fill="none" stroke="black" d="M214.617,-300.7C220.617,-300.7 226.617,-306.7 226.617,-312.7"></path>
<polyline fill="none" stroke="black" points="226.617,-312.7 226.617,-397.3 "></polyline>
<path fill="none" stroke="black" d="M226.617,-397.3C226.617,-403.3 220.617,-409.3 214.617,-409.3"></path>
<text text-anchor="middle" x="162" y="-392.8" font-family="Times,serif" font-size="14.00">Program</text>
<text text-anchor="middle" x="162" y="-376" font-family="Times,serif" font-size="14.00">ForStatement</text>
<text text-anchor="middle" x="162" y="-359.2" font-family="Times,serif" font-size="14.00">VariableDeclaration</text>
<text text-anchor="middle" x="162" y="-342.4" font-family="Times,serif" font-size="14.00">VariableDeclarator</text>
<text text-anchor="middle" x="162" y="-325.6" font-family="Times,serif" font-size="14.00">Identifier (i)</text>
<text text-anchor="middle" x="162" y="-308.8" font-family="Times,serif" font-size="14.00">Literal (0)</text>
</g>

<g id="edge2" class="edge"><title>initial-&gt;s1_1</title>
<path fill="none" stroke="black" d="M162,-445.98C162,-439.675 162,-430.238 162,-419.813"></path>
<polygon fill="black" stroke="black" points="165.5,-419.586 162,-409.586 158.5,-419.586 165.5,-419.586"></polygon>
</g>

<g id="node2" class="node"><title>final</title>
<ellipse fill="black" stroke="black" cx="257" cy="-21" rx="9" ry="9"></ellipse>
<ellipse fill="none" stroke="black" cx="257" cy="-21" rx="13" ry="13"></ellipse>
</g>

<g id="node4" class="node"><title>s1_2</title>
<polygon fill="white" stroke="white" points="208.233,-264.401 115.767,-264.401 103.767,-252.401 103.767,-217.599 115.767,-205.599 208.233,-205.599 220.233,-217.599 220.233,-252.401 208.233,-264.401"></polygon>
<path fill="white" stroke="white" d="M115.767,-264.401C109.767,-264.401 103.767,-258.401 103.767,-252.401"></path>
<path fill="white" stroke="white" d="M103.767,-217.599C103.767,-211.599 109.767,-205.599 115.767,-205.599"></path>
<path fill="white" stroke="white" d="M208.233,-205.599C214.233,-205.599 220.233,-211.599 220.233,-217.599"></path>
<path fill="white" stroke="white" d="M220.233,-252.401C220.233,-258.401 214.233,-264.401 208.233,-264.401"></path>
<polyline fill="none" stroke="black" points="208.233,-264.401 115.767,-264.401 "></polyline>
<path fill="none" stroke="black" d="M115.767,-264.401C109.767,-264.401 103.767,-258.401 103.767,-252.401"></path>
<polyline fill="none" stroke="black" points="103.767,-252.401 103.767,-217.599 "></polyline>
<path fill="none" stroke="black" d="M103.767,-217.599C103.767,-211.599 109.767,-205.599 115.767,-205.599"></path>
<polyline fill="none" stroke="black" points="115.767,-205.599 208.233,-205.599 "></polyline>
<path fill="none" stroke="black" d="M208.233,-205.599C214.233,-205.599 220.233,-211.599 220.233,-217.599"></path>
<polyline fill="none" stroke="black" points="220.233,-217.599 220.233,-252.401 "></polyline>
<path fill="none" stroke="black" d="M220.233,-252.401C220.233,-258.401 214.233,-264.401 208.233,-264.401"></path>
<text text-anchor="middle" x="162" y="-247.6" font-family="Times,serif" font-size="14.00">BinaryExpression</text>
<text text-anchor="middle" x="162" y="-230.8" font-family="Times,serif" font-size="14.00">Identifier (i)</text>
<text text-anchor="middle" x="162" y="-214" font-family="Times,serif" font-size="14.00">Literal (10)</text>
</g>

<g id="edge3" class="edge"><title>s1_1-&gt;s1_2</title>
<path fill="none" stroke="black" d="M162,-300.524C162,-291.777 162,-282.867 162,-274.572"></path>
<polygon fill="black" stroke="black" points="165.5,-274.452 162,-264.452 158.5,-274.452 165.5,-274.452"></polygon>
</g>

<g id="node5" class="node"><title>s1_3</title>
<polygon fill="white" stroke="white" points="122.147,-170 11.8526,-170 -0.147372,-158 -0.147372,-90 11.8526,-78 122.147,-78 134.147,-90 134.147,-158 122.147,-170"></polygon>
<path fill="white" stroke="white" d="M11.8526,-170C5.85263,-170 -0.147372,-164 -0.147372,-158"></path>
<path fill="white" stroke="white" d="M-0.147372,-90C-0.147372,-84 5.85263,-78 11.8526,-78"></path>
<path fill="white" stroke="white" d="M122.147,-78C128.147,-78 134.147,-84 134.147,-90"></path>
<path fill="white" stroke="white" d="M134.147,-158C134.147,-164 128.147,-170 122.147,-170"></path>
<polyline fill="none" stroke="black" points="122.147,-170 11.8526,-170 "></polyline>
<path fill="none" stroke="black" d="M11.8526,-170C5.85263,-170 -0.147372,-164 -0.147372,-158"></path>
<polyline fill="none" stroke="black" points="-0.147372,-158 -0.147372,-90 "></polyline>
<path fill="none" stroke="black" d="M-0.147372,-90C-0.147372,-84 5.85263,-78 11.8526,-78"></path>
<polyline fill="none" stroke="black" points="11.8526,-78 122.147,-78 "></polyline>
<path fill="none" stroke="black" d="M122.147,-78C128.147,-78 134.147,-84 134.147,-90"></path>
<polyline fill="none" stroke="black" points="134.147,-90 134.147,-158 "></polyline>
<path fill="none" stroke="black" d="M134.147,-158C134.147,-164 128.147,-170 122.147,-170"></path>
<text text-anchor="middle" x="67" y="-153.4" font-family="Times,serif" font-size="14.00">BlockStatement</text>
<text text-anchor="middle" x="67" y="-136.6" font-family="Times,serif" font-size="14.00">ExpressionStatement</text>
<text text-anchor="middle" x="67" y="-119.8" font-family="Times,serif" font-size="14.00">CallExpression</text>
<text text-anchor="middle" x="67" y="-103" font-family="Times,serif" font-size="14.00">Identifier (foo)</text>
<text text-anchor="middle" x="67" y="-86.2" font-family="Times,serif" font-size="14.00">Identifier (i)</text>
</g>

<g id="edge4" class="edge"><title>s1_2-&gt;s1_3</title>
<path fill="none" stroke="black" d="M137.288,-205.646C129.826,-197.085 121.382,-187.396 113,-177.779"></path>
<polygon fill="black" stroke="black" points="115.52,-175.343 106.311,-170.104 110.243,-179.942 115.52,-175.343"></polygon>
</g>

<g id="node7" class="node"><title>s1_5</title>
<polygon fill="white" stroke="white" points="312.147,-153.401 201.853,-153.401 189.853,-141.401 189.853,-106.599 201.853,-94.5986 312.147,-94.5986 324.147,-106.599 324.147,-141.401 312.147,-153.401"></polygon>
<path fill="white" stroke="white" d="M201.853,-153.401C195.853,-153.401 189.853,-147.401 189.853,-141.401"></path>
<path fill="white" stroke="white" d="M189.853,-106.599C189.853,-100.599 195.853,-94.5986 201.853,-94.5986"></path>
<path fill="white" stroke="white" d="M312.147,-94.5986C318.147,-94.5986 324.147,-100.599 324.147,-106.599"></path>
<path fill="white" stroke="white" d="M324.147,-141.401C324.147,-147.401 318.147,-153.401 312.147,-153.401"></path>
<polyline fill="none" stroke="black" points="312.147,-153.401 201.853,-153.401 "></polyline>
<path fill="none" stroke="black" d="M201.853,-153.401C195.853,-153.401 189.853,-147.401 189.853,-141.401"></path>
<polyline fill="none" stroke="black" points="189.853,-141.401 189.853,-106.599 "></polyline>
<path fill="none" stroke="black" d="M189.853,-106.599C189.853,-100.599 195.853,-94.5986 201.853,-94.5986"></path>
<polyline fill="none" stroke="black" points="201.853,-94.5986 312.147,-94.5986 "></polyline>
<path fill="none" stroke="black" d="M312.147,-94.5986C318.147,-94.5986 324.147,-100.599 324.147,-106.599"></path>
<polyline fill="none" stroke="black" points="324.147,-106.599 324.147,-141.401 "></polyline>
<path fill="none" stroke="black" d="M324.147,-141.401C324.147,-147.401 318.147,-153.401 312.147,-153.401"></path>
<text text-anchor="middle" x="257" y="-136.6" font-family="Times,serif" font-size="14.00">ExpressionStatement</text>
<text text-anchor="middle" x="257" y="-119.8" font-family="Times,serif" font-size="14.00">CallExpression</text>
<text text-anchor="middle" x="257" y="-103" font-family="Times,serif" font-size="14.00">Identifier (bar)</text>
</g>

<g id="edge7" class="edge"><title>s1_2-&gt;s1_5</title>
<path fill="none" stroke="black" d="M186.712,-205.646C198.587,-192.021 212.952,-175.539 225.593,-161.035"></path>
<polygon fill="black" stroke="black" points="228.48,-163.05 232.412,-153.212 223.203,-158.451 228.48,-163.05"></polygon>
</g>

<g id="node6" class="node"><title>s1_4</title>
<polygon fill="white" stroke="white" points="160.977,-41.6019 67.0234,-41.6019 55.0234,-29.6019 55.0234,-12.3981 67.0234,-0.398095 160.977,-0.398095 172.977,-12.3981 172.977,-29.6019 160.977,-41.6019"></polygon>
<path fill="white" stroke="white" d="M67.0234,-41.6019C61.0234,-41.6019 55.0234,-35.6019 55.0234,-29.6019"></path>
<path fill="white" stroke="white" d="M55.0234,-12.3981C55.0234,-6.3981 61.0234,-0.398095 67.0234,-0.398095"></path>
<path fill="white" stroke="white" d="M160.977,-0.398095C166.977,-0.398095 172.977,-6.3981 172.977,-12.3981"></path>
<path fill="white" stroke="white" d="M172.977,-29.6019C172.977,-35.6019 166.977,-41.6019 160.977,-41.6019"></path>
<polyline fill="none" stroke="black" points="160.977,-41.6019 67.0234,-41.6019 "></polyline>
<path fill="none" stroke="black" d="M67.0234,-41.6019C61.0234,-41.6019 55.0234,-35.6019 55.0234,-29.6019"></path>
<polyline fill="none" stroke="black" points="55.0234,-29.6019 55.0234,-12.3981 "></polyline>
<path fill="none" stroke="black" d="M55.0234,-12.3981C55.0234,-6.3981 61.0234,-0.398095 67.0234,-0.398095"></path>
<polyline fill="none" stroke="black" points="67.0234,-0.398095 160.977,-0.398095 "></polyline>
<path fill="none" stroke="black" d="M160.977,-0.398095C166.977,-0.398095 172.977,-6.3981 172.977,-12.3981"></path>
<polyline fill="none" stroke="black" points="172.977,-12.3981 172.977,-29.6019 "></polyline>
<path fill="none" stroke="black" d="M172.977,-29.6019C172.977,-35.6019 166.977,-41.6019 160.977,-41.6019"></path>
<text text-anchor="middle" x="114" y="-25.2" font-family="Times,serif" font-size="14.00">UpdateExpression</text>
<text text-anchor="middle" x="114" y="-8.4" font-family="Times,serif" font-size="14.00">Identifier (i)</text>
</g>

<g id="edge5" class="edge"><title>s1_3-&gt;s1_4</title>
<path fill="none" stroke="black" d="M88.0256,-77.8174C92.2417,-68.7572 96.5653,-59.4661 100.445,-51.1281"></path>
<polygon fill="black" stroke="black" points="103.718,-52.392 104.763,-41.8489 97.3711,-49.4386 103.718,-52.392"></polygon>
</g>

<g id="edge6" class="edge"><title>s1_4-&gt;s1_2</title>
<path fill="none" stroke="black" d="M126.427,-41.7344C132.399,-52.1392 139.091,-65.3421 143,-78 155.006,-116.879 159.472,-163.404 161.108,-195.471"></path>
<polygon fill="black" stroke="black" points="157.624,-195.923 161.561,-205.76 164.618,-195.615 157.624,-195.923"></polygon>
</g>

<g id="edge8" class="edge"><title>s1_5-&gt;final</title>
<path fill="none" stroke="black" d="M257,-94.5971C257,-78.6959 257,-59.1538 257,-44.3521"></path>
<polygon fill="black" stroke="black" points="260.5,-44.0959 257,-34.0959 253.5,-44.096 260.5,-44.0959"></polygon>
</g>
</g>
</svg>