<svg width="305pt" height="512" viewBox="0 0 305 384" xmlns="http://www.w3.org/2000/svg"><g class="graph" transform="translate(4 380)"><g class="node"><circle stroke="#000" cx="72" cy="-367" r="9"/></g><g class="node"><path fill="#fff" stroke="#fff" d="M113.149-321.602H30.85l-12 12v17.204l12 12h82.299l12-12v-17.204l-12-12z"/><path fill="#fff" stroke="#fff" d="M30.85-321.602c-6 0-12 6-12 12M18.85-292.398c0 6 6 12 12 12M113.149-280.398c6 0 12-6 12-12M125.149-309.602c0-6-6-12-12-12"/><path fill="none" stroke="#000" d="M113.149-321.602H30.85M30.85-321.602c-6 0-12 6-12 12M18.85-309.602v17.204M18.85-292.398c0 6 6 12 12 12M30.85-280.398h82.299M113.149-280.398c6 0 12-6 12-12M125.149-292.398v-17.204M125.149-309.602c0-6-6-12-12-12"/><text text-anchor="middle" x="72" y="-305.2" font-family="Times,serif" font-size="14">Program</text><text text-anchor="middle" x="72" y="-288.4" font-family="Times,serif" font-size="14">WhileStatement</text></g><g class="edge"><path fill="none" stroke="#000" d="M72-357.894v25.954"/><path stroke="#000" d="m75.5-331.842-3.5 10-3.5-10h7z"/></g><g class="node"><circle stroke="#000" cx="230" cy="-13" r="9"/><circle fill="none" stroke="#000" cx="230" cy="-13" r="13"/></g><g class="node"><path fill="#fff" stroke="#fff" d="M103.339-244H40.661l-12 12v12l12 12h62.678l12-12v-12l-12-12z"/><path fill="#fff" stroke="#fff" d="M40.661-244c-6 0-12 6-12 12M28.661-220c0 6 6 12 12 12M103.339-208c6 0 12-6 12-12M115.339-232c0-6-6-12-12-12"/><path fill="none" stroke="#000" d="M103.339-244H40.661M40.661-244c-6 0-12 6-12 12M28.661-232v12M28.661-220c0 6 6 12 12 12M40.661-208h62.678M103.339-208c6 0 12-6 12-12M115.339-220v-12M115.339-232c0-6-6-12-12-12"/><text text-anchor="middle" x="72" y="-221.8" font-family="Times,serif" font-size="14">Identifier (a)</text></g><g class="edge"><path fill="none" stroke="#000" d="M72-280.052v25.416"/><path stroke="#000" d="m75.5-254.439-3.5 10-3.5-10h7z"/></g><g class="node"><path fill="#fff" stroke="#fff" d="M132.317-171.3H11.683l-12 12v84.6l12 12h120.634l12-12v-84.6l-12-12z"/><path fill="#fff" stroke="#fff" d="M11.683-171.3c-6 0-12 6-12 12M-.317-74.7c0 6 6 12 12 12M132.317-62.7c6 0 12-6 12-12M144.317-159.3c0-6-6-12-12-12"/><path fill="none" stroke="#000" d="M132.317-171.3H11.683M11.683-171.3c-6 0-12 6-12 12M-.317-159.3v84.6M-.317-74.7c0 6 6 12 12 12M11.683-62.7h120.634M132.317-62.7c6 0 12-6 12-12M144.317-74.7v-84.6M144.317-159.3c0-6-6-12-12-12"/><text text-anchor="middle" x="72" y="-154.8" font-family="Times,serif" font-size="14">BlockStatement</text><text text-anchor="middle" x="72" y="-138" font-family="Times,serif" font-size="14">ExpressionStatement</text><text text-anchor="middle" x="72" y="-121.2" font-family="Times,serif" font-size="14">AssignmentExpression</text><text text-anchor="middle" x="72" y="-104.4" font-family="Times,serif" font-size="14">Identifier (a)</text><text text-anchor="middle" x="72" y="-87.6" font-family="Times,serif" font-size="14">CallExpression</text><text text-anchor="middle" x="72" y="-70.8" font-family="Times,serif" font-size="14">Identifier (foo)</text></g><g class="edge"><path fill="none" stroke="#000" d="M66.885-207.809c-.805 7.366-1.312 16.471-1.523 26.03"/><path stroke="#000" d="m68.861-181.666-3.611 9.96-3.389-10.038 7 .078z"/></g><g class="node"><path fill="#fff" stroke="#fff" d="M285.147-146.401H174.853l-12 12v34.802l12 12h110.294l12-12V-134.4l-12-12z"/><path fill="#fff" stroke="#fff" d="M174.853-146.401c-6 0-12 6-12 12M162.853-99.599c0 6 6 12 12 12M285.147-87.599c6 0 12-6 12-12M297.147-134.401c0-6-6-12-12-12"/><path fill="none" stroke="#000" d="M285.147-146.401H174.853M174.853-146.401c-6 0-12 6-12 12M162.853-134.401v34.802M162.853-99.599c0 6 6 12 12 12M174.853-87.599h110.294M285.147-87.599c6 0 12-6 12-12M297.147-99.599V-134.4M297.147-134.401c0-6-6-12-12-12"/><text text-anchor="middle" x="230" y="-129.6" font-family="Times,serif" font-size="14">ExpressionStatement</text><text text-anchor="middle" x="230" y="-112.8" font-family="Times,serif" font-size="14">CallExpression</text><text text-anchor="middle" x="230" y="-96" font-family="Times,serif" font-size="14">Identifier (bar)</text></g><g class="edge"><path fill="none" stroke="#000" d="M98.775-207.789C114.624-197.523 135.053-184.16 153-172c9.409 6.375 19.395 13.276 28.947 19.945"/><path stroke="#000" d="m184.021-154.875 6.184 8.602-10.199-2.868 4.015-5.734z"/></g><g class="edge"><path fill="none" stroke="#000" d="M78.75-171.706c-.004-9.004-.263-18.001-.776-25.969"/><path stroke="#000" d="m74.472-197.549 2.643-10.26 4.332 9.669-6.975.591z"/></g><g class="edge"><path fill="none" stroke="#000" d="M230-87.587v51.158"/><path stroke="#000" d="m233.5-36.02-3.5 10-3.5-10h7z"/></g></g></svg>